<svg xmlns="http://www.w3.org/2000/svg" xmlns:xlink="http://www.w3.org/1999/xlink" viewBox="0 0 2513.1 1542.6"><defs><style>.cls-1{fill:none;}.cls-2{isolation:isolate;}.cls-3{fill:#2b5dad;}.cls-4{fill:#1b45a1;}.cls-5{fill:url(#Безымянный_градиент_22);}.cls-6{fill:url(#Безымянный_градиент_22-2);}.cls-7{fill:#65ace4;}.cls-8{fill:url(#Безымянный_градиент_94);}.cls-9{fill:url(#Безымянный_градиент_94-2);}.cls-10,.cls-31{fill:#fff;}.cls-11{fill:url(#Безымянный_градиент_94-3);}.cls-12{fill:url(#Безымянный_градиент_94-4);}.cls-13{fill:#3b77d9;}.cls-14{fill:#1f57b5;}.cls-15{fill:#153f9c;}.cls-16{fill:#9dd2f2;}.cls-17{fill:#2a66c6;}.cls-18,.cls-26{fill:#79c3f0;}.cls-19,.cls-25{fill:#99a8c2;mix-blend-mode:multiply;}.cls-19,.cls-26{opacity:0.3;}.cls-20{fill:#316ccc;}.cls-21{clip-path:url(#clip-path);}.cls-22{mix-blend-mode:overlay;}.cls-23{fill:url(#Безымянный_градиент_8);}.cls-24{fill:url(#Безымянный_градиент_8-2);}.cls-25{opacity:0.5;}.cls-27{fill:#3973cf;}.cls-28{fill:#fb8627;}.cls-29{fill:#3aa1e0;}.cls-30{opacity:0.8;}.cls-31{opacity:0.7;}.cls-32{fill:#ffc34e;}.cls-33{fill:#0e3a82;}.cls-34{fill:#0f2d5c;}.cls-35{fill:url(#Безымянный_градиент_37);}.cls-36{fill:url(#Безымянный_градиент_37-2);}.cls-37{fill:#f09959;}.cls-38{fill:#e38540;}.cls-39{fill:url(#Безымянный_градиент_12);}.cls-40{fill:url(#Безымянный_градиент_37-3);}.cls-41{fill:url(#Безымянный_градиент_37-4);}.cls-42{fill:url(#Безымянный_градиент_37-5);}</style><linearGradient id="Безымянный_градиент_22" x1="729.12" y1="1381.66" x2="706.69" y2="701.49" gradientUnits="userSpaceOnUse"><stop offset="0" stop-color="#2a66c6"/><stop offset="1" stop-color="#79c3f0"/></linearGradient><linearGradient id="Безымянный_градиент_22-2" x1="931.24" y1="1659.26" x2="228.14" y2="1224.68" xlink:href="#Безымянный_градиент_22"/><linearGradient id="Безымянный_градиент_94" x1="588.9" y1="665.53" x2="1186.15" y2="306.62" gradientUnits="userSpaceOnUse"><stop offset="0" stop-color="#6bbeff"/><stop offset="1" stop-color="#0c3aa1"/></linearGradient><linearGradient id="Безымянный_градиент_94-2" x1="2483.72" y1="1137.43" x2="1959.37" y2="1726.27" xlink:href="#Безымянный_градиент_94"/><linearGradient id="Безымянный_градиент_94-3" x1="2369.45" y1="610" x2="2341.41" y2="1142.79" gradientTransform="translate(-168.1 477.7) rotate(-8.5)" xlink:href="#Безымянный_градиент_94"/><linearGradient id="Безымянный_градиент_94-4" x1="2369.05" y1="609.98" x2="2341.01" y2="1142.77" gradientTransform="matrix(0.65, 0.76, -0.76, 0.65, 1357.89, -1395.61)" xlink:href="#Безымянный_градиент_94"/><clipPath id="clip-path" transform="translate(-243.4 -188.7)"><path class="cls-1" d="M1496.5,576.2c72.1,0,166.8-27.1,196-36,4.4-1.4,9,1.6,9,5.9V746.6c0,154.9-201.9,280.4-201.9,280.4s-201.8-125.5-201.8-280.4V555.4c0-4.1,4.2-7.1,8.5-6.1C1334.2,556,1424.5,576.2,1496.5,576.2Z"/></clipPath><linearGradient id="Безымянный_градиент_8" x1="2237.39" y1="444.6" x2="1775.04" y2="1182.9" gradientTransform="matrix(-1, 0, 0, 1, 3346.17, 0)" gradientUnits="userSpaceOnUse"><stop offset="0" stop-color="#fff"/><stop offset="1"/></linearGradient><linearGradient id="Безымянный_градиент_8-2" x1="2154.02" y1="392.4" x2="1691.67" y2="1130.69" xlink:href="#Безымянный_градиент_8"/><linearGradient id="Безымянный_градиент_37" x1="797.23" y1="1291.29" x2="609.62" y2="1629.64" gradientUnits="userSpaceOnUse"><stop offset="0" stop-color="#ffc34e"/><stop offset="1" stop-color="#fb8627"/></linearGradient><linearGradient id="Безымянный_градиент_37-2" x1="827.93" y1="1304.74" x2="622.01" y2="1676.11" xlink:href="#Безымянный_градиент_37"/><linearGradient id="Безымянный_градиент_12" x1="819.3" y1="1406.19" x2="630.61" y2="1638.87" gradientUnits="userSpaceOnUse"><stop offset="0" stop-color="#8fd4ff"/><stop offset="1" stop-color="#1355bf"/></linearGradient><linearGradient id="Безымянный_градиент_37-3" x1="1986.17" y1="804.39" x2="2368.08" y2="1249.26" xlink:href="#Безымянный_градиент_37"/><linearGradient id="Безымянный_градиент_37-4" x1="2120.99" y1="770.69" x2="2165.41" y2="822.43" xlink:href="#Безымянный_градиент_37"/><linearGradient id="Безымянный_градиент_37-5" x1="1902.43" y1="1048.58" x2="2308.91" y2="829.49" xlink:href="#Безымянный_градиент_37"/></defs><title>4560</title><g class="cls-2"><g id="Слой_1" data-name="Слой 1"><path class="cls-3" d="M443.6,1285.5S152.1,917.7,275,935.2s223.7,186.4,223.7,186.4-116.6-452-78.8-472.9S449,587,410.3,481.9s107.8-36.8,126,36.8,75.4,268.1,141.6,317.5,99.9,85.1,99.9,85.1L1192.7,556s129.1-143.2,205.1-166.1-55.2,130.6-44.5,141.8,257-307.8,325.8-244.9-146.2,240.5-146.2,240.5L2099.4,556s251-3.2,286-62.9,91.1-59.7,124.6-59.7,133.6,28.2,53.7,74.2S2480,561.8,2495,624.8,2432.6,807,2343.8,848.4s-208.6,189.8-208.6,189.8l4.3,141.8S2554.8,893.4,2607,956.6s-221.6,245-221.6,245,2.4,87.2-20.5,150.6-119.2,65.9-177.8,96.5,255.3-13.4,292.8-102.8,306.1-176.8,268.8-78.3-70.3,151.7-70.3,151.7,99.8,11.6,73.9,74.6-265.7,102.9-349.2,104.2-1538.5-9.6-1538.5-9.6Z" transform="translate(-243.4 -188.7)"/><polygon class="cls-4" points="715.6 1175.1 745.1 1377.1 1871.4 1406.2 1899.2 1169.4 715.6 1175.1"/><path class="cls-5" d="M1042.6,1580.4s-52.9-538-339.9-702.6S401,692,401,692s-16.2,381.9,175.8,616.6,396,282,396,282Z" transform="translate(-243.4 -188.7)"/><path class="cls-6" d="M931.7,1597.3s-79.6-294.1-316.9-346.2-371.4,15.1-371.4,15.1,125.7,354,309.9,374.5C760.8,1663.9,931.7,1597.3,931.7,1597.3Z" transform="translate(-243.4 -188.7)"/><path class="cls-7" d="M946.4,1599.4a4.4,4.4,0,0,1-2.9-1.1c-.8-.7-77.4-72.5-195.1-144.6-108.5-66.4-275.2-146.6-452.9-151.8a4.4,4.4,0,0,1-4.2-4.4,4.3,4.3,0,0,1,4.4-4.1c79.4,2.3,163.2,19.5,249,51,68.6,25.2,138.7,59.6,208.3,102.2,118.4,72.5,195.5,144.8,196.3,145.5a4.3,4.3,0,0,1,.2,6A4.3,4.3,0,0,1,946.4,1599.4Z" transform="translate(-243.4 -188.7)"/><path class="cls-7" d="M974.9,1570a4.4,4.4,0,0,1-4-2.8c-.5-1.6-55.9-156.6-152-344.5-54.2-106.1-135.1-180.8-213.3-253.1C545.3,913.8,488.3,861.1,451,799.4a4.3,4.3,0,0,1,7.3-4.4c36.6,60.6,93.2,113,153.1,168.4,78.7,72.8,160.1,148,215.1,255.4,96.4,188.4,151.9,344,152.4,345.5a4.3,4.3,0,0,1-2.5,5.5Z" transform="translate(-243.4 -188.7)"/><path class="cls-7" d="M383.4,1442.6a4.4,4.4,0,0,1-3.7-2.1,4.2,4.2,0,0,1,1.5-5.8,448.1,448.1,0,0,1,163.2-57.2c43.1-6.1,71-3.4,72.1-3.3a4.3,4.3,0,0,1,3.9,4.6,4.4,4.4,0,0,1-4.7,3.8c-.3,0-28.2-2.6-70.4,3.4a440,440,0,0,0-159.8,56A3.9,3.9,0,0,1,383.4,1442.6Z" transform="translate(-243.4 -188.7)"/><path class="cls-7" d="M496.2,1555.5a4.3,4.3,0,0,1-3.1-1.2,4.3,4.3,0,0,1,.1-6c.9-.9,23.5-22.7,65.3-47.1a481.5,481.5,0,0,1,182-61.1,4.2,4.2,0,0,1,4.7,3.7,4.1,4.1,0,0,1-3.7,4.7,472.3,472.3,0,0,0-178.7,60.1c-41,23.8-63.5,45.5-63.7,45.7A4.2,4.2,0,0,1,496.2,1555.5Z" transform="translate(-243.4 -188.7)"/><path class="cls-7" d="M647.8,1062.5c-6.1,0-12.6-.1-19.5-.4-40.1-1.8-101.5-10.2-166.4-40.1a4.2,4.2,0,0,1-2.1-5.6,4.3,4.3,0,0,1,5.7-2.1c63.6,29.3,123.8,37.5,163.2,39.3,42.5,1.9,70.3-3.2,70.5-3.3a4.3,4.3,0,0,1,1.6,8.4C699.8,1058.9,680,1062.5,647.8,1062.5Z" transform="translate(-243.4 -188.7)"/><path class="cls-7" d="M715,1213.1c-39.5,0-94.6-4.7-164-21.5a4.2,4.2,0,0,1-3.1-5.1,4.3,4.3,0,0,1,5.1-3.2c88.6,21.5,153.3,22.9,191.9,20.3,41.8-2.8,63-10.8,63.2-10.9a4.3,4.3,0,0,1,5.5,2.5,4.3,4.3,0,0,1-2.4,5.4c-.9.4-22.2,8.5-65.2,11.5C737.1,1212.7,726.7,1213.1,715,1213.1Z" transform="translate(-243.4 -188.7)"/><path class="cls-4" d="M2477.4,1619.6c-24.2-9.6-52.9-20-82.9-31.1-143.5-53.2-576.2-112.6-921.3-89.3-95.1,6.4-366.4,40.1-498.3,41.6-145.2,1.8-71.7,66.1-427.9,79.6s-193,49.6-47.2,84.9c96,23.3,370.5,15.9,649.9,8.1-8.3,1.1-7.3,1.2,4.9-.1l132.6-3.6c163.2,2,400,17.6,575.3,19.1,233.1,1.9,691.3,14.1,731.6-39.8C2614.5,1661.8,2559.2,1637.3,2477.4,1619.6Z" transform="translate(-243.4 -188.7)"/><path class="cls-8" d="M995.3,600.1a240.4,240.4,0,0,0,1.6-28.3c0-5-.2-10-.5-15l-46.7-15.2a203.7,203.7,0,0,0-16.6-56l31-38.1a245.1,245.1,0,0,0-24.5-35.7L892.8,427a209.2,209.2,0,0,0-46.3-35.6l2.7-49.1a257.6,257.6,0,0,0-40.9-14.5l-28.8,39.9a205.9,205.9,0,0,0-58.4-1.5l-26.8-41.4a251.3,251.3,0,0,0-41.5,12.3v49.2a210.6,210.6,0,0,0-48.2,33.1l-45.8-17.7a253.7,253.7,0,0,0-26.5,34.4l29,39.7a204.1,204.1,0,0,0-19.5,55.1l-47.5,12.6a263.9,263.9,0,0,0-1.6,28.3c0,5.1.2,10.1.5,15L540,602a207.2,207.2,0,0,0,16.6,56l-31,38.2a256.4,256.4,0,0,0,24.5,35.7l46.8-15.3a209.2,209.2,0,0,0,46.3,35.6l-2.7,49.1a248,248,0,0,0,40.9,14.5l28.8-39.9a209.2,209.2,0,0,0,34.7,2.9,206.6,206.6,0,0,0,23.7-1.3l26.8,41.3a242,242,0,0,0,41.5-12.3V757.3A207.4,207.4,0,0,0,885,724.2l45.8,17.7a252.8,252.8,0,0,0,26.5-34.3l-29-39.8a204.1,204.1,0,0,0,19.5-55.1ZM744.9,670.7a98.9,98.9,0,1,1,98.8-98.9A98.9,98.9,0,0,1,744.9,670.7Z" transform="translate(-243.4 -188.7)"/><path class="cls-9" d="M2566.1,1505.7a328.9,328.9,0,0,0,17.3-30.2q4.2-8.4,7.8-16.8l-43.1-42.4a251.1,251.1,0,0,0,12.6-70.7l55.1-24.9a312.1,312.1,0,0,0-7.3-52.8l-59.9-8.9a253.8,253.8,0,0,0-31.3-64.6l30-52.6a304.5,304.5,0,0,0-37-38.4l-53.7,27.9a256.1,256.1,0,0,0-36.4-22.2,262.8,262.8,0,0,0-26.9-11.6l-6.7-60.2a316.4,316.4,0,0,0-52.4-9.3l-27,54.1a258.3,258.3,0,0,0-71.2,9.9l-40.7-44.7a307,307,0,0,0-47.9,23.3l9.9,59.6a256.8,256.8,0,0,0-51.8,49.8l-59.1-12.2A308,308,0,0,0,2029,1198c-2.7,5.6-5.3,11.2-7.7,16.8l43.1,42.4a252.6,252.6,0,0,0-12.7,70.7l-55.1,24.9a312.2,312.2,0,0,0,7.4,52.8l59.8,9a257.2,257.2,0,0,0,31.3,64.6l-29.9,52.5a304,304,0,0,0,36.9,38.4l53.7-27.9a251.7,251.7,0,0,0,36.5,22.2,234.6,234.6,0,0,0,26.9,11.6l6.6,60.2a298,298,0,0,0,52.5,9.3l27-54.1a253.8,253.8,0,0,0,71.1-9.9l40.7,44.7a307.5,307.5,0,0,0,48-23.2l-10-59.7a249.1,249.1,0,0,0,51.8-49.8Zm-314.3-60.2a121.6,121.6,0,1,1,163.1-54.3A121.7,121.7,0,0,1,2251.8,1445.5Z" transform="translate(-243.4 -188.7)"/><path class="cls-10" d="M2394.5,1535.9a5,5,0,0,1-2-9.6,205.7,205.7,0,0,0,120.8-160.5,4.9,4.9,0,0,1,5.6-4.3,4.9,4.9,0,0,1,4.3,5.6,215.2,215.2,0,0,1-126.7,168.4A4.8,4.8,0,0,1,2394.5,1535.9Z" transform="translate(-243.4 -188.7)"/><path class="cls-10" d="M2507.2,1271.4a4.9,4.9,0,0,1-4.7-3.2,204.1,204.1,0,0,0-43.6-70.5,4.9,4.9,0,0,1,.1-7,5,5,0,0,1,7.1.1,215.4,215.4,0,0,1,45.8,73.9,5,5,0,0,1-3,6.4Z" transform="translate(-243.4 -188.7)"/><path class="cls-10" d="M2404.1,1156a4.8,4.8,0,0,1-2.3-.5,205.4,205.4,0,0,0-47.7-16.9,5,5,0,0,1-3.8-6,4.9,4.9,0,0,1,5.9-3.8,215.3,215.3,0,0,1,50.1,17.8,5,5,0,0,1-2.2,9.4Z" transform="translate(-243.4 -188.7)"/><path class="cls-11" d="M2223.6,1109a183.2,183.2,0,0,0,21.2,5.6c3.8.8,7.7,1.4,11.5,2l18.7-33.2a156.7,156.7,0,0,0,45-3.9l24.2,29.4a195.2,195.2,0,0,0,30.8-13.1l-4.3-37.8a160.6,160.6,0,0,0,34.1-29.6l36.9,9.6a198,198,0,0,0,17.3-28.8l-25.8-28a159.4,159.4,0,0,0,7.5-25.8,164.8,164.8,0,0,0,2.7-18.3l35.4-13.9a194.7,194.7,0,0,0-2.9-33.4l-37.3-7.5a159.5,159.5,0,0,0-17.7-41.6l20.5-32.1a202.5,202.5,0,0,0-21.9-25.4l-34.7,15.9a152.8,152.8,0,0,0-38.7-23.3l-2.3-38a205.9,205.9,0,0,0-21.2-5.6c-3.8-.8-7.7-1.4-11.5-1.9l-18.7,33.1a156.7,156.7,0,0,0-45,3.9l-24.2-29.4a200.3,200.3,0,0,0-30.9,13.1l4.4,37.8a158.3,158.3,0,0,0-34.1,29.7l-36.9-9.6a191.8,191.8,0,0,0-17.3,28.7l25.8,28.1a153.8,153.8,0,0,0-7.5,25.8,163.1,163.1,0,0,0-2.7,18.2l-35.4,13.9a185.2,185.2,0,0,0,2.9,33.4l37.3,7.6a159.5,159.5,0,0,0,17.7,41.6l-20.5,32a189.3,189.3,0,0,0,21.9,25.4l34.7-15.8a158.8,158.8,0,0,0,38.7,23.3Zm-14.9-200.8a76.5,76.5,0,1,1,59.7,90.2A76.5,76.5,0,0,1,2208.7,908.2Z" transform="translate(-243.4 -188.7)"/><circle class="cls-12" cx="2282.6" cy="915.9" r="46" transform="translate(54.3 2179.6) rotate(-58.1)"/><path class="cls-13" d="M1742.1,1567.4V1358.1H1257.2v209.3H1099.5a53,53,0,0,0-53,53v12.9a17.3,17.3,0,0,0,17.2,17.3h871.9a17.3,17.3,0,0,0,17.2-17.3v-12.9a53,53,0,0,0-53-53Z" transform="translate(-243.4 -188.7)"/><polygon class="cls-14" points="1013.7 1312.9 1498.7 1275.5 1498.7 1187.3 1013.7 1192.5 1013.7 1312.9"/><polygon class="cls-14" points="1498.7 1344.4 1013.7 1378.8 1498.7 1378.8 1498.7 1344.4"/><rect class="cls-15" x="498.4" y="293.3" width="1515.7" height="923.98" rx="26"/><rect class="cls-16" x="541" y="330.9" width="1430.5" height="792.8" rx="23.4"/><rect class="cls-17" x="1192.6" y="1162.9" width="127.2" height="24.39" rx="10.6"/><rect class="cls-18" x="1319.8" y="1393.6" width="354.9" height="25.16" rx="11.2"/><path class="cls-19" d="M1512.9,594.3c75.8,0,175.5-28.5,206.2-37.9,4.7-1.5,9.5,1.7,9.5,6.2v211c0,163-212.4,295.1-212.4,295.1s-212.4-132.1-212.4-295.1V572.4c0-4.3,4.4-7.5,9-6.4C1342.1,573,1437.1,594.3,1512.9,594.3Z" transform="translate(-243.4 -188.7)"/><path class="cls-4" d="M1496.5,576.2c72.1,0,166.8-27.1,196-36,4.4-1.4,9,1.6,9,5.9V746.6c0,154.9-201.9,280.4-201.9,280.4s-201.8-125.5-201.8-280.4V555.4c0-4.1,4.2-7.1,8.5-6.1C1334.2,556,1424.5,576.2,1496.5,576.2Z" transform="translate(-243.4 -188.7)"/><path class="cls-20" d="M1499.6,609.2c54.1,0,121.3-17.7,155.1-31.7,10.1-4.2,21.5,2.5,21.5,12.7V751c0,135.5-176.6,245.3-176.6,245.3S1323.1,886.5,1323.1,751V597.2c0-9.8,10.6-16.5,20.6-13.1C1377.1,595.5,1445.1,609.2,1499.6,609.2Z" transform="translate(-243.4 -188.7)"/><path class="cls-18" d="M1501.5,652.8V953.5s-140.4-89.4-140.4-195.7V635.9c0-7.1,7.8-12,15-9.5C1402.3,635.5,1457.9,652.8,1501.5,652.8Z" transform="translate(-243.4 -188.7)"/><path class="cls-18" d="M1501.5,652.8V953.5s145.4-89.4,145.4-195.7V635.6c0-7-7.6-11.9-14.8-9.5C1604.9,635.1,1545.7,652.8,1501.5,652.8Z" transform="translate(-243.4 -188.7)"/><path class="cls-17" d="M1446.3,725.2l6.4,4.9c2,1.7,4,3.3,6,5.1l5.8,5.5,2.8,2.9,2.7,2.9c1.9,1.9,3.6,3.8,5.4,5.8l5.1,6.1c1.7,2,3.2,4.2,4.9,6.3l2.3,3.1,2.4,3.3c1.5,2.1,3,4.3,4.4,6.5s2.9,4.5,4.3,6.7,2.7,4.6,4,6.9l2,3.5,1.8,3.5c.6,1.2,1.3,2.3,1.8,3.5l1.7,3.7c1.2,2.4,2.2,4.8,3.2,7.3s2,5,2.9,7.6.8,2.6,1.3,3.9l.6,2,.6,2.2-27.8-1.7c.6-1,1-1.9,1.6-2.8l1.6-2.7c1-1.8,2.1-3.5,3.2-5.3l6.5-10.4,13.2-20.7c4.4-6.9,9-13.7,13.7-20.4s9.6-13.2,14.7-19.6,10.2-12.8,15.7-18.9,11-12.1,16.8-17.8a235.6,235.6,0,0,1,18.4-16.3c3.2-2.6,6.5-5,9.8-7.4s6.8-4.5,10.4-6.5a1.5,1.5,0,0,1,2,.5,1.5,1.5,0,0,1-.3,1.9c-3,2.6-6,5.3-8.8,8.1s-5.5,5.7-8.2,8.6-5.2,5.9-7.7,9-5,6.2-7.3,9.3c-4.8,6.3-9.4,12.8-13.7,19.4-2.1,3.3-4.3,6.6-6.4,10s-4.1,6.7-6.1,10.1c-4.1,6.8-8,13.7-11.8,20.6s-7.5,13.9-11.1,21c-1.8,3.5-3.6,7-5.3,10.6s-3.3,7.1-4.9,10.7-3.1,7.3-4.6,11l-2.2,5.4-2,5.3-12.8,32.7-15.1-34.3-5.6-13c-.6-1.1-1-2.2-1.5-3.3l-1.5-3.4-2.9-6.8-11.6-27.4c-.9-2.3-2-4.6-2.9-6.9l-1.5-3.5-1.5-3.4c-.9-2.4-1.9-4.7-2.9-7l-3-7.1c-1-2.3-1.9-4.7-2.9-7l-2.9-7.2c-.9-2.4-2-4.8-2.9-7.3s-1.9-5-2.7-7.5a1.5,1.5,0,0,1,1-2A1.4,1.4,0,0,1,1446.3,725.2Z" transform="translate(-243.4 -188.7)"/><g class="cls-21"><g class="cls-22"><path class="cls-23" d="M1353.4,744.6c18.6,60.8,29.1,156.7,34.1,213.3-52.1-48.5-103.8-105.7-106.4-135.7-3.2-37.4-9.6-145.3-8.5-220.3C1294.1,627.5,1333.7,680.5,1353.4,744.6Z" transform="translate(-243.4 -188.7)"/><path class="cls-24" d="M1450.8,866c-15.3-70.9-59.2-247.6-176.7-302.5,1.7-23.3,5-38.4,10.3-38.7,21.6-1.3,47,11.1,47,11.1,114.8-.7,170.9,173.5,176.2,203.5s-.7,295-11.8,302.1c-2.4,1.6-13.7-5.2-30-17.3C1465.3,992.3,1463,922.4,1450.8,866Z" transform="translate(-243.4 -188.7)"/></g></g><path class="cls-25" d="M2257.5,649.5H1888.3a10.7,10.7,0,0,0-10.6,10.6V714a10.7,10.7,0,0,0,10.6,10.6h369.2Z" transform="translate(-243.4 -188.7)"/><rect class="cls-20" x="1609.5" y="436.1" width="523.8" height="75.08" rx="10.6"/><rect class="cls-10" x="1623.2" y="449.6" width="496.4" height="48.01" rx="8.3"/><path class="cls-20" d="M1923,677.2a3.9,3.9,0,0,1-3.9-4V649.3a3.9,3.9,0,0,1,3.9-3.9,4,4,0,0,1,4,3.9v23.9A4,4,0,0,1,1923,677.2Z" transform="translate(-243.4 -188.7)"/><path class="cls-20" d="M1936.3,670a3.9,3.9,0,0,1-5.5,1.2L1910.9,658a3.9,3.9,0,0,1-1.2-5.5,4,4,0,0,1,5.5-1.1l20,13.1A4,4,0,0,1,1936.3,670Z" transform="translate(-243.4 -188.7)"/><path class="cls-20" d="M1909.9,670.3a4,4,0,0,1,1.1-5.5l19.6-13.6a4,4,0,0,1,5.5,1,4,4,0,0,1-1,5.6l-19.6,13.5A4,4,0,0,1,1909.9,670.3Z" transform="translate(-243.4 -188.7)"/><path class="cls-20" d="M1978.9,677.2a3.9,3.9,0,0,1-3.9-4V649.3a3.9,3.9,0,0,1,3.9-3.9,4,4,0,0,1,4,3.9v23.9A4,4,0,0,1,1978.9,677.2Z" transform="translate(-243.4 -188.7)"/><path class="cls-20" d="M1992.2,670a3.9,3.9,0,0,1-5.5,1.2L1966.8,658a3.9,3.9,0,1,1,4.3-6.6l20,13.1A4,4,0,0,1,1992.2,670Z" transform="translate(-243.4 -188.7)"/><path class="cls-20" d="M1965.9,670.3a3.9,3.9,0,0,1,1-5.5l19.6-13.6a4,4,0,0,1,5.5,1,4,4,0,0,1-1,5.6l-19.6,13.5A3.9,3.9,0,0,1,1965.9,670.3Z" transform="translate(-243.4 -188.7)"/><path class="cls-20" d="M2034.8,677.2a4,4,0,0,1-3.9-4V649.3a4,4,0,0,1,7.9,0v23.9A4,4,0,0,1,2034.8,677.2Z" transform="translate(-243.4 -188.7)"/><path class="cls-20" d="M2048.1,670a3.9,3.9,0,0,1-5.5,1.2L2022.7,658a4,4,0,0,1-1.2-5.5,4.1,4.1,0,0,1,5.6-1.1l19.9,13.1A4,4,0,0,1,2048.1,670Z" transform="translate(-243.4 -188.7)"/><path class="cls-20" d="M2021.8,670.3a3.9,3.9,0,0,1,1-5.5l19.6-13.6a4,4,0,0,1,5.5,1,4,4,0,0,1-1,5.6l-19.6,13.5A3.9,3.9,0,0,1,2021.8,670.3Z" transform="translate(-243.4 -188.7)"/><path class="cls-20" d="M2090.7,677.2a4,4,0,0,1-3.9-4V649.3a4,4,0,0,1,7.9,0v23.9A4,4,0,0,1,2090.7,677.2Z" transform="translate(-243.4 -188.7)"/><path class="cls-20" d="M2104,670a3.9,3.9,0,0,1-5.5,1.2L2078.6,658a4,4,0,1,1,4.4-6.6l19.9,13.1A4,4,0,0,1,2104,670Z" transform="translate(-243.4 -188.7)"/><path class="cls-20" d="M2077.7,670.3a3.9,3.9,0,0,1,1-5.5l19.6-13.6a4,4,0,0,1,5.5,1,4,4,0,0,1-1,5.6l-19.6,13.5A3.9,3.9,0,0,1,2077.7,670.3Z" transform="translate(-243.4 -188.7)"/><path class="cls-20" d="M2146.7,677.2a4,4,0,0,1-4-4V649.3a4,4,0,0,1,7.9,0v23.9A4,4,0,0,1,2146.7,677.2Z" transform="translate(-243.4 -188.7)"/><path class="cls-20" d="M2159.9,670a3.9,3.9,0,0,1-5.5,1.2L2134.5,658a4,4,0,1,1,4.4-6.6l19.9,13.1A4,4,0,0,1,2159.9,670Z" transform="translate(-243.4 -188.7)"/><path class="cls-20" d="M2133.6,670.3a3.9,3.9,0,0,1,1-5.5l19.6-13.6a4,4,0,0,1,5.5,1,4,4,0,0,1-1,5.6l-19.6,13.5A3.9,3.9,0,0,1,2133.6,670.3Z" transform="translate(-243.4 -188.7)"/><rect class="cls-20" x="1944.7" y="480.5" width="38.7" height="5.3" rx="2.6"/><rect class="cls-20" x="2001.8" y="480.5" width="38.7" height="5.3" rx="2.6"/><rect class="cls-20" x="2056.2" y="480.5" width="38.7" height="5.3" rx="2.6"/><path class="cls-10" d="M1122.3,908.2l-121.4,121.4a10.7,10.7,0,0,1-15,0L864.5,908.2a10.5,10.5,0,0,1,0-15L985.9,771.8a10.7,10.7,0,0,1,15,0l121.4,121.4A10.7,10.7,0,0,1,1122.3,908.2Z" transform="translate(-243.4 -188.7)"/><path class="cls-18" d="M1113.3,907.7l-113,113a9.9,9.9,0,0,1-13.9,0l-113-113a10,10,0,0,1,0-14l113-112.9a9.7,9.7,0,0,1,13.9,0l113,112.9A9.8,9.8,0,0,1,1113.3,907.7Z" transform="translate(-243.4 -188.7)"/><rect class="cls-10" x="618.5" y="700.9" width="262.9" height="164.33" rx="9.9"/><path class="cls-26" d="M1124.8,898.8c0-5.1.4-5-4.6-8.2a12.4,12.4,0,0,0-5.2-1c-260.8,0-244.9-.5-248.5,1-4.9,3.1-4.6,2.9-4.6,8.2,1.1,2.2-7.3-3.7,124,80.2,4.1,2.6,10.8,2.6,15,0C1132.2,895.1,1123.7,901,1124.8,898.8Z" transform="translate(-243.4 -188.7)"/><ellipse class="cls-27" cx="804.2" cy="581.1" rx="54.6" ry="37"/><rect class="cls-27" x="771.9" y="594.3" width="64.6" height="42.73" rx="9.9"/><path class="cls-4" d="M1042.1,764.1c0,9-6,25.5-13.4,25.5s-13.4-7.5-15.9-16.2c-3.5-12.3,4.1-17.4,11.3-19.4S1042.1,755,1042.1,764.1Z" transform="translate(-243.4 -188.7)"/><path class="cls-4" d="M1051.4,764.1c0,9,6,25.5,13.4,25.5s13.4-7.5,15.9-16.2c3.5-12.3-4.1-17.4-11.3-19.4S1051.4,755,1051.4,764.1Z" transform="translate(-243.4 -188.7)"/><path class="cls-4" d="M1047.6,785.2c6,0,8,20,5.2,20.8s-8.5,1.7-10.7,0S1043.2,785.2,1047.6,785.2Z" transform="translate(-243.4 -188.7)"/><ellipse class="cls-27" cx="695.8" cy="470.9" rx="57.5" ry="39"/><rect class="cls-27" x="661.8" y="484.8" width="68" height="44.94" rx="10.4"/><path class="cls-4" d="M933.5,653.6c0,9.5-6.4,26.8-14.2,26.8s-14-7.8-16.7-17c-3.7-12.9,4.4-18.2,11.8-20.4C923.4,640.4,933.5,644,933.5,653.6Z" transform="translate(-243.4 -188.7)"/><path class="cls-4" d="M943.2,653.6c0,9.5,6.3,26.8,14.1,26.8s14-7.8,16.7-17c3.7-12.9-4.3-18.2-11.8-20.4S943.2,644,943.2,653.6Z" transform="translate(-243.4 -188.7)"/><path class="cls-4" d="M939.2,675.8c6.4,0,8.4,21,5.5,21.9s-8.9,1.7-11.2,0S934.6,675.8,939.2,675.8Z" transform="translate(-243.4 -188.7)"/><ellipse class="cls-27" cx="900.6" cy="452.6" rx="30.6" ry="20.7"/><rect class="cls-27" x="882.5" y="460" width="36.2" height="23.94" rx="5.5"/><path class="cls-4" d="M1141,638.1c0,5-3.4,14.2-7.5,14.2s-7.5-4.1-8.9-9c-2-6.9,2.3-9.7,6.3-10.9S1141,633,1141,638.1Z" transform="translate(-243.4 -188.7)"/><path class="cls-4" d="M1146.2,638.1c0,5,3.3,14.2,7.5,14.2s7.5-4.1,8.9-9c2-6.9-2.3-9.7-6.3-10.9S1146.2,633,1146.2,638.1Z" transform="translate(-243.4 -188.7)"/><path class="cls-4" d="M1144.1,649.9c3.4,0,4.4,11.2,2.9,11.6s-4.8,1-6,0S1141.6,649.9,1144.1,649.9Z" transform="translate(-243.4 -188.7)"/><ellipse class="cls-27" cx="699.2" cy="663.3" rx="30.6" ry="20.7"/><rect class="cls-27" x="681.1" y="670.7" width="36.2" height="23.94" rx="5.5"/><path class="cls-4" d="M939.6,848.8c0,5.1-3.4,14.3-7.5,14.3s-7.5-4.2-8.9-9.1c-2-6.9,2.3-9.7,6.3-10.9S939.6,843.7,939.6,848.8Z" transform="translate(-243.4 -188.7)"/><path class="cls-4" d="M944.8,848.8c0,5.1,3.3,14.3,7.5,14.3s7.5-4.2,8.9-9.1c2-6.9-2.3-9.7-6.3-10.9S944.8,843.7,944.8,848.8Z" transform="translate(-243.4 -188.7)"/><path class="cls-4" d="M942.7,860.6c3.4,0,4.4,11.2,2.9,11.7s-4.8.9-6,0S940.2,860.6,942.7,860.6Z" transform="translate(-243.4 -188.7)"/><ellipse class="cls-27" cx="791.8" cy="312.7" rx="71.6" ry="48.5"/><rect class="cls-27" x="749.5" y="330" width="84.7" height="55.96" rx="12.9"/><path class="cls-4" d="M1028.1,493.9c0,11.9-7.9,33.4-17.6,33.4s-17.5-9.7-20.8-21.1c-4.7-16.2,5.4-22.8,14.7-25.5C1015.5,477.5,1028.1,482,1028.1,493.9Z" transform="translate(-243.4 -188.7)"/><path class="cls-4" d="M1040.1,493.9c0,11.9,7.9,33.4,17.6,33.4s17.5-9.7,20.8-21.1c4.7-16.2-5.4-22.8-14.7-25.5C1052.7,477.5,1040.1,482,1040.1,493.9Z" transform="translate(-243.4 -188.7)"/><path class="cls-4" d="M1035.2,521.6c7.9,0,10.4,26.2,6.8,27.3s-11.1,2.1-13.9,0S1029.5,521.6,1035.2,521.6Z" transform="translate(-243.4 -188.7)"/><path class="cls-27" d="M1103.3,1017.4h-88.7a2.7,2.7,0,1,1,0-5.3h88.7a2.7,2.7,0,0,1,0,5.3Z" transform="translate(-243.4 -188.7)"/><path class="cls-27" d="M1103.3,1028.9h-88.7a2.7,2.7,0,1,1,0-5.3h88.7a2.7,2.7,0,0,1,0,5.3Z" transform="translate(-243.4 -188.7)"/><path class="cls-28" d="M1035.6,561.7a82.1,82.1,0,1,1,82.1-82A82.1,82.1,0,0,1,1035.6,561.7Zm0-152.1a70.1,70.1,0,1,0,70.1,70.1A70.1,70.1,0,0,0,1035.6,409.6Z" transform="translate(-243.4 -188.7)"/><path class="cls-28" d="M1035.6,513.6a34,34,0,1,1,34-33.9A33.9,33.9,0,0,1,1035.6,513.6Zm0-55.9a22,22,0,1,0,22,22A22,22,0,0,0,1035.6,457.7Z" transform="translate(-243.4 -188.7)"/><path class="cls-28" d="M1133.1,485.7H937.4a6,6,0,0,1-6-6,6,6,0,0,1,6-6h195.7a6,6,0,0,1,6,6A6,6,0,0,1,1133.1,485.7Z" transform="translate(-243.4 -188.7)"/><path class="cls-28" d="M1035.6,577.8a6,6,0,0,1-6-6V385.7a6,6,0,0,1,6-6,6,6,0,0,1,6,6V571.8A6,6,0,0,1,1035.6,577.8Z" transform="translate(-243.4 -188.7)"/><path class="cls-28" d="M902.1,777.7a72.5,72.5,0,1,1,72.4-72.4A72.5,72.5,0,0,1,902.1,777.7Zm0-132.9a60.5,60.5,0,1,0,60.4,60.5A60.5,60.5,0,0,0,902.1,644.8Z" transform="translate(-243.4 -188.7)"/><path class="cls-28" d="M902.1,735.7a30.4,30.4,0,1,1,30.3-30.4A30.5,30.5,0,0,1,902.1,735.7Zm0-48.8a18.4,18.4,0,1,0,18.3,18.4A18.4,18.4,0,0,0,902.1,686.9Z" transform="translate(-243.4 -188.7)"/><path class="cls-28" d="M987.2,711.3h-171a6,6,0,0,1-6-6,6,6,0,0,1,6-6h171a6,6,0,0,1,6,6A6,6,0,0,1,987.2,711.3Z" transform="translate(-243.4 -188.7)"/><path class="cls-28" d="M902.1,791.8a6,6,0,0,1-6-6V623.2a6,6,0,0,1,6-6,6,6,0,0,1,6,6V785.8A6,6,0,0,1,902.1,791.8Z" transform="translate(-243.4 -188.7)"/><rect class="cls-29" x="1419.2" y="867.4" width="380.6" height="172.01" rx="7.2"/><rect class="cls-10" x="1429.6" y="912.6" width="359.8" height="118.74" rx="5.8"/><rect class="cls-10" x="1434.9" y="880.1" width="14.9" height="13.42" rx="3.2"/><rect class="cls-10" x="1462" y="880.1" width="14.9" height="13.42" rx="3.2"/><rect class="cls-10" x="1489.1" y="880.1" width="14.9" height="13.42" rx="3.2"/><path class="cls-29" d="M2018.2,1127.3H1827.9a5.7,5.7,0,0,1-5.7-5.7,5.8,5.8,0,0,1,5.7-5.7h190.3a5.7,5.7,0,0,1,5.7,5.7A5.6,5.6,0,0,1,2018.2,1127.3Z" transform="translate(-243.4 -188.7)"/><path class="cls-29" d="M1875.1,1215.2H1684.8a5.7,5.7,0,0,1-5.7-5.7,5.6,5.6,0,0,1,5.7-5.7h190.3a5.7,5.7,0,0,1,5.7,5.7A5.8,5.8,0,0,1,1875.1,1215.2Z" transform="translate(-243.4 -188.7)"/><rect class="cls-29" x="1645.1" y="1015.1" width="23.6" height="11.39" rx="1.9"/><rect class="cls-29" x="1674.7" y="1015.1" width="23.6" height="11.39" rx="1.9"/><path class="cls-29" d="M2020.1,1152.1H1704.9a3.9,3.9,0,1,1,0-7.7h315.2a3.9,3.9,0,0,1,0,7.7Z" transform="translate(-243.4 -188.7)"/><path class="cls-29" d="M2020.1,1168.8H1704.9a3.9,3.9,0,1,1,0-7.7h315.2a3.9,3.9,0,0,1,0,7.7Z" transform="translate(-243.4 -188.7)"/><path class="cls-20" d="M1833.9,864.5h-27.4a21.4,21.4,0,0,1-21.4-21.4V815.7a21.4,21.4,0,0,1,21.4-21.4h27.4a21.4,21.4,0,0,1,21.4,21.4v27.4A21.4,21.4,0,0,1,1833.9,864.5Zm-27.4-58.2a9.4,9.4,0,0,0-9.4,9.4v27.4a9.4,9.4,0,0,0,9.4,9.4h27.4a9.4,9.4,0,0,0,9.4-9.4V815.7a9.4,9.4,0,0,0-9.4-9.4Z" transform="translate(-243.4 -188.7)"/><g class="cls-30"><path class="cls-20" d="M1833.9,981.9h-27.4a22.5,22.5,0,0,1-22.4-22.4V932.1a22.4,22.4,0,0,1,22.4-22.4h27.4a22.4,22.4,0,0,1,22.4,22.4v27.4A22.4,22.4,0,0,1,1833.9,981.9Zm-27.4-58.2a8.5,8.5,0,0,0-8.4,8.4v27.4a8.5,8.5,0,0,0,8.4,8.4h27.4a8.5,8.5,0,0,0,8.4-8.4V932.1a8.5,8.5,0,0,0-8.4-8.4Z" transform="translate(-243.4 -188.7)"/></g><path class="cls-28" d="M1821.9,849.1h-.3a5.9,5.9,0,0,1-4.4-2.4l-19.7-25.6a6,6,0,0,1,1.1-8.4,5.9,5.9,0,0,1,8.4,1.1l15.4,20,43.1-46.1a5.9,5.9,0,1,1,8.7,8.1l-47.9,51.4A6,6,0,0,1,1821.9,849.1Z" transform="translate(-243.4 -188.7)"/><path class="cls-28" d="M1821.9,965.5h-.3a5.9,5.9,0,0,1-4.4-2.4l-19.7-25.6a6.1,6.1,0,0,1,1.1-8.5,6,6,0,0,1,8.4,1.2l15.4,20,43.1-46.2a6,6,0,1,1,8.7,8.2l-47.9,51.4A6,6,0,0,1,1821.9,965.5Z" transform="translate(-243.4 -188.7)"/><path class="cls-20" d="M1901.1,823H2108a6.5,6.5,0,0,0,6.5-6.5,6.6,6.6,0,0,0-6.5-6.6H1901.1a6.6,6.6,0,0,0-6.5,6.6A6.5,6.5,0,0,0,1901.1,823Z" transform="translate(-243.4 -188.7)"/><path class="cls-20" d="M1901.1,848.7H2055a6.6,6.6,0,0,0,6.5-6.6,6.5,6.5,0,0,0-6.5-6.5H1901.1a6.5,6.5,0,0,0-6.5,6.5A6.6,6.6,0,0,0,1901.1,848.7Z" transform="translate(-243.4 -188.7)"/><path class="cls-20" d="M1901.1,939.5H2108a6.5,6.5,0,0,0,6.5-6.5,6.6,6.6,0,0,0-6.5-6.6H1901.1a6.6,6.6,0,0,0-6.5,6.6A6.5,6.5,0,0,0,1901.1,939.5Z" transform="translate(-243.4 -188.7)"/><path class="cls-20" d="M1901.1,965.2h181.3a6.6,6.6,0,0,0,6.5-6.6,6.5,6.5,0,0,0-6.5-6.5H1901.1a6.5,6.5,0,0,0-6.5,6.5A6.6,6.6,0,0,0,1901.1,965.2Z" transform="translate(-243.4 -188.7)"/><rect class="cls-29" x="996.7" y="886.8" width="233.1" height="133.27" rx="3.8"/><rect class="cls-10" x="1001.8" y="892.7" width="222.8" height="121.53" rx="3.6"/><rect class="cls-29" x="1008" y="900.1" width="210.5" height="106.63" rx="4"/><circle class="cls-10" cx="1113.2" cy="953.4" r="37"/><circle class="cls-29" cx="1113.2" cy="953.4" r="31.9"/><polygon class="cls-10" points="1129 951.7 1117.3 958.5 1105.7 965.2 1105.7 951.7 1105.7 938.3 1117.3 945 1129 951.7"/><path class="cls-25" d="M1414.3,1120H1240.2v84.9a3.9,3.9,0,0,0,3.8,3.9h174.1v-85A3.8,3.8,0,0,0,1414.3,1120Z" transform="translate(-243.4 -188.7)"/><rect class="cls-29" x="921.3" y="938.3" width="233.1" height="133.27" rx="3.8"/><rect class="cls-10" x="926.4" y="944.2" width="222.8" height="121.53" rx="3.6"/><rect class="cls-29" x="932.5" y="951.7" width="210.5" height="106.63" rx="4"/><circle class="cls-10" cx="1037.8" cy="1005" r="37"/><path class="cls-29" d="M1313.1,1193.7a31.9,31.9,0,1,1-31.9-31.9A31.8,31.8,0,0,1,1313.1,1193.7Z" transform="translate(-243.4 -188.7)"/><polygon class="cls-10" points="1053.5 1003.3 1041.9 1010 1030.2 1016.7 1030.2 1003.3 1030.2 989.8 1041.9 996.6 1053.5 1003.3"/><path class="cls-15" d="M1947.5,405.6a8.5,8.5,0,0,1-3.1-.6,18.4,18.4,0,0,1-11.3-17V335.8a8,8,0,0,1,16,0V388a2.5,2.5,0,0,0,1.5,2.2,8,8,0,0,1-3.1,15.4Z" transform="translate(-243.4 -188.7)"/><path class="cls-31" d="M2286.8,288.2a87.2,87.2,0,0,0-11.5.4c.2-2.2.3-4.3.4-6.5,1-50.3-49.1-92.1-112-93.4-51.5-1-95.6,25.5-110.3,62.9a102.4,102.4,0,0,0-35.5-6.9c-47.8-1-87.3,29.6-88.1,68.3s37.4,70.9,85.3,71.8c32.4.7,241.9-.7,269.8-.2,40.7.9,74.1-20.1,74.7-46.7S2327.5,289,2286.8,288.2Z" transform="translate(-243.4 -188.7)"/><path class="cls-10" d="M2160.8,208.7h2.5c25.9.5,49.9,8.9,67.5,23.7s25.2,31.2,24.9,49.3l-.3,4.7-2.6,24.1,24.1-2c2.6-.2,5.1-.3,7.7-.3h1.8c15.6.3,30.6,4.6,41,11.7,3.7,2.5,12.3,9.3,12.2,17.6s-8.7,14.4-12.4,16.8c-10.2,6.6-24.8,10.4-40,10.4h-31.3l-97.6.2-106.5.3c-18.7,0-30.5-.1-36.3-.2-18.6-.3-35.8-6.4-48.4-17s-17.5-21.8-17.3-34.4c.6-26.9,30.1-48.7,65.9-48.7h1.8a83.2,83.2,0,0,1,28.7,5.5l18.5,7.2,7.3-18.5c5.4-13.8,16.8-26.3,31.9-35.3s36.1-14.9,56.9-14.9Zm0-20c-50.2,0-92.9,26.2-107.4,62.9a102.4,102.4,0,0,0-35.5-6.9h-2.2c-46.8,0-85.1,30.2-85.9,68.3s37.4,70.9,85.3,71.8c6.3.2,19.5.2,36.7.2,55.5,0,153.6-.5,204.1-.5h31.3c39.7,0,71.8-20.7,72.4-46.8s-32.1-48.9-72.8-49.7h-2.2c-3.2,0-6.3.1-9.3.4.2-2.2.3-4.3.4-6.5,1-50.3-49.1-92.1-112-93.4Z" transform="translate(-243.4 -188.7)"/><rect class="cls-15" x="1682.3" y="196.3" width="95.9" height="73.03" rx="11.2"/><ellipse class="cls-10" cx="1732.1" cy="133.2" rx="15.7" ry="17.5"/><path class="cls-15" d="M1997.5,406.4h-23a8,8,0,0,1,0-16h23a2.5,2.5,0,0,0,2.5-2.4V332.8a2.5,2.5,0,0,0-2.5-2.5h-20.9a8,8,0,0,1,0-16h20.9a18.5,18.5,0,0,1,18.5,18.5V388A18.5,18.5,0,0,1,1997.5,406.4Z" transform="translate(-243.4 -188.7)"/><path class="cls-32" d="M1983.5,413.5a9.8,9.8,0,1,0-14.8,8.4v12.3a5.1,5.1,0,1,0,10.1,0V421.9A9.8,9.8,0,0,0,1983.5,413.5Z" transform="translate(-243.4 -188.7)"/><path class="cls-25" d="M1096.8,1289.1v-45.8a11.6,11.6,0,0,0-11.6-11.5H741.8v68.8h343.4A11.6,11.6,0,0,0,1096.8,1289.1Z" transform="translate(-243.4 -188.7)"/><path class="cls-25" d="M1085.2,1129.5H741.8v68.8h343.4a11.6,11.6,0,0,0,11.6-11.5V1141A11.6,11.6,0,0,0,1085.2,1129.5Z" transform="translate(-243.4 -188.7)"/><rect class="cls-4" x="462.4" y="921.6" width="371.7" height="68.85" rx="11.5"/><rect class="cls-10" x="480.2" y="931.3" width="336.2" height="49.44" rx="9.3"/><rect class="cls-4" x="462.4" y="1023.9" width="371.7" height="68.85" rx="11.5"/><rect class="cls-10" x="480.2" y="1033.6" width="336.2" height="49.44" rx="9.3"/><path class="cls-4" d="M764.5,1144.7a7.9,7.9,0,0,1-8,7.9,7.9,7.9,0,0,1-7.9-7.9,7.9,7.9,0,0,1,7.9-8A8,8,0,0,1,764.5,1144.7Zm29-8a7.9,7.9,0,0,0-7.9,8,7.9,7.9,0,0,0,7.9,7.9,7.9,7.9,0,0,0,8-7.9A8,8,0,0,0,793.5,1136.7Zm37,0a7.9,7.9,0,0,0-7.9,8,7.9,7.9,0,0,0,7.9,7.9,7.9,7.9,0,0,0,8-7.9A8,8,0,0,0,830.5,1136.7Zm37,0a7.9,7.9,0,0,0-7.9,8,7.9,7.9,0,0,0,7.9,7.9,7.9,7.9,0,0,0,8-7.9A8,8,0,0,0,867.5,1136.7Zm37,0a7.9,7.9,0,0,0-7.9,8,7.9,7.9,0,0,0,7.9,7.9,7.9,7.9,0,0,0,8-7.9A8,8,0,0,0,904.5,1136.7Zm37,0a7.9,7.9,0,0,0-7.9,8,7.9,7.9,0,0,0,7.9,7.9,7.9,7.9,0,0,0,8-7.9A8,8,0,0,0,941.5,1136.7Z" transform="translate(-243.4 -188.7)"/><path class="cls-4" d="M764.5,1246.3a8,8,0,0,1-8,8,7.9,7.9,0,0,1-7.9-8,7.9,7.9,0,0,1,7.9-7.9A7.9,7.9,0,0,1,764.5,1246.3Zm29-7.9a7.9,7.9,0,0,0-7.9,7.9,7.9,7.9,0,0,0,7.9,8,8,8,0,0,0,8-8A7.9,7.9,0,0,0,793.5,1238.4Zm37,0a7.9,7.9,0,0,0-7.9,7.9,7.9,7.9,0,0,0,7.9,8,8,8,0,0,0,8-8A7.9,7.9,0,0,0,830.5,1238.4Zm37,0a7.9,7.9,0,0,0-7.9,7.9,7.9,7.9,0,0,0,7.9,8,8,8,0,0,0,8-8A7.9,7.9,0,0,0,867.5,1238.4Zm37,0a7.9,7.9,0,0,0-7.9,7.9,7.9,7.9,0,0,0,7.9,8,8,8,0,0,0,8-8A7.9,7.9,0,0,0,904.5,1238.4Zm37,0a7.9,7.9,0,0,0-7.9,7.9,7.9,7.9,0,0,0,7.9,8,8,8,0,0,0,8-8A7.9,7.9,0,0,0,941.5,1238.4Z" transform="translate(-243.4 -188.7)"/><path class="cls-4" d="M1017.2,1157.3c-14.7,0-26.4-10.8-26.8-11.2a2.9,2.9,0,0,1,0-4.4c.4-.5,12.1-11.2,26.8-11.2s26.4,10.7,26.9,11.2a3.1,3.1,0,0,1,0,4.4C1043.6,1146.5,1031.9,1157.3,1017.2,1157.3Zm-20-13.4c3.9,2.8,11.5,7.4,20,7.4s16.1-4.6,20-7.4c-3.9-2.8-11.4-7.4-20-7.4S1001.1,1141.1,997.2,1143.9Z" transform="translate(-243.4 -188.7)"/><path class="cls-4" d="M1017.2,1156a12.1,12.1,0,1,1,12.1-12.1A12.1,12.1,0,0,1,1017.2,1156Zm0-18.2a6.1,6.1,0,1,0,6.1,6.1A6.1,6.1,0,0,0,1017.2,1137.8Z" transform="translate(-243.4 -188.7)"/><rect class="cls-4" x="742.1" y="1047.6" width="30.5" height="21.88" rx="7.7"/><path class="cls-4" d="M1041.5,1254H989.2a3,3,0,0,1-3-3,2.9,2.9,0,0,1,3-3h49.3v-7.9a3,3,0,0,1,3-3,3.1,3.1,0,0,1,3,3V1251A3.1,3.1,0,0,1,1041.5,1254Z" transform="translate(-243.4 -188.7)"/><path class="cls-4" d="M1034.5,1253.5a3,3,0,0,1-3-3v-8.9a2.9,2.9,0,0,1,3-3,3,3,0,0,1,3,3v8.9A3.1,3.1,0,0,1,1034.5,1253.5Z" transform="translate(-243.4 -188.7)"/><path class="cls-4" d="M1023.5,1253.5a3,3,0,0,1-3-3v-12.1a2.9,2.9,0,0,1,3-3,3,3,0,0,1,3,3v12.1A3.1,3.1,0,0,1,1023.5,1253.5Z" transform="translate(-243.4 -188.7)"/><path class="cls-10" d="M991.4,1251a2.3,2.3,0,0,1-2.2-2.3v-3.4a2.2,2.2,0,1,1,4.4,0v3.4A2.3,2.3,0,0,1,991.4,1251Z" transform="translate(-243.4 -188.7)"/><path class="cls-33" d="M714.3,1634.7S517.9,1498.3,434.8,1577c-66.3,62.8,51.5,136.6,202.1,116.7,106-13.9,118.1,6.4,136.6,5.9,138.3-10.6,324.5-51.9,233.9-116.9-123.5-88.5-207,5.3-250,28.7Z" transform="translate(-243.4 -188.7)"/><path class="cls-34" d="M968.3,1579.4c-51.6-10.6-248.3,62.3-248.3,62.3s-171.3-51.6-212.2-56.5-59.9,10.6-59.9,10.6,19.4-21.8,41.8-23.7,54.9-7.4,54.9-7.4,327.8-15.6,371.2-5.7S968.3,1579.4,968.3,1579.4Z" transform="translate(-243.4 -188.7)"/><path class="cls-35" d="M689.8,1313.9c-7.8,1.3-128.9,54.1-130.4,76.2s33.2,201.6,100.2,225,142,0,142,0,78.7-194.2,55.3-231.1-129-70.1-129-70.1Z" transform="translate(-243.4 -188.7)"/><path class="cls-36" d="M600.8,1355.8c-115.7,61.9-144.1,173.8-113.5,198.5,21.4,17.3,102.2,55.5,172.3,53.1s135.9,4.1,135.9,4.1,120.1-24.4,144.1-60.5-42.5-153-102.1-186.8S600.8,1355.8,600.8,1355.8Z" transform="translate(-243.4 -188.7)"/><path class="cls-37" d="M711.1,1384a29.2,29.2,0,0,1-29.1-29.1V1257a29.1,29.1,0,1,1,58.1,0v97.9A29.1,29.1,0,0,1,711.1,1384Z" transform="translate(-243.4 -188.7)"/><path class="cls-38" d="M711.1,1227.9A29.2,29.2,0,0,0,682,1257v80.1c17.1,14.3,33.7,6.8,58.1-12.1v-68A29.1,29.1,0,0,0,711.1,1227.9Z" transform="translate(-243.4 -188.7)"/><path class="cls-37" d="M774.9,1261c-4.8,9.7-12.5,15.1-17.3,12s-4.8-13.4-.1-23.2,12.6-15.2,17.4-12.1S779.7,1251.2,774.9,1261Z" transform="translate(-243.4 -188.7)"/><path class="cls-37" d="M662.4,1250.5c5.5,8.9,6.5,19.6,2.3,24s-12.1.7-17.6-8.2-6.6-19.6-2.4-24S656.8,1241.6,662.4,1250.5Z" transform="translate(-243.4 -188.7)"/><path class="cls-37" d="M762.4,1260.3c0,35.6-22.4,64.5-50,64.5s-50.1-28.9-50.1-64.5,22.4-64.4,50.1-64.4S762.4,1224.8,762.4,1260.3Z" transform="translate(-243.4 -188.7)"/><path class="cls-28" d="M821.5,1419.8c32.7,17.5,61.3,83.7,61.3,83.7s-73.8,11.5-89,22.9,2.1-4.3,10.9-36S821.5,1419.8,821.5,1419.8Z" transform="translate(-243.4 -188.7)"/><path class="cls-28" d="M593.3,1415c7.6,35,44.2,132.6,44.2,132.6s-33.9-38.6-69.9-40.8-49.4-2.7-49.2,6c.1,1.7,6-38.8,33.9-63.9S593.3,1415,593.3,1415Z" transform="translate(-243.4 -188.7)"/><path class="cls-17" d="M813,1635.1H615a16.4,16.4,0,0,1-16.1-13.6l-23.8-142.4a16.3,16.3,0,0,1,16.1-19.1H836.8a16.3,16.3,0,0,1,16.1,19.1l-23.8,142.4A16.3,16.3,0,0,1,813,1635.1Z" transform="translate(-243.4 -188.7)"/><path class="cls-39" d="M813,1635.1H615a16.2,16.2,0,0,1-16.1-13.1l-23.8-137.3c-1.7-9.6,6-18.3,16.1-18.3H836.8c10.1,0,17.8,8.7,16.1,18.3L829.1,1622A16.2,16.2,0,0,1,813,1635.1Z" transform="translate(-243.4 -188.7)"/><path class="cls-34" d="M740.1,1691.2c-1.1-.2-127.8-31.9-156-8.5s94.6,23.7,116.7,18.6S740.1,1691.2,740.1,1691.2Z" transform="translate(-243.4 -188.7)"/><path class="cls-34" d="M768.4,1696.9s27.1-20.4,62.7-16.7,66.4,11.5,35.6,21.1-62.6,10.9-77.4,9.7S768.4,1696.9,768.4,1696.9Z" transform="translate(-243.4 -188.7)"/><path class="cls-34" d="M696.4,1169.5c-32.5,9.9-21.2,101.4,16,98.4s38.6-42.6,36-68.2S729.9,1159.3,696.4,1169.5Z" transform="translate(-243.4 -188.7)"/><path class="cls-34" d="M684.7,1237.3c-9-8.6-21.5,18.6-16.6,30.6s-1.9,19,4.7,31.9-12.2-8.2-14.8-23.7-4.2-42.2-7.9-54.2.1-33,16.9-37.3,20.7-12.1,27.1-12.4,37,2.6,52,10.9,23.4,20.7,22.3,39.5-6.1,67.1-10.6,75-6.9,6.1-5.5,1.5,6.3-31.6,2.5-41.4-1.9-33.9-11.7-35.8-7.5,14.8-19.2,16.1S684.7,1237.3,684.7,1237.3Z" transform="translate(-243.4 -188.7)"/><path class="cls-34" d="M2148.2,1641.8s-7.9,30.5-34.7,38.1-52.9,22.6-15.3,23.1c41.4.5,65-1.4,82.2-4.3s5.9-33.2,3.2-47.6S2148.2,1641.8,2148.2,1641.8Z" transform="translate(-243.4 -188.7)"/><path class="cls-34" d="M2367.8,1622.1s5.3,55.9-8.2,60.7-28.8,16.4-9.6,16.4,43,4.5,49.2-16.4c7.6-25.4,24.8-29.7,18.7-42.7s-24.6-37-24.6-37Z" transform="translate(-243.4 -188.7)"/><path class="cls-33" d="M2087.4,1033l53,621.7s27.6,12.8,47.4,14.7,61-271.9,57.5-323.7,35.9-216.2,26.8-269.4S2087.4,1033,2087.4,1033Z" transform="translate(-243.4 -188.7)"/><path class="cls-34" d="M2193.5,1036.6l-11.3-1.3-91.6,35.4,16.9,198.1c43.9,96.6,92.1,184.3,118.5,243.2,12-70.1,20.9-142.2,19.3-166.3s6.6-76,14.6-128.1Z" transform="translate(-243.4 -188.7)"/><path class="cls-33" d="M2113.5,1134.5c51.5,228.7,253.7,507.3,253.5,507.3s37.8-6.5,39.7-23.8-21.6-189.5-73-239.6-55-287.7-55-287.7Z" transform="translate(-243.4 -188.7)"/><path class="cls-28" d="M2234.8,814.9c57.9,58.2,95,158.2,95.5,183s-66.7,69-66.7,69Z" transform="translate(-243.4 -188.7)"/><polygon class="cls-37" points="1926.3 497.8 1949.2 611.8 1886.5 679.3 1878.2 541 1926.3 497.8"/><path class="cls-40" d="M2192.6,764.9s29.6,10.4,62.5,93.9,55.7,289.3,55.7,289.3-63.2,53.7-153.7,53.7c-57.7-.1-86.8-13-86.8-13s-5.7-194,0-264S2164.1,763.2,2192.6,764.9Z" transform="translate(-243.4 -188.7)"/><path class="cls-38" d="M2145.6,782.4c18.7-21.7,25.6-54.8,28.1-75.9l-3.6-18-4.6,1.8-43.9,39.4,4.3,71.1A108.1,108.1,0,0,0,2145.6,782.4Z" transform="translate(-243.4 -188.7)"/><path class="cls-37" d="M2155.4,711.6c-7.2,33.9-34.1,57-60,51.5s-41.1-37.5-33.9-71.4,34-57,60-51.5S2162.6,677.6,2155.4,711.6Z" transform="translate(-243.4 -188.7)"/><path class="cls-41" d="M2183.8,739.2l19.6,33.1-104.1,77.8s7.9-36,10-49.3S2182.1,736.4,2183.8,739.2Z" transform="translate(-243.4 -188.7)"/><path class="cls-15" d="M2060.5,617.1c-43.7,13.8-8,68.9,6.1,69.4s19.2-12.6,30.7-9.6,22.4-17.5,29.5-13,2.5,46.1,0,53.2,8.9,7.7,8.9,7.7,4.7-29.5,12-27.6,12.6,22.4,23.1,27.6l10.4,5.1s6.4-44.5,16-53,3.6-38-10-43.8-17-32-35.8-33.9-34.3,10.9-59.2,7.7S2072.7,613.3,2060.5,617.1Z" transform="translate(-243.4 -188.7)"/><path class="cls-37" d="M2166.4,704.4c-3.6,8.5-11.6,13.2-17.8,10.5s-8.5-11.7-4.9-20.1,11.6-13.2,17.9-10.5S2170,696,2166.4,704.4Z" transform="translate(-243.4 -188.7)"/><path class="cls-28" d="M2213.9,826.9s-107.2,119.3-145.8,156.2c-.6,34.3-.3,74.4.2,109.9,20.9-10.3,79-40.4,112.1-72.3C2221.3,981.3,2239.5,891,2213.9,826.9Z" transform="translate(-243.4 -188.7)"/><path class="cls-37" d="M1939.7,973.2s-25.7-31.8-35.9-28.7-14.1,3.5-23.1,3-9.6,12.5,3.3,35.8,47.4,28,55.7,27.6S1939.7,973.2,1939.7,973.2Z" transform="translate(-243.4 -188.7)"/><path class="cls-42" d="M2201.9,800.8c41.5,11,28,116.2,4.6,159.6-16.8,31.2-72.9,63-107.2,71.9s-170.3-17.8-170.3-17.8-5.5-49,4.8-49,120.6,5.3,153.6-24.5S2151.8,787.5,2201.9,800.8Z" transform="translate(-243.4 -188.7)"/><path class="cls-28" d="M1906.5,966.4a5.9,5.9,0,0,1-4.7-2.4l-22.2-29.1a5.9,5.9,0,0,1,1.1-8.4,6,6,0,0,1,8.4,1.1l22.2,29.1a6,6,0,0,1-1.1,8.4A5.8,5.8,0,0,1,1906.5,966.4Z" transform="translate(-243.4 -188.7)"/></g></g></svg>