<svg id="Layer_1" data-name="Layer 1" xmlns="http://www.w3.org/2000/svg" xmlns:xlink="http://www.w3.org/1999/xlink" viewBox="0 0 1316.7 413.4"><defs><style>.cls-1,.cls-3{fill:#f88e1e;}.cls-2{fill:#42210b;}.cls-3,.cls-6{font-size:126.39px;}.cls-16,.cls-18,.cls-3,.cls-6{font-family:ArialRoundedMTBold, Arial Rounded MT Bold;}.cls-4,.cls-6{fill:#31c5f0;}.cls-18,.cls-5{fill:#0c0824;}.cls-7{fill:#f99c35;}.cls-8{fill:#f7f7f7;}.cls-9{fill:#fdcd1b;}.cls-10{fill:url(#linear-gradient);}.cls-11{fill:url(#linear-gradient-2);}.cls-12{fill:url(#linear-gradient-3);}.cls-13{fill:url(#linear-gradient-4);}.cls-14{fill:url(#linear-gradient-5);}.cls-15{fill:url(#linear-gradient-6);}.cls-16{font-size:41.14px;}.cls-17{letter-spacing:-0.02em;}.cls-18{font-size:100.62px;}</style><linearGradient id="linear-gradient" x1="1238.57" y1="401.66" x2="1269.03" y2="401.66" gradientTransform="translate(-333.4 -345.7) rotate(4.2)" gradientUnits="userSpaceOnUse"><stop offset="0" stop-color="#ff9200"/><stop offset="0.51" stop-color="#fe9500"/><stop offset="0.88" stop-color="#fd9e00"/><stop offset="1" stop-color="#fca300"/></linearGradient><linearGradient id="linear-gradient-2" x1="1139.01" y1="398.78" x2="1159.07" y2="418.84" xlink:href="#linear-gradient"/><linearGradient id="linear-gradient-3" x1="1198.16" y1="375.57" x2="1198.16" y2="422.66" gradientTransform="translate(-333.4 -345.7) rotate(4.2)" gradientUnits="userSpaceOnUse"><stop offset="0" stop-color="#fee178"/><stop offset="0.2" stop-color="#fee27b"/><stop offset="0.37" stop-color="#fee486"/><stop offset="0.53" stop-color="#fee898"/><stop offset="0.69" stop-color="#feedb1"/><stop offset="0.75" stop-color="#fef0bd"/><stop offset="0.89" stop-color="#fef0bb"/><stop offset="0.94" stop-color="#feeeb4"/><stop offset="0.98" stop-color="#feeca9"/><stop offset="1" stop-color="#fee99d"/></linearGradient><linearGradient id="linear-gradient-4" x1="1126.66" y1="465.62" x2="1198.16" y2="465.62" gradientTransform="translate(-333.4 -345.7) rotate(4.2)" gradientUnits="userSpaceOnUse"><stop offset="0" stop-color="#ef6500"/><stop offset="0.04" stop-color="#f36d00"/><stop offset="0.1" stop-color="#f67400"/><stop offset="0.29" stop-color="#f77600"/><stop offset="0.38" stop-color="#f57100"/><stop offset="0.69" stop-color="#f16500"/><stop offset="1" stop-color="#ef6100"/></linearGradient><linearGradient id="linear-gradient-5" x1="1198.16" y1="465.62" x2="1269.66" y2="465.62" xlink:href="#linear-gradient-4"/><linearGradient id="linear-gradient-6" x1="1198.16" y1="422.66" x2="1198.16" y2="511.87" gradientTransform="translate(-333.4 -345.7) rotate(4.2)" gradientUnits="userSpaceOnUse"><stop offset="0" stop-color="#fd9c00"/><stop offset="0.26" stop-color="#fda203"/><stop offset="0.61" stop-color="#fdb20b"/><stop offset="1" stop-color="#fdcd18"/></linearGradient></defs><title>file icon</title><path class="cls-1" d="M681.9,609.8,457.3,649.2a24,24,0,0,1-27.8-19.5L378.7,340.2a24,24,0,0,1,19.5-27.8l157.7-26.7,109.4,85.4L701.4,582A24.1,24.1,0,0,1,681.9,609.8Z" transform="translate(-378.3 -238.2)"/><path class="cls-2" d="M670.4,598.6,464.3,634.8a19.3,19.3,0,0,1-22.4-15.7L393.7,345a19.4,19.4,0,0,1,15.8-22.4l158.2-27.8,80.1,63.1,38.3,218.3A19.3,19.3,0,0,1,670.4,598.6Z" transform="translate(-378.3 -238.2)"/><text class="cls-3" transform="translate(105.9 291.9) rotate(-10) scale(0.98 1)">Ai</text><path d="M662.3,359.4" transform="translate(-378.3 -238.2)"/><path d="M563.3,283.4" transform="translate(-378.3 -238.2)"/><path class="cls-1" d="M665.5,372l-68,12a24.1,24.1,0,0,1-27.8-19.5l-13.6-77.8-.2-1Z" transform="translate(-378.3 -238.2)"/><path d="M1076,407" transform="translate(-378.3 -238.2)"/><path d="M991.7,315" transform="translate(-378.3 -238.2)"/><path class="cls-4" d="M1002.5,585.2,775.3,603.8a24.1,24.1,0,0,1-25.9-22l-23.9-293a24,24,0,0,1,22-25.9l159.5-12,101.1,95,16.4,213.4A24,24,0,0,1,1002.5,585.2Z" transform="translate(-378.3 -238.2)"/><path class="cls-5" d="M992.1,573,783.6,590a19.3,19.3,0,0,1-20.9-17.7L740,295a19.5,19.5,0,0,1,17.8-20.9L917.9,261l73.9,70.2,18.1,220.9A19.5,19.5,0,0,1,992.1,573Z" transform="translate(-378.3 -238.2)"/><text class="cls-6" transform="matrix(0.98, -0.08, 0.08, 1, 428.75, 249.91)">Ps</text><path class="cls-4" d="M1008.2,346.9l-68.8,5.7a24.1,24.1,0,0,1-25.9-22l-6.4-78.7v-1Z" transform="translate(-378.3 -238.2)"/><path class="cls-7" d="M1308.1,596.2l-227.4-16.8a24.1,24.1,0,0,1-22.2-25.8l21.7-293.2a24,24,0,0,1,25.7-22.1l159.5,12.8,85.1,109.6L1333.8,574A24.1,24.1,0,0,1,1308.1,596.2Z" transform="translate(-378.3 -238.2)"/><path class="cls-8" d="M1299.7,582.5,1091,567.1a19.4,19.4,0,0,1-17.9-20.8l20.5-277.5a19.5,19.5,0,0,1,20.8-17.9l160.2,11.9,62.2,80.8-16.4,221A19.3,19.3,0,0,1,1299.7,582.5Z" transform="translate(-378.3 -238.2)"/><path d="M1350.4,348.6" transform="translate(-378.3 -238.2)"/><path d="M1273.1,250.6" transform="translate(-378.3 -238.2)"/><path class="cls-7" d="M1350.5,361.6l-68.8-5a24,24,0,0,1-22.2-25.7l5.8-78.8v-1Z" transform="translate(-378.3 -238.2)"/><polygon class="cls-9" points="793.1 119.3 833.1 117.2 873.7 125.3 872.5 167.3 788.1 161.1 793.1 119.3"/><polygon class="cls-10" points="901 169.4 872.5 167.3 873.7 125.3 901 169.4"/><polygon class="cls-11" points="759 158.9 787.5 161 792.5 119.3 759 158.9"/><polygon class="cls-12" points="833.8 117.2 788.1 161.1 872.5 167.3 833.8 117.2"/><polygon class="cls-13" points="758.9 159.5 824 249.8 788.1 161.1 758.9 159.5"/><polygon class="cls-14" points="901.5 170.1 824 249.8 872.5 167.3 901.5 170.1"/><polygon class="cls-15" points="872.5 167.3 788.1 161.1 824 249.8 872.5 167.3"/><text class="cls-16" transform="matrix(1.14, 0.08, -0.07, 1, 727.95, 299.23)">SKE<tspan class="cls-17" x="85.3" y="0">T</tspan><tspan x="110" y="0">CH</tspan></text><path class="cls-5" d="M1620.5,651l-222.9-47.9a24,24,0,0,1-18.4-28.5L1441,287.2a23.9,23.9,0,0,1,28.5-18.4l156.2,34.6L1695,423.6l-46,209A23.9,23.9,0,0,1,1620.5,651Z" transform="translate(-378.3 -238.2)"/><path class="cls-8" d="M1614.1,636.4l-204.6-44a19.5,19.5,0,0,1-14.9-23l58.5-272.1a19.4,19.4,0,0,1,23-14.8l157.1,33.7,50.5,88.6-46.6,216.7A19.4,19.4,0,0,1,1614.1,636.4Z" transform="translate(-378.3 -238.2)"/><text class="cls-18" transform="matrix(0.93, 0.2, -0.21, 0.98, 1053.81, 247.61)">JPG</text><path class="cls-5" d="M1694.8,424.6l-67.5-14.5a24,24,0,0,1-18.4-28.5l16.6-77.3.2-.9Z" transform="translate(-378.3 -238.2)"/></svg>