<svg id="Layer_1" data-name="Layer 1" xmlns="http://www.w3.org/2000/svg" viewBox="0 0 279.7 344.9"><defs><style>.cls-1,.cls-3{fill:#0c0824;}.cls-2{fill:#f7f7f7;}.cls-3{font-size:100.62px;font-family:ArialRoundedMTBold, Arial Rounded MT Bold;}</style></defs><title>jpg</title><path class="cls-1" d="M1081.8,712.4l-228-2.9a23.9,23.9,0,0,1-23.6-24.3l3.7-293.9a23.9,23.9,0,0,1,24.3-23.7l159.9,3,91.7,104.2-3.7,213.9A23.9,23.9,0,0,1,1081.8,712.4Z" transform="translate(-830.2 -367.6)"/><path class="cls-2" d="M1072.6,699.3l-209.2-2.6A19.4,19.4,0,0,1,844.3,677l3.5-278.2a19.3,19.3,0,0,1,19.6-19.1l160.6,2,67,76.9-2.8,221.6A19.3,19.3,0,0,1,1072.6,699.3Z" transform="translate(-830.2 -367.6)"/><text class="cls-3" transform="translate(34.3 220.2) rotate(0.7) scale(0.95 1)">JPG</text><path class="cls-1" d="M1109.8,475.8l-69-.9a24.1,24.1,0,0,1-23.7-24.3l1-79v-1Z" transform="translate(-830.2 -367.6)"/></svg>