<svg id="Layer_1" data-name="Layer 1" xmlns="http://www.w3.org/2000/svg" viewBox="0 0 884 405.7"><defs><style>.cls-1{fill:#d9e4f0;}.cls-2{fill:#fff;}</style></defs><title>uploadcloud</title><ellipse class="cls-1" cx="359.9" cy="79.9" rx="82.1" ry="79.9"/><ellipse class="cls-1" cx="498.8" cy="166" rx="82.1" ry="79.9"/><ellipse class="cls-1" cx="549.3" cy="307.3" rx="94.7" ry="98.4"/><ellipse class="cls-1" cx="239.9" cy="135.2" rx="50.5" ry="49.2"/><ellipse class="cls-1" cx="189.4" cy="196.7" rx="37.9" ry="36.9"/><ellipse class="cls-1" cx="202.1" cy="307.3" rx="101" ry="98.4"/><rect class="cls-1" x="202.1" y="172.1" width="353.6" height="233.58"/><rect class="cls-1" x="265.2" y="98.4" width="176.8" height="110.65"/><ellipse class="cls-1" cx="473.6" cy="18.4" rx="18.9" ry="18.4"/><ellipse class="cls-1" cx="511.5" cy="43" rx="6.3" ry="6.1"/><ellipse class="cls-1" cx="524.1" cy="18.4" rx="6.3" ry="6.1"/><path class="cls-1" d="M75.8,351.4S12.6,425.1,0,523.5c0,0,25.3,36.9,75.8,24.6,0,0,25.2-110.7,75.7-159.9C151.5,388.2,113.7,351.4,75.8,351.4Z" transform="translate(0 -265.3)"/><ellipse class="cls-1" cx="707.2" cy="86.1" rx="50.5" ry="49.2"/><ellipse class="cls-1" cx="783" cy="147.5" rx="63.1" ry="61.5"/><ellipse class="cls-1" cx="820.9" cy="233.6" rx="63.1" ry="61.5"/><path class="cls-1" d="M669.3,351.4H606.2V474.3s63.1,24.6,50.5,86.1H834S833.5,375.9,669.3,351.4Z" transform="translate(0 -265.3)"/><rect class="cls-2" x="341" y="159.8" width="50.5" height="196.7" rx="25.3"/><path class="cls-2" d="M271.9,534.9h0c-9.9-9.6-9.3-25.8,1.2-36l58.5-57.1c10.5-10.2,27.1-10.8,36.9-1.2h0c9.9,9.5,9.3,25.7-1.2,36l-58.5,57C298.3,543.8,281.7,544.4,271.9,534.9Z" transform="translate(0 -265.3)"/><path class="cls-2" d="M453.6,536.7h0a25.7,25.7,0,0,1-35.7,0L345.3,466a24.2,24.2,0,0,1,0-34.7h0a25.7,25.7,0,0,1,35.7,0L453.6,502A24,24,0,0,1,453.6,536.7Z" transform="translate(0 -265.3)"/></svg>