<svg id="Layer_1" data-name="Layer 1" xmlns="http://www.w3.org/2000/svg" viewBox="0 0 369.9 136"><defs><style>.cls-1{fill:#c22828;}.cls-2{fill:#f4c145;}.cls-3{fill:#f26b41;}.cls-4{fill:#e8b841;}.cls-5{fill:#e9653e;}.cls-6{fill:#ed6c24;}.cls-7{fill:#fffefd;}.cls-8{fill:#f3f2f0;}.cls-9{fill:#e06626;}.cls-10{fill:#f2f1ee;}.cls-11{fill:#df6526;}.cls-12{fill:#ec643e;}.cls-13{fill:#ca3a2c;}.cls-14{fill:#fffffe;}.cls-15{fill:#fffffd;}.cls-16{fill:#f2f0ed;}.cls-17{fill:#f26c41;}.cls-18{fill:#c32c29;}.cls-19{fill:#bb9432;}.cls-20{fill:#ba9332;}.cls-21{fill:#c09835;}.cls-22{fill:#bd9636;}.cls-23{fill:#c2bfb8;}.cls-24{fill:#c29a35;}.cls-25{fill:#c09834;}.cls-26{fill:#c1bdb1;}.cls-27{fill:#bd9533;}.cls-28{fill:#bc9432;}.cls-29{fill:#bd9633;}.cls-30{fill:#b55327;}.cls-31{fill:#e6b741;}.cls-32{fill:#e6b640;}.cls-33{fill:#e7b741;}.cls-34{fill:#e7b841;}.cls-35{fill:none;stroke:#e77a25;stroke-miterlimit:10;stroke-width:3px;}</style></defs><title>staree</title><rect class="cls-1" width="369.9" height="135.56"/><path class="cls-2" d="M378.7,646.9l-.4-.4c-1.4-5-3.1-10-4.6-15s-2.7-8.4-3.9-12.6c-.1-.4-.1-.8.6-1l18-6.5c.8-.1.9.2,1.1.5l4.6,4.3c.8.8.8.8,2.3.4l23.8-5.9a5.8,5.8,0,0,1,1.9-.4l.9.2v20.2l-.8.7-19.9,14.8a3.5,3.5,0,0,1-1.2.7Z" transform="translate(-53.1 -510.9)"/><path class="cls-3" d="M422,610.5l-1.2.2-25,6.2c-.9.3-1.2.2-1.7-.2s-3.6-3.5-5.4-5.3c-.3,0-.4-.2-.6-.3a28.8,28.8,0,0,0-3.6-3.3c.8-.2,0-.4-.1-.5l-8.4-8.2-5.6-5.4c-.4-.4-.4-.5.4-.7l15-3.8,27.1-6.7,4.7-1.2c.9-.3,1.2-.2,1.7.3A31.1,31.1,0,0,0,423,585v25.1Z" transform="translate(-53.1 -510.9)"/><path class="cls-2" d="M121.8,624,98.6,646.3l-.5.6H72.5c-.5-.3-.3-.7-.3-1.1V631.5a4.8,4.8,0,0,1,0-1.2c-.1-.1,0-.3.2-.4a132.1,132.1,0,0,1,28-5.9,94.9,94.9,0,0,1,15.1-.4H120A3.4,3.4,0,0,1,121.8,624Z" transform="translate(-53.1 -510.9)"/><path class="cls-3" d="M265.7,646.9c.4-5,.2-9.9.3-14.8,0-.5.2-.7,1.3-.7,6.4.3,12.8.7,18.9,1.6a15.8,15.8,0,0,1,3.5.6c.7.3.7,1,1,1.6,1.8,3.4,3.6,6.8,5.5,10.2.2.5.7.9.7,1.5Z" transform="translate(-53.1 -510.9)"/><path class="cls-2" d="M173.5,646.9,186.7,632l7.6-8.7c.2-.2.2-.5.6-.5s.7.2.9.4l22,14.8a9.1,9.1,0,0,1,2.2,1.2l10.3,7c.3.2.8.4.6.7Z" transform="translate(-53.1 -510.9)"/><path class="cls-3" d="M235.1,646.9l-5.1-6.7c-1-1.4-2.1-2.8-3.2-4.1s0-.5.6-.7c4.6-1.1,9.3-1.9,14.3-2.6a2.6,2.6,0,0,1,2.5.5l17.3,13.3.3.3Z" transform="translate(-53.1 -510.9)"/><path class="cls-4" d="M54.1,635.5V614a2,2,0,0,1,1.1.1,47.8,47.8,0,0,0,15.1.3,6.8,6.8,0,0,1,2-.2c.8.3.6.6.6,1s0,3.4,0,5v8.3c0,.3.1.6,0,.8a.3.3,0,0,1-.1.2,2.3,2.3,0,0,1-1,.5l-3.7,1.2-1.1.2a29.6,29.6,0,0,0-4.5-1.1,5,5,0,0,0,1.3.3c.3.1.9.1.9.4s-.6.3-1,.3l-1.2.3a17,17,0,0,0,2.2-.4,2.4,2.4,0,0,1,1.9.2c.1.1.1.1,0,.2a23.8,23.8,0,0,1-3.5,1.2h-.3l-.7-.2c.2.2.1.4-.1.6h-.2L55,635.5A.9.9,0,0,1,54.1,635.5Z" transform="translate(-53.1 -510.9)"/><path class="cls-3" d="M298.2,646.9c-.9-1.8-1.9-3.5-2.8-5.2l-3.9-7.3a1.6,1.6,0,0,1-.3-.6l6,1.2a118,118,0,0,1,19.8,6.2,80.1,80.1,0,0,1,8.8,4.3c.3.2.5.3.2.6a.7.7,0,0,0-.3.8Z" transform="translate(-53.1 -510.9)"/><path class="cls-4" d="M72.3,630.2c.4.2.2.4.2.7.1,5.3,0,10.6,0,16H54.8c-.6,0-.7-.1-.7-.4V636a8.3,8.3,0,0,1,2.2-.8l6.2-2,.8-.2h1c-.3-.3.1-.4.4-.5l6.7-2.1A1.3,1.3,0,0,1,72.3,630.2Z" transform="translate(-53.1 -510.9)"/><path class="cls-3" d="M263.2,646.9l-8.6-6.7-9.6-7.3c-.4-.3-.4-.5.4-.5,2.9-.3,5.8-.6,8.8-.7.2-.2.6-.1.9-.1l8.6-.2c.9,0,1.1.2,1.1.6v14c0,.3-.2.6-.2.9Z" transform="translate(-53.1 -510.9)"/><path class="cls-4" d="M64.5,601.8l8.1-.6h.1a.7.7,0,0,1,.2.6v11.3a1.1,1.1,0,0,1-.1.5v.2l-.7.2a52,52,0,0,1-16.7,0l-1.2-.4V612a2.4,2.4,0,0,1,1.1-.9c4.2-2.6,7.1-5.5,8.6-8.8C63.9,602.1,63.8,601.8,64.5,601.8Z" transform="translate(-53.1 -510.9)"/><path class="cls-5" d="M64.5,601.8a28.4,28.4,0,0,1-2.5,3.9,27.4,27.4,0,0,1-7.9,6.3v-5.8a36.9,36.9,0,0,0,2.5-3.4,2.1,2.1,0,0,0,.4-.6c2.1-4.3,1.4-8.4-2.3-12.5-.2-.2-.3-.6-.6-.9v-5.7c5.3,2.9,8.7,6.3,10.2,10.1a10.8,10.8,0,0,1,.3,7.9A1.7,1.7,0,0,0,64.5,601.8Z" transform="translate(-53.1 -510.9)"/><path class="cls-2" d="M423,631.5c0,5-.1,10,0,15,0,.3-.2.4-.9.4H402.2c-.2-.2.1-.4.4-.5l2-1.6,15.7-11.7,1.7-1.3C422.3,631.7,422.4,631.4,423,631.5Z" transform="translate(-53.1 -510.9)"/><path class="cls-6" d="M377.8,511a43.3,43.3,0,0,1,7.2,2.5c4.6,2.1,7.3,4.8,8.4,7.8a9.8,9.8,0,0,1-.6,8.8,22.8,22.8,0,0,1-6.5,6.2,107.3,107.3,0,0,1-11.6,6.8c-4.1,2.3-8.3,4.4-12.2,6.7s-8.2,5-10,8.1-.8,6.1,4.3,8.4a32.9,32.9,0,0,0,6.9,2,110.1,110.1,0,0,0,14.2,1.6c4.6.3,9.3.4,14,.5s9.6,0,14.3-.1,10-.2,14.9-.5H423v.3l-11.8.5h-5c-4.1.1-8.2.2-12.4.1a229.9,229.9,0,0,1-25-1.3,60.6,60.6,0,0,1-11.3-2.5c-4.1-1.4-6.1-3.5-6.5-5.9s2-5.2,4.9-7.5a78.8,78.8,0,0,1,9.1-5.7l13.5-7.3c4.4-2.5,8.6-5.1,11.5-8a10.8,10.8,0,0,0,3.3-5.9,10.4,10.4,0,0,0-1.8-7.7c-2.7-3.6-7.5-6.2-14.7-7.8l-.7-.2s-.1-.1,0-.1h1.7Z" transform="translate(-53.1 -510.9)"/><path class="cls-3" d="M230.9,646.9,217.8,638c2-.4,3.6-1,5.5-1.5s2.1-.7,3.1.5l7.5,9.9Z" transform="translate(-53.1 -510.9)"/><path class="cls-6" d="M232.5,619l-5.8-2.7a118.9,118.9,0,0,0-22.3-8.1,63.5,63.5,0,0,0-13.5-2.1,54.5,54.5,0,0,0-12.9,1,47.9,47.9,0,0,0-15.8,6.4,51.8,51.8,0,0,0-14,12.9,64.4,64.4,0,0,0-7.5,12,69.8,69.8,0,0,0-3.6,8.5h-.7c.7-1.8,1.4-3.6,2.2-5.4a65.6,65.6,0,0,1,6.5-11.8,54.3,54.3,0,0,1,14.3-15,47.7,47.7,0,0,1,14.5-6.9,51,51,0,0,1,16.8-2.1,63.3,63.3,0,0,1,11.8,1.7,113,113,0,0,1,18.1,5.7l11.2,5.1C232.3,618.5,232.7,618.7,232.5,619Z" transform="translate(-53.1 -510.9)"/><path class="cls-6" d="M339,511a43.5,43.5,0,0,1-9.8,7.5,62.8,62.8,0,0,1-14.1,5.5,121.8,121.8,0,0,1-23.4,3.7l-10,.4c-4.6.2-9.2.1-13.8.1l-16.6-.5-11.5-.3h-4.2c-.3-.1-.3-.2-.1-.4a12,12,0,0,1,2.7-.1c2,.2,4.1.1,6.2.2l16.8.5c6.1.2,12.1.3,18.1.2a164,164,0,0,0,29.1-2.7c11.2-2.2,19.7-5.9,26.1-10.9,1.2-1,2.2-2.1,3.6-3.1h.7C338.9,510.9,339,510.9,339,511Z" transform="translate(-53.1 -510.9)"/><path class="cls-7" d="M423,631.5l-11.8,8.7-9,6.7h-1.1l20.7-15.5,1.2-.7Z" transform="translate(-53.1 -510.9)"/><path class="cls-8" d="M54.1,613.7l5.5.8A62.2,62.2,0,0,0,71,614h1.5a.8.8,0,0,1,.6.2c-.2.3-.8.1-1,.2-2.5.3-4.9.6-7.4.7a41,41,0,0,1-10.6-1Z" transform="translate(-53.1 -510.9)"/><path class="cls-4" d="M54.1,602.6c1-.2,2-.2,3-.3s-.4.9-.7,1.3a9.2,9.2,0,0,1-2.3,2.6Z" transform="translate(-53.1 -510.9)"/><path class="cls-9" d="M54.1,542.5a106.6,106.6,0,0,1,17.2,1.8h1.4a.2.2,0,0,1,0,.3h-.1A118.1,118.1,0,0,0,57.9,543l-3.8-.2Z" transform="translate(-53.1 -510.9)"/><path class="cls-10" d="M62.7,633.3c-2.8.9-5.6,1.9-8.6,2.7v-.5a63.7,63.7,0,0,0,6.6-2.1l1-.3C62.1,633,62.5,633,62.7,633.3Z" transform="translate(-53.1 -510.9)"/><path class="cls-11" d="M60.6,510.9h.2c1,.4,2,.8,2.1,1.5a.6.6,0,0,1-.6,0h-.1c-.6-.6-1.7-.9-2.1-1.5a.1.1,0,0,1-.1-.1h.6Z" transform="translate(-53.1 -510.9)"/><path class="cls-12" d="M326.8,646.9a.6.6,0,0,1,.3-.6l.9.6Z" transform="translate(-53.1 -510.9)"/><path class="cls-13" d="M422,610.5c.2-.3.6-.3,1-.4v.4Z" transform="translate(-53.1 -510.9)"/><path class="cls-2" d="M351.1,624.4l-24.8-20.2c-.2-.1-.5-.3-.5-.5l8.8.6,18.5,1.3,5,.3c.6-.2,1,.2,1.5.2l5.8.4c.7.6.6,1.3.8,1.9,1,3,1.9,5.9,2.8,8.8.2.6-.1,1.1-1.1,1.4l-15.7,5.7A1.3,1.3,0,0,1,351.1,624.4Z" transform="translate(-53.1 -510.9)"/><path class="cls-2" d="M384.5,607.8a1.9,1.9,0,0,1,.9.4l2.9,2.8c-.1.3-.5.4-.9.5l-16.4,6c-1.2.4-1.5.4-1.8-.4-.9-2.8-1.7-5.6-2.6-8.4a14.2,14.2,0,0,0-.5-1.6c0-.2-.2-.4.2-.6l17,1.2Z" transform="translate(-53.1 -510.9)"/><path class="cls-14" d="M366.3,606.5c1.1,3.7,2.3,7.4,3.4,11.2,6.3-2.2,12.5-4.4,18.6-6.7l.4.4-11.1,4.1-7,2.5c-.5.2-.7.3-.6.7,1.5,4.8,3,9.7,4.6,14.5s2.5,8.2,3.8,12.3c.1.3.6.7-.1,1s-.5-.4-.8-.7a11.4,11.4,0,0,1-1.6-4.2l-4.5-14.3c-.7-2.5-1.6-5-2.3-7.6,0-.1,0-.2-.1-.2s-.3-.6-1.2-.3l-14.5,5.2a3.8,3.8,0,0,1-1.6.5,1,1,0,0,1-.6-.5l12.7-4.5,4.3-1.6c.6-.2.8-.4.7-.7-.8-2.4-1.5-4.7-2.2-7l-1.2-4.1A2.7,2.7,0,0,1,366.3,606.5Z" transform="translate(-53.1 -510.9)"/><path class="cls-6" d="M260.5,573.8a32,32,0,0,0,5.7,1.1l14.6,3.5c7.9,2,15.5,4.2,23,6.5s17.5,5.7,25.9,8.9q9,3.3,17.4,6.9c4.2,1.7,8.4,3.5,12.5,5.4l-1.5-.2-4.8-2.2-9.1-3.8c-4.7-1.9-9.4-3.8-14.3-5.6-7-2.7-14.1-5.2-21.5-7.6s-15-4.6-22.9-6.7-16.5-4.2-25.1-5.9H260Z" transform="translate(-53.1 -510.9)"/><path class="cls-2" d="M351.7,624.9l15.2-5.6c2.2-.8,2.2-.8,2.6.6l3.6,11.5c1.2,3.8,2.3,7.6,3.5,11.5l.9,2.9-8.4-6.8L352,625.2Z" transform="translate(-53.1 -510.9)"/><path class="cls-6" d="M235.6,620.7v-.5a44,44,0,0,1,5.7,3.1c3.1,1.7,6,3.5,9,5.3l4.8,3h-.9a56.6,56.6,0,0,0-4.8-3.1c-4.1-2.6-8.5-5.1-12.9-7.5Z" transform="translate(-53.1 -510.9)"/><path class="cls-2" d="M72.1,614.3l.9-.2a3.8,3.8,0,0,1,1-.3c5.6-.9,10.9-2.1,16.2-3.4,9-2,17.9-4.2,27.2-5.8a194.3,194.3,0,0,1,23.4-2.9h2.5a3,3,0,0,1,1.6.2l-13.6,13.1-9.2,8.8c-.2.2-.5.1-.9.1a117.5,117.5,0,0,0-35.7,2.4c-3.9.9-7.7,2-11.4,3.1a3.4,3.4,0,0,1-1.5.2c0-4.8,0-9.7-.1-14.6C72.5,614.7,72.8,614.4,72.1,614.3Z" transform="translate(-53.1 -510.9)"/><path class="cls-2" d="M72.5,601.2l19.7-1.4h.6c.5-.2,1.1.1,1.7-.1l14.1-1,18.4-1.3,20.1-1.4,4.2-.3-6,5.8a2,2,0,0,1-1.1.2,141.4,141.4,0,0,0-19.7,1.7c-8.2,1.2-16,2.9-23.8,4.6s-15.2,3.7-23,5.2l-3.8.7a5.6,5.6,0,0,1-1.3,0Z" transform="translate(-53.1 -510.9)"/><path class="cls-6" d="M94.5,599.6a4.7,4.7,0,0,1-1.7.1,107.5,107.5,0,0,1,14.7-10.8,135.3,135.3,0,0,1,13.7-7.3,121.8,121.8,0,0,1,11.6-4.6c4.6-1.6,9.3-3,14.4-4.3a185.3,185.3,0,0,1,30.8-4.8c4.6-.4,9.2-.6,13.9-.7,3-.1,5.9-.2,8.8-.1,5.7.1,11.3.3,16.9.7l13.8,1.3c.5.1,1.2,0,1.1.5l-8-.8c-4.1-.4-8.2-.7-12.4-.9s-11.4-.5-17.2-.5-12.9.4-19.2,1a187.4,187.4,0,0,0-28.9,4.8,146.3,146.3,0,0,0-20.6,6.8c-4,1.6-7.8,3.4-11.3,5.2a112.1,112.1,0,0,0-18.7,12.3l-2.1,1.8C93.8,599.5,93.9,599.6,94.5,599.6Z" transform="translate(-53.1 -510.9)"/><path class="cls-15" d="M72.6,613.8c3.6-.5,7.1-1.3,10.6-2,8.9-2,17.6-4.2,26.6-6a212.2,212.2,0,0,1,24.5-3.9c3.7-.3,7.3-.5,11-.5.2.2-.1.3-.4.4a158.2,158.2,0,0,0-16.9,1.3c-9.9,1.3-19.3,3.3-28.6,5.4-7.7,1.8-15.3,3.6-23.2,5.1l-3.2.5c-.3,0-.5-.1-.5-.2S72.5,613.8,72.6,613.8Z" transform="translate(-53.1 -510.9)"/><path class="cls-7" d="M72.6,629.5c3.7-1.1,7.5-2.2,11.4-3.1a112.2,112.2,0,0,1,31-3.1l7.1.4q.2.3-.3.3a119.5,119.5,0,0,0-43.5,4.4L72.6,630c-.3-.1-.2-.2-.1-.4Z" transform="translate(-53.1 -510.9)"/><path class="cls-16" d="M72.5,629.6v.4l-.3.2-8.1,2.6c0,.1-.1.1-.3.1s-.8.1-.8-.2l3.4-1.1c.3,0,.3-.2.4-.2H67Z" transform="translate(-53.1 -510.9)"/><path class="cls-6" d="M134.3,511a29.4,29.4,0,0,1,0,4.2,17.1,17.1,0,0,1-5.7,11.5c-3,2.7-7.1,4.6-13.1,5.5a30.9,30.9,0,0,1-9.6-.1,64,64,0,0,1-14.2-3.8,108.1,108.1,0,0,1-12.3-5.6l-6.9-3.8h0c-.1-.1-.2-.2,0-.3a1.7,1.7,0,0,1,1.3.3c3.5,2,7,4,10.9,5.8a100.2,100.2,0,0,0,15.2,5.8,44.5,44.5,0,0,0,10.7,1.6,28.4,28.4,0,0,0,10.4-1.7,17.5,17.5,0,0,0,8.9-6.3,16.5,16.5,0,0,0,3.2-7.7,33.9,33.9,0,0,0,.2-4.5c0-.3-.1-.6.3-.8A.9.9,0,0,1,134.3,511Z" transform="translate(-53.1 -510.9)"/><path class="cls-11" d="M72.6,518.5a.4.4,0,0,0-.1.3,27.5,27.5,0,0,1-2.9-1.7l-.7-.3h0c-.1-.2-.1-.3.2-.4a1.8,1.8,0,0,1,1.3.6l2.1,1.2C72.6,518.2,72.7,518.3,72.6,518.5Z" transform="translate(-53.1 -510.9)"/><path class="cls-1" d="M200.7,645.5l-8.6.6-9.6.5c-1.5.1-1.5.1-.9-.6l14.3-16.2.5-.6,5.6,3.7,10.1,6.8.4.4a4.5,4.5,0,0,1-1.4.6,73.1,73.1,0,0,0-8.9,4.2A5.2,5.2,0,0,1,200.7,645.5Z" transform="translate(-53.1 -510.9)"/><path class="cls-3" d="M200.7,645.5a77.5,77.5,0,0,1,11.2-5.3h.6l2.5,1.6a7.1,7.1,0,0,1,.1,2.5c0,.2,0,.4-.3.5l-13,.8Z" transform="translate(-53.1 -510.9)"/><path class="cls-17" d="M215.9,642.3l2.6,1.8c.5.3.4.4-.4.4h-2.2A1.8,1.8,0,0,1,215.9,642.3Z" transform="translate(-53.1 -510.9)"/><path class="cls-18" d="M215.9,642.3v2.3h-1.1v-2.6a.4.4,0,0,1,.2-.4Z" transform="translate(-53.1 -510.9)"/><path class="cls-19" d="M61.7,624.6c-.1-.2.1-.5.7-.6a2.2,2.2,0,0,1,1.4-.2c.4.1.2.4.2.6v.4c.1.1-.2.4.4.4s.7-.2.8-.5-.3-.3-.5-.5-.3-.2-.1-.3a.6.6,0,0,1,.6.1c.7.2.9.8.4,1.1a2.9,2.9,0,0,1-2.5.5C62.1,625.5,61.7,625.2,61.7,624.6Z" transform="translate(-53.1 -510.9)"/><path class="cls-19" d="M61.7,627.5q-.2-.6,1.5-.6a8.1,8.1,0,0,0,2.2-.1c.4-.1.5.1.4.2s-.1.5,0,.8-.1.7-.8.7-1.2-.1-1.4-.4-.2-.3-.3-.5-.2-.4-.6-.3-.5.3-.4.5.1.1.2.2.7.1.5.4-.3.1-.4,0-.8-.2-.9-.4Z" transform="translate(-53.1 -510.9)"/><path class="cls-19" d="M63.8,619.9c1.3,0,2.1.3,2.1,1s-.8.9-2.1.9-2.1-.3-2.1-1S62.4,619.9,63.8,619.9Z" transform="translate(-53.1 -510.9)"/><path class="cls-19" d="M66.6,631.5a2.5,2.5,0,0,0-1.7-.2l-2.3.5c-.3.1-.6.2-.8,0s.1-.3.4-.4l2.6-.4-2.4-.4c-.3-.1-.7-.1-.6-.4s.5-.1.8,0l3.6.7c.4,0,.8.2.8.4h-.4Z" transform="translate(-53.1 -510.9)"/><path class="cls-19" d="M62.1,629.9a5.8,5.8,0,0,0-1.4-.3.3.3,0,0,1-.1-.2c.1-.3.9-.1,1.1-.3s.5-.1.8,0A4.3,4.3,0,0,0,65,629a.8.8,0,0,1,.7-.1c.3.1.1.3,0,.4s-.6.2-1,.3S62.8,629.4,62.1,629.9Z" transform="translate(-53.1 -510.9)"/><path class="cls-20" d="M62.8,626.4h-2c-.3,0-.6,0-.6-.2s.3-.2.5-.2H65c.3,0,.5,0,.6.2s-.3.2-.6.2Z" transform="translate(-53.1 -510.9)"/><path class="cls-21" d="M63.7,622.6H62.2l-.5-.2c0-.2.2-.2.5-.2h3c.3,0,.6,0,.6.2s-.3.2-.6.2Z" transform="translate(-53.1 -510.9)"/><path class="cls-22" d="M61.7,633.1c-.1-.2.6-.3.2-.5s-.3-.3,0-.4.5.1.6.2l.4.3C62.8,633,62.3,633.1,61.7,633.1Z" transform="translate(-53.1 -510.9)"/><path class="cls-23" d="M61.7,633.1l1.2-.4h.2c.2.2.6.1.9.1s-.5.2-.8.3l-.6.2c-.2-.2-.6-.1-.9-.2Z" transform="translate(-53.1 -510.9)"/><path class="cls-24" d="M65.8,623.3c0,.1-.2.2-.5.2s-.5-.1-.5-.2.2-.3.5-.3S65.8,623.1,65.8,623.3Z" transform="translate(-53.1 -510.9)"/><path class="cls-25" d="M61,622.4c0,.1-.1.2-.4.2s-.4-.1-.4-.2.2-.2.4-.2S61,622.2,61,622.4Z" transform="translate(-53.1 -510.9)"/><path class="cls-26" d="M66.6,631.5H67c-.1.1.2.4-.5.2S66.5,631.5,66.6,631.5Z" transform="translate(-53.1 -510.9)"/><path class="cls-19" d="M61.7,634.5c0-.6.7-1,2-1s2.1.4,2.2,1-1,1-2.2,1S61.7,635.1,61.7,634.5Z" transform="translate(-53.1 -510.9)"/><path class="cls-19" d="M61.7,637.8c0-.2,0-.4.2-.5s.5-.3.8-.2,0,.2-.2.4-.3.2-.1.4.1.2.4.2a.5.5,0,0,0,.4-.2,2.1,2.1,0,0,1,.4-.6c.1-.3.6-.4,1.1-.4a1.6,1.6,0,0,1,.9.3c.5.4.3,1.1-.4,1.3a.6.6,0,0,1-.6,0c-.2-.1-.1-.2.1-.3l.4-.2c.1-.2.2-.5-.3-.6s-.6.2-.8.4a.3.3,0,0,1-.1.2c-.2.3-.3.7-1.2.6S61.6,638.2,61.7,637.8Z" transform="translate(-53.1 -510.9)"/><path class="cls-19" d="M64.5,642.4c.1.4-.1.6-1.2.6s-1.1-.3-1.1-.7.1-.7,1.2-.7S64.5,642,64.5,642.4Z" transform="translate(-53.1 -510.9)"/><path class="cls-20" d="M62.1,636.8a5.3,5.3,0,0,0-1.5-.5h0l.2-.2c.7.2.8-.5,1.6-.2a3.6,3.6,0,0,0,2.5.1c.3-.1.5-.4.9-.1s0,.3-.4.4-.1.1-.3.1S62.9,636.2,62.1,636.8Z" transform="translate(-53.1 -510.9)"/><path class="cls-27" d="M64.6,642.4c.4-.3-.3-.7.6-.7s1.7.2,1.7.6-1,.6-1.7.6S65.1,642.5,64.6,642.4Z" transform="translate(-53.1 -510.9)"/><path class="cls-27" d="M62.1,642.3c-.4.2.3.6-.6.6s-1.7-.2-1.7-.6,1-.5,1.7-.6S61.6,642.2,62.1,642.3Z" transform="translate(-53.1 -510.9)"/><path class="cls-28" d="M63.4,641.4c-.6,0-1.3.1-1.2-.4s.4-.5,1.1-.5,1.2.1,1.2.5S64,641.4,63.4,641.4Z" transform="translate(-53.1 -510.9)"/><path class="cls-28" d="M63.3,643.2c.6,0,1.2-.1,1.2.4s-.4.5-1.2.5-1.1,0-1.1-.5S62.7,643.2,63.3,643.2Z" transform="translate(-53.1 -510.9)"/><path class="cls-27" d="M59.9,641.8a1.6,1.6,0,0,1,1-.8l.8-.2c.3,0,.2.2.2.3s0,.3-.4.4Z" transform="translate(-53.1 -510.9)"/><path class="cls-29" d="M66.8,641.8l-1.4-.2c-.5-.1-.7-.3-.7-.5s-.1-.3.2-.3a1.3,1.3,0,0,1,1,.3A2.2,2.2,0,0,1,66.8,641.8Z" transform="translate(-53.1 -510.9)"/><path class="cls-29" d="M59.9,642.9l1.4.2c.5.1.7.2.6.5s.1.2-.1.3a2.9,2.9,0,0,1-1.1-.3A1.9,1.9,0,0,1,59.9,642.9Z" transform="translate(-53.1 -510.9)"/><path class="cls-27" d="M66.7,642.9a2.1,2.1,0,0,1-1,.8c-.2.1-.6.3-.9.1s-.3-.5.3-.6A9,9,0,0,1,66.7,642.9Z" transform="translate(-53.1 -510.9)"/><path class="cls-20" d="M63.2,633.1l.8-.3h.2c.5.1,1.3-.1,1.3.2s-.8.1-1.3.2Z" transform="translate(-53.1 -510.9)"/><path class="cls-6" d="M72.6,544.5c3,.5,5.8,1.2,8.7,1.9,8,1.9,15.6,4.1,23.5,6a156.4,156.4,0,0,0,18.8,3.6,86.7,86.7,0,0,0,24.4-.1,59.8,59.8,0,0,0,14.3-4,92.7,92.7,0,0,0,15.4-8.1c4.5-2.7,8.8-5.4,13.6-8a70.1,70.1,0,0,1,29.2-8.5q6-.4,12-.3c.1.3-.2.3-.7.3h-6.9a77.1,77.1,0,0,0-18.4,2.6,72.8,72.8,0,0,0-10.9,4.2,126.2,126.2,0,0,0-13.2,7.3c-3.7,2.2-7.2,4.5-11.1,6.6a81.1,81.1,0,0,1-14.5,6.2,68.6,68.6,0,0,1-16.2,2.7,108.3,108.3,0,0,1-26.3-2.1c-8.4-1.7-16.2-3.9-24.2-5.9-5.7-1.5-11.5-3-17.6-4.1Z" transform="translate(-53.1 -510.9)"/><path class="cls-30" d="M69.1,516.2h0a.5.5,0,0,0-.2.4c-2.4-1.4-4.6-2.8-6.7-4.2h.9a6.9,6.9,0,0,1,2.4,1.4A22.1,22.1,0,0,1,69.1,516.2Z" transform="translate(-53.1 -510.9)"/><path class="cls-31" d="M63.4,624.7c-.2.2.2.5-.5.5s-.6-.3-.6-.5.1-.5.6-.5S63.2,624.5,63.4,624.7Z" transform="translate(-53.1 -510.9)"/><path class="cls-32" d="M65.2,627.7c0,.3-.1.5-.6.4s-.6-.3-.8-.6.1-.3.5-.2S65.2,627.5,65.2,627.7Z" transform="translate(-53.1 -510.9)"/><path class="cls-33" d="M63.8,621.4c-.6,0-1.3-.1-1.4-.5s.6-.6,1.3-.6,1.4.1,1.5.5S64.5,621.4,63.8,621.4Z" transform="translate(-53.1 -510.9)"/><path class="cls-34" d="M63.9,633.9c.6.1,1.3.1,1.3.6s-.6.6-1.4.6-1.4-.1-1.4-.6S62.9,633.9,63.9,633.9Z" transform="translate(-53.1 -510.9)"/><line class="cls-35" x1="179.5" y1="58.7" x2="207" y2="63.1"/></svg>