<svg id="Layer_1" data-name="Layer 1" xmlns="http://www.w3.org/2000/svg" xmlns:xlink="http://www.w3.org/1999/xlink" viewBox="0 0 1077 1317.2"><defs><style>.cls-1{fill:url(#linear-gradient);}.cls-2{fill:url(#linear-gradient-2);}.cls-3{fill:url(#linear-gradient-3);}.cls-4{fill:url(#linear-gradient-4);}.cls-5{fill:url(#linear-gradient-5);}.cls-6{fill:url(#linear-gradient-6);}.cls-7{fill:#fff;}.cls-8{fill:url(#linear-gradient-7);}.cls-9{fill:url(#linear-gradient-8);}.cls-10{fill:url(#linear-gradient-9);}.cls-11{fill:url(#linear-gradient-10);}</style><linearGradient id="linear-gradient" x1="262.85" y1="870.92" x2="823.85" y2="870.92" gradientUnits="userSpaceOnUse"><stop offset="0" stop-color="#fc3468"/><stop offset="1" stop-color="#ff084a"/></linearGradient><linearGradient id="linear-gradient-2" x1="3420.27" y1="4161.33" x2="3618.35" y2="4161.33" xlink:href="#linear-gradient"/><linearGradient id="linear-gradient-3" x1="2790.69" y1="4161.33" x2="2988.76" y2="4161.33" xlink:href="#linear-gradient"/><linearGradient id="linear-gradient-4" x1="3024.76" y1="4529.67" x2="3187.93" y2="4529.67" xlink:href="#linear-gradient"/><linearGradient id="linear-gradient-5" x1="3230.18" y1="4529.67" x2="3393.35" y2="4529.67" xlink:href="#linear-gradient"/><linearGradient id="linear-gradient-6" x1="0" y1="464.67" x2="1077" y2="464.67" xlink:href="#linear-gradient"/><linearGradient id="linear-gradient-7" x1="192.91" y1="453.67" x2="435.25" y2="453.67" xlink:href="#linear-gradient"/><linearGradient id="linear-gradient-8" x1="502" y1="560.98" x2="585" y2="560.98" xlink:href="#linear-gradient"/><linearGradient id="linear-gradient-9" x1="642.91" y1="451.98" x2="885.25" y2="451.98" xlink:href="#linear-gradient"/><linearGradient id="linear-gradient-10" x1="2671.27" y1="3331" x2="3737.77" y2="3331" xlink:href="#linear-gradient"/></defs><title>flutch logo8</title><ellipse class="cls-1" cx="543.3" cy="870.9" rx="280.5" ry="371.3"/><path class="cls-2" d="M3420.3,4387.5s282.9-104,172.5-452.4c0,0-22,44.5-94.9,50.1C3497.9,3985.2,3553.3,4218.8,3420.3,4387.5Z" transform="translate(-2661 -3239.2)"/><path class="cls-3" d="M2988.8,4387.5s-283-104-172.5-452.4c0,0,21.9,44.5,94.8,50.1C2911.1,3985.2,2855.7,4218.8,2988.8,4387.5Z" transform="translate(-2661 -3239.2)"/><path class="cls-4" d="M3187.9,4538.8s-78.9,34.3-84.7,7.1c0,0-.9-10.1-6.4-.5s-31.4,18.2-31.4-4.5c0,0,.3-6.4-2.9-.8,0,0-18.6,28-37.7,4,0,0-.6-47,68.2-40.6C3093,4503.5,3167.9,4519.3,3187.9,4538.8Z" transform="translate(-2661 -3239.2)"/><path class="cls-5" d="M3230.2,4538.8s79,34.3,84.8,7.1c0,0,.8-10.1,6.3-.5s31.4,18.2,31.4-4.5c0,0-.3-6.4,2.9-.8,0,0,18.6,28,37.8,4,0,0,.5-47-68.3-40.6C3325.1,4503.5,3250.2,4519.3,3230.2,4538.8Z" transform="translate(-2661 -3239.2)"/><rect class="cls-6" y="172.7" width="1077" height="584" rx="276"/><rect class="cls-7" x="116" y="270.2" width="837" height="390" rx="195"/><circle class="cls-8" cx="314.1" cy="453.7" r="121.2"/><circle class="cls-7" cx="358.6" cy="395.3" r="56.7"/><polygon class="cls-9" points="542.9 503.7 502 561.2 542.9 618.3 585 561 542.9 503.7"/><circle class="cls-10" cx="764.1" cy="452" r="121.2"/><circle class="cls-7" cx="720.6" cy="395.3" r="56.7"/><path class="cls-11" d="M2845.9,3422.7s-166.4-1.5-174.6-174.6c0,0-.4-14.9,11-5.4s270.7,160.3,824.8,74.9c0,0,125.9-20.6,218.4-74.2,0,0,13-12,12.2,4.7s-10.7,163.8-174.6,174.6Z" transform="translate(-2661 -3239.2)"/></svg>