<svg id="Layer_1" data-name="Layer 1" xmlns="http://www.w3.org/2000/svg" viewBox="0 0 281.3 408"><path d="M317.5,336.8h91.7c2.7,0,2.7,0,2.7,2.4q0,126.6.1,253.3c0,1.8-.5,2.4-2.6,2.4H329.2c-1.9,0-2.3-.5-2.7-2.2-1-5.3-1-10.6-1.7-15.8s-.5-8-.9-12-1-6.9-1.2-10.4-.7-6.5-.9-9.7-.9-9.1-1.4-13.7-.3-6.8-.7-10.3c-1.3-10.7-2.4-21.4-3.7-32.2-.9-7.7-1.8-15.5-3.1-23.3-.7-4-1.4-7.9-2-12s-1-6.1-1.5-9.2c-.3-.8.5-1.1.9-1.5q16.6-18.9,33.5-37.7c5.1-5.8,6-12.2,2.6-19-2-4.1-4.1-8.1-6.1-12.2l-15.7-25.3C322.2,344.5,319.6,340.8,317.5,336.8Z" transform="translate(-130.7 -257.7)" style="fill:#f51bfa"/><path d="M216.8,469.7c.6,11.7,1,23.4,1.7,35.2,1,17.1,1.3,34.3,2,51.4.2,6.3.2,12.6.3,18.8s0,11.5.2,17.3c.1,1.8-.3,2.4-2.5,2.4H133.2c-1.8,0-2.5-.3-2.5-2.2V338.8c0-1.4.2-2.2,2.1-2.2h91.9c-.5,1.3-.9,2.7-1.4,4a138.4,138.4,0,0,0-8.3,28.7c-1.4,8-2.1,16-3.8,23.8-.4,1.7-1.1,3.6-.3,5.4v.7c-.6.1-.7.4-.5.9.1,2.2-.6,4.3-.9,6.4s-.6,6.6-1.2,9.9-1.5,7.8-1.6,11.7c-.5.3-.5.7-.1,1.1a39.3,39.3,0,0,0,0,8.4c-.4.4-.4.8.1,1.1-.1,2.9.8,5.6,1.6,8.3a4.7,4.7,0,0,0,1.2,3.1l.4,1.1c-.1.4-.1.7.4.8a16,16,0,0,0,2.3,4,4.4,4.4,0,0,0,1.7,3.2c.5,1.1.7,2.4,1.7,3.2Z" transform="translate(-130.7 -257.7)" style="fill:#f51bfa"/><path d="M317.5,336.8c2.1,4,4.7,7.7,7.1,11.5l15.7,25.3c-.9-.2-1.4.4-2,.8l-35.9,24.8a14.2,14.2,0,0,0-3.5,2.9L276.5,430c-1.3,1.6-2.9,3.1-3.8,5l-.4.3a22,22,0,0,0-6.2,12.2c-.1.4.1,1-.5,1.1s-1-.3-1.4-.7a38,38,0,0,1-11.8-20.3,55.5,55.5,0,0,1-1.2-12.2c.9-.8.6-1.7.6-2.5V336.5h65Zm-34,16H267.9c-1.6-.1-2.2.4-2.2,1.9q.2,10.8,0,21.6a2.4,2.4,0,0,0,1.6,2.4l14.9,7.3a2.6,2.6,0,0,0,2.8-.1l14.6-7.1a2.5,2.5,0,0,0,1.6-2.4c-.1-7.2-.1-14.5,0-21.8,0-1.5-.6-1.9-2.2-1.8Z" transform="translate(-130.7 -257.7)" style="fill:#6915c5"/><path d="M251.8,336.5v76.4c0,.8.3,1.7-.6,2.5H221.9c-1.9,0-2.7.4-3.2,2.3-1.3,5-2.9,9.9-4.4,14.8-.4.3-.3.6.2.8l.2,6.4a3.4,3.4,0,0,0,.3,2.6c0,1,0,2,.1,3a3.6,3.6,0,0,0,.3,3.5l.3,6.7a2,2,0,0,0,.2,2c.1,1.3.3,2.5.5,3.8a1.7,1.7,0,0,0-.5,1.3c-1-.8-1.2-2.1-1.7-3.2a8.3,8.3,0,0,0-1.7-3.2,16,16,0,0,1-2.3-4c.5-.6-.1-.6-.4-.8a3.6,3.6,0,0,0-.4-1.1,3.7,3.7,0,0,0-1.2-3.1c-.8-2.7-1.7-5.4-1.6-8.3a1.1,1.1,0,0,0-.1-1.1,39.3,39.3,0,0,1,0-8.4,1.1,1.1,0,0,0,.1-1.1c.1-3.9,1-7.8,1.6-11.7s.8-6.6,1.2-9.9,1-4.2.9-6.4c.5-.1.7-.4.5-.9v-.7c1,.1,1.2.8,1.6,1.4,2.1,2.9,4.2,5.9,6.4,8.8.4.5.6,1.3,1.5,1.5l1-2.5c4.8-14.3,8.1-28.8,11.1-43.5,1.9-9.2,3.8-18.4,5.1-27.8s3.4-18.2,3.2-27.5c0-.3.3-.9-.4-1s-.5-3.3-1.4-4.8.3-.9.6-1.3c1.9-2.8,5.1-4.5,7.1-7.2.6-.8.2-4.3-.6-4.9s-.7.1-1,.3c-3.8,1.7-6.3.5-7-2.5a90.9,90.9,0,0,1-2-10.4h1.8a13.1,13.1,0,0,0,11.7-3.7c1.8-1.7,3.8-3.3,5.6-4.9s.9-1.1,1.7-1a17.9,17.9,0,0,1-.5,6.9c-1.2,5.2.8,9.9,2.2,14.8.2.7.5,1.4.7,2.1L247,304.4c-.7.6-.4,1.2-.2,1.9l3.6,8.9a13.5,13.5,0,0,1,1.3,5.6C251.7,326.1,251.5,331.3,251.8,336.5Z" transform="translate(-130.7 -257.7)" style="fill:#0d1018"/><path d="M272.7,435c.9-1.9,2.5-3.4,3.8-5l22.4-27.9a14.2,14.2,0,0,1,3.5-2.9l35.9-24.8c.6-.4,1.1-1,2-.8,2,4.1,4.1,8.1,6.1,12.2,3.4,6.8,2.5,13.2-2.6,19q-16.8,18.8-33.5,37.7c-.4.4-1.2.7-.9,1.5-2,.6-2.5,2.5-3.8,3.7-2.6,2.7-5,5.5-7.4,8.3a1,1,0,0,0-.4,1l-.4.6a38.1,38.1,0,0,1-6.5-5.4c-3.8-3.5-7.3-7.2-11.2-10.6-2.2-1.9-4.3-4.1-6.6-6Z" transform="translate(-130.7 -257.7)" style="fill:#0d1018"/><path d="M251.8,336.5c-.3-5.2-.1-10.4-.1-15.7a13.5,13.5,0,0,0-1.3-5.6l-3.6-8.9c-.2-.7-.5-1.3.2-1.9l12.3-12.9c3.1,2.8,6,5.7,9.8,7.7s9.4,3,14.2,4.3,11.6,3.6,15.8,7.9a82.9,82.9,0,0,1,8.4,11.1c3.2,4.6,6.2,9.3,9.3,13.9h-65Z" transform="translate(-130.7 -257.7)" style="fill:#f51bfa"/><path d="M237.6,336.5c-1.3,9.4-3.2,18.6-5.1,27.8-3,14.7-6.3,29.2-11.1,43.5l-1,2.5c-.9-.2-1.1-1-1.5-1.5-2.2-2.9-4.3-5.9-6.4-8.8-.4-.6-.6-1.3-1.6-1.4-.8-1.8-.1-3.7.3-5.4,1.7-7.8,2.4-15.8,3.8-23.8a138.4,138.4,0,0,1,8.3-28.7c.5-1.3.9-2.7,1.4-4l.3-.3Z" transform="translate(-130.7 -257.7)" style="fill:#6915c5"/><path d="M266.4,645.1c.1,3.1.2,6.2.2,9.3,0,1.4.3,1.9,2,1.6s6.2-1,9.3-1.6a8.7,8.7,0,0,1,4.8.4l34.7,10a10.3,10.3,0,0,0,2.5.1h46.2a3.3,3.3,0,0,1,2.3.4,3.4,3.4,0,0,1-2.1.4H253.6c-2.2,0-2.7-.8-1.7-2.9a9.5,9.5,0,0,1,6.8-5.3c1.9-.3,3.8-.7,5.7-.9s1.4-.6,1.4-1.6c-.1-3.3-.1-6.6-.1-9.8Z" transform="translate(-130.7 -257.7)" style="fill:#0d1018"/><path d="M215.5,654.2h1.8c.2.2.4.4.7.3l25.1,10.8v.4H190.9c-2.8,0-3.3-.8-2.2-3.1a8.7,8.7,0,0,1,6.8-5.1l9.7-1.6a.6.6,0,0,0,.8-.1l1.3-.2a1.3,1.3,0,0,0,1.2-.2l1.3-.2a1.1,1.1,0,0,0,1.1-.2l1-.2a.8.8,0,0,0,1.1-.2l1.3-.2A1,1,0,0,0,215.5,654.2Z" transform="translate(-130.7 -257.7)" style="fill:#0d1018"/><path d="M256.9,267.7c-.8-.1-1.2.6-1.7,1s-3.8,3.2-5.6,4.9a13.1,13.1,0,0,1-11.7,3.7h-1.8a11.8,11.8,0,0,0-5.6.6c-.7.2-1.3.3-1.8-.3s-.2-1.1.3-1.7l5.7-6.9a2.5,2.5,0,0,0,1.2.2,23.3,23.3,0,0,1,7.9,0c.5.1,1.3.3,1.3-.4s-.7-.5-1.2-.7c-2.9-.6-5.8-.1-8.8-.2-.5-4.7,2.7-8.7,7.7-9.8,6.8-1.4,12,1.2,13.8,6.7A6.2,6.2,0,0,1,256.9,267.7Z" transform="translate(-130.7 -257.7)" style="fill:#6915c5"/><path d="M277.8,566.4c-1-.7-.9-1.7-1-2.6-.5-4.3-.7-8.6-1.5-12.8s-.9-6.7-1.3-10-.5-4.2-.6-6.3a16.5,16.5,0,0,0-.6-4.3,40.7,40.7,0,0,1-.6-6c-.3-2-.2-4-.7-6s-.1-3.5-.5-5.3-.5-4-.8-5.9-.1-3.4-.4-5-.6-4.6-.8-6.9-.8-6.7-.9-10a54.3,54.3,0,0,0-1.2-8.9,52.5,52.5,0,0,1-.5-5.7c-.2-1.7-.4-3.4-.7-5.1s-.2-.8-.1-1.1-.6-1.6.5-1.7.8,1,.8,1.6q4.1,36.3,8,72.8l1.8,16.5h.5V450.1h.6Z" transform="translate(-130.7 -257.7)" style="fill:#0d1018"/><path d="M237.6,336.5H225c3.7-9.5,8.1-18.7,14.5-27l.9-1.4c.7.1.4.7.4,1C241,318.3,239.5,327.4,237.6,336.5Z" transform="translate(-130.7 -257.7)" style="fill:#f51bfa"/><path d="M266.4,645.1h-.7c-.2-4.8-.5-9.6-.5-14.4s-.8-10.9-.9-16.4c-.1-3.9-.4-7.9-.8-11.7s-.5-5.4-.7-8.1-.3-5.9-.5-8.9c-1.5-17.7-3.4-35.4-5.8-53-.9-7.3-1.7-14.6-3-21.8-1.1-5.5-1.8-10.9-2.7-16.4s-1.5-9.4-2.2-14.2-2.3-11.8-3.2-17.8-2-10.2-2.9-15.4-1.2-7.7-1.9-11.5c-.1-.4-.6-1.1.2-1.2s.7.7.8,1.1c1,5,2,10,2.9,14.9,1.7,9,3.4,18,4.9,27.1s3.1,20.4,4.6,30.5,2.9,19.1,4.1,28.6c2.7,22.2,5.1,44.5,6.6,66.8.9,13.4,1.6,26.7,1.8,40A4.9,4.9,0,0,1,266.4,645.1Z" transform="translate(-130.7 -257.7)" style="fill:#0d1018"/><path d="M215.9,462.5a1.7,1.7,0,0,1,.5-1.3c.9,2.9,1.1,6,1.6,9,1.3,7.5,2.4,15.1,3.6,22.7l7.2,46.4c.7,4.3,1.5,8.6,2.2,12.9a.5.5,0,0,0,.6.6c.5.6-.3,1.6.8,2,.5,3.5.5,7.1.7,10.6.1.5.1,1.2-.7,1.1s-.7-.7-.7-1.2c-.4-3.2-1-6.4-1.5-9.6s-.9-6.2-1.3-9.3-1.1-6.1-1.6-9.1-.9-5.8-1.4-8.7-.6-4.9-1.1-7.3-.9-6-1.3-9-.7-3.3-.9-4.9c-1.2-11-3.3-22-4.9-32.9l-.9-4.8Z" transform="translate(-130.7 -257.7)" style="fill:#0d1018"/><path d="M231.4,549.6c-.8-6.9-.9-13.9-1.3-20.8s-.6-13.1-1.2-19.7-.4-10.5-1-15.8c-.4-3.3-.3-6.6-.5-9.9s-.4-7.8-.7-11.7,0-9.7-.6-14.5a56.1,56.1,0,0,1,0-7.1c1,.2.7,1.1.7,1.7,1.5,27.5,3.1,55.1,4.6,82.7.3,5,.8,10,.6,15.1Z" transform="translate(-130.7 -257.7)" style="fill:#0d1018"/><path d="M235.1,267.8c3,.1,5.9-.4,8.8.2.5.2,1.3.1,1.2.7s-.8.5-1.3.4a23.3,23.3,0,0,0-7.9,0,2.5,2.5,0,0,1-1.2-.2C234.4,268.4,235,268.2,235.1,267.8Z" transform="translate(-130.7 -257.7)" style="fill:#383635"/><path d="M297.4,457.6l.4-.6,5.9,5.8A29.1,29.1,0,0,1,297.4,457.6Z" transform="translate(-130.7 -257.7)" style="fill:#383635"/><path d="M231.4,549.6h.6a22.8,22.8,0,0,1,.4,5.2c-1.1-.4-.3-1.4-.8-2S231.4,550.7,231.4,549.6Z" transform="translate(-130.7 -257.7)" style="fill:#030201"/><path d="M215.4,448.7a3.6,3.6,0,0,1-.3-3.5C215,446.4,215.7,447.5,215.4,448.7Z" transform="translate(-130.7 -257.7)" style="fill:#383635"/><path d="M215,442.2a3.4,3.4,0,0,1-.3-2.6A3.4,3.4,0,0,1,215,442.2Z" transform="translate(-130.7 -257.7)" style="fill:#383635"/><path d="M215.5,654.2a1,1,0,0,1-1.2.2A.8.8,0,0,1,215.5,654.2Z" transform="translate(-130.7 -257.7)" style="fill:#6998b2"/><path d="M213,654.6a.8.8,0,0,1-1.1.2C212.2,654.3,212.5,654.3,213,654.6Z" transform="translate(-130.7 -257.7)" style="fill:#6998b2"/><path d="M210.9,655a1.1,1.1,0,0,1-1.1.2C210.1,654.7,210.5,654.6,210.9,655Z" transform="translate(-130.7 -257.7)" style="fill:#6998b2"/><path d="M208.5,655.4a1.3,1.3,0,0,1-1.2.2A.7.7,0,0,1,208.5,655.4Z" transform="translate(-130.7 -257.7)" style="fill:#6998b2"/><path d="M215.9,457.4a2,2,0,0,1-.2-2A2.7,2.7,0,0,1,215.9,457.4Z" transform="translate(-130.7 -257.7)" style="fill:#383635"/><path d="M214.5,433.2c-.5-.2-.6-.5-.2-.8A.5.5,0,0,1,214.5,433.2Z" transform="translate(-130.7 -257.7)" style="fill:#383635"/><path d="M272.7,435l.4.6-.8-.3Z" transform="translate(-130.7 -257.7)" style="fill:#6998b2"/><path d="M218,654.5c-.3.1-.5-.1-.7-.3S217.9,654.1,218,654.5Z" transform="translate(-130.7 -257.7)" style="fill:#6998b2"/><path d="M206,655.8a.6.6,0,0,1-.8.1C205.4,655.5,205.7,655.5,206,655.8Z" transform="translate(-130.7 -257.7)" style="fill:#6998b2"/><path d="M212.5,456.1a8.3,8.3,0,0,1,1.7,3.2A4.4,4.4,0,0,1,212.5,456.1Z" transform="translate(-130.7 -257.7)" style="fill:#ab6329"/><path d="M208.2,447.1a3.7,3.7,0,0,1,1.2,3.1A4.7,4.7,0,0,1,208.2,447.1Z" transform="translate(-130.7 -257.7)" style="fill:#ab6329"/><path d="M206.6,428.2a1.1,1.1,0,0,1-.1,1.1C206.1,428.9,206.1,428.5,206.6,428.2Z" transform="translate(-130.7 -257.7)" style="fill:#ab6329"/><path d="M206.5,437.7a1.1,1.1,0,0,1,.1,1.1C206.1,438.5,206.1,438.1,206.5,437.7Z" transform="translate(-130.7 -257.7)" style="fill:#ab6329"/><path d="M210.8,399.3c.2.5,0,.8-.5.9S210.2,399.4,210.8,399.3Z" transform="translate(-130.7 -257.7)" style="fill:#ab6329"/><path d="M209.8,451.3c.3.2.9.2.4.8S209.7,451.7,209.8,451.3Z" transform="translate(-130.7 -257.7)" style="fill:#ab6329"/><path d="M283.5,352.8H299c1.6-.1,2.2.3,2.2,1.8-.1,7.3-.1,14.6,0,21.8a2.5,2.5,0,0,1-1.6,2.4L285,385.9a2.6,2.6,0,0,1-2.8.1l-14.9-7.3a2.4,2.4,0,0,1-1.6-2.4q.2-10.8,0-21.6c0-1.5.6-2,2.2-1.9Zm.2.9H268.6c-1.2,0-1.9.3-1.9,1.6.1,7,0,14,0,21a1.8,1.8,0,0,0,1.2,1.8l14.3,7.1a2.8,2.8,0,0,0,2.5,0l14.4-7.1a1.8,1.8,0,0,0,1.2-1.9V355.2c0-1.2-.5-1.6-1.8-1.6Z" transform="translate(-130.7 -257.7)" style="fill:#030201"/><path d="M283.7,353.7h14.8c1.3,0,1.8.4,1.8,1.6v20.9a1.8,1.8,0,0,1-1.2,1.9l-14.4,7.1a2.8,2.8,0,0,1-2.5,0L267.9,378a1.8,1.8,0,0,1-1.2-1.8c0-7,.1-14,0-21,0-1.3.7-1.6,1.9-1.6Z" transform="translate(-130.7 -257.7)" style="fill:#6915c5"/></svg>