<svg id="Layer_1" data-name="Layer 1" xmlns="http://www.w3.org/2000/svg" xmlns:xlink="http://www.w3.org/1999/xlink" viewBox="0 0 1077 736.7"><defs><style>.cls-1{fill:url(#linear-gradient);}.cls-2{fill:#fff;}.cls-3{fill:url(#linear-gradient-2);}.cls-4{fill:url(#linear-gradient-3);}.cls-5{fill:url(#linear-gradient-4);}.cls-6{fill:url(#linear-gradient-5);}</style><linearGradient id="linear-gradient" y1="444.67" x2="1077" y2="444.67" gradientUnits="userSpaceOnUse"><stop offset="0" stop-color="#fc3468"/><stop offset="1" stop-color="#ff084a"/></linearGradient><linearGradient id="linear-gradient-2" x1="192.91" y1="433.67" x2="435.25" y2="433.67" xlink:href="#linear-gradient"/><linearGradient id="linear-gradient-3" x1="502" y1="540.98" x2="585" y2="540.98" xlink:href="#linear-gradient"/><linearGradient id="linear-gradient-4" x1="642.91" y1="431.98" x2="885.25" y2="431.98" xlink:href="#linear-gradient"/><linearGradient id="linear-gradient-5" x1="1380.7" y1="2370.14" x2="2447.2" y2="2370.14" xlink:href="#linear-gradient"/></defs><title>log</title><rect class="cls-1" y="152.7" width="1077" height="584" rx="276"/><rect class="cls-2" x="116" y="250.2" width="837" height="390" rx="195"/><circle class="cls-3" cx="314.1" cy="433.7" r="121.2"/><circle class="cls-2" cx="358.6" cy="375.3" r="56.7"/><polygon class="cls-4" points="542.9 483.7 502 541.2 542.9 598.3 585 541 542.9 483.7"/><circle class="cls-5" cx="764.1" cy="432" r="121.2"/><circle class="cls-2" cx="720.6" cy="375.3" r="56.7"/><path class="cls-6" d="M1555.4,2461.9s-166.4-1.6-174.7-174.7c0,0,4.3-10.9,11.1-5.3,11.5,9.4,270.6,160.2,824.8,74.9,0,0,125.8-20.7,218.3-74.2,0,0,13.1-12,12.3,4.6s-10.8,163.9-174.7,174.7Z" transform="translate(-1370.4 -2278.4)"/></svg>