<svg id="Layer_1" data-name="Layer 1" xmlns="http://www.w3.org/2000/svg" viewBox="0 0 814.4 379.4"><defs><style>.cls-1{fill:#f1fafa;}.cls-2{fill:#f7f7f7;}.cls-3{fill:#cdd6d6;}.cls-4{fill:#d9d9d9;}.cls-5{fill:#010101;}.cls-6{fill:#d8d8d8;}.cls-7{fill:#d7d8d8;}.cls-8{fill:#dadada;}.cls-9{fill:#f6f6f6;}.cls-10{fill:#f0f9f9;}.cls-11{fill:#838383;}.cls-12{fill:#848484;}.cls-13{fill:#858585;}.cls-14{fill:#868686;}.cls-15{fill:gray;}.cls-16{fill:#ebf3f3;}.cls-17{fill:#ced6d6;}.cls-18{fill:#cfd8d8;}.cls-19{fill:#e8f0f0;}.cls-20{fill:#838484;}.cls-21{fill:#848585;}.cls-22{fill:#878888;}.cls-23{fill:#f8f8f8;}.cls-24{fill:#fefefe;}.cls-25{fill:#eaf2f2;}.cls-26{fill:#fcfcfc;}.cls-27{fill:#fdfdfd;}.cls-28{fill:#f0f8f8;}.cls-29{fill:#cbd4d4;}.cls-30{fill:#ccd5d5;}.cls-31{fill:#f1f9f9;}.cls-32{fill:#fbfbfb;}</style></defs><title>500</title><path class="cls-1" d="M799,401.1c-1.5,1.5-3.5.9-5.2.9H741.3c-1,0-2,.1-3,0s-3.3.8-3.4,3.1,2.2,1.8,3.4,1.8h93.5c1.8,0,3.7-.6,5.2,1-1.7,1.8-3.9,1.5-6.1,1.5H597.5c-2.7,0-5.3.3-7.9-.6s-3.2-4.5-2.2-7.5,3.8-1.7,5.9-1.7c7,0,13.9-.2,20.8.2a22.5,22.5,0,0,0,6.9-.4c1.7-.4,2.9-1.2,1.6-3.1s-4.5-.7-5.5-3.2-.7-4.6-.7-6.9V296.9a22.8,22.8,0,0,1,.6-6.9c3-4,7.3-1.7,10.7-2.5-3.3-.9-7.4,1.3-10.5-2.1-1.1-2.7-.8-5.6-.8-8.4,0-35.9,0-71.9-.1-107.8,0-2,1.3-4.5-1.3-6-1,1.9-.6,4-.6,5.9V278.2c0,2.6.5,5.3-1,7.8-5.3,2.8-11,1.5-16.6,1-2.4-.2-2.8-2.5-2.8-4.6,0-5-.2-10,.1-15s-1.6-5.5-5.6-5.5c-21.8.2-43.5.1-65.2.1h63.4c6.7,0,7.3.6,7.3,7v12.5c-.1,5-1,5.9-6.4,6-11.2.1-22.3,0-33.5,0h-12c-.3.1-.2,0,.4,0,13-.1,13-.1,13,13.2,0,1.8.1,3.6,0,4.5.1-2.9-.1-6.9,0-10.8.2-5.5,1.3-6.8,6.8-6.9,15,0,30-.1,45,0,6.1.1,7.1,1.2,7.1,7.5v79.5c0,6,.3,12-.3,18a3.5,3.5,0,0,1-.6,1.4c-.8.5-1.6.6-2.2-.1-2-2.7-3.3-.9-4.6.7-6.6,1.9-13.3.8-20,.8a13.9,13.9,0,0,0-6.1,0,53,53,0,0,1-8,.3H449.3c-2.7,0-5.4.2-7.9-.6s-1.4-3-.3-4.3c4.1-4.6,8.3-9,14.2-11.5,25.1-10.8,50.6-20.6,75.8-31.1,2.9-1.2,5.8-2.5,8.1-4.8,5.1-5.1,3.6-12.6-3.1-15.4a19,19,0,0,0-7.8-1.5c-19-.2-38-.1-56.9,1a3.5,3.5,0,0,0-2.6,1.1c1.6,1.6,3.7,1.1,5.5,1.1,14.8-.3,29.6.8,44.4-.8a31.7,31.7,0,0,1,14.3,1.1c3.4,1.1,6.2,3,6.5,6.8s-2.3,5.7-5.3,7.1c-10.2,4.6-20.6,8.5-31,12.7-14.8,6-29.5,12.3-44.4,18-7.5,2.8-13.6,7.5-19.1,13.2-2.9,2.9-5.3,6.5-9.7,7.6-14.8.7-29.6.2-44.4.2a8,8,0,0,1-4.3-1c-2.1-2.1-1.2-4.4-.5-6.6,5.2-14.9,9.4-30.1,14.9-45,4.4-12,1.1-22.3-6.8-31.4-5.4-6.2-13.4-7.3-19.9-3.4a15.5,15.5,0,0,0-6.8,18.6c.8,2.4,1.9,4.6,4.6,5.5,1.3-2.1-.4-3.2-1.1-4.6-3-5.8-1.8-12.3,3.1-16.2s12.4-3.8,16.8,1c7.7,8.2,11.9,17.3,7.6,29-5.9,16.1-10.9,32.5-16.3,48.8-.8,2.2-1.3,4.5-4.2,5.1-13,.7-26.1.2-39.2.3-11.4,0-22.8.3-34.2-.2a19.6,19.6,0,0,0-6.4,0c-7.2.4-14.5.1-21.7.1-2,0-4,0-5.6-1.5s-1-4.2-1-6.3V193.6c0-2.3-.5-4.7,1.4-6.6,11.6-.3,23.3.9,34.8-1,1.2-.2,2.4.1,3.2-1,2.3-.3,3.1,1.7,4.3,2.9,16.4,15.8,47.4,14.9,61.4-.9,4.5-5,6.3-11.2,8.7-17.1a5.7,5.7,0,0,1,5.7-2.2c1.8,1.5,2.1,3.7,3,5.7,7.3,16.1,19.8,25.4,37.5,26,12.9.5,24.2-4.2,32.4-14.6a54.4,54.4,0,0,0,9.7-19c.5-1.4.8-2.9,2-4,2.9-1.1,3.3,1.4,4.1,3.1,2.1,4.2,4.2,8.4,8,11.3,3.5,4.4,6.5,9.2,10.7,13.1,7.2,6.4,15.6,9.4,25,10l1.5-.3a1,1,0,0,0,.6-.8c-1.1-2.2-3.3-1.8-5.1-1.9a30.1,30.1,0,0,1-11.5-3c-1.6-.8-3.6-1.4-3.3-3.8s2.7-1.8,4.4-1.6c27.8,3.1,42.7-17.5,45.6-39.2a102.7,102.7,0,0,0-.3-31.3c-.3-1.8-.8-3.6.2-5.3a4.3,4.3,0,0,1,3.7-1.5c2.8,1.2,3.4,3.9,4.2,6.4a89.5,89.5,0,0,1,3.9,20.5c.1,1.5-.2,3,1,4.9,1.7-2.2,1.3-4.5,1.1-6.6a100.9,100.9,0,0,0-3.2-18.1c-.6-1.8-1.7-3.7-.3-5.7,15.9.4,31.2,4.1,46,9.6,24.9,9.2,47.2,22.8,68,39.1,9,7.1,17,15.4,24.8,23.8a7.1,7.1,0,0,0,6,2.5h55c1.7,0,3.7-.6,5.2.9-2,2.1-4.6,1.5-7,1.5H701.3c-10.8,0-12.1.6-10.5,11.1.9,6.1-.6,11.6-.4,17.4a20.7,20.7,0,0,0,.4,5c1.4,4.9,1.2,5.4-3.8,5.4-9.1.2-18.3.1-27.5.1-3.9,0-5.6-1.6-5.6-5.7.2-18,.1-36,.1-53.7v.7q.6,108.2.4,216.3c0,4.5.4,8.9-5.5,10a1.4,1.4,0,0,0-1.2,1.4c0,1,.8,1.4,1.6,1.6a24.3,24.3,0,0,0,6,.4c27,.1,53.9-.1,80.9.1,19.1-.3,38.2-.1,57.3-.1C795.4,399.4,797.5,399.4,799,401.1Z" transform="translate(-23.5 -78.1)"/><path class="cls-1" d="M73,242c2.4.3,3.9-.5,4.9-3,10.4-25.2,27.8-43.8,52.8-54.8a88.3,88.3,0,0,1,22.5-6.1c2.1-.3,3-1.1,2.8-3.1,2.4,0,2.4,2.2,3.3,3.6,4.1,10.4,8,20.8,12.5,31,3.4,7.9,4.4,16,4.7,24.4.5,13.9.7,27.9,1.9,41.8.1,2.2.1,4.3.1,6.5-.1,3.7-1.5,6.1-5.6,6.1s-4.6,2.2-4.3,5.6c1.3,11.8,1.8,23.8,2.9,35.7,1.4,14.8,2.2,29.8,3.6,44.6.6,6.5,1.3,12.9,1.3,19.4s1,6.8,7.1,6.9h23c5.4,0,6.7-1,7-6.2.5-9.6,1.3-19.2,2.1-28.8,1.3-16.5,2.5-33.1,3.8-49.6.6-8.1,1.3-16.2,1.7-24.3.1-2.7-1.6-2.9-3.5-3.3-6.5-1.2-6.8-1.5-6.3-8.1,2.2-28,4.5-56,7.1-84,.2-2.8-.1-5.7.5-8.5s.8-2.9,2.1-3.8c13.4.5,26.5,2.9,39.9,3l.7.7c1.2,2.1,1,4.5,1,6.8V386.4c0,4.1.2,8.3-5.1,9.5a1.8,1.8,0,0,0-1.5,1.8c.1,1.3,1.3,1.4,2.2,1.6a47.1,47.1,0,0,0,7.5.3c10.1-.1,20.3-.7,30.4.3,3.3,1.8,6.2,3.8,4.8,8.3-2.5,1.9-5.4,1.2-8.2,1.2H31c-2.1,0-4.3.3-6-1.6,1.7-1.6,3.8-.9,5.7-.9h72.9c-3.5-4.6-6.9-8.6-9.8-12.8C79.8,373.9,71.6,351.3,68,327c-2.6-17.1-3.1-34.3-.1-51.4.6-3.4-.6-4.7-4.2-4.7s-8.6,1.2-12.7-.9c5.9-2,11.9-.7,17.9-.8,2.7,1.3,2.5,3.7,2.6,6V277c.1-7.6.8-8.3,8.2-8.4,20.6-.3,41.2.8,58.8.4h-23c-4.9-.1-5.7-.8-5.9-5.8s-.1-9,0-13.5,1-5.6,6.1-5.7c9.1,0,18.3-.1,27.4.1,3.7,0,5.3-1.2,4.9-4.9s0-5,0-7.5v.6c-.1,13.2,1.5,11.7-11.7,11.7-20-.1-39.9.8-59.9.3C74.9,244.1,73.2,244.2,73,242Z" transform="translate(-23.5 -78.1)"/><path class="cls-2" d="M383.7,168l-4.4,2c-1.3-.7-1-2-.9-3.1a40.9,40.9,0,0,0-5.5-24.2c-.6-1.1-1.5-2.3-.7-3.7s.8-5.5.7-8.3c0-14.5,3.5-27.8,12.9-39.3,5.1-6.3,11.8-10,19.5-11.9A41.1,41.1,0,0,1,432.9,82c1.6.7,3.6,1.1,4,3.3-3.5,2.4-7.5-1.1-11.5,1,2.1,2.2,4.6,2,6.9,2.4,7.6,1.2,14.3,4.2,19.6,10,1.3,1.3,2.6,2.6,2.7,4.6,1.2,5.8,3.2,11.3,4,17.2a76,76,0,0,1,.6,15.8,8.8,8.8,0,0,1-.5,1.5c-2.1,2.4-5.2,2.8-8,3.8s-4-.5-5.4,1.5-4.9,5.3-9,3.4c-1.4-5.4-.5-10.9-.7-16.4a50.6,50.6,0,0,0-3.1-17.6c-3.1-7.9-9.1-12.1-17.1-12.1s-14.1,4.1-16.9,12.3a65.8,65.8,0,0,0,.5,44c.6,1.7,1.7,3.3,1.6,5.2-2.9,4-7.1,5-11.7,4.8-2.7-1.5-2.6-4.4-3.2-6.9-1.5-5.5-1-11.4-3.1-17.4-1.6,2.3-1.2,4.3-.9,6.2.7,4.9,1.1,9.8,2.3,14.7C384.3,164.8,385,166.5,383.7,168Z" transform="translate(-23.5 -78.1)"/><path class="cls-3" d="M220,187c-.5,16.6-2.3,33.1-3.8,49.6-1,9.7-1.5,19.5-2.2,29.2-.4,5.6-.6,11.3-1.5,16.8-.5,3.3.4,4.2,3.4,4.4,6.8.4,6.7.5,6.2,7.1-.8,11.3-1.3,22.6-2.2,33.8-1.1,14.5-2.6,29-3.7,43.5-.6,7.1-.9,14.3-1.2,21.4s-1.1,9.2-9.2,9.2H182.3c-5.8-.1-6.9-1.4-7.3-7-1.2-16.6-2.7-33.3-3.9-50-.8-10.7-1.3-21.5-2.1-32.2-.5-6.3-1.1-12.6-1.8-18.8s.5-7,5.9-7c3.1,0,4.1-1,3.9-4-1.3-19.2-1.4-38.5-2.8-57.7-.9-12.1-7.6-22.1-11.2-33.3-1.5-4.7-4.2-9-5.1-14,.5-2.6,2.2-2,3.9-1.4a6.6,6.6,0,0,1,2.7,2.8c2.9,7.3,6.5,14.4,8.1,22.2-1.6-6.7-.8-13.5-1-20.3s1.1-6.3,5.4-5.3h.1c2,4.8,2.1,10,2.3,15.1s.5,12.3.7,18.4c.2,7.7,2.3,14.7,5.2,21.6,1.7,3.9,3.7,7.7,4.4,12,.3.6.8-.5.2-.1s-.3.1-.3-.3c-.4-6.1,1.3-11.9,2.2-17.8,1.9-13.1,4.3-26.2,6.3-39.3.3-2,.4-4,2-5.6h.8c2-1.2,3.4-.3,4.6,1.2s.5,4.2.2,6.4l-9.6,59.7a25.2,25.2,0,0,0,1.6,14.6c2.9,6.9,5.7,13.9,8.5,21.4,1-14,2.3-27.5,3.3-41,1.4-17.6,3.1-35.1,4.3-52.7.2-2.5.3-5.1,2.4-7C220.5,182.1,220.7,182.3,220,187Z" transform="translate(-23.5 -78.1)"/><path d="M374,394c6.6-19.6,13.3-39.2,19.6-58.9,2.2-7-5.3-21-12-24.1a11.7,11.7,0,0,0-13.3,2.5,11.3,11.3,0,0,0-1.6,13.4,22.7,22.7,0,0,0,1.8,2.5c1.1,1.3,2,2.8.4,4.3s-3.3.4-4.7-1c-5.6-5.8-5.8-15.9-.3-22.3a16.9,16.9,0,0,1,23.3-2.3c9.7,7.3,14,22.5,10.2,34-5.7,16.8-11.1,33.7-16.6,50.5a20.5,20.5,0,0,1-1.7,8.5l-2.3,6.8c-.3,1.1-.7,2.2-1.1,3.3-3.1,9.2-6.1,18.3-9.1,27.5a20.7,20.7,0,0,0-1,3.3c-.4,2.9-1,5.9,1.9,7.7s4.9-.6,6.9-2.3c12.9-11.4,24.9-23.9,37.6-35.6,1.5-1.4,3-2.8,4.4-4.3s4.1-4.1,6.1-6.1,5-5.8,8.6-7.3l.5-.2c11.2-14.1,26.7-21.3,43.1-27.3,18.1-6.8,36-14.5,53.9-21.9l2.8-1.1c3.1-1.7,7.6-2.5,6.9-7.3s-5.2-5.5-9.2-5.9-7.3,0-11,0l-47.4.7c-2.1,0-4.8.6-4.8-2.7s2.5-2.6,4.5-2.6l56.9-.9a20,20,0,0,1,3.5.2c7.2.7,12.1,4.6,13.1,10.3s-2,9.6-9.2,12.6c-24.2,10-48.4,20.1-72.8,29.6a54.6,54.6,0,0,0-22.1,16.3c-.9,3.6-4.3,5.1-6.3,7.7l-6.6,6.6-1.4,1.3a7.9,7.9,0,0,1-2.8,1.3l-43.3,41.4c-6,5.6-10.7,6.8-15.5,3.7s-6.9-9.2-4.7-16.4c2.9-9.1,5.9-18.2,8.9-27.4.6-1-.2-2.1.3-3.1s.5-1.7.7-2.5.8-2.7,1.2-4S371.7,396.4,374,394Z" transform="translate(-23.5 -78.1)"/><path d="M372.2,139c6.6,9.4,8.8,19.7,7.1,31-5.1,26.2-31.5,35.1-55,28.6A40.4,40.4,0,0,1,304,185l-3.6-6.1c-2.6-2.1-3.2-4.7-.4-6.6,4.6-3.4,9.2-7.1,15.1-8.3,6.7-5.1,7.3,2,10,5,5.8,3.5,11.7,6,18.8,4s11-11.2,5.1-17.5c-1-1.1-2.1-2.1-3-3.3-3.3-1.7-6.8-1.2-10.3-1.2-8.2-.1-16.5-.3-24.8.1-4.7.1-7-1.1-6-6.1a27.8,27.8,0,0,0,0-5c-2.1-3.3-.6-6.8-.4-10.2.5-12.3,1.4-24.5,2.6-36.7.8-7.5,2.3-8.6,9.9-8.7h38.4c2.3,0,4.7-.1,6.6,1.6l1.5.2c11.4.4,11.4.4,11.4,12.1s0,12.8-12.9,12.8c-7.7,0-15.3.4-23-.1-4.9-.3-6.6,1.3-6,6,.1,1,.1,2,.1,3,1.6,2.1.8,4.4.4,6.7s-1,4.4-3.9,4.1-3.7-2.4-3.9-4.9,1.3-6.5.8-9.8a17.7,17.7,0,0,1,.1-4c.6-5.3,2.6-7.4,8-7.5,8.5-.3,17-.1,25.5-.1s10.4-2.6,7.2-11c-1.4-1.2-3.1-1.1-4.8-1.1-13.6.3-27.2,0-40.9.1-5.6.1-6.5.8-6.9,6.2-.9,14.2-1.6,28.5-3.2,42.7a4.8,4.8,0,0,0,.5,1.4c1.5,2.1,3.8,1.6,5.9,1.7,8,.1,16.1-.2,24.2.2,10.8,1.9,16.1,6.4,17.5,15.3s-1.7,13.5-7.8,18a26,26,0,0,1-11.2,3.3c-8.1.1-15.4-1.7-20.7-8.4-1.5-1.9-3.1-2.2-5.2-1-8.2,4.9-9.9,4.7-2.3,12.3a32,32,0,0,0,4.7,4.3c13,6.9,26.3,7.7,39.8,1.6,8-3.6,12.8-9.9,15.2-18.2,3.1-12.5,1-23.5-9-32.3a29.7,29.7,0,0,0-16.7-7.2,20.9,20.9,0,0,1-4.9-.8c-2-.7-4.4-1.5-3.8-4.3s2.8-3.5,5.4-3.3a27.6,27.6,0,0,1,10.9,2.9C361,129.6,367.2,133.3,372.2,139Z" transform="translate(-23.5 -78.1)"/><path class="cls-4" d="M799,401.1H736c-1.6-2.6-.5-5,.8-7.3a5.3,5.3,0,0,1,1.7-.8c9.2-1,18.5-.1,27.8-.5,7.4-.4,14.9,1.2,22.2-1.1,1.9-7.3.7-14.8.9-22.2.2-15,0-29.9,0-44.9,0-2.1.3-4.3-.8-6.3s-3.6-1.5-5.5-1.5H752.2c-2.1,0-4.3.2-6.3-.9s-4-2-6.3-2H700.9c-2.2,0-5.1.9-5.8-2.6,1.5-1.3,3.3-1.4,5.1-1.4,15,0,30-.2,45,.1,5.5,0,11,.2,16.5,0s5.8-1.6,5.8-6.2-1.7-5.8-5.7-5.8c-5.8,0-11.6.1-17.4,0-15,.3-29.9.1-44.8.1a9,9,0,0,1-5.3-1.2c1-2.3,1-2.4,4.4-2.4h38.4c-13.1,0-26.1.1-39.2-.1-1.7,0-4.6,1.5-4.7-2.2,1.5-1.2,3.4-1.3,5.2-1.3,14.9,0,29.9-.2,44.8.1,6,0,12,.1,18,0s6.2-1.3,6.3-6-2.6-5-6.1-5.1c-6.1-.1-12.3.7-18.4-.5a3,3,0,0,1-1.4-1.1,2.6,2.6,0,0,1,.6-3.3c5.9-1.8,12-.5,18-.9,2-.1,4.2.5,6-1.1,3.3-7.8,1.4-10.9-6.8-11.1-6.7-.1-13.5.6-20.3-.4a3,3,0,0,1-1.4-1.1,2,2,0,0,1,.7-2.5c9.4-1.7,19-.6,28.5-.6,4,1.1,5.7,4.2,5.5,7.9-.5,9.3.9,18.7-.6,27.9-.4,2.4.4,4.6.6,7s.5,7.9-1.3,12c4.4-.2,8.4-.1,12.4-.2s5.9-.5,5.9-6.1c.1-18.1.1-36.3.1-54.4V237.4c-.1-6.5-.4-6.8-6.8-6.9H735.8a31.5,31.5,0,0,1-7.5-.4,5.1,5.1,0,0,1-1.7-.7c-1.5-1.6-2.1-3.3-.2-5,3.7-1.5,7.5-.7,11.3-.8h22c1.8,0,3.7.1,5.3-.9,3.4-2.7,2.9-6.3,1.8-9.6s-4.3-2.5-6.9-2.6c-14.1-.2-28.2.4-42.4-.3l-1.7-.7c-1.2-1.3-2.1-2.5-.4-4.1s4.2-.8,6.3-.8h37.4c2,0,4,.3,5.9-.5,4-4,3.7-9.2-.7-12.3-5.6-.9-11.3-.3-17-.4-14.8-.3-29.6.6-44.4-.4-1.3-.6-2.2-1.4-1.9-2.9l63-.2c5.5.6,7.2,2.1,7,7.5-.2,3.7,1.4,7.7-1.8,11-.7.7-.1,1.3.2,2.1,2.6,5.4,2.3,13.3-.8,18.4h19.5c3.5,0,2.9-2.5,2.9-4.6V167.5c0-1.3,0-2.7.1-4s.5-2,1.8-2,1,1.2,1.1,2V388.2c0,2.9-.8,5.8,4,6.2S801.6,397.8,799,401.1Z" transform="translate(-23.5 -78.1)"/><path class="cls-2" d="M351,177.2c6.3-4.5,8.8-10.6,7.2-18.2s-7.8-11.5-15.2-13.1c-8.5-6.2-18.2-4.3-27.7-4.4-2.2-.1-3.1,2.3-5.1,2.5,1.1-16.5,2.3-32.9,3.4-49.3.2-2.1.5-3.4,3.1-3.4,17,.2,34,.1,51,.1.4,0,.9.4,1.3.6-2.9,1.5-5.7,2.7-6.3,6.8s-3.4,2.6-5.7,2.6H329.6c-2.4,0-5.7-1-7,2.2s-2,8.2-.4,12.1,3.7-.1,5.6.2c-.2,3.5-.4,7-.7,10.5-.1,1.8.2,3.5,2.3,3.7s2.7-1.5,2.8-3.3.6-4.6.9-6.9a29.4,29.4,0,0,1,20.9,6.9c-3.9-.5-7.8-1.1-11.8-1.5-1.9-.2-3.9.2-3.9,2.6s1.9,2.4,3.6,2.5c8.2.5,16,2.1,22.2,8.2,6.8,12.5,5.4,24.6-1.9,36.5a6.9,6.9,0,0,1-1.8,1.6C357.3,177.1,354.3,180.3,351,177.2Z" transform="translate(-23.5 -78.1)"/><path class="cls-1" d="M216,183c-1.6,18.3-3.4,36.6-4.9,54.9-1.2,14-2.1,28-3.1,42a14.9,14.9,0,0,1-1.8,7.1c-4.3-10.7-8.9-20.7-11.9-31.1-1.9-6.4,1.2-13.3,2.3-20,2.7-18.3,5.6-36.6,8.4-54.9-.7-1.2-.6-2,1-2,2.1,5,6.5,2.3,9.9,3a.7.7,0,0,1,.4.6C216.2,182.9,216.1,183,216,183Z" transform="translate(-23.5 -78.1)"/><path class="cls-5" d="M383.7,168a98.2,98.2,0,0,1-3.5-23.5c-.1-2-.2-4.4,2.6-4.4s2.3,2.3,2.5,4.1c.5,7.4.6,14.8,3.6,21.8,3.2,3.7,3.8,8.7,6.8,12.5s6.7,8.2,11.3,10.9c20,10.4,45.3,3.6,53.5-21.5,3.5-11,5.1-22.2,3.6-33.8-.7-10-3.3-19.5-8.8-28a5.2,5.2,0,0,1-1.1-3.2c-5.9-8.2-14.1-12.1-23.9-13.2l-4.4-.5c-1.5-.1-2.7-.7-2.7-2.3a2.5,2.5,0,0,1,2.8-2.7l10.9,1.1c15.4,4.5,24.5,15.3,30.1,29.7,3.5,3.8,3.5,8.8,4.4,13.5a94.6,94.6,0,0,1,.1,27.6c-.4,2.2-.8,4.3-2.3,5.9-1.6,5.1-3,10.2-5.4,15-8.2,15.5-21,23.8-38.6,23.6s-30.5-8.8-38.3-24.8C385.7,173.3,384.8,170.6,383.7,168Z" transform="translate(-23.5 -78.1)"/><path class="cls-5" d="M499,190c5.1,3.8,11.1,4.9,17.3,5.4,1.9.2,5-.3,4.6,3s-3.1,2.2-5.2,2.1c-16.4-.9-27.6-9.7-35.5-23.6-5.5-6.8-6.7-14.9-7.6-23.2a106.8,106.8,0,0,1,0-23.3c1.9-14.4,6.4-27.6,18-37.3s23.6-12.6,37.7-8.9c.7.2,1.3.4,1.6,1.1C544,89.4,553.1,99,559,112c2.9,9.2,5.1,18.6,5,28.3,0,2,.4,4.5-2.5,4.5s-2.5-2.4-2.6-4.4c-.4-10.3-1.5-20.5-6.7-29.8-3.2-2.5-4.6-6.5-7.5-9.2-19.3-18.8-49.8-12.4-59.9,12.5a59.5,59.5,0,0,0-3.9,14.3c-2.6,17.4-1.5,34.2,7.7,49.8C491.4,182.7,496.1,185.5,499,190Z" transform="translate(-23.5 -78.1)"/><path class="cls-1" d="M200.1,180c-1.1,12.4-3.7,24.5-5.5,36.8-1.4,9.1-3,18.2-5.1,27.4-3.6-11-10.8-20.6-10.7-33s-1.1-23.5-1.7-35.2Z" transform="translate(-23.5 -78.1)"/><path class="cls-6" d="M422.7,410.8l1.9-1.9a19.7,19.7,0,0,1,6.3-1.3c50.9,0,101.9-.1,152.8.1,2.2,0,4.3.7,6.5.8H728.6c1.8,0,3.7.5,5.4-.5H837c1.5,1.6,1,2.7-1.1,3s-2.6,0-4,0H428.6Z" transform="translate(-23.5 -78.1)"/><path class="cls-1" d="M69,267.9c1.5-7.4,3.1-14.8,6-21.9a4.5,4.5,0,0,1,3.6-1.3c9.1-.1,18.2-.2,27.3,0a5.1,5.1,0,0,1,3.2,1c1.8,6.7.6,13.5.8,20.3a2.7,2.7,0,0,1-2.8,2.9c-12.5,0-24.9.6-37.4-.3Z" transform="translate(-23.5 -78.1)"/><path class="cls-2" d="M362,86c-15.5.1-30.9.3-46.4.2-4.6-.1-6.7.8-7,6.1-.9,15.9-2.4,31.8-3.7,47.7h-2.5c-5.5,0-6.5-.9-5.2-6.5s.8-12.1,1.6-18.2c1.4-10.6,1.6-21.4,2.2-32.1.1-2.4,1-3.2,3.3-3.2h54.3C363.6,80,361.5,83.6,362,86Z" transform="translate(-23.5 -78.1)"/><path class="cls-7" d="M369,409a3.8,3.8,0,0,1-.9,3.1c-1.3-1.6-3.1-1.1-4.7-1.1H283.2c-1.4,0-3-.4-4.2,1a4.3,4.3,0,0,1-4,.1c-1.8-1.9-4.1-1-6.1-1H29.7a16.8,16.8,0,0,1-4.5-.2c-2.4-.6-2-1.8-.2-2.9h80c1.7,1,3.6.5,5.4.5H296c1.9,0,4,.3,5.9-.5,6.2-.9,12.5-.3,18.8-.4,13.9-.1,27.8,0,41.7,0C364.7,407.6,367.1,407.1,369,409Z" transform="translate(-23.5 -78.1)"/><path class="cls-2" d="M529.9,85.3c-7.4-1.2-14.8-1.7-22.2.2-17.8,4.8-26.9,17.6-31.6,34.3-1,3.4-1.5,6.8-2.3,10.2-.5,1-1,2.4-2.2,2s-.4-2.8-1.5-4L467,115c2-4.4,2.9-9.1,5.1-13.4,7.5-14.8,19.2-23.2,35.9-23.4C515.9,78,523.9,79,529.9,85.3Z" transform="translate(-23.5 -78.1)"/><path class="cls-8" d="M139,428H78.1c-.9-.1-1.7-.3-1.8-1.3s.9-1.6,2-1.6H198.1c1.4.2,3.6-.6,3.5,1.6s-2.3,1.4-3.6,1.4Z" transform="translate(-23.5 -78.1)"/><path class="cls-4" d="M266,187V394c-2.3-.3-2.2-2.2-2.4-3.7a41,41,0,0,1-.2-7q0-93-.1-186c0-3.5,1-7.4-2.2-10.3h-.2c0-7.8,0-15.6.1-23.5,0-1.9-.3-4.4,2.7-4.3s2.3,2.5,2.3,4.3Z" transform="translate(-23.5 -78.1)"/><path class="cls-8" d="M699,425c10.6,0,21.2-.1,31.9,0,1.4,0,3.8-.9,3.8,1.7s-2.1,2.3-3.7,2.3H667.1c-1.6,0-3.7,0-3.8-2.2s2.3-1.8,3.7-1.8C677.7,424.9,688.3,425,699,425Z" transform="translate(-23.5 -78.1)"/><path class="cls-9" d="M346,152.2c5.7,2.6,8,6.2,7.5,11.9s-3.4,8.8-9.2,10.1-14.2,1.4-19.2-5.2c3.7,0,7.5.2,11.2-1C342.8,165.9,346,160.9,346,152.2Z" transform="translate(-23.5 -78.1)"/><path class="cls-2" d="M315.1,164c-4.1,2.5-8,5.2-12.3,7.4s-4.5,4-2.4,7.5c-4.1-2.2-5.9-6.1-7.9-9.9-1.1-2.2.2-3.3,2-4.3,4.1-2.2,8.1-4.4,12.1-6.8,1.9-1.2,3-.8,3.9,1.1A10.2,10.2,0,0,0,315.1,164Z" transform="translate(-23.5 -78.1)"/><path class="cls-8" d="M109,246.1H75c-7.1-1.2-14.2-.9-21.4-1s-14,0-21-.6c1.3-1.9,3-1.4,4.5-1.4,9.4,0,18.7-.2,28,.1,4.1.1,5.2-1.3,5-5.2s-.1-10.3-.1-15.4c0-1.1-.5-2.8,1.1-2.9s1.8,1.6,1.8,2.9c.1,6.5.1,13,.1,19.5.7,1.2,1.9.9,3,1s3.4,1,5.2,1c7.8,0,15.7-.1,23.6.1C106.4,244.1,108.7,243.1,109,246.1Z" transform="translate(-23.5 -78.1)"/><path class="cls-4" d="M216,183a3.4,3.4,0,0,0-.1-1l2.1-24.7c.1-1.8.7-3.6,2.6-3.6s2.5,2.2,2.4,4.1c-.7,8.7-1.3,17.5-2,26.2-.1,1.1.1,2.3-1,3C220.4,184,219.2,182.5,216,183Z" transform="translate(-23.5 -78.1)"/><path class="cls-10" d="M173,182v19.9l-.6.2L162,177a.5.5,0,0,1-.2-.7c0-.2.1-.3.2-.3,3.2,1.8,6.6.7,10,1C173.2,178.5,171.8,180.5,173,182Z" transform="translate(-23.5 -78.1)"/><path class="cls-4" d="M206,179a2,2,0,0,0-1,2l-4.1-1,3.3-24c.2-1.4.9-3,2.9-2.9s2.1,1.9,1.9,3.3c-.7,5.8-1.6,11.5-2.4,17.2Z" transform="translate(-23.5 -78.1)"/><path class="cls-4" d="M173,182c-1.6-1.4-.7-3.3-1-5-.3-6,.6-11.9-.7-17.9-.4-1.7.2-3.6,2.2-3.8s2.2,1.7,2.6,3.4c1.4,5.7.8,11.5.9,17.3C171.6,175.4,173.3,179.4,173,182Z" transform="translate(-23.5 -78.1)"/><path class="cls-4" d="M162,176v1c-1.4.1-3-.4-4.1,1-.6-1-1.2-2-1.9-3-1.7-4.5-3.4-8.9-5.2-13.4-.6-1.6-1.3-3.2.7-4.2s3.1.5,3.8,2.1Z" transform="translate(-23.5 -78.1)"/><path class="cls-11" d="M313.3,414.2a10.2,10.2,0,0,1,1.6.9l8.6,6.7c1.1.9,2.1,1.9,1.2,3.3s-2.3.9-3.4,0l-9.4-7.3a2.2,2.2,0,0,1-.8-2.7C311.4,414.5,311.9,414.1,313.3,414.2Z" transform="translate(-23.5 -78.1)"/><path class="cls-12" d="M589.9,425.9c-.2,1.9-.6,5-1,8.1a1.9,1.9,0,0,1-2.4,1.9,1.8,1.8,0,0,1-1.5-2.2c.3-4.2.6-8.5,1-12.8a1.8,1.8,0,0,1,2-1.7,1.8,1.8,0,0,1,1.8,2A31,31,0,0,1,589.9,425.9Z" transform="translate(-23.5 -78.1)"/><path class="cls-13" d="M320.8,442.1a2.1,2.1,0,0,1-2.6,1.9,41.2,41.2,0,0,1-10.7-3.7,2,2,0,0,1-1.2-2,1.7,1.7,0,0,1,1.8-1.5,52.3,52.3,0,0,1,12.1,4.1C320.5,441.1,320.6,441.8,320.8,442.1Z" transform="translate(-23.5 -78.1)"/><path class="cls-11" d="M290.4,424.6c2.9,2.4,6.2,5,9.4,7.8a1.5,1.5,0,0,1-.3,2.2,1.8,1.8,0,0,1-2.3.1,42.6,42.6,0,0,1-9-6.8,1.7,1.7,0,0,1-.5-2.2C288.2,424.9,288.9,424.5,290.4,424.6Z" transform="translate(-23.5 -78.1)"/><path class="cls-14" d="M581.6,455.8c-1-.3-1.6-.8-1.6-1.7a3.8,3.8,0,0,1,.3-2.4c1.1-2.2.6-5.5,3.8-6.4a1.4,1.4,0,0,1,1.7,1.4,16.8,16.8,0,0,1-3,8.6C582.6,455.6,582,455.7,581.6,455.8Z" transform="translate(-23.5 -78.1)"/><path class="cls-12" d="M343.1,433c.1,1.1-.3,2-1.2,2a14.6,14.6,0,0,1-8.5-3.4,1.4,1.4,0,0,1,.1-2.2c1.6-1.3,3.2-.4,4.6.3S342.4,430.7,343.1,433Z" transform="translate(-23.5 -78.1)"/><path class="cls-15" d="M333.2,445.9c-1,0-2,.1-3,0a2.6,2.6,0,0,1-1.6-.9,1.4,1.4,0,0,1,0-2.2c2.7-1.7,5.7-.6,8.7-.7a1.6,1.6,0,0,1,1.5,2.1c-.2,1.4-1.4,1.7-2.6,1.8h-3Z" transform="translate(-23.5 -78.1)"/><path class="cls-11" d="M275,412.1c1.3-1.3,2.7-1.1,4-.1l3.3,4.3c.8,1.2,1.5,2.5.1,3.5s-2.3.3-3-.7S275.1,415.2,275,412.1Z" transform="translate(-23.5 -78.1)"/><path class="cls-6" d="M69,270H51c.3-2.5,2.2-2,3.7-2H69v.2A1.2,1.2,0,0,1,69,270Z" transform="translate(-23.5 -78.1)"/><path class="cls-16" d="M499,190c-9.2-5.3-14.1-13.7-17.1-23.4a76.6,76.6,0,0,1-2.1-38.6c2.1-2.4,4.3-3.8,7.5-2.2,1.6,2.6,1.1,5.5,1,8.3a56.7,56.7,0,0,0,2.5,19.2c2.7,8.7,9.1,14,17.2,14.3s14.8-4.6,17.9-13.4c3.9-10.8,3.2-21.9,1.9-33.1-.3-2.3-1.3-4.5-.8-6.8a3.4,3.4,0,0,1,.9-1.4c4.5.1,5.9,3.8,7.4,7,4.4,9.7,4.6,20,3.7,30.4-.1,1.5-.5,3-.7,4.5-1.7,12.6-5.5,17.1-19.9,22.7,2.2,1.4,4,1,5.8.5A20.4,20.4,0,0,0,538,164.6a64.6,64.6,0,0,0-.7-46.4c-.7-1.8-2.3-3.4-1.3-5.6,3.6-2.5,7.6-2.2,11.6-1.6a2.8,2.8,0,0,1,1.4,1,120.6,120.6,0,0,1,2,28.1c-.8,15.3-4.8,29.2-16.6,40.1-5.6,5.3-12.4,7-19.5,9C509.5,190.6,504.2,188,499,190Z" transform="translate(-23.5 -78.1)"/><path class="cls-3" d="M695,311.1c1.5,1.5,3.4.9,5.2.9h41.4c2.2,0,4.6-.5,4.4,3-2.4,2.2-5.3,1.6-8.1,1.6H664c-7.2,0-7.4.2-7.4,7.2v61c0,7.5.1,7.6,7.9,7.6H729c2.7,0,5.7-.6,8,1.7l-1,6.9H650.6c-2.5,0-5.4.6-5.6-3.2s2.3-3.9,5-3.8,3.1-.9,3-3,0-2.7,0-4V167.2c0-1.9-.6-3.9,1-6.1,1.5,1.9,1,3.8,1,5.4,0,18.5.1,37-.1,55.5,0,4,1.2,5.1,5.1,5,10.3-.2,20.6,0,31,0-2.4-6.3-3.7-12.4-.1-18.5.4-.6.7-1.2.2-1.7-3.3-3-2-6.9-2.1-10.4-.1-7,1.4-8.4,8.5-8.4H701c.3.6.7,1.2,1,1.9s-2.7,1.2-4.1,1.4c-4.5.8-5.7,2.4-5.4,7.3s1.6,5.6,6.4,5.8,7,0,10.5.1c1.9.1,4-.3,5.6,1.5l1,2.8c-1.5,1.7-3.6,1.5-5.6,1.6H699c-5.3.2-6.4,1.3-6.5,6s1.5,6.6,6.5,6.9c6.8.3,13.6,0,20.4.1,2.3.1,4.7-.4,6.6,1.5a6.7,6.7,0,0,0,1,3.9c-2.2,2.2-5,1.6-7.6,1.6H664c-7.1,0-7.4.3-7.4,7.2,0,22.2-.1,44.3,0,66.5,0,6.7.3,7.1,7,7.1h24.2c-.1-11.4-.1-22.6.1-33.8.1-4-.7-8-.4-12,.4-6.2,2.9-9,8.9-9.1,12.3-.3,24.7-.2,37-.1,1.6,0,3.3.1,4.6,1.5v1.9c-2,2.1-4.7,1.6-7.1,1.6-10.7.1-21.3-.1-32,.1-5.3.1-6.5,1.6-6.3,6.6s2.7,5.2,6.3,5.2h36c2.4,0,5-.5,7.1,1.5v2.9c-2,2.1-4.6,1.6-7,1.6-11.6.1-23.2,0-34.8,0-7.5.1-8.3,1.1-7.3,8.6.1,1.3.7,2.6.1,3.9,1.5,1.6,3.4,1,5.2,1h40.9c1.7,0,3.6-.3,5.6.7-1.6,1.9-3.5,1.3-5.1,1.3H699.2c-1.8,0-3.7-.6-5.2.9C691.9,301.1,691,306.3,695,311.1Z" transform="translate(-23.5 -78.1)"/><path class="cls-3" d="M614,160c2.1-1.9,3.3-.7,3.9,1.4a22.4,22.4,0,0,1,.1,4.5v120a2.3,2.3,0,0,1,0,3.1V394c1.8,1.3,4.2-.3,6,1,2.5,4.1,1.7,5.9-3.2,6-10.9.1-21.8,0-32.7,0-2.8-1.7-3.7-4-2.1-7,5.4,0,10.9.1,16.4,0,1.6,0,3.4.5,4.6-1.1,2.9.3,1.8,3.5,3.6,4.7,1.5-.8.1-2.8,1.5-3.6h.9c.8-1.2.5-2.6.5-3.9V292.4a16,16,0,0,0-.4-4.4,32,32,0,0,0,.4-6.9V165.4C613.5,163.6,613.1,161.7,614,160Z" transform="translate(-23.5 -78.1)"/><path class="cls-17" d="M261.1,187c4.7-.7,3.9,2.7,3.9,5.5V388.3c0,1.9-.7,4.1,1,5.7h28.2c1.4,2.1,3.6,3.9,2.7,7H258.1c-2.1,0-4.8.4-5-2.7s2-4.4,4.9-4.3,3.1-1.2,3-3.4,0-2.7,0-4Q261,286.9,261.1,187Z" transform="translate(-23.5 -78.1)"/><path class="cls-3" d="M432.8,400.9a33.2,33.2,0,0,1,7-7H581.9c2,2.4,3.1,4.9.6,7.7-2.4,1.1-4.9.9-7.4.9H440.8C438,402.6,435.1,403.2,432.8,400.9Z" transform="translate(-23.5 -78.1)"/><path class="cls-18" d="M614,288V388.3c0,1.9.7,4.1-1,5.7q0-50,.1-100c0-3.8-.9-5.2-5-5.1q-23.2.3-46.5,0c-3.8-.1-4.9,1.2-4.7,4.9s.1,10.3,0,15.5c0,1.3,0,3.1-1.6,3.2s-1.2-2-1.3-3.2V295.8c0-6.8,0-6.8-7.1-6.8h-8.5c-1.3,0-3.1,0-2.8-1.9s1.9-1,2.9-1c16.4,0,32.7-.2,49,.1,4.5.1,5.9-1.3,5.5-5.6a73.6,73.6,0,0,1,0-11.5c.4-4.6-1.2-6.1-5.9-6.1-21.8.3-43.6.2-65.5.1-1.6,0-3.5.5-5.2-.8,1.3-1.8,2.9-1.2,4.2-1.2,23.2,0,46.4.1,69.5-.1,4.2,0,5.2,1.4,5,5.2s0,10.6-.1,16c-.2,3,1,4.1,4,4,4.7-.2,9.3-.1,14-.1C610.8,287.9,613.9,287.2,614,288Z" transform="translate(-23.5 -78.1)"/><path class="cls-3" d="M374,394a32.2,32.2,0,0,1-2.9,9.1c-17.3-1.2-34.6-.2-51.8-.5-5-.1-10,.2-15-.3s-6.4-3.8-6.4-8.2Z" transform="translate(-23.5 -78.1)"/><path class="cls-3" d="M431.1,394.1a55.7,55.7,0,0,1-8.1,8c-13.7,1.1-27.5.3-41.3.3a4.5,4.5,0,0,1-3.6-1.4,28.4,28.4,0,0,1,2.7-8.4c1.4,2.1,3.6,1.4,5.5,1.4Z" transform="translate(-23.5 -78.1)"/><path class="cls-19" d="M470.1,128c1.3.6.4,5.3,3.7,2-1,11.7-.9,23.4,2.2,34.8,1.2,4.1,2.8,8.1,4.2,12.1-4.5-2.4-6.1-7.1-8.4-11.2-.7-1.3-.3-3.5-2.6-3.7A110.8,110.8,0,0,0,470.1,128Z" transform="translate(-23.5 -78.1)"/><path class="cls-3" d="M734,408c-1,1.3-2.4,1-3.7,1H588.8a.7.7,0,0,1,.3-.9Z" transform="translate(-23.5 -78.1)"/><path class="cls-3" d="M614,288c-.7-.1-1.7.4-2.1-.5s.7-1,1.1-1.5q0-60.1.1-120.3c0-1.9-.8-4,.9-5.7Z" transform="translate(-23.5 -78.1)"/><path class="cls-12" d="M297.9,394.1c1.5,2.4,2.6,5.1,4.9,6.9s2.8,2.3,3.1,4.3-.9,3.4-3.3,3.2a1.8,1.8,0,0,1-1.4-1.7l-4.3-5.7c-.5-2.5-3.4-4.1-2.7-7A2.9,2.9,0,0,1,297.9,394.1Z" transform="translate(-23.5 -78.1)"/><path class="cls-12" d="M581.1,382.4a5.5,5.5,0,0,1-1.2,1.4,1.7,1.7,0,0,1-2.3-.2c-2.5-4.1-4.9-8.2-7.2-12.4-.2-.4.3-1.3.7-1.7a1.6,1.6,0,0,1,2.3,0A53.8,53.8,0,0,1,581.1,382.4Z" transform="translate(-23.5 -78.1)"/><path class="cls-11" d="M589.1,408l-.3.9a2.9,2.9,0,0,1-3.8.1,6.9,6.9,0,0,1-1.8-3.1c-.3-1.6-1-3.2-.2-4.9s-.7-4.7-1.1-7c1.4-1.7,2.7-1.1,4.1,0a17.2,17.2,0,0,0,2.1,7C587.7,403.4,588.6,405.7,589.1,408Z" transform="translate(-23.5 -78.1)"/><path class="cls-20" d="M286,369a1.7,1.7,0,0,1,1.9,1.3c1.4,4,2.8,8.1,4,12.2a1.7,1.7,0,0,1-1,2.4,1.9,1.9,0,0,1-2.7-1.2c-1.4-4.1-2.8-8.1-4-12.3A1.9,1.9,0,0,1,286,369Z" transform="translate(-23.5 -78.1)"/><path class="cls-21" d="M583,353.9c1.9.1,9.9,7,10.3,8.7a1.8,1.8,0,0,1-.8,2.1,1.8,1.8,0,0,1-2.3-.2c-2.8-2.3-5.6-4.7-8.3-7.2a1.7,1.7,0,0,1-.6-2.2A1.9,1.9,0,0,1,583,353.9Z" transform="translate(-23.5 -78.1)"/><path class="cls-12" d="M606.4,381.5c-.2,1.5-1.8,2.3-2.7,1.3a33.4,33.4,0,0,1-6.6-10.8c-.6-1.5.8-2.3,2.4-1.9S606.6,379.7,606.4,381.5Z" transform="translate(-23.5 -78.1)"/><path class="cls-22" d="M559.4,353.9a15,15,0,0,1,6.3,6.4,1.7,1.7,0,0,1-2.3,2.1,14.1,14.1,0,0,1-6.2-6.1C556.3,354.8,557.4,353.8,559.4,353.9Z" transform="translate(-23.5 -78.1)"/><path class="cls-3" d="M618,289v-3.1h12c.9,0,2.3-.2,2.4,1.1s-1.3,1.8-2.4,1.8Z" transform="translate(-23.5 -78.1)"/><path class="cls-13" d="M575.2,349.6c-.2,1.7-1,2.8-2.3,2.2s-6.3-1-7.8-4.2a1.5,1.5,0,0,1,1.8-2.1C569.9,346.4,573.4,346.6,575.2,349.6Z" transform="translate(-23.5 -78.1)"/><path class="cls-20" d="M286,354.6c-.2,1.6.5,3.1-.7,4.4a1.7,1.7,0,0,1-2.6,0c-1-1-1.2-8.7-.3-9.6a1.8,1.8,0,0,1,2.7.1C286.5,351,285.7,353,286,354.6Z" transform="translate(-23.5 -78.1)"/><path class="cls-13" d="M612.1,394c-.4,2,2.7,5-.6,5.8s-2.6-3.2-3.6-5.1l-.9-1.8c0-1.3-.1-2.8,1.7-3S610.9,392.6,612.1,394Z" transform="translate(-23.5 -78.1)"/><path class="cls-23" d="M549,112h-1c-2-2.1-2.6-4.9-3.4-7.5s-1-2.9,1.2-3.5a25.7,25.7,0,0,1,6.4,9.6C551.5,112,550.2,112,549,112Z" transform="translate(-23.5 -78.1)"/><path class="cls-3" d="M624,395c-2-.3-4.2.9-6-1C620,394.4,622.3,393.2,624,395Z" transform="translate(-23.5 -78.1)"/><path class="cls-17" d="M69,270v-1.9c11.8-.1,23.6-.2,35.5,0,3.4,0,4.7-1,4.5-4.5-.2-5.9,0-11.7,0-17.5-1.4-1.8-3.4-1.1-5.1-1.1H78.5c-1.1-.1-3.5,1-2.5-2,22,0,44-.1,65.9.1,3.9,0,5.5-.9,5.1-5s0-9,0-13.5h1.8c0,6.3.2,12.7-.1,19-.1,2.2-2.7,1.4-4.2,1.4-9.5.1-19,.2-28.5,0-3.8-.1-5.4.9-5.1,4.9a65.3,65.3,0,0,1,0,12.5c-.3,4.3.9,5.9,5.5,5.7,9.1-.4,18.3-.1,27.4-.1,1.6,0,3.3-.4,5.1,1-2,1.5-3.8,1-5.5,1H80.1c-8,.1-7.1-.7-7.1,7.4-.1,4.1,0,8.3-.1,12.5,0,1.7.7,4.4-1.7,4.4s-1.1-2.7-1.1-4.1c-.2-5.2-.1-10.3-.1-15.5C70,273.1,70.5,271.3,69,270Z" transform="translate(-23.5 -78.1)"/><path class="cls-3" d="M301.2,406.8l.9,1c.5.4.4.8-.1,1.2H110.7c-1.9,0-4,.7-5.7-1H295.1C297.2,407.9,299.5,408.8,301.2,406.8Z" transform="translate(-23.5 -78.1)"/><path class="cls-24" d="M400,162c-8.4-16.3-7.9-33.2-2.7-50.2,2.7-8.8,9.5-12.9,19.1-12.8,7.7.1,14.5,5.2,17.5,13.1,4.4,11.3,2.8,23.2,3.1,34.9a3.8,3.8,0,0,1-1,1.2c-7.2,4.5-15.4,6.8-23,10.5-2,.9-4.2,1.4-5.8-1-3.6-13.8-3.2-27.2,3.1-40.2a15.6,15.6,0,0,1,10.7-8.3c1.4-.4,3-.3,4.4-1.8-1.6-1.5-3.4-.9-5-.4-7.4,1.8-11.9,6.9-14.4,13.9-3.9,11.1-4.2,22.4-2.3,33.9.3,2,.8,4,.2,6a2.6,2.6,0,0,1-2.4,1.9A2.6,2.6,0,0,1,400,162Z" transform="translate(-23.5 -78.1)"/><path class="cls-16" d="M400,162h1c1.4,1.1,3,1.5,4.6,2.3a19.9,19.9,0,0,1,2.9,4.6c8.5,13.6,27.4,13,35.1-1.1,3.6-6.6,4.5-13.8,5.1-21.1.1-2-.3-4,1.2-5.7a29.3,29.3,0,0,1,8.1-3,4.7,4.7,0,0,1,1.2,4.6c-1.7,14-4.9,27.2-15.7,37.4s-20.8,12-33.5,10.5c-1.4-.1-2.6-.6-4-.5-9.3-5.4-14.4-13.8-17.1-24C393,165.7,396.5,164,400,162Z" transform="translate(-23.5 -78.1)"/><path class="cls-1" d="M406,190c1-1.3,2.4-1.1,3.7-1,24.9,3.3,40.8-12.1,46.2-34.3,1.3-5.5,2.5-11,2.1-16.7v-1c1.9-2.1,4.5-2.9,7.2-3.3,2.1,16.6.1,32.6-9.6,46.7C444.8,196.2,421.7,200.4,406,190Z" transform="translate(-23.5 -78.1)"/><path class="cls-5" d="M449.9,141a58.3,58.3,0,0,1-3.1,23.1c-3.4,9.9-10.5,15.4-19.6,15.9s-17.3-4.1-21.9-14.1l-1.2-2.2c-1.3-.7-.5-2.1-.9-3.1-2.2-11.7-2.9-23.4-.1-35.1,2.2-9.2,6.4-17.1,16.5-20a31.9,31.9,0,0,1,5.4-.6c1.6-.2,3,.3,3.1,2.3a2.4,2.4,0,0,1-2.4,2.6c-12.5.6-16.3,9.4-18.2,19.6a67.3,67.3,0,0,0,.7,28.6c2.4,3.3,3.4,7.4,6.1,10.5,10.8,9.1,22.9,5.5,26.9-8,1.9-6.1,1.8-12.4,3.6-18.5C446.1,139.3,447.9,139.4,449.9,141Z" transform="translate(-23.5 -78.1)"/><path class="cls-25" d="M444.8,142c.2,8.5-.4,17-4.8,24.6-5.8,10.2-18.9,11.3-26.7,2.4a3.5,3.5,0,0,1,2.6-1.2c9.8-.7,14.9-6.7,17.8-15.4A21.4,21.4,0,0,1,436,147h1C439.7,145.5,442.9,144.7,444.8,142Z" transform="translate(-23.5 -78.1)"/><path class="cls-26" d="M465.2,133.7c-1.8,2.4-4.7,2.5-7.2,3.3.3-10.5-.6-20.7-4.4-30.6-.4-1.3-1-2.5.6-3.5C461.7,111.8,464.6,122.3,465.2,133.7Z" transform="translate(-23.5 -78.1)"/><path class="cls-1" d="M187.3,342.8c-3.7-1.4-6.7-.8-9.6-.8s-4.7-1.1-4.8-4.6c-.1-8.4-.3-8.4,7.9-8.4h22c1.6,0,3.4.5,4.5-1.3-1.4-2-3.5-1.6-5.5-1.6-8.3-.1-16.6-.2-25,0-3.6.1-5-.8-4.9-4.7.1-7.4-.2-7.4,7.5-7.4h10c1.3-.1,3.2.4,3.3-1.4s-1.9-1.5-3.1-1.5c-4.8-.1-9.7-.2-14.5,0-2.9.1-3.9-.8-4.3-3.9-.5-4.8-.5-9.6-1-14.4-.3-3,.4-3.9,3.3-3.8h43.5c2.6-.1,3.6,1,3.4,3.5l-2.4,35.2c-.5,5.8-1.1,11.6-1.6,17.3-1.3,16.9-2.7,33.7-3.9,50.6-.2,3.6-1.8,4.4-5,4.4-7.8-.1-15.7-.3-23.5.1-4.7.2-6.3-2.2-6.5-6.1-.4-9.6-1.4-19.2-1.9-28.8-.3-5.1-.9-10.2-1.3-15.3s1.5-6.5,6.2-6C182.1,344.2,184.4,344.6,187.3,342.8Z" transform="translate(-23.5 -78.1)"/><path class="cls-1" d="M182.1,286.1c-.8-16.3-1.6-32.7-2.4-49.6C188.2,247.5,189.4,268.6,182.1,286.1Z" transform="translate(-23.5 -78.1)"/><path class="cls-10" d="M192.6,266.5c2.2,5.5,4.3,11,6.6,16.5,1.3,3.2.2,4.2-2.9,4h-.5c-7.9.1-8,0-6.5-7.6.9-4.2,1.5-8.5,2.2-12.8Z" transform="translate(-23.5 -78.1)"/><path class="cls-10" d="M583,401c1.1,1.4,1,3.2,1.2,4.8s.3,2.4-1.3,2.6a20.5,20.5,0,0,1-3.5.1H430.5c-1.7,0-3.4.4-4.9-.6a34.1,34.1,0,0,1,7.2-7h91.8C544.1,401.1,563.5,401,583,401Z" transform="translate(-23.5 -78.1)"/><path class="cls-27" d="M413,412l-39,37.8c-1.9,1.8-4.1,3.2-6.7,1.7a6.3,6.3,0,0,1-3.4-6.7,9.2,9.2,0,0,1,.3-2.9c3.5-10.4,7.1-20.7,10.6-31,1.7-1.3,3.7-1.4,5.7-1.4,8.9,0,17.9-.1,26.8.1C409.4,409.6,412.2,408.8,413,412Z" transform="translate(-23.5 -78.1)"/><path class="cls-10" d="M305.2,405l-2.4-4h62.9c1.9,0,4.6-1.2,5.4,2l-1.2,3.9c-1,2-2.8,1.5-4.4,1.5-18.6,0-37.2-.1-55.8.1C306.9,408.6,305.3,408,305.2,405Z" transform="translate(-23.5 -78.1)"/><path class="cls-28" d="M378.1,401h39.8c1.7,0,3.7-.7,5.1,1a30.5,30.5,0,0,1-6,5.9,11.2,11.2,0,0,1-6.2,1.5H381.4c-2,0-4.1.1-5.6-1.5A17.5,17.5,0,0,1,378.1,401Z" transform="translate(-23.5 -78.1)"/><path class="cls-3" d="M425.6,407.9H579.8c1.8,0,3.9.4,4.4-2.2.9.9.7,2.1.8,3.2H424.6Z" transform="translate(-23.5 -78.1)"/><path class="cls-29" d="M375.8,408H417a12.7,12.7,0,0,1-4,4c-1.4-1.6-3.4-1-5.1-1H374.8C374.9,409.8,374.8,408.7,375.8,408Z" transform="translate(-23.5 -78.1)"/><path class="cls-30" d="M305.2,405a4.7,4.7,0,0,0,4.8,3.1c18.4-.2,36.7-.1,55.1-.1a8.9,8.9,0,0,0,4.8-1,2,2,0,0,1-.9,2H302c0-.4.1-.8.1-1.2C304.7,408.6,305.2,407.1,305.2,405Z" transform="translate(-23.5 -78.1)"/><path class="cls-24" d="M327.8,116c-1,2.9-3.2,3.5-5.9,2.9s-1.8-3.1-1.9-4.9c-.2-14-.1-14,13.7-14h24.4c1.8,0,4.2.2,3.8-2.5-.9-6.3,3.3-5.6,7.1-5.5,1.7,3.9.5,8.1.7,12.1s-2.2,1.9-3.6,1.9H335.7c-7.1,0-7.1,0-7.6,7Z" transform="translate(-23.5 -78.1)"/><path class="cls-31" d="M360,176l1-1c3.9-1.8,7.6-4.1,12.2-2.9-2.5,11.1-9.8,17.8-20.2,21.1-12.8,4.1-25.4,3.5-36.9-4.3.7-2.8,2.8-1.5,4.4-1.5,5.1.1,10,1.1,15.2.4C345.3,186.5,352.5,181.1,360,176Z" transform="translate(-23.5 -78.1)"/><path class="cls-16" d="M360,176c-6.1,7.6-14.3,11.2-23.7,13-5.8,1.2-11.4-.1-17.1-.5-1.1-.1-2.2-.7-3.1.4a9.2,9.2,0,0,1-4.5-3.7c6.5-3.7,14-3.3,21.1-4.3,2.4-.4,4.9-.2,7.3-.8a32.6,32.6,0,0,0,11-2.9C354.2,178.3,356.9,175.7,360,176Z" transform="translate(-23.5 -78.1)"/><path class="cls-9" d="M340,180.1c-9.3,2.8-18.9,3.7-28.4,5.1-8-7.4-7.8-8,1-13.6,3.9-2.5,6.1-3,9.2,1.5C326,179.2,333.1,179.9,340,180.1Z" transform="translate(-23.5 -78.1)"/><path class="cls-26" d="M373.2,172.1c-4.1.8-7.9,2.9-12.2,2.9,7.4-11.6,7.4-23.8,3.1-36.3C373.4,146.3,377.1,159.6,373.2,172.1Z" transform="translate(-23.5 -78.1)"/><path class="cls-32" d="M310.2,144c.8-3.1,2.5-4.4,5.9-4.1,5,.4,10,0,15,.1s9.1,1.6,11.9,5.9H313C311.8,145.9,309.7,146.8,310.2,144Z" transform="translate(-23.5 -78.1)"/><path class="cls-1" d="M737,394.1c-25.4,0-50.9-.2-76.4,0-4.7.1-5.7-1.4-5.7-5.9q.3-33.6,0-67.4c0-4.4,1-5.9,5.7-5.9,28.5.2,56.9.1,85.4.1h39.8c1.7,0,3.7-.7,5.2.9-2,1.7-4.4,1.5-6.7,1.5-9.9.1-19.9,0-29.9,0-6.5.1-6.8.4-6.9,6.7A326.9,326.9,0,0,1,740,388c-.5,2.2-.5,4.7-3,5.9Z" transform="translate(-23.5 -78.1)"/><path class="cls-1" d="M738,258c-13.8,0-27.7-.1-41.5,0-5.7,0-7.5,1.8-7.5,7.4s-.3,13.6.3,20.2-.4,13.2-.3,19.8c0,2.6.1,5,2.9,7.6H657.4c-3.3,0-2.4-2.7-2.4-4.5v-44c0-10.3.1-20.6-.1-31,0-3.5,1.2-4.5,4.6-4.5H727v.2c2.4,1.1,3.2,3.3,4.1,5.4a149.5,149.5,0,0,1,6.3,16.9c.9,3,2.7,4.3,5.8,4.2,6.2-.1,12.3-.1,18.5.1,2,0,4.5-.7,5.3,2.2Z" transform="translate(-23.5 -78.1)"/><path class="cls-24" d="M737,393.9c3-10.3,4.4-20.9,6-31.5a256.4,256.4,0,0,0,2.9-42c0-3.7,1.3-4.5,4.7-4.5,13.4.2,26.9.1,40.4.1q0,36.9.1,73.8c0,3.2-1,4.3-4.3,4.3C770.2,393.9,753.6,394,737,393.9Z" transform="translate(-23.5 -78.1)"/><path class="cls-24" d="M767,257.9c-5.3-2-10.8-.5-16.2-.9s-9.5,1.2-12.6-.8-2.8-7.4-4.4-11.2-4.5-10.6-6.8-15.9c19.8,0,39.6,0,59.5-.2,3.3,0,4.6.8,4.6,4.5-.1,25.1-.1,50.3,0,75.4,0,3.3-1.1,4.4-4.3,4.3-5.8-.2-11.7-.1-17.6-.1,2.5-5.8,2.9-11.6.6-17.2-1.2-2.7,1.2-3.9,1.2-5.9V263.1C771,260.5,769.3,258.9,767,257.9Z" transform="translate(-23.5 -78.1)"/><path class="cls-24" d="M766.1,191c3.7,2.8,4.2,9.1.9,14-4.9,1.1-9.9.4-14.9.4-11.5.2-23-.1-34.5.2-4,.1-6.7-1.2-8.7-4.5s-3.1-4-4.3-6.1-1.3-4.4,2.6-4.5h27.9C745.4,190.7,755.8,190,766.1,191Z" transform="translate(-23.5 -78.1)"/><path class="cls-1" d="M695,311.1c-5.3-2.6-5.8-10.8-1-15.2h51c1.8,4.9,3.6,9.8,1,15Z" transform="translate(-23.5 -78.1)"/><path class="cls-1" d="M742,275H697.6c-5.9,0-6.6-.7-6.6-7.1s.6-7.8,6.6-7.8H739a11.6,11.6,0,0,1,2.7,6.8c.5,4.7,2.9,6.1,7.3,5.8s8.9-.1,13.4-.1c1.9.1,4-.1,5.5,1.5-3.3,2.1-7,.7-10.5.9C752.3,275.2,747.1,275,742,275Z" transform="translate(-23.5 -78.1)"/><path class="cls-1" d="M693,292c-3.1-3.4-2-7.5-1.8-11.4s2.9-2.6,5-2.6H742v.2a12.1,12.1,0,0,1,2,13.9Z" transform="translate(-23.5 -78.1)"/><path class="cls-24" d="M717,209h45.2c2.7,0,6.2-.2,6.4,3.1s2.8,9-2.6,11.9c-9.5,1.1-19.1.2-28.7.5h-4.4c-3.3-.4-7.1,1.4-9.6-1.1s-5-7.7-6.7-12A2.4,2.4,0,0,1,717,209Z" transform="translate(-23.5 -78.1)"/><path class="cls-1" d="M717,209c2.2,4.5,4.5,8.9,6.7,13.3,1.1,2.2,3.1,1.7,4.8,1.7H766c-1.5,1.6-3.4.9-5.2.9H699.1c-2.8,0-6.1.3-7.4-2.8a15.2,15.2,0,0,1,.1-11.1c.8-2,2.9-2,4.8-2H717Z" transform="translate(-23.5 -78.1)"/><path class="cls-24" d="M767.9,274c-7.2,0-14.5-.1-21.8,0-3.2.1-5.3-.2-5.3-4.3s-2-6.3-1.8-9.7h23.4c5.7,0,6.6.9,6.6,6.7C769,269.2,769.5,271.7,767.9,274Z" transform="translate(-23.5 -78.1)"/><path class="cls-31" d="M766.1,191H709.2c-1.6,0-3.7-.9-4.6.9s1.7,2.2,2.2,3.5c3.9,9.4,11.4,10.2,20.3,9.8,13.3-.7,26.6-.2,39.9-.2-1.5,1.6-3.4,1-5.2,1H698c-5.7-.1-7-1.5-7-7.7s1.2-8.2,7-8.3h62.8C762.6,190,764.5,189.4,766.1,191Z" transform="translate(-23.5 -78.1)"/><path class="cls-24" d="M744,292a43.3,43.3,0,0,0-2-13.9c7.5-.1,14.9,0,22.4-.2,3.4,0,4.9,1.3,4.6,4.7-.1,1.5,0,3,0,4.5,0,3.4-1.4,5.1-5.1,5C757.2,291.9,750.6,292,744,292Z" transform="translate(-23.5 -78.1)"/><path class="cls-24" d="M746,311c.5-5.1-1.7-9.9-1-15,6.1,0,12.3.1,18.4-.1s5.6,3.8,5.6,7.8-.1,7.5-5.5,7.3S751.8,311,746,311Z" transform="translate(-23.5 -78.1)"/><path class="cls-2" d="M545.8,101c-1.6,4.2,2.7,7.1,2.2,11a39.7,39.7,0,0,0-11.9,1c-.2,0-.4.2-.5.1-5.9-4.9-12.9-7.1-20.4-7.7-1-2.8,1.8-1.9,3-2.7-13.6-6.4-25.4,0-28.7,15.4-.5,2.3-.6,4.6-1.5,6.8a5.2,5.2,0,0,1-1,1.1c-2.6,0-4.8,1.2-7.2,2,2-27.1,25.4-44.4,50.4-37A30.4,30.4,0,0,1,545.8,101Z" transform="translate(-23.5 -78.1)"/><path class="cls-1" d="M487,126v-1c3.1-2.1,6.1-4.4,10.2-3.1,1.1,5-1.3,9.7-1.3,14.6,0,1.8-.9,3.6.7,5.6,2.2-1.5,2-3.9,2-6a37.2,37.2,0,0,1,2.4-13.6c.8-2,1.5-4.1,3.7-5,5.8-.7,11.3-2.7,17.1-3.7,2-.4,4.2-1.4,6.2.2,2.5,9.1,2.3,18.4,1.9,27.7a35.3,35.3,0,0,1-5.3,18.3c-4.4,7.1-10.9,9.8-18.7,8.9s-13-6-15.9-13.4C486.2,145.9,487,135.9,487,126Z" transform="translate(-23.5 -78.1)"/><path class="cls-5" d="M504.9,117.8c-4.2,5.7-4.7,12.5-5.2,19.2-.1,1.5-.1,3-.2,4.5s-.6,3.5-2.8,3.3-2.4-1.9-2.4-3.7c.3-5.8.6-11.6,2.2-17.2a12.9,12.9,0,0,0,.4-1.9c.2-8.9,10.3-18.5,18.1-17.2,8.3-.7,15.6,1.5,21.1,8.2,9,16.5,8.9,33.7,3.7,51.1-2.7,8.9-8.9,14.7-18.6,15.8-2,.2-4.5.7-4.9-2s2-2.8,4-3c8.9-1,13.4-6.9,15.5-14.8a67.9,67.9,0,0,0,0-35.5c-1.3-4.6-3.2-9.1-7.8-11.7-2.5.2-4.7-1.3-7.2-1.6C514.2,110.4,509.4,113.8,504.9,117.8Z" transform="translate(-23.5 -78.1)"/><path class="cls-26" d="M504.9,117.8c5.1-8.5,14.8-10.5,23.1-4.9V114l-19.7,4.4C507,118.7,505.8,119.3,504.9,117.8Z" transform="translate(-23.5 -78.1)"/><path class="cls-1" d="M436,147c-1.4,13-9.3,23.1-22.7,22-2.9-3.1-4.3-6.9-5.1-11,1.7,1,3.3.1,4.7-.5C420.6,154.1,428.3,150.5,436,147Z" transform="translate(-23.5 -78.1)"/><path class="cls-2" d="M403.2,160.6a3.9,3.9,0,0,1,.9,3.1c-2,1.4-2.3-.7-3.1-1.7A2.2,2.2,0,0,0,403.2,160.6Z" transform="translate(-23.5 -78.1)"/><path class="cls-24" d="M515,104.8c-9.8,1.8-14.8,8.6-18.1,17.2-3.5.4-6.3,3-9.9,3,1.2-8.3,2.8-16.3,9.6-22.2s17.5-5.5,23.8.6C518.8,104.7,516.4,103.2,515,104.8Z" transform="translate(-23.5 -78.1)"/></svg>