<svg id="Layer_1" data-name="Layer 1" xmlns="http://www.w3.org/2000/svg" viewBox="0 0 1462.5 544.4"><defs><style>.cls-1{fill:#ef4448;}.cls-2{fill:#163f3b;}.cls-3{fill:#fbb571;}.cls-4{fill:#1e1e1e;}.cls-5{fill:#1f1e1e;}.cls-6{fill:#602729;}</style></defs><title>st</title><path class="cls-1" d="M27.2,693.6H-64.2a9.7,9.7,0,0,1-5.5-3.2l-82.5-81.9a10.7,10.7,0,0,0-3.3-2.8c-1.8.6-2.3,1.6-3.2,2.4l-82.8,82.3a9.7,9.7,0,0,1-5.5,3.2c-29.3,0-58.5-.1-87.8,0-3.1,0-3.7-.3-3.7-1.9q.2-64.4.1-128.8c3.2-4.3,10.5-6.9,16.9-9.9,9-4.2,18.3-8.2,28.1-11.9a413.8,413.8,0,0,1,69.5-19.2c19.3-3.6,39.6-5.8,59.3-8.9,14.3-2.3,28-5.2,38.4-10.8s18.2-14.2,18.8-23-4.7-17.6-9.5-26.2-10.8-18.9-9.6-28.8c.1-1.3-.1-2.6,2.5-3.5,8.1-.6,16.1-.3,24.2-.2,11-.2,21.9-.2,32.9,0,17.3-.2,34.7-.2,52-.1H19.7c2.7,0,5.5-.1,7.9.7s1.6,2.5,1.6,3.9c.2,6.9-.2,13.8.3,20.7-.2,1-1.1,2-.4,3,.3,9.5.2,18.9,0,28.3.3,1.3-.1,2.6-.1,3.9.6,3.7.1,7.4-.3,11.1a6.1,6.1,0,0,0,.3,1.3c.4,9.2.3,18.5.1,27.7.3,1.2-.1,2.3-.1,3.5.2,4.7.8,9.3-.3,14a2.9,2.9,0,0,0,.3,1.8,254.1,254.1,0,0,1-.1,27.6,119.3,119.3,0,0,1,.1,18.9c.2,1.1-.3,2.3,0,3.4a67.4,67.4,0,0,1,0,12.7c.1,1.2.3,2.3.3,3.4q0,41.4-.1,82.8C29.2,690.6,30.1,692.3,27.2,693.6Z" transform="translate(338.5 -149.2)"/><path class="cls-2" d="M721.8,149.2h36.5c1.4.6,1.9,1.4,2,2.2a21.8,21.8,0,0,1,.1,2.5V255.1a7.4,7.4,0,0,1-.1,2.1c.2,7.3.1,14.6.1,21.9v24.2c0,1.4.3,2.8-.8,4.1s-4.7,1.4-7.7,1.6c-9.8.6-19.7.4-29.6.5-19.5.2-38.9-.7-58.4-.4a278.9,278.9,0,0,0-35.6,2.2c-16.2,2.2-28.9,6.5-36.2,14.3-4.3,4.7-4.1,9.5-2.3,14.4,2.6,7.1,5.6,14.1,6.7,21.3a50.4,50.4,0,0,1-1.9,21.4c-3.6,11.9-10.7,23.2-20.1,34.3a17.2,17.2,0,0,1-6.6,5.1,47.8,47.8,0,0,1-7.6.3H400.9c-2.4,0-4.9.2-7.2-.4a3.3,3.3,0,0,1-1.5-.5,1.8,1.8,0,0,1-.7-.8,15.9,15.9,0,0,1-.9-6.1q.1-39.6.1-79.2a13.8,13.8,0,0,1,.4-4.5,2.8,2.8,0,0,1,.1-.9c-1.2-29.2-.3-58.4-.5-87.6,0-.8.2-1.6.2-2.4s-.2-1.8-.2-2.8c0-28-.1-56.1,0-84.2,0-1.3-.5-2.8,2-3.8h36.6a2.9,2.9,0,0,1,2,2.5c1.3,15.5,11.6,29.5,30.7,41.8,14.8,9.5,33.7,16.5,55.7,21.3a266.9,266.9,0,0,0,61.3,6c25.9-.3,50-3.8,72.1-10.6,30.4-9.3,50.7-22.5,61.9-39.2a43.8,43.8,0,0,0,6.8-18.9A2.8,2.8,0,0,1,721.8,149.2Z" transform="translate(338.5 -149.2)"/><path class="cls-1" d="M758.4,257.2v-108h23.8c1.6.7,1.4,1.6,1.1,2.6a21.9,21.9,0,0,0-1.6,8.3,30.1,30.1,0,0,0,3.8,13.3c6.1,11,18.1,20.2,33.7,28.4,12,6.3,25.4,11.9,37.5,18.1,8.7,4.6,16.5,9.5,21.3,15.4,1.3,1.6,3.3,3.2,1.2,4.9s-3.6.7-5.6.7H808.4c14.3,4.6,27.8,9.4,40.7,14.8q22.8,9.3,43.7,19.8l34.8,17.3c1,.5,1.8,1.3,3.2,1.2s1-1.2,1.2-1.8c2.4-7.9,4.1-15.8,6.2-23.7s3.8-15.4,6-23.1c1.3-4.4,1.4-4.4-7.5-4.5-4.4,0-8.8.5-13-.5a5.7,5.7,0,0,1-2.8-3.5c-4.5-12.4-15.5-23.2-32.1-32.7-13-7.4-28.4-13.7-42-20.7-9.6-5-18-10.2-22.8-16.8s-3.3-10.1,4.9-14.4a30.3,30.3,0,0,1,9.9-3.1H910a16.8,16.8,0,0,1,9.7,5.2c5.1,5,10.2,10,15,15a112.1,112.1,0,0,0,23.8,20.1c14.6,9,33.3,14.7,56.5,16.4,35.8,2.7,67-2.5,94.6-13.7a73,73,0,0,0,9.7-4.8,5.9,5.9,0,0,1,4.6-1v71.2a10.9,10.9,0,0,1-4.5,2.8c-16.4,5.7-31.9,12-46.7,18.8-16.4,7.5-31.7,15.6-47.7,23.3-.6.3-1.2.5-1.3,1s2.5.3,3.7.3h23.3c13.5-.2,27,.5,40.5.6,9.1.1,18.2.5,27.3.8a11.6,11.6,0,0,1,5.4,1.4v27.3a10,10,0,0,1-5,.6l-44.6-1.1c-16.8-.4-33.5-.2-50.2-.4-5,0-9.9.6-15.5.6,5.5,3.7,11.1,6.9,16.3,10.2,12.8,8,24.4,16.3,36.4,24.6,13.9,9.6,28.3,18.9,43.6,27.9,5.1,3,10,6.1,15.3,9,1.8,1,2.3,2.3,3.7,3.4v12.7l-1.2.5c-13.3.9-26.7.4-40.1.4a10.9,10.9,0,0,1-5.7-1.6c-15.1-8.6-29.2-17.6-42.8-26.8-15.9-10.8-31.2-21.8-48-32.3-5.7-3.5-11.5-7.2-18.4-10.7-1.4,1.7-1.2,3.2-1.5,4.7-1.4,7.6-2.7,15.3-4.1,22.9-1.8,10.7-3.2,21.4-5.1,32-.4,2.8-.9,5.6-1.1,8.4s-1.6,3.4-6.8,3.5H914.8c-5.2-.1-6.7-.9-6.7-3.5,0-5.3,1.3-10.6,2.1-15.8s1.4-10.1,2.4-15.1c1.5-8.4,2.5-16.9,4.4-25.3.4-1.6,0-3.3.9-5.2-3.2.8-4.2,2.1-6.1,3-13.2,6.4-25.5,13.2-38,19.9-19.8,10.5-39.2,21.3-58.4,32.1-4.6,2.6-9.2,5.2-13.6,7.9a15.1,15.1,0,0,1-7.9,2H762.4c-2-.1-4-.2-5.2-1.2s-.9-3.8-.9-5.7a46.1,46.1,0,0,1,.2-8.3c1.8-2.5,5.5-4.3,8.9-6.2,14.1-8,28-16.1,42.4-24,18.4-10,36.8-20.1,55.7-29.9l12.8-6.7a2.5,2.5,0,0,0-1.2-.1c-22.9,1.9-45.9,3.4-69.1,4.2-13.4.5-26.9.8-40.3,1.6-2.8.2-5.8.3-8.2-.8a2.3,2.3,0,0,1-1.2-2.2c-.1-7.7-.2-15.5.1-23.3a1.7,1.7,0,0,1,.4-1.3c2.3-2.1,6.7-1.7,10.2-1.8,16.9-.8,33.9-1.3,50.8-2,21.3-.9,42.5-2.5,63.6-4.2a12.1,12.1,0,0,0,3.4-.6c-.3-1-1.8-1.4-3-2-10.3-5.1-20.4-10.3-31-15.4a558.4,558.4,0,0,0-76.3-29.2c-4-1.3-8-2.6-12.1-3.7A10.1,10.1,0,0,1,758.4,257.2Z" transform="translate(338.5 -149.2)"/><path class="cls-3" d="M1122.8,421.5h1.1V602.8c-1.5,1-3.6,1-5.7,1-6.3.1-12.6.1-19,0-11.6,0-23.2.3-34.8-.1-4.4.2-8.8.2-13.2.2H916.1c-3.2,0-6.3,0-9.5-.2-9.9.3-19.7.2-29.5.1H768.2c-2.9,0-6.1.3-8.7-.8s1.3-2,3.1-2.5l16.7-4.1,331.8-82.4a26,26,0,0,1,5-1H769.8c-2.6,0-5.2.1-7.8-.1s-2.4-.3-2.8-1,.6-1.1,1.6-1.5a68.5,68.5,0,0,1,7.2-1.9l330.9-82.1C1106.7,424.5,1114.1,422.2,1122.8,421.5Z" transform="translate(338.5 -149.2)"/><path class="cls-3" d="M-124.5,421.5c-1.8,12,5,23.3,11.5,34.6,3.8,6.8,7.5,13.6,7.7,20.7.4,16.6-17,29.3-48.3,35.3-16.6,3.2-34,5.2-51.1,7.7-40.8,6-76.5,16.4-108,30.6-9,4-17.3,8.3-25.7,12.5V421.4c1.3-.9,3.3-1,5.3-1,12.5,0,25.1-.1,37.6.1,17.1-.2,34.1-.2,51.2-.1h114.2C-128.1,420.4-125.8,420.3-124.5,421.5Z" transform="translate(338.5 -149.2)"/><path class="cls-3" d="M758.3,693.6H623.1a2.7,2.7,0,0,1-2-2.9c-.2-2.1-1.6-4-4.6-5.5a17.8,17.8,0,0,0-15.3-.4c-3.8,1.8-7.7,3.5-10.7,5.6a30.2,30.2,0,0,1-7.7,3.2h-148c-.6-1.5,1.9-2,3.7-2.5,8-2.5,15.8-5.1,24-7.4s9.9-9.4,5-12.9a15.8,15.8,0,0,0-13.2-2.3c-16.4,4.7-33.3,9-47.7,15.3-4.7,2-6.3,4.7-6.2,7.7a1.9,1.9,0,0,1-1.3,2.1h-6.4c-1.6-.7-1.9-1.5-1.9-2.5-.1-8.7-.4-17.5.1-26.3,2.7-2.4,7-4.1,11-5.8,9.3-4,18.1-8.1,26.5-12.5,5.9-3.1,5.9-8.9.1-12s-12.5-2.8-17.4.1a83.8,83.8,0,0,1-14.1,6.7c-1.9.7-3.9,1.4-5.8-.1s-.6-4.5-.5-6.7c.2-6.2-.6-12.4.4-18.5,2.1-1.7,5.5-2.6,8.7-3.5a413.2,413.2,0,0,1,42.2-9.7,49,49,0,0,1,10.2-1h53c1.6.1,3.2.2,3.8,1.1s-.3,1.4-1.4,2a87.5,87.5,0,0,1-9.2,4.4c-7.3,2.8-9.3,8.5-4.4,12.2s11.8,4.4,18.4,1.3,11.7-5.1,17-7.9c8-4.1,17.1-7.7,24.9-11.9a13.5,13.5,0,0,1,6.2-1.2c23.8-.1,47.5-.1,71.3,0,2,0,4.2-.1,5.1,1.1s-.9,1.8-2.2,2.5a312.9,312.9,0,0,1-30.9,13.7c-7.2,2.9-9.1,8.3-4.4,12.1s11.6,4.2,18.2,1.6,10.8-4.4,16-6.7q17.3-7.7,32.4-16.2c3.9-2.2,7.9-4.4,11.4-6.8,1.4-1,3.6-1.3,6-1.3,17.4-.1,34.8-.1,52.1,0,5.1,0,6.2,1.2,3.4,3.4a12.9,12.9,0,0,1-3.3,1.8c-7.2,3.2-13.9,6.5-21.4,9.5s-9.4,7.2-6.2,11.2,12.3,5.7,20,2.4,16.8-7.2,24.5-11.1c1.7-.9,3.3-2,6.3-1.3s1.5,1.8,1.5,2.7c.1,3.8.2,7.6,0,11.3s.4,8.1-.2,12.1a28.8,28.8,0,0,1-7.9,4.9c-9.4,4-18.6,8.2-29.7,11.2-6.7,1.8-8.5,5-7.7,8.5s2.8,5.6,9.2,6.7a16.8,16.8,0,0,0,7.4-.1,160.5,160.5,0,0,0,20.6-6.7c2.1-.8,4.4-2.4,7.7-.7,1.2,2.9.7,5.9.5,8.8.3,4.6.2,9.3.2,14C760.3,691.6,760.4,692.8,758.3,693.6Z" transform="translate(338.5 -149.2)"/><path class="cls-4" d="M356.2,693.6H63.7c-3.3-1.7-2-3.8-1.8-5.6a46,46,0,0,1,10.7-22.4c9.3-11.1,23-20.5,41.5-28.3,21.6-9.1,46.5-14.5,74.3-16.7a300.8,300.8,0,0,1,36.8-.3,261,261,0,0,1,55.4,8.5c22.6,6,40.7,14.4,54.5,25.1,11.6,9,18.6,18.7,21.8,29.1.7,2.6,1.6,5.2,1.3,7.9A2.8,2.8,0,0,1,356.2,693.6Z" transform="translate(338.5 -149.2)"/><path class="cls-3" d="M721.8,149.2c.5,40.1-66.6,73.7-150.1,72.6-78.9-.9-142.8-33.2-142.4-72.6Z" transform="translate(338.5 -149.2)"/><path class="cls-2" d="M356.2,693.6c.6-39.7-65.7-74-151.3-72.6-76.4,1.1-141.4,32.3-141.2,72.6H27.2V605.5c0-.9.1-1.8.1-2.7,2-1.3,5-1,7.6-1h65.8c4.1,0,8.2,0,12.3-.2a24.2,24.2,0,0,0,7.6.3c2.2-.2,4.6-.1,6.8-.1h77.1c4.6,0,9.1,0,13.7-.2s7.8.2,11.7.2h84.4c3,.5,6,0,9.1,0h62c8.5,0,9.3.5,9.4,4.8.1,1.9,0,3.9,0,5.9a3.5,3.5,0,0,1-2,3.1v26.2a2.4,2.4,0,0,1,2,2.6c.1,5.5,0,11.1,0,16.7,0,1.2-1.1,2.1-2,3.2,0,9.7,0,19.5-.1,29.3Z" transform="translate(338.5 -149.2)"/><path class="cls-4" d="M-295.5,421.3h-42.9v-8.2c2.9-8.1,10.3-15.4,16.7-22.8,15.8-18.4,33.9-36.2,52.1-54,11.1-10.9,23.4-21.5,39.4-30.9A343,343,0,0,1-197,288.7c12.2-5.5,25-10.6,38-15.6,19.2-7.3,39.3-14,59.6-20.5,11.4-3.7,22.8-7.2,34.4-10.7l10.3-2.8c11.8-.3,23.5-.2,35.3-.1H18.8a39.4,39.4,0,0,1,7.7.4l1.4.5c2.2,2.4,1.3,4.9.9,7.4s-2.9,1.6-4.8,2c-26.5,5.7-50.3,13.8-74.8,21.2-19.9,6.1-39.7,12.4-58.9,19.1s-39.7,14.4-58.2,22.5c-17,7.5-31.9,15.7-44.2,25.2a215.1,215.1,0,0,0-18.5,16.6c-10.9,10.7-21.6,21.4-31.9,32.1s-19.3,20.7-27.6,31.4C-291.3,418.8-292,420.5-295.5,421.3Z" transform="translate(338.5 -149.2)"/><path class="cls-1" d="M-164.8,149.2h95.1c.9,1.2-.9,1.7-2.2,2.3-8.4,3.7-16.9,7.3-24.7,11.4-17.6,9.1-32.6,19.2-44.5,30.4s-19.6,21.6-24,33.4a77.3,77.3,0,0,0-3.2,11.1c-.2,1.2-.5,2.3-2.9,2.9a123.5,123.5,0,0,1-13.6.3h-40.4c-3-.6-6,0-9,0h-97.1c-2.5,0-5.2.1-7.1-1V215.5c1.8-1.1,4.5-1.2,7-1.4,33.3-2.2,62.8-8.7,88.6-19.2,19.5-7.9,35.3-17.6,50-27.7,7.6-5.4,15.5-10.6,23.2-16C-168.3,150.3-166.3,150-164.8,149.2Z" transform="translate(338.5 -149.2)"/><path class="cls-2" d="M-56,240c-7.7,3-16.3,5.3-24.5,7.8-34.7,10.9-68.8,22-100.2,35.1-13.9,5.8-27.2,11.9-39.6,18.5a178.3,178.3,0,0,0-39.6,28.1c-11.3,10.7-22.4,21.5-33,32.3-15.7,16-30.8,32.1-43,48.8a30.7,30.7,0,0,1-2.5,2.6V340.7c3.9-5.6,11.7-10,18.4-14.8q20.4-14.4,44-27.7c16-9,32.7-17.6,50.5-25.7,24-11,49.4-21,76.1-30.3,3.3-1.2,6.9-2.1,10.5-3.1s8.7-.1,13.1,0c21.5-.3,43.1-.2,64.7-.1C-59.2,239-57,238.9-56,240Z" transform="translate(338.5 -149.2)"/><path class="cls-2" d="M1099.1,602.9h24.8v82.1c-3.2,2.9-9.3,3-14.6,3.6-11.7,1.3-23.5.6-35.2-.6-15.9-1.7-31.4-4.1-47.5-5.3a231.3,231.3,0,0,0-62.5,3.9,185.6,185.6,0,0,0-21.4,5.5c-2.2.8-4.9.8-7.1,1.6H879.9c-.9-1.1.4-1.8,1.8-2.4,14.4-6,25.7-13.4,37.3-20.7,13.3-8.3,29.8-14.1,51.2-16.2l3.1-.2c11.4.1,22.8,0,34.2.2,20.3.4,38.8-1.9,51.2-10.9a99.4,99.4,0,0,0,15.7-14.3c7-7.7,11.9-15.8,19.6-23.4A8.9,8.9,0,0,1,1099.1,602.9Z" transform="translate(338.5 -149.2)"/><path class="cls-3" d="M-247,693.6l91.4-90.8,91.4,90.8Z" transform="translate(338.5 -149.2)"/><path class="cls-3" d="M1123.9,186.4c-7.3,4-14.7,7.9-23.9,10.8-34.6,10.9-71.1,14.2-109.9,6-19.9-4.2-33.5-12-44.3-21.1-7-6-12.9-12.2-18.9-18.4s-9.6-10.1-16.9-14.5h54.9a11,11,0,0,1,5.4,3.8c5.4,5.6,10.1,11.3,17.8,16.3s21.2,9,36,9.9c22.9,1.2,42.7-2.4,60.4-9.4a24.6,24.6,0,0,0,6.6-4c3.5-2.7.9-5.1-2.2-7.3a60.7,60.7,0,0,0-13.5-6.7c-1.6-.6-3.6-1.2-2.7-2.6,16.1,0,32.2.1,48.3,0,2.6,0,3,.3,3,1.5C1123.9,162.6,1123.9,174.5,1123.9,186.4Z" transform="translate(338.5 -149.2)"/><path class="cls-1" d="M1099.1,602.9c-9.5,8.9-15.5,18.5-23.7,27.6-5.4,6-11.4,11.9-20.4,16.8s-20,6.9-32.5,7.7-27.1-.2-40.6-.1c-21.6.2-39.3,4.5-54,12.1-9,4.7-16.3,10-24.7,14.9a199.3,199.3,0,0,1-21.7,10.7c-.6.2-1.5.4-1.6,1H758.3c.1-5.8.1-11.5.2-17.3,2.1-.9,4.3-.4,6.4,0,9.5,1.9,18.8,3.9,28.1,6,25,5.6,47.3,2.8,68.5-4.8,11.4-4.1,20-9.5,28.5-14.9,11.3-7.2,23-14,38.8-19a182.7,182.7,0,0,1,46.1-7.8c12.1-.6,23.9.1,35.9.5,13.5.4,23.8-2.4,30.7-8.8s13.1-14.6,19.2-22a7.5,7.5,0,0,1,4.1-2.6Z" transform="translate(338.5 -149.2)"/><path class="cls-3" d="M-126.4,239.9h-13.7c-9,1.7-18.3.8-27.5.8a3.9,3.9,0,0,1-2.9-.9c3.5-25.3,23-47.4,54.1-67.2a264.5,264.5,0,0,1,45.5-22.8l1.2-.7H27.2c2.1,1,2.1,2.1,1.4,3.4a16.5,16.5,0,0,1-6.6,2.2c-16.4,3.1-32.3,6.6-47,11.5-21.8,7.1-41.5,15.5-57.8,25.7q-20.5,12.9-32.4,28.2a59.7,59.7,0,0,0-8.4,16.2C-124,237.7-124.1,239-126.4,239.9Z" transform="translate(338.5 -149.2)"/><path class="cls-4" d="M-170.5,239.9h30.4l-24.4,8.8c-16.9,6.1-33.1,12.7-49,19.6-14.1,6.1-27.5,12.6-40.4,19.3a584.9,584.9,0,0,0-61.7,36.9c-7.1,4.8-13.8,9.7-20.4,14.7l-2.4,1.4V298.9c3.8-4.6,11.1-8.1,17.2-11.8A636.1,636.1,0,0,1-261.3,255c9.7-4.6,19.8-9.1,30-13.6,1.9-.7,4.2-.8,6.2-1.4Z" transform="translate(338.5 -149.2)"/><path class="cls-3" d="M878.7,239.9c-4.1-8.5-14.9-14.9-26.8-20.9s-25.4-11.6-36.9-17.9c-18.1-9.9-30.7-21.1-34.5-34.6-1.6-5.8-.7-11.5,1.6-17.3h56.7l-7.9,3.5c-8.5,4-8.8,8.8-4.9,13.9s13.3,11.7,22.9,16.5c12.1,6,24.7,11.7,36.6,17.8,21.2,10.9,34.6,23.8,38.3,39-1.1,1.1-3.2,1-5.2,1H883.9C882,240.9,879.9,241,878.7,239.9Z" transform="translate(338.5 -149.2)"/><path class="cls-3" d="M-164.8,149.2a2.8,2.8,0,0,1-.8,1.1c-16.1,10.7-31.2,21.9-48.8,32.1-31.7,18.4-71.1,29.9-119.9,33h-4.1V188.2c1.8-1,4.5-1.1,7-1.3,26.7-2.8,50.8-8.2,70.9-17.6a233.9,233.9,0,0,0,29-16.4,24.9,24.9,0,0,1,7.3-3.7Z" transform="translate(338.5 -149.2)"/><path class="cls-4" d="M1123.9,408.7c-8.7-4.2-16-9.1-23.8-13.7-26.7-15.6-49.3-32.8-74.3-49-6-3.9-12.5-7.7-18.7-11.5-.9-.5-2.3-1-2.6-1.9,40-1,79.7-.4,119.4,1.3Z" transform="translate(338.5 -149.2)"/><path class="cls-4" d="M392.7,149.2V240a8.7,8.7,0,0,1-4.4.9H359.7a9.5,9.5,0,0,1-3.8-.6c-3-2.3-2-4.9-2.5-7.4-1.7-8.2-3.1-16.4-4.5-24.5-.9-5-1.4-10-1.9-14.9-1.5-13.8-1.2-27.6-1.1-41.4a2.7,2.7,0,0,1,2.1-2.9Z" transform="translate(338.5 -149.2)"/><path class="cls-4" d="M88.4,149.2h32.9a6,6,0,0,1,3.3,2.9c5.1,9.9,8.1,19.8,7,30.1a37.4,37.4,0,0,0,0,5.8c.4,11.2-1,22.4-2.1,33.5-.5,5.5-.9,10.9-2.5,16.3a3.1,3.1,0,0,1-1.7,2.5,12.2,12.2,0,0,1-4.7.6H85.9a12.4,12.4,0,0,1-4.8-.6c-2.2-2.2-1.3-4.6-.9-6.8,1.5-7.8,3.8-15.4,5.5-23.1s2.7-13.2,2.5-19.9q-.2-5.4,0-10.8a217,217,0,0,0-1.7-24.2C86.3,153.4,84.9,151.1,88.4,149.2Z" transform="translate(338.5 -149.2)"/><path class="cls-4" d="M151.5,149.2h42c2.3.9,2.9,2,3,3.4.3,7.5.8,14.9,1,22.4.8,20.2.9,40.4.8,60.6,0,1.5.5,3.2-1.5,4.6a9.9,9.9,0,0,1-4.6.7H158.4a11.8,11.8,0,0,1-4.3-.5c-2-1-2-2.2-1.8-3.4a188.6,188.6,0,0,0,3.3-24.6c.8-9.5,1.2-19.1,1.2-28.7s-.8-21-5.9-31.2C150.3,151.4,149.6,150.2,151.5,149.2Z" transform="translate(338.5 -149.2)"/><path class="cls-2" d="M-225.1,240l-29,13.1c-12.2,5.5-23.9,11.4-35.2,17.4-8.1,4.4-16.2,8.8-23.9,13.3s-14.9,9-22,13.6a23.7,23.7,0,0,1-3.2,1.5V240h113.3Z" transform="translate(338.5 -149.2)"/><path class="cls-1" d="M1072.7,149.2c1.4,1.3,4.1,1.8,6.2,2.6,5.8,2.4,10.8,5.1,14.4,8.4s1.8,4.7-1.4,7c-4.9,3.3-11.3,5.7-18.4,7.7a153,153,0,0,1-55.8,4.8c-13.2-1.4-23.8-4.7-31.8-10.2s-15-13.3-21-20.3Z" transform="translate(338.5 -149.2)"/><path class="cls-4" d="M286.7,149.2h32c2.3.9,2,2.2,2.1,3.4,0,6.5.1,13.1,0,19.7-.3,9.7.8,19.4,2,29.1,1.5,11.4,3.8,22.7,6,34.1.3,1.6.8,3.3-1.5,4.8a11.4,11.4,0,0,1-4.6.6H290.8a12.1,12.1,0,0,1-4.3-.5c-4.3-2.7-3-6-3.4-9-1-8,1-16.1,1.9-24.1.4-3.8,1.2-7.6,1.5-11.3s.6-7.3.6-10.9c-.2-7.3-.3-14.6-1.2-21.9-.5-3.7-.8-7.4-1.2-11.1C284.6,151,284.8,150,286.7,149.2Z" transform="translate(338.5 -149.2)"/><path class="cls-4" d="M222.8,149.2h34.7c1.2.6,1.8,1.2,1.9,2,.9,5.1,1.3,10.2,1.9,15.3s.3,9.1.7,13.6c.7,6.8-.6,13.7-1.3,20.5s-1.7,10.6-1.9,15.8c-.2,3.4-1,6.8-1.1,10.2s1.2,7.5,1,11.3c0,.8.4,1.6-.9,2.3a7.8,7.8,0,0,1-3.8.7H228.9a9.2,9.2,0,0,1-3.8-.6c-2.1-1.3-1.7-2.9-1.7-4.4,0-15.4.4-30.9-.1-46.4-.4-9.7-.6-19.4-.9-29.1-.1-3-1-5.9-.9-8.8C221.6,150.7,221.4,149.9,222.8,149.2Z" transform="translate(338.5 -149.2)"/><path class="cls-1" d="M-224.2,149.2c-4.3,3.9-10.2,7.1-15.7,10.5a166.9,166.9,0,0,1-46.4,20.2,250,250,0,0,1-52.1,8.3c0-12.4,0-24.8-.1-37.3,0-1.5.8-1.7,3.5-1.7C-298,149.3-261.1,149.2-224.2,149.2Z" transform="translate(338.5 -149.2)"/><path class="cls-4" d="M27,152.9c.1-1.2.1-2.4.2-3.7h32c1.4.6,1.9,1.4,1.9,2.2s.8,4.4.9,6.6c.8,12.9,1.7,25.9.9,38.9-.4,7.9-2.8,15.9-4.8,23.8a106,106,0,0,0-3.3,16.6,3.2,3.2,0,0,1-1.7,3,11.7,11.7,0,0,1-4.7.6h-16c-2-.1-3.9-.2-5.3-1.1h.1c-1.9-.8-2.1-1.8-2.1-2.9-.1-13.5,0-27,0-40.5,0-1.2,1.1-2.5-.1-3.8.2-11.8,0-23.7.1-35.6C25.1,155.7,24.7,154.1,27,152.9Z" transform="translate(338.5 -149.2)"/><path class="cls-4" d="M1123.9,306.6c-14.3-.9-28.8-1.1-43.2-1.4-19.6-.5-39.2-.4-58.9-.3a6.5,6.5,0,0,1-3.3-.4c33.2-16.7,65.4-33.9,105.4-46.9Z" transform="translate(338.5 -149.2)"/><path class="cls-3" d="M151.5,149.2c6.8,12.3,8.2,24.9,7.6,37.5-.4,8.4-.6,16.8-1.4,25.2s-2.3,18.6-3.5,28c-1,1-2.9,1-4.7,1h-20c-1.8,0-3.7,0-4.7-1a429.4,429.4,0,0,0,4.9-56.5,60.8,60.8,0,0,0-7-30.4,24.6,24.6,0,0,1-1.4-3.8Z" transform="translate(338.5 -149.2)"/><path class="cls-3" d="M222.8,149.2c1.5,4.4,1.6,8.9,1.7,13.3.5,19.9.8,39.8,1.1,59.7l.3,17.7c-1.1,1.1-3.2.9-5.1,1.1s-6.2-.4-9.3-.1a8.2,8.2,0,0,1-2.7.1c-2.1-.4-4.2,0-6.3-.1s-4.7.3-6.1-1c-.2-16-.1-32-.6-48-.4-12.3,0-24.7-1.4-37-.2-1.9-.6-3.8-.9-5.7Z" transform="translate(338.5 -149.2)"/><path class="cls-3" d="M327.1,239.9c-1.7-9.7-3.2-19.4-4.9-29.1a229.5,229.5,0,0,1-3.6-42.1c0-6.5.1-13,.1-19.5H348c0,9.6-.2,19.1.1,28.6a269.6,269.6,0,0,0,5.1,41.8c1.3,6.7,2.3,13.5,3.4,20.3-1,1-2.9,1-4.7,1H331.8C330,240.9,328.1,240.9,327.1,239.9Z" transform="translate(338.5 -149.2)"/><path class="cls-3" d="M52.3,239.9c.8-10.3,4-20.4,6.5-30.6s2.5-21.3,2.1-32-1.2-18.7-1.7-28.1H88.4c.9,12.2,2,24.4,2.2,36.7s-3,26.1-6.2,39.1c-1.2,5-1.9,9.9-2.9,14.9-1,1-2.8,1-4.6,1H57C55.2,240.9,53.3,240.9,52.3,239.9Z" transform="translate(338.5 -149.2)"/><path class="cls-3" d="M257.1,239.9c-2.5-10.6-1.1-21.1.6-31.6a184.2,184.2,0,0,0,.8-46.9c-.4-4-1.6-8.1-1-12.2h29.2c.8,9.6,2,19.2,2.4,28.8a170.9,170.9,0,0,1-1.9,29.4c-1.3,9.6-2.7,19.2-1.3,28.9.2,1.2.6,2.4.9,3.6s-2.9,1-4.7,1H261.7C259.9,240.9,258.1,240.9,257.1,239.9Z" transform="translate(338.5 -149.2)"/><path class="cls-1" d="M935.6,693.6c3.1-2,7.6-3,11.7-4.2,32.2-9.1,66.2-10.6,101.6-5.7,12,1.6,24,3.2,36.4,4.1a126.2,126.2,0,0,0,38.6-2.9c0,2.6-.1,5.2.1,7.8,0,.7-.3,1-1.9.9a17.7,17.7,0,0,0-2.3,0Z" transform="translate(338.5 -149.2)"/><path class="cls-5" d="M399.1,693.6c-2.2-5,1.2-8.9,9.1-12s18.6-6,27.9-9l13.1-4.1c10.3-3.1,20.6-1,22.8,4.9,1.5,4.2.3,8.7-9.5,11.5s-18.5,5.8-27.7,8.7Z" transform="translate(338.5 -149.2)"/><path class="cls-5" d="M582.8,693.6a72.5,72.5,0,0,1,20-10.5c6.4-2.2,14.6-.4,18.3,3.4s2.2,4.6,2,7.1Z" transform="translate(338.5 -149.2)"/><path class="cls-4" d="M209.3,240h1.3a25.5,25.5,0,0,1,8.2,2.7l167.9,83.4c2.5,1.2,4.8,2.5,6,4.2v.4c-1.7,1.1-4.2,1-6.7,1H220.8a37.3,37.3,0,0,0-4.7.1c.5.8,1.8,1.1,2.8,1.6l168.5,83.7a14.1,14.1,0,0,1,5.3,3.9v.4a4.7,4.7,0,0,1-3.6.6,10.2,10.2,0,0,0-3.9-.2h-1.8a4.9,4.9,0,0,0-5,.2c-1.4.8-.9,1.6.4,2.4s2.6,1,3.4,1.8a2.8,2.8,0,0,1-.8,4.2l-1.3.6c-3.7,1.2-3.8,2.1-.1,3.8.8,1.4.6,2.8-1.7,3.9a5.4,5.4,0,0,1-4.4-.6c2.6,2.3,2.3,3.4-1.5,4.5-2.3.7-2,1.4-1.4,2.3s2.6,1.8,4.3,2.5.4,2.3-1.7,3.2c-4.1.6-4.2.8-1,2.7.6,1.1.2,2.1-1.8,2.7s-3.7-1.3-5.8-.2,1,2,.2,2.9-.9,3.1-1.3,4.6-2.1,1.9-4.5,1.9-3.1.6-1.4,1.7,1.7,1.5,1,2.3.1,1.8,1,2.7-.9,4-5.1,5.1c-1.7,0-3.6-.3-4.3,1s-2.5,1.9-5.5,1.5-3.6-.1-2.4,1.4-1.4,5.7-6.3,6.6c-2.5.6-3.7,1.8-5.9,2.5,1.7-.4,3.3-.8,4.7.1s.2,1.4-.9,1.8-2.9,2.3-6,2.2l-.7-.2.8.2c2,.5,1.8,1.4,2.2,2.2s-1.3,1.5-3,1.9-4.8-.5-8.1.4c3.1-.1,4.9.2,4.7,1.6s-2.5,3-6.4,3.2c-1.6-.2-3.5-1.2-5-.3s-4.7,1.9-6.1,3.2,1.4,1.1,1.6,1.7c-1.3,2.8-5.2,4.5-10.4,5.4-2.2-.1-3.6-1.3-6.5-1.2,1.5.7,3.1,1.3,3.3,2.3s-2,2.3-4.9,2.5-4-.4-4.8,1-3.6.8-3.1,2.1-1.8,1.6-3.9,1.6a12.4,12.4,0,0,0-12.1.5,11.2,11.2,0,0,1-2.1.4c-.6.1-1.2.3-1.2.6s.6.6,1.4.7,3.2.5,4,1.4c-1.1,2.3-7.3,4.7-12.3,4.7-1.3-.2-1.6-.9-2.6-1.5-2.1,1-5,1.5-6.3,3s-2.1,1.2-5,.2c-1.8,1.7-3,3.7-8.1,3.2-1.1-.1-2,.1-2.2.6s-3.8,3.1-4,5a4.7,4.7,0,0,1-3.1,1.1c-1.3-.1-2.5-.1-2.5.8s-3.5,2.4-6.9,2.4-4.8,1.1-6.1,2.4a7.9,7.9,0,0,1-6.4,1.3c-1.7-.9-.4-1.7.5-2.3-4.1,1.7-7.3,4-14,4.4-4.8.2,1,1.2.4,2-1.6,2.4-5.5,3.2-10.1,3.5-1.7-.4-2.9-.4-2.7.8s-2,1.1-3.8,1-4-.3-4.2,1.2a4.6,4.6,0,0,1-3,1c-1-.2-1.6,0-1.7.5a6.3,6.3,0,0,1-3.9,1c-2.6-.7-6.9.4-8.4-1.9.7,1.5,3.9,2.7,1,4.2a5.4,5.4,0,0,1-3.5.8c-2.4-.3-4.9-.4-6.8-1.4a1.8,1.8,0,0,0-2.1.1c0,.1.1.2.3.4s3.9.4,4.9,1.5c-1.2,2-4.3,2.6-8,2.7s-7.2,0-9.9-1.6a5,5,0,0,0-4.1.3c-1.2.7.3,1.2,1.1,1.7s1.9,1.1,1.9,1.9c-2.4,2.4-7.1,2.8-11.6,3.3-2.7,0-5-.3-5-2.2-1.6,1.3,1.6,1.7,1.1,2.7-3.9,2.7-9.8,3.3-15.8,3.9a11.3,11.3,0,0,0-8.3.2c-2.8,1-5.1,1.5-8.3.4,1,.8,2.9.9,3,1.8-1.7,1.9-5.3,2.1-8.8,2.3-1.6.2-4.2-1.4-4.8.7-2.7,1.6-6.2,2.2-10.4,2.2s-3.3-1.3.5-4c-3.8,2.8-4,3-3.9,4.3-3.3,2-7.8,2.5-12.7,2.4-1.5-1.4-1.5-1.4-.2-3l-9.8,2.2a5.6,5.6,0,0,1-4.1-.5V568c1.6-1.3,4.1-1.7,7.1-1.6a3.4,3.4,0,0,0,2-.2,8.9,8.9,0,0,1,5.4-.3c1.3.7.9,1.4-.5,1.9s-2,1.7-4.1,2.2c1.8.5,2.8.4,2.8-.5s1.8-2.2,4.4-2.4,4.9-.2,6.6-1.5,2.9-.3,4.1.3,2.5.8,3.5-.2a1.1,1.1,0,0,1,.6-.3c5.1,0,5.7-2.5,8.3-3.8a3.1,3.1,0,0,1,1.9-.1c3.4,2.3,9,2.8,13.5,1.3-4.9,1.5-7.8.9-9.8-1.8,3.1-2.6,8.5-2.5,13.4-3.1.6.1,1.5.6,1.8-.2a12.5,12.5,0,0,1,7.2-1.3c3.1,1,6.9,1.2,9.6,2.7a2.5,2.5,0,0,0,3.3-.7c1-1.4-.7-2.6-1.2-3.9,1.4-1.5,4.1-1.8,7.1-1.8s3.8.4,5.2,1.2-.5,1.6-1.8,2.1c1.7-.6,3-1.2,1.6-2.3,1-1.5,4.1-1.5,6-1.4,4.5.1,5.9-.8,5.5-2.8a3.8,3.8,0,0,1,2.9-.6c3.7,1.1,3.7,1.1,4.9-1.4a8.5,8.5,0,0,1,6.2-1.3c2.9,1.7,6.7,2.2,10.9,2.4,2.3.1,3.3-.3,4-1.3s5.8-3.8,9.3-5.4c1.5-.7,3.7-.6,5.7-.5s5.8,0,6.6-1.9a2.8,2.8,0,0,1,2.4-1.3c4.4-.5,5.4-2.2,5.9-4a4.9,4.9,0,0,1,3.2-1.2c2.1.2,4.5.6,4.3-1.2a3.9,3.9,0,0,1,2.7-.9c1.6.2,3.3.8,4.8-.3s5.7-1.8,9.3-1.3,3.6.2,3.7-1.1,1.5-1.8,3.7-2.5,5.9-2.1,9.3-2.9.8-2.4,1.2-3.6a3.4,3.4,0,0,1,2.4-1.1c2.7-.2,4.5.9,7.3,1.8-1-1.6-2.6-2.6-2.5-3.8s3.8-3.1,7.4-3.8a3.3,3.3,0,0,0,2.6-1.1,6.6,6.6,0,0,1,4.3-1.8c2.1.2,2.9-.2,2.5-1.2s3.2-3,7-3.4c1.5.1,2.9.8,4.7-.1s5-.7,7.5,0c-1-1.2-2.9-1-4.6-.7s-3.8.7-5.1-.5,2.6-2.8,5.7-3.5a1.7,1.7,0,0,0,.9-.6c3.9-3.3,7.6-6.6,14.6-8.6,2.4.3,4.3.1,5.6-1.1a7.4,7.4,0,0,1,3.1-1.3c3.6-1,3.6-1,.2-2.4a4.1,4.1,0,0,1-1.1-.7c-.6-1.2.5-2,2.7-2.5a38.9,38.9,0,0,1,4.9.4c1.4.1,2.7.1,2.9-.7s3.3-2.5,7-3c-5.1-1.9-2.1-4.5-3.3-6.6s1-1.2,2.4-1.5,7.8-2,7.9-3-2.6-1.2-2.6-2.2.3-.9,1.1-1.1c5.4,0,8.8-1.1,8.5-4.1-1.4-.2-3.2.7-4.8-.1s-.3-2.5,2.2-3.3a2,2,0,0,1,1.1.2c-.1-.2-.6-.3-.8-.4s0-2.8,2.8-3.6a8.1,8.1,0,0,1,2.2.1c4.9.7,5.3.6,5.7-2.1-2.3.8-4.3,2.2-7.2.7-.4-3.2,1.5-6.1,5.5-8.6a14.5,14.5,0,0,1,3.6,0c4.9-.2,6.3-1.2,5.3-3.6-.3-.6-.8-1.3-.3-1.8,2.5-3.1-.7-5.5-3.7-7.9.3-2.5,0-5.1,2.9-7.4s3.4.5,5.5.5c-2.3-.4-3.8-1.4-6.3-1.2-13.7-.2-27.4.1-41.1-.2a18.7,18.7,0,0,0-4.1,0c-1.3,0-3.5-1.1-3.9.4s-1.5,2.3,1.8,2.9a7.5,7.5,0,0,1,3.8,1.8c.4,1.2.3,2.3-1.9,3.1s-1.4-.4-2.2-.5l2,.8c1.4,1.3.6,2.5-1.5,3.5a70.5,70.5,0,0,0-8,1.5c.6,1.2,4.2,1.1,3.8,2.5s-1.6,1.7-2.6,2.5.3,1.9.7,3,0,.8-.7,1.1c-3.6.4-2.1,1.5-1.5,2.6s-2.7,4.7-6.2,6.6h-.3c-7.7,1.7-7.7,1.7-5.2,5.1-.1.7-.6,1.4-2.3,1.7s-.5-.1-.5-.2-.1.3.1.4-.6,1.1-1.8,1.4-3.9,2.3-6.5.4c-.6.9-2.3,1.2-4,1.5s-1.4,1.2-1.1,1.9a1.2,1.2,0,0,1-.3,1.6c-1.6,1.7-1.7,3.6-1.9,5.5a5.5,5.5,0,0,1-4.9,2c-2.5-.6-1.9-1.9-2.4-3-1.5.5-1,1.3-1.6,1.8s-1.6,2.5-4.7,2.8c-.8.1-1.3.3-1.4.8-.1,2.1-2.2,2.8-6.6,1.6.3,1.7-1.3,2.5-3.2,3.3s-3.5,3.2-6.6,4.4,1.7,1.4,1.6,2.3-1.4,1.7-3.3,2.2a5.8,5.8,0,0,0-1.8.8,9.3,9.3,0,0,1-5.6,1.8c-3.8-.4-4.1-1.7-2.9-3.4a8.7,8.7,0,0,0-2.6,3c-1.6,2-3.5,3.6-8.5,3.8s-1.6,2.2-2.3,3.3-2.1,1.5-4.1,1.6h-1.3c-4.1-.6-4.1-.6-3.3,1.6s-1.9,1.5-3.9,1.6c-9-.9-12.5.3-16.8,5.6a10.9,10.9,0,0,1-6.2,1.8,16.8,16.8,0,0,0-8.8,1.1c-2.1.7-3.8.9-5.5-.4.2,1,2.8,1.2,2.7,2.1-2.2,2.1-5.6,3.1-10.3,2.9a21.1,21.1,0,0,0-5-1.5c-2.2-.3-3.6-.4-4.9.7s-4.7,1.9-7.9,1.4-6.6-.2-8.5,1.9-4.4,2-11.4,1.8c.9,1.2,3.7,1.9,3.2,3.4s-4.2,1.9-7.4,1.6a12.6,12.6,0,0,0-7.2-.3,9.2,9.2,0,0,1-6.6-.5,8.8,8.8,0,0,0-4.9-.8c-2.2.4-1.2,1.4-1.3,2.2A20.2,20.2,0,0,1,77,532c-2.6,1.7-6,2.3-10.2,2a6.9,6.9,0,0,0-5.3-.7,26.6,26.6,0,0,1-9.8.4c-4.2-.5-4.7-.1-3.1,2,.2.4.4.7.2,1.1-2.3,1.7-5.8,2.1-9.6,2.2-.6-.1-1.3-.3-1.8.1a6.7,6.7,0,0,1-4.3.6,4,4,0,0,0-1.9.2,4.8,4.8,0,0,1-3.9.2V524.4a6,6,0,0,1,3.4-1.1c4.7.3,7.8-1.2,11-2.4s3.4-2.9,6.6-3.6a7.5,7.5,0,0,1,2.6-.1c1.7.5,3,1.6,5.6.4s2.7.5,4.3,1.1c.2-2.1,1.6-3.6,6.4-3.6,1.9,0,.6-.9,1.2-1.3a4,4,0,0,1,3.3-1c1.3.6,3.3.5,4.7,1.1s-.5,1.3-.1,2.1c2.3-.8,1.5-1.5.2-2.1s-3.1-.3-3.9-1c1.5-2.2,5-2.6,9-2.6a10.8,10.8,0,0,1,3.6,1.3,10.9,10.9,0,0,0,5.5.8c1.1-.2,2.2-.5,2.1-1.1s-1.6-.4-2.4-.3c-2.4.1-4.3,0-5.2-1.3,2.6-2.4,7.1-3.2,12.1-3.4,1.3.3,1.9.7,2,1.5.3-.9,1.2-1.5,2.5-2.1a12.7,12.7,0,0,1,5.2-.5h1.3c6.2.1,6.4,0,4.9-3a1.5,1.5,0,0,1-.1-.7c2.3-2.1,5.4-3.8,10.8-3.7,4,2.7,9,.8,12.8-1.4a10.4,10.4,0,0,1,4.9-2c-2.5-.4-5.5,1.3-7.9-.4-.4-1.4,1.6-2,3.6-2.5l1.3-.5c1.9-1,3.1-2.3,6.2-2.3l1.2.3-.5-.6c.3-1,1.7-1.5,3.4-1.8s2.2-.5,2.5-1.2c2.5-2.3,6.3-4,10.3-5.6a21.2,21.2,0,0,1,4.4-.6c3.8.2,7.5.6,7.2-2.4,0-.9,2.3-1.3,4-1s3.9-.2,4.7-1.4a4.4,4.4,0,0,1,2.4-1.6c1.9-.7,3-1.4,2.2-2.7s.6-1.9,2-2.6,2.3-1.4,3.7-2l.7-.2-.8.2a3.3,3.3,0,0,1-2.9-1.1c-.1-1.2,1.3-1.9,3.5-2.3,4.3-.4,7.4-2.3,6.4-4.1s1.3-2.2,4-2.5c5.8.5,11.8-1.1,14.2-3.6a1.6,1.6,0,0,0,.3-.9c.3-3,.3-3,5.3-4.2-.5-1.3-2.6-2.2-4.4-3.2s.7-2.4,2.9-3.3l1.2-.2c4.5-.8,4.5-.8,2.6-3.1-.1-1.3.8-2.3,3.3-2.9s4.2.1,6.2-.8,3.3-1.3,1.4-2.7.7-1.7,2.1-2.4c3.3-1.7,2.1-5.1-2-5.9q-21.7.3-43.5,0a5,5,0,0,0-2.1.1,5,5,0,0,1-3.5,1.6,47.3,47.3,0,0,1-5.3-.4c-1.1-.2-1.8.1-1.6.7s.9.6,1.7.5,2.9-.9,4.6-.2-.8,3.2-3.4,4.4a2,2,0,0,0-1.5,1.1,3.4,3.4,0,0,1-2.7,1.1c-1.4-.2-1.8-.7-2.1-1.3.3,1.6-1.7,2.3-4.5,2.3s-5.7-.4-6.7,1.5-.8,3.3,2.8,4.3a2.8,2.8,0,0,1,.8.6c.2,1.7-1.5,2.7-4.6,3.2-3.6-1.1-7-1.9-9.6.7-.3.3-1.7.1-2.8.5,4.1.1,4.4,1.7,5.5,3.1s-1.3,2.2-4,2.4-6.2-.7-9-1.4c.8.7,2.1.8,3.7.7s4,.2,4.5,1.4-2,2.2-4.7,2.6-5.3,1.3-8.1,0a2.7,2.7,0,0,0-2,.3c-.6.6-1,1.2-.1,1.7s1.3,2.1,1.5,3.2-1.6,1.4-3.4,1.4-2-.7-2.2.4-1.1,1-1.4,1.6l-.7.4a2,2,0,0,0-1.5,1.5c-2.2,1.8-4.1,3.8-9.3,3.7-2-.8-1.3-1.8-.9-2.3-2.3,1.3-8.2,2.3-5.5,5.3-.1.6-.8,1-2,1.2s-3.8-.4-5.7-.5h.1c2.3.7,1.3,1.7.8,2.6a7.3,7.3,0,0,1-5.5,1.7c-2.1-1-5.5.8-7.3-.8-1.1,1.1-3.5,1.7-4.4,2.8s-4.4,3.6-10.1,3.3-2,1.5-1.8,2.5-2.1,1.8-4.6,1.8-3.8-.9-3.7-2.3c-3.2,2.1-8.6,1.8-12.6,3.1.7.9,2.9,1.6,1.8,2.8s-4.9,2.2-8.6,1.9c-1.8-.3-2.7-1.2-4.7-1.5-7.1-.8-5.1,2.2-6.7,3.7a7.2,7.2,0,0,1-4.8.9c-1.8-.9-3.5-1.4-5.5-.1a3,3,0,0,1-2.1,0V480.8a5.9,5.9,0,0,1,1.6-.7c4.3-.8,6.3-2.3,5.7-4.5a4.8,4.8,0,0,1,4-1c.3.3,0-.1.3.1s.3.7.4,1a4.3,4.3,0,0,0,.2-1.1c.7-.8,2-1.1,3.8-1a21.2,21.2,0,0,1,3.6,1c3.3,1,6.5.7,8.5-1s4.6-2.1,6.5-3.3,3.5-.3,4.9.3,3.7.7,5.1-.5a4.6,4.6,0,0,1,2-.8c4.1-.8,4.1-1.9,1.3-3.4.2-1.5,2.3-2,4.9-2.2a1.8,1.8,0,0,0,1.3-.4c5.1-2.4,9.8-5.1,17-6.1,4.2,1.3,6.6-.2,9.5-1.5-1.1-.5-3.1-.4-3.5-1.2s2.2-2.7,5.6-3,.4-1,1.4-1.2c1-1.9,3.1-3.2,6.9-3.8s2.5-.8,2-1.7.8-2,3.3-2.3,3.8,2,3.8,3.5,1.1,0,.5.1h-.3c-.4-.3-.5-.6-.2-.9,2-1.7.5-2.8-2.3-3.8-.5-1.6.9-2.7,3.8-3.4a31.7,31.7,0,0,1,4.4.2,14.5,14.5,0,0,1-2.9-1.9c0-2.1,1.1-3.9,5.1-5,2,1.1,4,2.2,7.2.4-2.1-1.2-2.7-3-4.8-4.4-.6-1,0-1.8,1.6-2.4s3.7.1,1.2-1.1c-.5-.3-.6-.8-.9-1.2h-1.3c-11,.1-21.9.1-32.8,0-5.3-.1-10.3,0-13.9,2.3-3.2.3-2.8-1-3.2-1.9a1.7,1.7,0,0,0-2-1.2c-1.4.1-1.1.8-1.1,1.3s-2.4,1.9-4.1,2.6-3,1.8.4,2.6a4.8,4.8,0,0,1,2.4,1c.2,1-.9,1.5-2.6,1.8-3.4-.3-6.1.7-8.9,1.3s-3.3,1.1-5.4,1.1-2.3.6-2.7,1.3-1.3,2.4-4.3,2.6c-.5,0-1,.2-.6.4s-.5,2.1-.8,3.2c-5,2.5-10.2,4.8-17.9,4.9a1.3,1.3,0,0,1-1-.7,3.5,3.5,0,0,1-.3-1.2c-1,1.8-4.2,2.6-6.1,3.9a6.4,6.4,0,0,1-4.3.8c-2.4-.5-1-1.8-2-2.6,0-8.2-.1-16.3-.2-24.5-.3-.2-.4-.4-.3-.7,4.4-3.7,11.2-6.3,17.2-9.3l156.4-77.6a10.1,10.1,0,0,0,2.9-1.7c-1.6-.7-3.3-.4-4.9-.4H35.3c-5.7,0-6.1.2-6.1,2.9s0,6.8-.1,10.2c0,1.1.3,2.1-.8,3.1-7.3,3-16.1,4.8-24.1,7.3-18.7,5.7-36.9,11.6-52.7,19.2s-25.9,15.9-34,25.5c-5.4,6.2-10.4,12.5-14.1,19.1a6.2,6.2,0,0,1-3.3,2.3l-24.6.2-22.8-.2c-1.9-1.2-.4-2.5.2-3.7a204.1,204.1,0,0,1,21.7-31.2c11.9-14,28.2-26.6,51-36.9,18.4-8.3,38.7-15.3,60.2-21.5,11.3-3.3,23-6.2,34.4-9.4a18.9,18.9,0,0,1,6.9-.9c2.1.7,1.9,1.9,2,2.9v7.3a13.7,13.7,0,0,0,3.6-1.6L201,242.7A27,27,0,0,1,209.3,240Z" transform="translate(338.5 -149.2)"/><path class="cls-3" d="M289.4,516.5a15.1,15.1,0,0,0,4.8-2.1c0-1.2,1.5-1.4,3.4-1.5a61.5,61.5,0,0,0,10.3-4.8c1.4-2.6,4.9-4.2,9.9-5.1a22,22,0,0,0,5.5-3.1c.6-1.1,1.5-2,3.8-2.3a4.6,4.6,0,0,0,2.5-1.4c.1-1.2,1-2.2,2.5-3.1,7.6-4.4,13.2-9.6,18.9-14.7a4.8,4.8,0,0,1,3.4-1.6,19.2,19.2,0,0,0,4.6-5c-1.3-1.8.5-3.3,2-4.7,2.9-2.9,4-6.1,6-9.1a3.5,3.5,0,0,1,2.9-2.1,4.1,4.1,0,0,0,1.6-2.7c-1.3-1.1-1.1-2,1.2-2.7s1.2-2.2,1.6-3.2-1-.5-.9-.8a10.7,10.7,0,0,1,4-7.7,9.9,9.9,0,0,0,1.4-4.2c-2.6-1.6-1.1-2.9,1-4.1a7.6,7.6,0,0,0,1-4.6c-1.9-1.1-1.1-2.4-.6-3.6s1.5-1.4,3.4-1h1.8a3.9,3.9,0,0,1,2.8,0h4.5c2.2.9,2.1,2.1,1.9,3.3.3,5.2.3,10.5.1,15.8s.4,12.3-.1,18.5a116,116,0,0,1,0,15.6c.1,3.1-.4,6.2.2,9.3,1.2,5.3-2.8,9.8-7.8,14.3-15.3,13.7-35.5,25.6-58.8,36.1a841,841,0,0,1-80.9,31.6c-28.8,9.8-58.5,18.7-89.4,26.8-11.7,3.1-23.6,5.9-35.5,8.7a47.3,47.3,0,0,1-9.3,1.1,22.6,22.6,0,0,1-5.8.3h-80V590.1a21.9,21.9,0,0,1,13.6-2.2,126.3,126.3,0,0,0,12.8-2.3c.8-.8,2.1-.9,3.6-.6,3.6-.6,7.1-1.1,10.4-2,1-.9,2.7-.9,4.4-.9a66.5,66.5,0,0,0,9.3-1.9c3.9-1.6,7.8-3.2,13.4-2.8a150,150,0,0,0,15.7-3.6c.8-.7,2.2-.7,3.6-.8a107,107,0,0,0,11.8-2.8c2.2-2.3,6.9-2.2,10.9-2.8a39.6,39.6,0,0,0,8.4-2.2c.6-.9,1.9-1.1,3.5-.9l2.9-.8c2.4-1,4-2.7,8.2-2.2a9.5,9.5,0,0,0,3.6-1.1c.3-.4.9-.5,1.8-.5a7.7,7.7,0,0,0,2.8-.8c.9-1,2-1.7,4.6-1.3a10.5,10.5,0,0,0,3.4-1c.4-.8,1.4-1,2.9-.9a73.2,73.2,0,0,0,10.3-3.1,1.5,1.5,0,0,1,1.2-1.2c2.9-1,6.1-1.8,8.8-2.9a5.6,5.6,0,0,1,3.4-.2,24.5,24.5,0,0,0,5.4-1.7,11,11,0,0,1,6.6-2.2,31,31,0,0,0,6.5-2.2c.4-.6,1.1-1,2.7-.9a8.5,8.5,0,0,0,2.7-.9,10.6,10.6,0,0,1,4.7-2.7c6.6-2.4,13.5-4.6,19.9-7.2a9.6,9.6,0,0,1,4.6-.6,120,120,0,0,0,12-4.6c1.7-2.4,5.4-3.6,10.2-4a9.5,9.5,0,0,0,3.5-1.4C283.9,518.6,284.9,516.5,289.4,516.5Z" transform="translate(338.5 -149.2)"/><path class="cls-3" d="M272,500.2l-6.1,3.3c.1,1.2-1.5,1.5-3.3,1.8l-6.2,3.2c0,.8-.9,1.2-2.6,1.3l-3.8,1.7c-.4.7-1,1.3-2.7,1.4a41.1,41.1,0,0,0-7.3,3.2c-.4,1.6-2.4,2.2-5.4,2.3l-1.9.8c-.7,1.3-2.4,2.3-4.5,3-7.2,2.5-13.3,5.6-21.4,7.4-2.3.5-3.5,2.2-6.9,1.7l-1.9.7c-.9,1-2.1,1.6-4.5,1.4a7.1,7.1,0,0,0-2.8.9,15.1,15.1,0,0,1-5.4,2.6c-11.2,3.4-22.7,6.4-34.3,9.3-1.8.5-3.7,1.1-5.9.4a27.8,27.8,0,0,0-5.5,1.3,6.2,6.2,0,0,1-5.6,1.3,6.2,6.2,0,0,0-2.6.6c-.5.9-1.9,1.4-3.4,1.7-4.3.8-8.5,1.8-13.2,1.7l-7.4,1.5c-2.9,2.1-7,2.6-11.7,2.3a43.4,43.4,0,0,0-7.5,1.3.6.6,0,0,1-.7.1l-13.9,2.5c-.9,1-2.4,1.4-4.4.8l-1,.2c-4.4,2-9.7,2.9-15.6,3.2a13.5,13.5,0,0,0-3.6.8c-2.3.6-4.7,1.2-7.2.3a24.3,24.3,0,0,0-5.5.8,1,1,0,0,1-.9.1l-8.1.9V540.1l3.8-.7a1.7,1.7,0,0,1,1.6-.1,23.1,23.1,0,0,0,4.7-.8.6.6,0,0,1,.7-.1,80.4,80.4,0,0,0,10.2-1.7,4.4,4.4,0,0,1,3.2-1.4c5-.6,9.4-2.4,15-1.8a77.2,77.2,0,0,0,10.2-1.8c.2-.6.9-1,1.9-1.2,5-1.2,10.3-2,15.5-2.9a6.9,6.9,0,0,1,3.5.1,49.5,49.5,0,0,0,7.3-1.5c.4-1,2-1.3,3.5-1.6,8.5-1.9,17.1-3.7,25.5-5.8a13.6,13.6,0,0,1,5.7-.4,63.4,63.4,0,0,0,10.2-2.6c2.7-2.1,7.1-2.9,11.7-3.3a37.1,37.1,0,0,0,5.6-1.7,38.8,38.8,0,0,1,17.2-5.6l3.6-1.3c.3-1.4,2.4-1.7,4.7-1.7a10.6,10.6,0,0,0,3.7-1.3l.4-.4a47.4,47.4,0,0,1,16.9-6.5,24.8,24.8,0,0,0,4.9-2.2q0-.7,1.5-.6l3.7-1.8q.2-1.2,2.1-2.1c6.8-3.4,13.1-7.1,19.3-10.8a6.9,6.9,0,0,1,4.1-1.1l3.6-2.3c3.1-4.2,8.2-7.8,14.8-10.8a3.2,3.2,0,0,0,1.7-1.5h0a3.9,3.9,0,0,0,2-1.7c-.2-2.4,2.3-4,5.7-5.4a43,43,0,0,0,5.8-6.5c-.1-1-.1-2,2.1-2.7l.8-.9c-.5-2.7,3.3-5,3.1-7.7,0-.7.9-1.4,2.6-1.7a6.1,6.1,0,0,0,1.8-3.7h0c1.1-1,1.1-2.1,1.5-3.2-1.8-2.2-1.2-4.2,2.2-5.9h41.6c1.1,0,2.5-.3,3.2.5s.7.9-.2,1.3c-.8,2.6-1.7,5.2-2.5,7.7,1.7,4.2-1.5,8.1-3.6,12a2.9,2.9,0,0,1-2.2,1l-5.4,8.8c.2.5.2,1-.9,1.3a8.4,8.4,0,0,0-2.7,3.7h0a8.1,8.1,0,0,0-2.7,3.2c1.2,2-.5,3.4-4,4.4l-.9,1c.6,2.3-1.3,4.2-5.3,5.3a2.6,2.6,0,0,0-1.7,1.5c-.7,3.7-5.7,6.3-9.2,9.3a5.1,5.1,0,0,1-2.7.7,7.6,7.6,0,0,0-2.9,2.2c-.6,2.7-3.2,4.7-8.2,5.8l-14,8.7C272.6,500,272.4,500.1,272,500.2Z" transform="translate(338.5 -149.2)"/><path class="cls-3" d="M121.3,465.8a61.1,61.1,0,0,0,8.1-4c0-.8.8-1.2,2.2-1.3h0a6.1,6.1,0,0,1,4.4-2.3l2.6-1.4c1.3-2.6,4.9-4.1,9.4-5.3a18.5,18.5,0,0,0,4.2-2.4c-.2-.5.2-.8,1.2-.8a12.3,12.3,0,0,0,3.9-2.4c.3-2.3,2.9-3.7,7.1-4.5a17.8,17.8,0,0,0,4.3-2.8c-1-1.5,1.4-2.5,2.9-3.5s3.2-3.5,7.4-4a2.8,2.8,0,0,0,1.8-1.5c0-.4.3-.6,1-.8a16.7,16.7,0,0,0,4.5-4.2c-.1-.4.1-.7.9-.9l2.6-2.3a1.1,1.1,0,0,1,1-.1h47.4c1.5.7,1.3,1.5.8,2.3a83,83,0,0,1-6.3,8.7,7.1,7.1,0,0,1-3.9,2.1l-2.5,2.7c1.2,1.9-1.7,2.7-3.8,3.7l-3.2,2.7c.5.9,0,1.7-.9,2.4-3.3,2.9-7.1,5.7-10.9,8.5a6.3,6.3,0,0,1-4,1.3,11.9,11.9,0,0,0-3.5,2.4c-.5,2.1-3.2,3.4-6.8,4.4a8.6,8.6,0,0,0-3,1.9c.5.9-.5,1.6-1.6,2.2-5.9,3.9-12.5,7.4-18.7,11.1-2.1,1.2-5.2,1.6-7.4,2.6l-10.4,5.3c-.1.9-1.2,1.3-2.8,1.4l-3.2,1.4c-.1.3-.4.5-1,.5l-5.7,2.7a1.1,1.1,0,0,1-.9.3,19,19,0,0,0-4.5,1.9c-1.8,2.4-5,3.8-10,4l-10.3,3.7a1.5,1.5,0,0,1-1,1.2c-4.4,2-9.8,2.9-15.2,3.9l-11.8,3.2c-.6.9-2,1-3.7.9a63.7,63.7,0,0,0-9.1,2.2.7.7,0,0,1-.9.1l-2.8.8a38.2,38.2,0,0,1-10.7,2.9c-2.4.4-4.7,1.7-7.6.8a3,3,0,0,0-1.9.3,74.7,74.7,0,0,1-15.8,3.5c-2.1.2-4.1.5-5.9-.3V493c2-.9,4-2,7.2-1.3a15.3,15.3,0,0,0,4.9-.8c2.9-2,6.8-2.6,11.6-2.3a51.8,51.8,0,0,0,8.4-1.8,30.2,30.2,0,0,1,14.4-3.7,15.3,15.3,0,0,0,4.7-1.3c.1-.8,1-1.4,2.2-1.6,6.8-1,10.8-4,16.5-5.7a10.2,10.2,0,0,1,5-.8,19.1,19.1,0,0,0,4.6-1.7c1.5-.9,2.1-2.4,5.3-2.2l1.8-.8C114.7,467,117,465.8,121.3,465.8Z" transform="translate(338.5 -149.2)"/><path class="cls-3" d="M135.9,431.3l-4.5,5.1c.3.8-.1,1.5-1.9,1.7a15,15,0,0,0-3.7,3.2c.2.7-.1,1.3-1.8,1.4a9,9,0,0,0-3,2.2c.3,1-.2,1.7-2.5,1.8l-6.2,3.7c.1.8-.4,1.3-2.1,1.3l-5.5,2.8c-.3,1.9-2.3,3-6.4,3l-16.7,6.4c.1.3-.1.4-.5.2l-5.4,1.8c-.8,1.8-4.1,2.4-6.9,2.9-6.8,1.3-12.3,3.7-19.1,4.9-2,.3-3.9.9-6.1.4a10.6,10.6,0,0,0-3.7.7c-.1.4-.4.4-.9.2l-3.7.7c-1.9,1.6-4.4,2.3-8,1.4V448.5a1.8,1.8,0,0,1,1.7-.4l3.6-.9c2.7-.7,4.6-2.2,8.3-1.8,6.4-1.1,11.7-3.2,17.2-5,3.6-2.6,9.1-4.3,14-6.2,3-1.3,4.9-3.2,9.1-3.6a5.3,5.3,0,0,0,2.7-1.5c.3-2.1,2.4-3.6,6.4-4.4,2.2-3.3,7.3-3.4,13.2-3.4,12.3.2,24.7,0,37,0,1-.1,2-.3,1.8.5s-.9,1.2-1.1,1.8.4,1-.8,1.3a3.7,3.7,0,0,0-1.6,2.4C140.2,429.1,139.4,430.4,135.9,431.3Z" transform="translate(338.5 -149.2)"/><path class="cls-2" d="M-99.9,421.3c4.8-9.3,12-18.1,20.2-26.8s19.5-16.2,33.6-22.6a339.3,339.3,0,0,1,41-15c10.5-3.2,20.8-6.5,32.1-9,2,.5,2.1,1.4,2.1,2.3.1,5.8.5,11.6-.2,17.4-1.3,1.6-4.2,2.3-6.8,3.1a319.7,319.7,0,0,0-40.9,16.2c-18.8,9.2-33.1,19.9-44,31.8a7.3,7.3,0,0,1-4.2,2.6Z" transform="translate(338.5 -149.2)"/><path class="cls-4" d="M-67,421.3c9.1-11.2,21.6-21.2,37.7-30.3s32.6-15.3,51.5-21.5a22.5,22.5,0,0,1,4.8-1.2c2.2.5,2.1,1.6,2.1,2.5.1,9.2.4,18.4-.1,27.5-.7,1.6-3.1,2.6-5.4,3.5A152.7,152.7,0,0,0-9.7,419.2a13.8,13.8,0,0,1-5.2,2.1Z" transform="translate(338.5 -149.2)"/><path class="cls-2" d="M-14.9,421.3c10.1-7.8,22.4-14.6,37.3-20.3,1.6-.5,3.1-1.2,4.6-1.8s2.1,1.6,2.2,2.5c.1,5.3.1,10.6,0,15.8,0,1.3-.8,2.4-2,3.5a.8.8,0,0,1-.1.4Z" transform="translate(338.5 -149.2)"/><path class="cls-4" d="M27.3,521.1,49,517.9c-1.9.8-3.8,1.6-4.2,3.1s-2,1.9-5.5.4c2.8,3.2.1,3-3.9,2.7a74,74,0,0,0-8.1.3Z" transform="translate(338.5 -149.2)"/><path class="cls-4" d="M40.9,587.9c-4.3,1-9.1,1.5-13.6,2.2V587c1.7-.1,3.7.2,4.8-.5s6.7-1.2,9.5-2.4c1-.4,3.4-.3,3.8.5s-1.8.2-2.2.6A19.4,19.4,0,0,0,40.9,587.9Z" transform="translate(338.5 -149.2)"/><path class="cls-4" d="M27.3,477.1l8-1.4c3.4,2.9.1,5.1-8,5.1Z" transform="translate(338.5 -149.2)"/><path class="cls-4" d="M34.5,491.7,27.3,493v-.9l2-1.1c1.2-.5,1.3-1.8,3.3-1.5S34.4,490.8,34.5,491.7Z" transform="translate(338.5 -149.2)"/><path class="cls-4" d="M29,448.1l-1.7.4v-2.6C28.8,446.5,28.3,447.4,29,448.1Z" transform="translate(338.5 -149.2)"/><path class="cls-4" d="M392.9,424.7c-.1-1.1-.1-2.2-.2-3.3H568.3c2.3-1.2,5.3-1,8.2-1H749.7c3,0,6.2-.4,8.6.9h36.6a7.8,7.8,0,0,0,4.8-1.4c27.8-16.1,56.6-31.8,85.7-47.3,11.2-6,22.6-11.8,34.4-18,.7,2.7-.4,5.1-.8,7.4-3.4,17.9-5.9,35.8-8.8,53.7-.9,5.6-.9,5.6,10.4,5.6h29.3c2.8,0,3.9-.3,4.1-1.8,2.5-18.8,5.3-37.7,8.9-56.4.9-4.8,1.7-9.6,2.7-14.9,8.7,4.5,16,8.9,23.1,13.3,21.9,13.7,41.2,28.3,62.9,42,8.8,5.6,18,11.1,26.9,16.6,1.5,1,3.2,1.2,5.5,1.2h38.8l-55.6,13.9L763.6,510.7a13.5,13.5,0,0,0-3.5,1.4h363.1l-4.2,1.2L762.1,601.9l-2.9.6c2.3,4.5.9,9.1.9,13.6,0,.9-1.1,1.4-2.6,1.7a261.3,261.3,0,0,1-31,14.3,21.8,21.8,0,0,1-17.2-1.2c-7.3-4.3-6.2-10.9,2.5-14.6s18.5-7.9,26.7-12.4l1.9-1.1H683.7c-1.7.1-3.4-.2-4.8.8-9.2,6.6-20.5,12.2-31.8,17.7-8.8,4.3-18.4,8.2-27.6,12.3s-20,2.2-23.8-3.8c-2.8-4.4,0-8.7,7.3-11.5,10.4-4.2,20.5-8.6,29.9-13.3l3.4-1.8c-1.2-.6-2.5-.3-3.6-.3H561a13.6,13.6,0,0,0-6.3,1.3c-13.6,6.9-27.7,13.6-42.1,20.1-5.8,2.6-13.5,2.3-18.6-.7-6.9-3.9-6.4-10.1,1.2-14,4.3-2.1,9-4.2,13.7-6.3a12.9,12.9,0,0,0-4.7-.3H453.9a63.6,63.6,0,0,0-12.4,1.2,468.6,468.6,0,0,0-48.7,11.6c0-3.4-.2-6.9,0-10.4.1-1.9-1.4-2.4-5-2.4-24.7.1-49.3,0-73.9,0-.5-1.4,1.9-2,3.6-2.6,16.3-5.8,32.3-11.8,47.7-18.2,7.8-3.2,15-6.8,22.2-10.3,1.9-.9,3.9-2.2,6.8-.5,1.3,3.7.4,7.4.6,11.1s.6,3.5,7.3,3.7q33.4.9,66.9,2.1l70,2.9c15.1.6,30.3,1,45.5,1.4,29.5.7,59.1.5,88.6.2,25.1-.3,50.2-.1,75.3-.3,7.3-.1,7.8-.3,7.8-3.9s.1-5.6,0-8.4-.9-2.8-5.5-2.9c-34.7-1-69.1-3.1-103.4-5.3-15.5-1-31-.5-46.5.1-19.5.8-39.2,1.1-58.8.3-9.4-.3-18.8-.5-28.2-1-17.1-.7-34.2-1.8-51.2-2.9-20.4-1.3-40.7-2.8-61.1-3.9-3.3-.2-6.7-.3-9.5-1.3a2.1,2.1,0,0,1-1.2-1.9c-.2-5-.2-10,0-14.9a1.8,1.8,0,0,1,1.1-1.9c1.5-.9,3.5-.7,5.5-.6,14,.5,27.8,1.5,41.7,2.4,23.8,1.6,47.6,3.3,71.5,4.4,14.9.7,29.7,1.1,44.6,1.5,17.9.4,35.5-.6,53.3-1s33.7-.2,50.5,1,36.2,2.3,54.4,3.1c12.4.5,24.8,1.1,37.3,1.3,4.7.1,5.4-.1,5.5-2.4.1-4.7,0-9.4.1-14.1,0-2-1.8-2.9-5.6-3.1-5.3-.3-10.6-.3-15.9-.5-25.9-.9-51.8-.8-77.6-.5-16.9.2-33.8.5-50.6,1-12.1.3-24-.1-36-.3-17.4-.3-34.5-1.8-51.4-3.7-19.3-2.2-38.8-4-58.5-4.7H449.2c-15.9-.6-31.9,0-47.8,0-5.5,0-5.9.3-6.8,2.9-3.7,4.4-9.7,8.1-15.7,11.8-19.2,12-42.9,21.5-67.7,30.5q-40.1,14.4-82.3,27.2c-3.4,1-6.7,2.1-10.9,1.9a18.4,18.4,0,0,1-5.3.4H117.5a16,16,0,0,1-4.4-.3A1276.5,1276.5,0,0,0,257,561.3c33-11.6,64.5-24,92.1-38.8,16.9-9.1,30.8-19.2,42-30.3a4.8,4.8,0,0,0,1.7-3.4c-.1-4.5,0-9,.1-13.4,1.5-1,3.6-1.1,5.8-1,20.7,1,41.5,1.7,62.2,2.5l43.7,1.6c17.4.6,34.9.9,52.3,1.6,6.2.3,12.5.4,18.7.5l57.5,1.1c37.2.7,74.5.9,111.8.8h3.6c6.9,0,7.7-.4,7.7-3.8s.1-4.2,0-6.3-1.1-2.7-5.4-2.8l-30.6-.4c-24.6-.2-49.2-1-73.8-1.8-35.5-1.2-70.8-3.3-106.1-5.4a395.5,395.5,0,0,0-48.7.5,460.4,460.4,0,0,1-55.1.1c-12.2-.6-24.5-1.3-36.7-2.1-2.6-.2-5.2-.3-6.9-1.5V440.7c2.6-1.1,5.7-.8,8.7-.6,17.8,1.2,35.6,2.2,53.5,2.9,15.7.6,31.2-.7,46.8-1.5,12.2-.5,24.3-.5,36.5,0,20.6.9,41,2.4,61.6,3.5s39.4,1.8,59.1,2.5l43.7,1.1c15.4.3,30.7.4,46.1.3,6.6,0,7.3-.3,7.3-3.6s0-5,0-7.5-1.5-2.7-5.2-2.6h-.9c-17.5.3-34.9-.4-52.4-.5-16-.2-32-.1-47.9-.5-11.8-.3-23.5-.1-35.2-.4-27.5-.5-55-.6-82.5-1l-38.3-.3a883.3,883.3,0,0,1-94-5.9C397.2,426.2,394.3,426.1,392.9,424.7Z" transform="translate(338.5 -149.2)"/><path class="cls-3" d="M758.3,421.3h-190c6-7,11.9-14,16.3-21.3,11.5-18.9,13.1-37.8,4.2-57-1.8-4-3.3-8.1-1.9-12.2,3.4-10.1,16-16.3,34.8-19.7s37-3.3,55.9-3.1,38.9.7,58.4.3c7.4-.1,14.9-.5,22.3-.8.8.2,1.5.5,1.6,1a16.7,16.7,0,0,1,.1,8.3c-.1.4-1,.7-1.5,1.1v27.4c2.7,1.1,1.8,2.7,1.9,4,.1,12.6,0,25.2,0,37.9v13.8a7.1,7.1,0,0,1-1.9,5.3C758.4,411.4,758.4,416.3,758.3,421.3Z" transform="translate(338.5 -149.2)"/><path class="cls-1" d="M392.7,330.3a7.4,7.4,0,0,1-3.1-1.3L213,241.4l-2.4-1.4H392.7Z" transform="translate(338.5 -149.2)"/><path class="cls-1" d="M392.7,421a7.4,7.4,0,0,1-3.1-1.3l-176-87.3-3.2-1.7H392.7Z" transform="translate(338.5 -149.2)"/><path class="cls-4" d="M758.5,318c-.1-3.5-.2-7-.2-10.4,0-16.8,0-33.6.1-50.4,50,13.9,92.4,32.5,131.5,53.4C846.4,315.1,802.4,316.2,758.5,318Z" transform="translate(338.5 -149.2)"/><path class="cls-4" d="M878.7,239.9h65.6c2.7,0,3.3.4,3,1.7q-6.9,26.7-13.6,53.2a2.1,2.1,0,0,1-1.3,1.7c-40.8-20-79.7-41.1-129.5-56.1l.3-.5Z" transform="translate(338.5 -149.2)"/><path class="cls-4" d="M758.5,406.4v-61l48.5-2c21.8-.7,43.5-2.2,65.1-3.9l4.9-.2c1.2-.1,2.6-.7,2.9.4l-44.5,23.7q-37.9,20.4-74.1,41.5Z" transform="translate(338.5 -149.2)"/><path class="cls-4" d="M979.5,288.4c1.9-7.6,3.9-15.3,5.9-22.9l6-23.3c.3-1.3.3-2.3,4-2.3h88.7C1045.5,254.6,1013.9,272.1,979.5,288.4Z" transform="translate(338.5 -149.2)"/><path class="cls-6" d="M879.9,339.7a8.8,8.8,0,0,0-2.9-.4c1.3-.3,2.6-.8,4-.1Z" transform="translate(338.5 -149.2)"/><path class="cls-2" d="M1064.8,602.9c-6.7,8.5-13.3,17-21.4,25.2s-19.5,9.5-34.9,8.9c-18.6-.6-37.1-1.1-55.1,1.9-22.3,3.7-39.6,10.7-54.2,19.6-8.9,5.4-16.9,11.2-27.4,16A128.4,128.4,0,0,1,827.7,686c-11.4.9-22.1-.3-32.6-2.2-12.4-2.3-24.1-5.5-36.6-7.5-.1-3-.2-6-.2-9-1.1-.3-1.8-.8-1.8-1.5-.2-4.8-.9-9.6.4-14.4,1.6-1.2,3.9-1.1,6.1-.6a387.9,387.9,0,0,0,42.8,5.3,163.8,163.8,0,0,0,34.3-.7c16.6-2.3,27.7-7.9,36.7-14.8,14-10.6,23.1-22.2,26.9-34.8a3.6,3.6,0,0,1,2.9-2.9h158.2Z" transform="translate(338.5 -149.2)"/><path class="cls-2" d="M757.5,617.8c1.7-4.1.4-8.2.8-12.3.2-1-.5-2.1.9-3,1.5.7,3.5.3,5.2.3H876.7c1.6.8,1.6,1.8,1.2,2.8-3.9,9.5-11.4,18.2-22.8,26.2s-23.5,9.4-40.1,8.6a333,333,0,0,1-51.9-6.6c-2-.5-3.8-.9-4.6-2-.1-4-.1-8-.2-12C758.3,619.2,759,618.4,757.5,617.8Z" transform="translate(338.5 -149.2)"/><path class="cls-1" d="M758.5,631.9c15.5,3,31.1,5.9,47.8,7a161.5,161.5,0,0,0,24.1.2c7.3-.6,13.4-2.3,18.3-5,15-8.7,23.5-18.9,27.6-30.1.1-.4.3-.7.4-1.1h29.9c-4.1,16.3-15.6,31.1-36.5,43.9-14.2,8.6-33.2,11.6-54.9,10.8a326.8,326.8,0,0,1-56.8-6.7c-3.7-2-2.2-4.1-.2-6.2Z" transform="translate(338.5 -149.2)"/><path class="cls-2" d="M-295.5,421.3a354.7,354.7,0,0,1,24.4-28.5c13.3-14.3,27.6-28.3,41.7-42.4s32.3-26.7,55.7-37.2c19.7-8.9,40.8-17,62.7-24.5,33.2-11.4,67.6-21.8,102.1-32.2A294.3,294.3,0,0,1,27,247.7c2,.4,2.1,1.4,2.1,2.3.1,6.9.5,13.7-.2,20.6-1,1.4-3.6,2-6,2.6q-39.4,10.2-77.4,21.7a539.9,539.9,0,0,0-58.8,21.3c-25.2,11-46,23.8-63.5,38q-20.7,16.9-38.8,34.6c-9.8,9.5-18.3,19.4-24.7,29.6-.8,1.2-1.2,2.4-3.9,2.9Z" transform="translate(338.5 -149.2)"/><path class="cls-4" d="M-244.2,421.3c7.7-13.3,19.1-25.9,32.1-38.2,16.9-15.8,34.4-31.6,56.3-45.9,13.7-8.9,29.6-16.8,46.7-24.1,27.8-11.8,59.1-20.9,90.6-29.9,13.5-3.8,27.1-7.5,40.9-11l4.6-1c2,.5,2.1,1.5,2.1,2.4.1,8.8.5,17.6-.2,26.4-.9,1.4-3.5,2-5.9,2.7-24.6,6.9-49.4,13.7-72.9,21.5-21.3,7.1-41.6,14.8-58.7,24.3a256.6,256.6,0,0,0-42.8,30.1c-10.5,9.2-20.7,18.5-30.1,28q-5.7,6-10.8,12a6.1,6.1,0,0,1-4.4,2.7Z" transform="translate(338.5 -149.2)"/><path class="cls-2" d="M-196.7,421.3c13-16.2,29.9-31.5,47.7-46.5a233.7,233.7,0,0,1,53.8-34.4,433.1,433.1,0,0,1,44.7-17.2c22.9-7.6,47-14.2,70.9-21,2.1-.6,4.4-1,6.6-1.5s2.1,1.6,2.2,2.6c.1,4,.1,8.1,0,12.2-.1.9,0,2-2.2,2.5-15.2,4.1-30.6,8-45.5,12.4-24.6,7.3-47.4,15.6-67,26a127.8,127.8,0,0,0-38.9,31.5A192.1,192.1,0,0,0-146,419.4a12.7,12.7,0,0,1-1.3,1.9Z" transform="translate(338.5 -149.2)"/><path class="cls-4" d="M612,664.8c-.8-3.3,4.1-5.9,9.1-8.3A404.7,404.7,0,0,1,663.6,639c11-3.9,22.2-1,24.1,5.6,1.3,4.2-1.5,7.8-9.1,10.3a276.8,276.8,0,0,0-41.4,17,21.2,21.2,0,0,1-15,2.3c-6.9-1.4-9.8-4.3-10.2-7.9A6.8,6.8,0,0,1,612,664.8Z" transform="translate(338.5 -149.2)"/><path class="cls-5" d="M563.3,648c0,3.7-2.3,6.4-7.6,8.5-12.7,5-23,11-31.3,17.8-2.6,2.3-6.6,3.7-11.9,3.6s-9.6-1.7-12.1-4.2-3.5-6.9.5-10.3c9.9-8.4,22.7-15.4,37.4-21.8,9.5-4.1,22-1.9,24.5,4.6A13.2,13.2,0,0,1,563.3,648Z" transform="translate(338.5 -149.2)"/><path class="cls-5" d="M758.2,644.7c0,2.1.1,4.2.2,6.2-.1,5.5-.1,11-.1,16.4-8,3-15.8,6.1-24.7,8.4-6.9,1.7-14.3.6-18.2-2.8-5.8-4.9-2.5-12,8.5-14.6s19.8-7.1,28.9-11.2C754.6,646.2,756.4,645.5,758.2,644.7Z" transform="translate(338.5 -149.2)"/><path class="cls-5" d="M392.8,664.3V641.8a126.2,126.2,0,0,0,16.5-7.7c8.3-4.6,20.4-3.3,24.2,2.5,2.7,4.2,1.5,8-4.8,11.3C417.4,653.7,405.1,659,392.8,664.3Z" transform="translate(338.5 -149.2)"/><path class="cls-3" d="M392.9,544.5v18.4c2.8,2.2,2.7,6.1-.3,7.9-23.8,11.9-50.5,22-78.1,31.6l-.6.4H220.8c-.9,0-2.1.2-2.8-.4,27.2-7.7,53.3-16.3,78.9-25.3,22-7.7,43.7-15.7,62.9-25.1a205.9,205.9,0,0,0,32.8-20.2c1.8.4,2,1.2,2.1,2a60.3,60.3,0,0,1,0,8.5C394.7,543.2,393.8,543.9,392.9,544.5Z" transform="translate(338.5 -149.2)"/><path class="cls-1" d="M27,318V247.7c.1-2.6.1-5.2.1-7.8H209.3l-2.7,1.5L31,328.7l-4,1.9Z" transform="translate(338.5 -149.2)"/><path class="cls-1" d="M27,152.9v39.8c-1.3,2.6-4.5,4.9-7.4,7.2C7.8,209,.7,219.2-7.5,229.2c-2.3,2.8-4.6,5.6-7.2,8.3a8.3,8.3,0,0,1-4.7,2.4h-107c2.4-11.7,9.6-22.6,21.1-32.8,28.4-25.3,70.6-42.7,125-52.9Z" transform="translate(338.5 -149.2)"/><path class="cls-3" d="M-19.4,239.9C-10,231-4.1,221.3,4.2,212.2A106,106,0,0,1,27,192.7c.1,14.1.1,28.2.2,42.3v5Z" transform="translate(338.5 -149.2)"/><path class="cls-1" d="M27.2,421c-.1-7.3-.1-14.5-.2-21.8V347.9c.1-5.2.2-10.3.1-15.4,0-1.3.3-1.9,3.4-1.9H208.7c-.3.8-1.5,1.1-2.4,1.6l-176,87.3A7.4,7.4,0,0,1,27.2,421Z" transform="translate(338.5 -149.2)"/><path class="cls-4" d="M145.1,546.6c15.4-3.9,30.7-8,45.6-12.3.2,2.3,0,4.5-6.3,4.7a1.4,1.4,0,0,0-1.4.7c-1.1,2.4-3.2,3.2-7.8,2.7s-6.1.2-8.1,1.6-6.5,2.3-5.9,4.8c.1.2-.8.6-1.4.8-2.2.6-12.6-.6-14.2-1.5S144.5,547.2,145.1,546.6Z" transform="translate(338.5 -149.2)"/><path class="cls-4" d="M139.6,518.4c-11.2,3-22.8,5.6-34.7,7.8-2.5-.4-2.8-2.1-6.1-2.2-1.6-.1-.8-1.2.3-1.6a7.2,7.2,0,0,1,4.2-.4c4.5.7,7.9.3,9.6-2.2s3.2-2.1,6.5-1.6,8.5,1.5,9.8-1.8c.2-.5,1.4-.7,2.3-.6,2.6.3,5.3.5,7.8.9S140.1,517.8,139.6,518.4Z" transform="translate(338.5 -149.2)"/><path class="cls-4" d="M249.2,475.4a180.1,180.1,0,0,1-25.5,14c-.6-.1-1.1-.4-1.9-.5-2.8-.3-4.4-1.3-1.2-2.1s4.1-4.6,9.5-5.5c1.1-.1.7-.5.2-.8s-1-1.4.5-2,3.1,0,4.3.5l1.5.5c1.3-.7.4-1.3.3-2s-.8-2.6,3.2-1.4c1.2.3,1.6.1,1.9-.4s1.8-1.9,1.9-3,2.1-2,4.8-1.8,2.3.5,1.2,1.1S249.2,474.2,249.2,475.4Z" transform="translate(338.5 -149.2)"/><path class="cls-4" d="M354.4,476.8c-6.2,7.1-14.8,13.5-24.8,19.4l-1.7-2.2,7.5-3.5c-3.1-.6-3.5.4-4.4.8a4.4,4.4,0,0,1-4.3-.1c-1.1-.8.1-1.3,1.5-1.6s3.1-1.5,4.8-2.3a8.2,8.2,0,0,1,4.4-.9c2.1.3,2.5-.4,2.4-1.1s-.4-2.2,2-3c.7-.2.3-.7-.4-.9s-3.3-1.1-2-2.1a8,8,0,0,1,5.6-1c4.4,1.4,3.7-.2,4.1-1.4s1.1-1.2,2.6-1.4S354.1,476,354.4,476.8Z" transform="translate(338.5 -149.2)"/><path class="cls-4" d="M162.5,480.4l27.7-15.9,2.4.9c2.5,2.2-3.5,2.4-4,3.9s-1.2.4-.2.7c3.8,1.4.2,2.3-1.3,2.9s-3.5,1.5-4,2.8-2.5,1.8-4.8,1.2-4.2-.5-3.5,1.3-.4,2.8-4.9,2.1A26.1,26.1,0,0,0,162.5,480.4Z" transform="translate(338.5 -149.2)"/><path class="cls-4" d="M43.6,474.1c10.9-2.6,21.7-5.3,32.1-8.2,2.4,0,4.2.5,4.3,1.8s-1.5,1.8-3.6,2-3.8,1.1-4.4,2.3-2.2,1.3-4,.4l-2.5-1.3c-1.9-.7-3.3-.7-3.9.7s-.7,1.8-3.4,1.6-1.8.6-1.4,1.2,1.5,1,.8,1.9c-2-1.3-3.9-2-5.7,0s-3.3,1-3.7.4S44.1,475.4,43.6,474.1Z" transform="translate(338.5 -149.2)"/><path class="cls-4" d="M203.5,455.8l15.8-12.2c1.5.7,2.2-.6,3.8-.4-.5,1.3-.6,2.5,2.8,2.8.8.1,1.2.4,1,.8a3.1,3.1,0,0,1-2.9,1.3c-4.5-.1-5.6.8-4.2,2.9s-.3,1.7-1.9,2.3a31.4,31.4,0,0,0-5.2,2.5A9.7,9.7,0,0,1,203.5,455.8Z" transform="translate(338.5 -149.2)"/><path class="cls-4" d="M255.7,529.9c-9.4,3.7-19.1,7.2-29.2,10.5-.4-.7-1.2-1.9-1-1.9,4.5-.9,2.5-3.8,6-4.9s3,.6,4.5.9.5-1.5,2.4-1.8,2.4-1,.8-1.8-1.2-1.4.6-1.7,2,.4,1.9,1.1,2,1,2.6,1.8c1.1-1.6,1.6-3.3,5.7-3.4.2,0,.4-.2.6-.3s-.1-2.2,2.8-1.7,2.4,1.8,2.3,2.9Z" transform="translate(338.5 -149.2)"/><path class="cls-4" d="M199.9,531.3c11.2-3.9,22.1-7.9,32.8-12.1,2.7,3.5,1.7,4.5-5.2,5.2-2.1.2-2.5.7-2.4,1.7s-.9,1.8-3.3.9-2.5-.3-2.4.7c.2,3-1.4,3.4-6.6,2.4-2.5-.5-6-.5-7.2,1.4s-1.1,1.3-3.1,1.3S200.6,531.9,199.9,531.3Z" transform="translate(338.5 -149.2)"/><path class="cls-4" d="M369.9,455.9A52.6,52.6,0,0,1,359,471.8c-2.4-.6-4.7-1.1-1.9-2.6s.5-1.5-1.2-2.1-2.9-1.1-1.8-2.2,2.6-.8,4.3-.7c3.6.2,4.8-.5,3.8-2.2s-1.8-1.2-.4-1.8,2.7-2-.3-3c-1-.4-.5-1,.4-1.4l1.9-.9c.9-.6.9-1.7,2.9-1.5s1.1,1.1,1.8,1.6Z" transform="translate(338.5 -149.2)"/><path class="cls-4" d="M41.8,566.2l26.4-4.3a6.9,6.9,0,0,0-1.7,2.6c-.4,1.2-1.4,2.2-4.5,1.4-1-.3-1.8-.4-1.9.3s-1.2,1.6-3.4,1.7-1.9-1-2.8-1.6l-2.2-.7c1.7,2.4-.9,2.4-3.9,2.3h-4c-1.8.2-3.4.6-1.4,1.7s.6,1.6-1.6,1.8a42.1,42.1,0,0,1-5-.1c-1.4,0-2.1-.5-2.1-1.2s.5-1,1.8-1.1C38.8,568.8,40.6,567.6,41.8,566.2Z" transform="translate(338.5 -149.2)"/><path class="cls-4" d="M333.2,443.9l5.8-13c3.9,1.8,6.9,3.6,4.3,6.5-.9,1-.7,2.2.5,3.5s0,2.8-2.8,3.3S335.4,446,333.2,443.9Z" transform="translate(338.5 -149.2)"/><path class="cls-4" d="M81.2,430.6c-6.2,4.2-14.5,7.1-23.1,9.8-3.2-1.1-.1-1.3,1.2-1.8l-1-.5c-.9-.5-3.6-.1-3.1-1.3s2.8-.9,4.2-.6,2.7-.5,2.9-1.2,1.3-2.9,5.9-2.7c2.4,0,5.2-1.1,7.3-1.9A5.7,5.7,0,0,1,81.2,430.6Z" transform="translate(338.5 -149.2)"/><path class="cls-4" d="M228.8,434.5c3.3-4.3,7.2-8.6,9.4-13.1,2.2.2,3.8.8,3.6,2s2.5,4.9-4.1,6.2c-1.3.2-1,.9.5,1.1s2.7.3,2.6,1.2-1.4,1.3-2.9,1.6a8.9,8.9,0,0,0-2.4.4C234.2,437.2,231.3,435.1,228.8,434.5Z" transform="translate(338.5 -149.2)"/><path class="cls-4" d="M297.7,483.1l11.9-10c0,1.1,4.2,1.8.8,3.3-1.5.6-.3,1.3,1.3,1.7s3.3.4,2.9,1.4-2.2,1.3-4.2,1.3-3.3-.1-3.4,1,.4,2.2-2,2.5A11.5,11.5,0,0,1,297.7,483.1Z" transform="translate(338.5 -149.2)"/><path class="cls-4" d="M179,431.1a70.1,70.1,0,0,1-10.3,7.5c-5.4-.5-6.5-1.7-5.1-5s2.5-2.7,7.9-2.3c2.9.3,3.5,0,2.9-1.6s0-.8.7-1a1.5,1.5,0,0,1,1.8.4A19.9,19.9,0,0,1,179,431.1Z" transform="translate(338.5 -149.2)"/><path class="cls-4" d="M97.6,527.7c-6.8,1.5-13.8,2.9-20.9,4-2-1.9-1.2-3.9-.3-5.7s6.6-.9,9.1.6,2.9,1.8,4-.2a1.9,1.9,0,0,1,1.8-.3C92.8,527.3,97.4,525.3,97.6,527.7Z" transform="translate(338.5 -149.2)"/><path class="cls-4" d="M102.2,473.7a188,188,0,0,1-23.7,8.1c-2.1-.1-3.6-.5-3.1-1.7a3.3,3.3,0,0,1,4.1-1.9c5.9,1,8.1-.3,9.6-2.9s5.8-1.9,5.1-4.1c-.1-.3,1.6-.4,2.4-.1s-.6,1.3-.2,2C98.4,473.1,101.3,471.3,102.2,473.7Z" transform="translate(338.5 -149.2)"/><path class="cls-4" d="M124,497.9l10-4a50.3,50.3,0,0,0,8.7-.8c1.3-.2,2.7-.7,3.5.1s-.3,1.5-1.7,1.6c-6,.6-7.8,3.6-12.2,5.1s-5.6-.1-8.4,0S123.6,498.6,124,497.9Z" transform="translate(338.5 -149.2)"/><path class="cls-4" d="M267.6,462.3c-4,3.9-9.3,7.4-14.8,10.8a4.9,4.9,0,0,1,1.8-5.8c.5-.4.2-.7-.4-1.1-2.6-1.6-2.1-2.1,1.7-2.6,2.1-.3,5.5,0,3-2-.5-.4.2-.9,1.2-1s1.7.2,1.9.7a15.4,15.4,0,0,1,.8,1.9C265.1,463.5,264.1,460.2,267.6,462.3Z" transform="translate(338.5 -149.2)"/><path class="cls-4" d="M90.3,424.7a22.5,22.5,0,0,1-6.4,4.4c-3,.4-4.9-.9-7.4-1.3s-.7-1.1.4-1.6a37,37,0,0,1,4-1.8c1.7-.7,3.1-1.1,2.4-2.6s2.2-1.7,4.3-1.7c3.7.2,2.4,1.9,2.7,2.9A9.6,9.6,0,0,1,90.3,424.7Z" transform="translate(338.5 -149.2)"/><path class="cls-4" d="M213.6,494a173.2,173.2,0,0,1-17.3,6.9c-3.5-2.8-2.4-4,4.3-4.2,4.2-.1,4.1-1.9,5.5-3s1.5-2.1,2.2-3.2a4,4,0,0,1,4.4-1.3c2.9.6.8,1.6-.2,2.1S212.2,493.2,213.6,494Z" transform="translate(338.5 -149.2)"/><path class="cls-4" d="M277.9,521.3a67.7,67.7,0,0,1-10.2,4l-4.9-.4c-1.6-.1-3.1-.3-3.3-1.3s.9-1.7,2.7-1.8a12.2,12.2,0,0,0,6-2C270.8,518.2,274.5,518.8,277.9,521.3Z" transform="translate(338.5 -149.2)"/><path class="cls-4" d="M73.8,483.1a97.6,97.6,0,0,1-14.4,3.7,6.7,6.7,0,0,0-3.7-1.5c-1.1-.2-1.9-.6-1.7-1.2s1.4-1.1,2.6-.9c3.9.4,6.4-1.6,10.3-1.3a2.6,2.6,0,0,0,2.4-1.7c.3-.6.5-1.6,2.4-1.3s2.1,1.3,1,1.9S73.1,482.4,73.8,483.1Z" transform="translate(338.5 -149.2)"/><path class="cls-4" d="M66.5,533.5c-5.9,1.3-12,2.4-18.2,3.2a6.1,6.1,0,0,0-2.3-1c-1.9-.6-1.4-1.7-1.1-2.5s2.1-.6,3.4-.7c3.6-.3,6.9,1.2,10.7.2,1.7-.5,4.7.1,4.8-1.7,0-.3,1.3-.3,2-.2s1.2.6.6,1S66,533,66.5,533.5Z" transform="translate(338.5 -149.2)"/><path class="cls-4" d="M202.6,548.3a117,117,0,0,1-13.4,4.3l-.8-.2c-1.4-.5-4.7,1.6-4.4-.6s.2-3,5.1-2.5c2.4.3,5.3.3,7.4-1.6s5.3-1.8,6.2-3.7c0-.2,1.3-.4,1.9-.3s.8.6,1,1.1S202.8,547,202.6,548.3Z" transform="translate(338.5 -149.2)"/><path class="cls-4" d="M97.5,506.7l16.2-5.1c1.6,1.1,4.5,2.1,3.3,3.5s-5,1.1-7.8,1.1l-4.5-.2c-2.7.1-4.2.8-3.2,2.2s1.8.8.8,1.3a3.8,3.8,0,0,1-2.6.2c-1.4-.1-2-.6-2-1.3S97.6,507.3,97.5,506.7Z" transform="translate(338.5 -149.2)"/><path class="cls-4" d="M95.7,557a101,101,0,0,1,11.7-2.3c1.4.5,4.6.4,4,1.4s-.2,2.9-2.2,4-3.4.9-4.2.4C102.5,558.9,98.4,558.3,95.7,557Z" transform="translate(338.5 -149.2)"/><path class="cls-4" d="M164.4,441.4a30.8,30.8,0,0,1-7.1,4.5c-2.1.4-2.8-.1-2.6-1.1s-.6-1.5-2.5-.6-1.8,1-3,.3-.2-1.1.7-1.6a5,5,0,0,1,2-.8c2.8-.2,4.3-.9,4.6-2.3s1.1-1.3,2.7-1.3a2.6,2.6,0,0,1,2.5,1.1A4.3,4.3,0,0,0,164.4,441.4Z" transform="translate(338.5 -149.2)"/><path class="cls-4" d="M291.4,434.2a26.7,26.7,0,0,1-5.7,9.4,7.6,7.6,0,0,1-4.8-.5c1.2-1,2.9,0,3.9-.7s-.6-.7-1.6-.7-2.7-.5-2.3-1.3,1.8-.9,3.2-.7,2.2-.7,2.6-1.2-.1-.9-1.8-.9-3.5-1-3.7-1.9,1.9-1.1,3.4-1.1a12.7,12.7,0,0,0,3.7-.8C289.6,433.3,290.9,433.2,291.4,434.2Z" transform="translate(338.5 -149.2)"/><path class="cls-4" d="M377.4,438.8a28.2,28.2,0,0,1-3.1,8.5c-5.2.5-4.6-1.8-5.9-3.1s-.4-1.9,2.1-2.4,4.1-1.9,2-3.5-4.3-1.4-2.6-2.2,2.7.9,4.4,1.4A13.7,13.7,0,0,1,377.4,438.8Z" transform="translate(338.5 -149.2)"/><path class="cls-4" d="M50.9,517.6l18.3-3.7c.8.4,1.3.9,1.1,1.6s.5,1.1-.8,1.4a2.9,2.9,0,0,1-2.7-.5,1.7,1.7,0,0,0-2.3-.3c-.9.5-3,.9-1.6,1.8s2.7,1.5.1,2.2a5.4,5.4,0,0,1-4.8-1.2l-1.1-.9c-1.4.2-.8.6-.5.9s.8.8-.2,1.1a3.5,3.5,0,0,1-2.5-.2C52.4,519.2,51.3,518.5,50.9,517.6Z" transform="translate(338.5 -149.2)"/><path class="cls-4" d="M136.8,567.4a86.8,86.8,0,0,1-10.9,2.8c-2.5-.4-3.4-1.7-5.3-2.4s-.8-.8-.4-1.3,8.6-2,9.8-.6,3,1.3,5.3.7S137.3,566.7,136.8,567.4Z" transform="translate(338.5 -149.2)"/><path class="cls-4" d="M286.6,491.1l8.2-5.8c3.9-.2,5.6.8,5.6,2.6s.5,2.2-3.2,1.3c-2.1-.5-3.2.7-4.4,1.4s1.3,1.8-1.2,1.8S287.6,492.2,286.6,491.1Z" transform="translate(338.5 -149.2)"/><path class="cls-4" d="M317.5,465.3l4-4.4,3.9-1.2a4.6,4.6,0,0,1,3.7.4c.8.7.7,1.5-.7,1.8s-2.4,1.6-.7,2.5,1,.6.5,1a2.7,2.7,0,0,1-2,.2C323.4,465,320.3,466.5,317.5,465.3Z" transform="translate(338.5 -149.2)"/><path class="cls-4" d="M135.9,431.3a11.6,11.6,0,0,1,2.9-4,3.1,3.1,0,0,1,1.3-.1c2.2,1.5,2.7,3.5,6.4,4.6.6.1-.8,1.4-2.8,1.2a8.2,8.2,0,0,0-4.7,1c-.9.4-1.6,1.1-3,.6s-.7-.9-.5-1.5A11.6,11.6,0,0,0,135.9,431.3Z" transform="translate(338.5 -149.2)"/><path class="cls-4" d="M296.9,421.4c-.7,2-1.4,3.9-2.2,5.9-1.6-.3-2.6-1.3-5.1-.8s-2.4-1.2-1.7-1.7-2.5-3.7,2.1-4.4C292,420.1,294.1,421.8,296.9,421.4Z" transform="translate(338.5 -149.2)"/><path class="cls-4" d="M148,451.5a74.9,74.9,0,0,1-9.4,5.3c-1.3-.6.8-2.6-3.3-2-.2,0-.7-.2-.6-.3a5.2,5.2,0,0,1,2.4-3.6c1.1-.8,3.4-.6,4.7.2s2,1.2,3.4-.1S147.2,451.1,148,451.5Z" transform="translate(338.5 -149.2)"/><path class="cls-4" d="M317.8,503a70.4,70.4,0,0,1-9.9,5.1c-1.7-.4-4.1-.3-4.5-1.5s2.2-1.3,3.3-1.9,2.7-.9,3.6-1.7S315.3,501.1,317.8,503Z" transform="translate(338.5 -149.2)"/><path class="cls-4" d="M184.3,505.2a157.6,157.6,0,0,1-17.2,5.6c-.2-2.9,4.1-4.6,7.9-6.1S181.3,504.6,184.3,505.2Z" transform="translate(338.5 -149.2)"/><path class="cls-4" d="M69.2,561.7l4.4-.8c1.1.5,2.2.8,3.1,1.3s3.1,1.1,4.5-.1,3-.9,4.8-.5,1.8.3,1.8.8-.9.7-1.7.9c-4.8,1.3-10,1.1-15.1.9S69.6,562.6,69.2,561.7Z" transform="translate(338.5 -149.2)"/><path class="cls-4" d="M121.3,465.8l-7.4,3.2c-2.8-1.9-2.4-3.6,1.4-4.7,2.2-.6,4.5-1.2,4.6-2.7s.7-1.1,2.1-.9.8.8.5,1.3A5.1,5.1,0,0,0,121.3,465.8Z" transform="translate(338.5 -149.2)"/><path class="cls-4" d="M82,510.8a10.6,10.6,0,0,1,3.7-.9c1.8.2,3.4.9,5.3-.2a4.4,4.4,0,0,1,3.6-.1c1.2.6,1.2,1.4.6,2.1s-2.6,1.8-5.3,1.8S83.2,512.7,82,510.8Z" transform="translate(338.5 -149.2)"/><path class="cls-4" d="M94.8,577.4c-4.3,1.1-8.8,2.1-13.4,2.8a14.5,14.5,0,0,0-3.6-.1c-1.4,0-2.4-.4-2.4-1.1s.2-1.3,1.5-1.7a3.5,3.5,0,0,1,3.2.3c2.1,1.5,3.4,1.5,4.9-.3S92.3,576.4,94.8,577.4Z" transform="translate(338.5 -149.2)"/><path class="cls-4" d="M51,488.6a85,85,0,0,1-11.6,2.3c-1.4-1.5-.2-2.9.1-4.4s1.9-1.1,2.2-.9C43.7,487.6,50.1,486,51,488.6Z" transform="translate(338.5 -149.2)"/><path class="cls-4" d="M114.8,553.2l16.6-3.4a2.9,2.9,0,0,1,1.5,1.8c1,1.6-.5,2-3.4,1.7a33.1,33.1,0,0,0-10,.5C117.7,554,115.8,554.5,114.8,553.2Z" transform="translate(338.5 -149.2)"/><path class="cls-4" d="M262.6,505.3l3.3-1.8c2.3.4,4.3-.2,6.5-.6a7.4,7.4,0,0,1,5.6.9c1.1.8.1,1.6-1.5,2.1a5,5,0,0,1-4.3-.4c-1.3-.9-5.1-.3-5.5.8s1.1,1.1-1,1-3-.3-2.2-1.3S263.5,505.3,262.6,505.3Z" transform="translate(338.5 -149.2)"/><path class="cls-4" d="M311.3,471.6c1.8-1.8,3.5-3.6,5.3-5.3a38.9,38.9,0,0,1,4,1c2,.6,2.2,1.4.1,2.1s-2.8.9-3.5,2S313.9,473.2,311.3,471.6Z" transform="translate(338.5 -149.2)"/><path class="cls-4" d="M98.3,457.5l6.4-3a7.9,7.9,0,0,0,4.6-.4,2.3,2.3,0,0,1,2,0c.6.3.3.7,0,1-1.9,1.7-4.9,2.8-8.2,3.7S99.2,458.6,98.3,457.5Z" transform="translate(338.5 -149.2)"/><path class="cls-4" d="M161.5,512.5c-3.7,1.2-7.6,2.4-11.7,3.3-2-1-4.4-.2-7-.1,1-1.4,3.2-2,3.9-3.1a2.8,2.8,0,0,1,3-1c1.6.4.4,1.2-.2,1.8s-.1.4-.2.8C153.5,513.5,156.6,511.2,161.5,512.5Z" transform="translate(338.5 -149.2)"/><path class="cls-4" d="M326.9,454a1.1,1.1,0,0,1,.9-1.3c4.7.2,4.3-2.5,7.2-3.3,2,1.8,1.9,5-.4,5.6S328.8,455.6,326.9,454Z" transform="translate(338.5 -149.2)"/><path class="cls-4" d="M124,442.7a3,3,0,0,1,1.8-1.4c1.2.8,2.7-1,4.5.3s.5,2.6-1.9,3.3c-.2.6.4.6,1,.6s2.5,0,2.7.9-.4.9-1.3,1.1a3.5,3.5,0,0,1-3.4-.8A42.3,42.3,0,0,1,124,442.7Z" transform="translate(338.5 -149.2)"/><path class="cls-4" d="M383.6,421.3c-1.9,0-1.8.7-1.9,1.4l-.9,3.2c-3.4-.3-5.3-1.2-5.4-3s1.9-2,4.2-2.5S383.1,420.2,383.6,421.3Z" transform="translate(338.5 -149.2)"/><path class="cls-4" d="M159.8,561.3a51.8,51.8,0,0,1-8.2,2.2c.1-.6,2-1.2.2-1.7s-3.6-1.2-2.8-2.4,3.5-.9,5.4-1.2h.8c.8.9-2.5,1.1-1.4,1.9s2.8.2,4.2,0S160.1,560.5,159.8,561.3Z" transform="translate(338.5 -149.2)"/><path class="cls-4" d="M277,453.7a29.6,29.6,0,0,1-5.7,5.4c-.7-.3-.7-.9-1.9-.9s-3.2-.1-3.4-1.1,1.8-.8,2.7-1.3,4.1-.9,2.4-2.6A7.7,7.7,0,0,0,277,453.7Z" transform="translate(338.5 -149.2)"/><path class="cls-4" d="M57.3,585l-3.6.6c-3.3-.6-3.8-1.3-.6-2.2,1.5-.4,3-.6,2-1.8s.8-1.5,2.5-1.8,2.9,0,3.4,1-.4,1.5-2.2,1.8S54.9,583.8,57.3,585Z" transform="translate(338.5 -149.2)"/><path class="cls-4" d="M187.2,423.7c0,.4-.1.7-.9.9a14.2,14.2,0,0,0-2.2.7,7.6,7.6,0,0,1-4.8.9c-2.3-.5-1.3-1.7-1.2-2.6s1.5-2.1,4.4-1.1S185.6,423.3,187.2,423.7Z" transform="translate(338.5 -149.2)"/><path class="cls-4" d="M234.6,518.4a24.4,24.4,0,0,1,5.4-2.3,10.5,10.5,0,0,0,2.7,2.3c1,.5,3.7,1,1.8,1.9a7.9,7.9,0,0,1-6.4-.2A28.5,28.5,0,0,0,234.6,518.4Z" transform="translate(338.5 -149.2)"/><path class="cls-4" d="M148.7,564.3a9,9,0,0,1-3.5.9c-2.5-.1-5.5.4-6.5-1.4s-1.4-1.4.4-2,3.3-.3,4.1.4,2.6,1.6,5.3,1.2C149.2,563.2,148.9,563.9,148.7,564.3Z" transform="translate(338.5 -149.2)"/><path class="cls-4" d="M153.4,448.3l-1.2.8a5.5,5.5,0,0,0-4.6-.4c-2.2.6-4.7.2-5.8-1s.4-1.7,2.3-2.1a9.9,9.9,0,0,1,2.5,0C147.6,447.4,151.6,447.1,153.4,448.3Z" transform="translate(338.5 -149.2)"/><path class="cls-4" d="M159.9,507.2c3.1-.1,4.1,1.1,4.4,2.1s-2.4,1.4-3.9,1.5-4-.5-4-1.7S157.5,507.3,159.9,507.2Z" transform="translate(338.5 -149.2)"/><path class="cls-4" d="M40.9,445.4a50.6,50.6,0,0,1-8.3,1.8c2.3-1.5,4.9-2.8,6-4.7s2.4-.9,3.8-.4,1,1.2-.2,1.7S40.9,444.8,40.9,445.4Z" transform="translate(338.5 -149.2)"/><path class="cls-4" d="M91.1,462.2c1.6.1,3.7-.1,3.2,1.1s-.6,2.9-3.9,2.8-1.4-1.9-2.5-2.9S89.9,462.5,91.1,462.2Z" transform="translate(338.5 -149.2)"/><path class="cls-4" d="M327.1,497.6a9.9,9.9,0,0,1-3.8,2.3c-.7-.9-1.7-.8-2.9-.2s-1.6,1.1-2.9.4-.9-1.4.2-2a8.2,8.2,0,0,1,5.6-.9Z" transform="translate(338.5 -149.2)"/><path class="cls-4" d="M297.6,512.9l-3.4,1.5c-1.9,0-2.4-1.9-5.2-1-.7.3-.7-.5-.6-.8s4-2.2,6.5-1.1S296.7,512.5,297.6,512.9Z" transform="translate(338.5 -149.2)"/><path class="cls-4" d="M46.4,440.6c0-1,.3-2.1,2.8-2.2s3.8.4,3.7,1.6-1.5,1.9-4.1,2.1S46.5,441.4,46.4,440.6Z" transform="translate(338.5 -149.2)"/><path class="cls-4" d="M75.5,517.1c-1.3-.1-3.8,0-3.1-1s3.1-1.9,5.5-2.3,2.9.3,2.7,1.2S78.5,517.1,75.5,517.1Z" transform="translate(338.5 -149.2)"/><path class="cls-4" d="M193.2,462.6l6.8-4.4c2.7.3,3.9.8,1,1.9S197.8,463.3,193.2,462.6Z" transform="translate(338.5 -149.2)"/><path class="cls-4" d="M114.1,573a8,8,0,0,1-3.6.8c-1.6-.5-3.6-1-3.4-2.1s1.6-1.2,2.9-1.6a3.1,3.1,0,0,1,2.7.3c.5.4,1.2.9.2,1.2C107.7,573.2,114.4,572.4,114.1,573Z" transform="translate(338.5 -149.2)"/><path class="cls-4" d="M289.4,516.5a53.4,53.4,0,0,1-8,3.4l-2.5-.6c-.4-.1-.9-.5-.8-.7s1-.5,1.7-.4c2.7.5,3.6-.3,4.7-1.4A3.5,3.5,0,0,1,289.4,516.5Z" transform="translate(338.5 -149.2)"/><path class="cls-4" d="M341.5,423.2a5.9,5.9,0,0,0,.2-1.3c1.6.2,2.6,1,4.6.8s2.4-.3,3.1.4.4,1-.5,1.5a6.8,6.8,0,0,1-3.8.3C343.4,424.6,342.8,423.7,341.5,423.2Z" transform="translate(338.5 -149.2)"/><path class="cls-4" d="M192.6,502.2a15.3,15.3,0,0,1-4.7,1.7c-1.2-.3-3.3-.6-2.5-1.5a6.9,6.9,0,0,1,3.9-2C191,500.2,191.1,501.8,192.6,502.2Z" transform="translate(338.5 -149.2)"/><path class="cls-4" d="M379.8,430.5c-.3,1.3-.6,2.7-1,4.1-2.6.6-3.3-.2-3.4-1.3S375.6,430.4,379.8,430.5Z" transform="translate(338.5 -149.2)"/><path class="cls-4" d="M222.5,440.9l3.8-3.7A5.1,5.1,0,0,1,229,439c1.2,1.3.6,2-2.6,1.7A12.5,12.5,0,0,0,222.5,440.9Z" transform="translate(338.5 -149.2)"/><path class="cls-4" d="M129.5,438.1a4.6,4.6,0,0,1,1.9-1.7c2.7-.1,3,2.6,7,1.1C134.6,439.5,131.7,439.5,129.5,438.1Z" transform="translate(338.5 -149.2)"/><path class="cls-4" d="M134,549.2a28.8,28.8,0,0,1,5.6-1.3v.9a3.4,3.4,0,0,1-3.5,2.9C132.8,551.8,135.4,549.9,134,549.2Z" transform="translate(338.5 -149.2)"/><path class="cls-4" d="M99.1,462.7c-1.6-.1-3.2,0-2.7-1.1s.2-1.6,2.6-1.3,3.7.1,3.7,1.2S100.5,462.6,99.1,462.7Z" transform="translate(338.5 -149.2)"/><path class="cls-4" d="M372.7,450.5c.2.9-.6,1.8-1.2,2.7s-3.3-.5-3.4-1.6-.1-1.4,1.3-1.8A3.6,3.6,0,0,1,372.7,450.5Z" transform="translate(338.5 -149.2)"/><path class="cls-4" d="M103.8,573.6c-.5,1.4-4.5,0-5,1.4-.6-.6-1.8-1.2-1.7-1.7s2.5-.8,4-.8S103.8,572.6,103.8,573.6Z" transform="translate(338.5 -149.2)"/><path class="cls-4" d="M119.9,553.8c.3,1.1,1.9,2.1,0,2.9a7.2,7.2,0,0,1-3.9.2c-1-.2-1.7-.7-1.7-1.3s1.2-.4,2.1-.4S119.3,554.7,119.9,553.8Z" transform="translate(338.5 -149.2)"/><path class="cls-4" d="M283.8,500c-.4,1-1.7,1.2-3.4,1.2s-2.6-.4-2.6-1.3,1.7-.9,3.1-.9S283.7,499.1,283.8,500Z" transform="translate(338.5 -149.2)"/><path class="cls-4" d="M290.1,494c-.2,1.1-1.4,1.3-2.8,1.3s-2.9-.2-2.9-1,1-1.3,2.4-1.4A5.3,5.3,0,0,1,290.1,494Z" transform="translate(338.5 -149.2)"/><path class="cls-4" d="M356.4,472.7c-.1.6-1.1,1-1.8.9a14.2,14.2,0,0,1-4.8-1.7c-.6-.4,1.1-1,2.4-.9A7.1,7.1,0,0,1,356.4,472.7Z" transform="translate(338.5 -149.2)"/><path class="cls-4" d="M214.6,544.4a39.3,39.3,0,0,1-6.6,2.2c-.4-1.5,2.1-2.5,3.4-3.3S213.5,543.9,214.6,544.4Z" transform="translate(338.5 -149.2)"/><path class="cls-4" d="M118.5,446.7a6.2,6.2,0,0,1,2.5-1.8c1.5.5,3.5.9,3.2,1.9s-1.9.6-2.9.8S118.9,447.4,118.5,446.7Z" transform="translate(338.5 -149.2)"/><path class="cls-4" d="M172.6,557.6a20.6,20.6,0,0,1-4.6,1.3c-.4-.6-2.7-.9-2-1.6s3.5-.4,5.2-.8S172.3,557.1,172.6,557.6Z" transform="translate(338.5 -149.2)"/><path class="cls-4" d="M136,458.2a16.6,16.6,0,0,1-4.4,2.3c-.6-1,2.2-2-.1-3.2s.8-1,2-.8S135.7,457.4,136,458.2Z" transform="translate(338.5 -149.2)"/><path class="cls-4" d="M107,507.7c1.6,0,2.9,0,2.8.9s-1.4,1.1-2.9,1.2-2.7-.4-2.8-1.2S106.4,508.2,107,507.7Z" transform="translate(338.5 -149.2)"/><path class="cls-4" d="M72.1,582.1l-4.4.9-.8-.6c-.4-.6-3-1.1-1.7-1.8s2.6.4,3.7.8S71.4,581.5,72.1,582.1Z" transform="translate(338.5 -149.2)"/><path class="cls-4" d="M189.5,343.9a4.9,4.9,0,0,1-3.3,1.6c-1.2.2-1.4-.4-1.3-.9s1-1.5,3-1.6S189.6,343.3,189.5,343.9Z" transform="translate(338.5 -149.2)"/><path class="cls-4" d="M174.9,351c-.3.8-1.5,1.4-3,1.7s-1.6-.1-1.6-.7.7-1.5,2.7-1.7S174.7,350.4,174.9,351Z" transform="translate(338.5 -149.2)"/><path class="cls-4" d="M114.5,379.3c1.2,0,2.1.2,1.9.8s-1.6,1.4-3.3,1.7-1.4-.4-1.3-.8S112.8,379.4,114.5,379.3Z" transform="translate(338.5 -149.2)"/><path class="cls-4" d="M105.8,385.4c-1.5.1-1.4-.5-1.3-.9s1-1.6,3.1-1.6,1.7.4,1.4.9S107.3,385.1,105.8,385.4Z" transform="translate(338.5 -149.2)"/><path class="cls-4" d="M120.4,378.2c-1.5,0-1.4-.5-1.3-.9s1-1.6,3.1-1.6,1.8.3,1.5.8S121.9,377.9,120.4,378.2Z" transform="translate(338.5 -149.2)"/><path class="cls-4" d="M131,372.8c-.3.8-1.5,1.4-3,1.7s-1.6-.2-1.6-.7.8-1.6,2.7-1.7S130.9,372.2,131,372.8Z" transform="translate(338.5 -149.2)"/><path class="cls-4" d="M101.8,387.3a4.4,4.4,0,0,1-3.3,1.7c-1.3.2-1.4-.3-1.3-.8s.9-1.6,2.9-1.6S101.7,386.8,101.8,387.3Z" transform="translate(338.5 -149.2)"/><path class="cls-4" d="M135.3,370.9c-1.1.1-1.6-.2-1.6-.6s.6-1.6,2.5-1.8,2.3,0,2.1.7S136.6,370.5,135.3,370.9Z" transform="translate(338.5 -149.2)"/><path class="cls-4" d="M145.6,365.6a4.7,4.7,0,0,1-3.2,1.7c-1.3.1-1.5-.4-1.4-.9s1-1.6,3-1.6S145.7,365,145.6,365.6Z" transform="translate(338.5 -149.2)"/><path class="cls-4" d="M94.5,390.9c-.4.8-1.5,1.4-3.1,1.7s-1.6-.1-1.6-.6.8-1.6,2.8-1.8S94.3,390.3,94.5,390.9Z" transform="translate(338.5 -149.2)"/><path class="cls-4" d="M153,361.9a4.7,4.7,0,0,1-3.2,1.7c-1.2.2-1.5-.3-1.5-.7s.9-1.6,2.9-1.7S152.9,361.3,153,361.9Z" transform="translate(338.5 -149.2)"/><path class="cls-4" d="M157,360c-1.4.1-1.4-.4-1.3-.9s1-1.5,3-1.6,1.8.3,1.5.9S158.5,359.7,157,360Z" transform="translate(338.5 -149.2)"/><path class="cls-4" d="M87.2,394.7a5.1,5.1,0,0,1-3.3,1.6c-1.3.2-1.5-.4-1.4-.8s1-1.6,3-1.7S87.2,394,87.2,394.7Z" transform="translate(338.5 -149.2)"/><path class="cls-4" d="M76.8,399.9c-1.1.1-1.6-.1-1.6-.6s.6-1.6,2.5-1.8,2.3,0,2.1.7S78.1,399.6,76.8,399.9Z" transform="translate(338.5 -149.2)"/><path class="cls-4" d="M72.6,401.8a4,4,0,0,1-3.2,1.7c-1.3.3-1.6-.2-1.5-.7s.9-1.6,2.9-1.7S72.5,401.3,72.6,401.8Z" transform="translate(338.5 -149.2)"/><path class="cls-4" d="M204.1,336.7a4.9,4.9,0,0,1-3.4,1.5c-1.3.2-1.3-.5-1.2-.9s1.1-1.5,3.1-1.5S204.2,336.1,204.1,336.7Z" transform="translate(338.5 -149.2)"/><path class="cls-4" d="M32.9,421.7c-1.1.1-1.5-.2-1.5-.6s.5-1.6,2.4-1.8,2.3,0,2.1.7S34.3,421.3,32.9,421.7Z" transform="translate(338.5 -149.2)"/><path class="cls-4" d="M65.3,405.5a5.5,5.5,0,0,1-3.5,1.7c-1.3.1-1.3-.5-1.2-.9s1-1.6,3.1-1.6S65.2,405.1,65.3,405.5Z" transform="translate(338.5 -149.2)"/><path class="cls-4" d="M50.6,412.7c-.4.8-1.6,1.4-3.2,1.7s-1.5-.2-1.4-.7.8-1.6,2.8-1.7S50.5,412.1,50.6,412.7Z" transform="translate(338.5 -149.2)"/><path class="cls-4" d="M196.9,340.1a4,4,0,0,1-3.2,1.7c-1.3.3-1.6-.2-1.5-.7s.9-1.6,2.8-1.7S196.8,339.6,196.9,340.1Z" transform="translate(338.5 -149.2)"/><path class="cls-4" d="M57.9,409.1c-.4.8-1.5,1.4-3.1,1.7s-1.6-.3-1.5-.7.8-1.6,2.8-1.8S57.8,408.5,57.9,409.1Z" transform="translate(338.5 -149.2)"/><path class="cls-4" d="M167.6,354.8a5.4,5.4,0,0,1-3.4,1.6c-1.4.1-1.3-.5-1.2-.9s1-1.6,3.1-1.6S167.7,354.2,167.6,354.8Z" transform="translate(338.5 -149.2)"/><path class="cls-4" d="M182.3,347.4a4.8,4.8,0,0,1-3.4,1.7c-1.3.2-1.4-.4-1.3-.9s1-1.5,3-1.6S182.2,347,182.3,347.4Z" transform="translate(338.5 -149.2)"/><path class="cls-4" d="M39.8,418.1c-1.4-.1-1.2-.6-1.1-1s1.1-1.5,3.2-1.5,1.7.4,1.3.9A4.8,4.8,0,0,1,39.8,418.1Z" transform="translate(338.5 -149.2)"/><path class="cls-4" d="M193.5,533.4A18.3,18.3,0,0,1,198,532c.3.9,1.9,2-.1,2.5S194.8,534,193.5,533.4Z" transform="translate(338.5 -149.2)"/><path class="cls-4" d="M140.4,424.9a1.2,1.2,0,0,1,.8-1.3h5.1C144.3,424.2,143.8,426.6,140.4,424.9Z" transform="translate(338.5 -149.2)"/><path class="cls-4" d="M91.9,558.1c1.9.6,4.1.4,4.3,1.6s-.9.9-1.8.8C92,560.4,91.9,559.4,91.9,558.1Z" transform="translate(338.5 -149.2)"/><path class="cls-4" d="M112.1,469.8l-5.3,2.2c0-.8,1.4-1.6-1-2.1A7.3,7.3,0,0,1,112.1,469.8Z" transform="translate(338.5 -149.2)"/><path class="cls-4" d="M212.8,334.7c-1.9-.9-3.7-1.9-5.6.4-.5-1.6-.8-2.4,2.1-2.4S213.6,332.8,212.8,334.7Z" transform="translate(338.5 -149.2)"/><path class="cls-4" d="M110.2,451.7l2.1-1.3c2.5.6.3,2.2,2.7,2.8C112.7,453.1,111,452.7,110.2,451.7Z" transform="translate(338.5 -149.2)"/><path class="cls-4" d="M260,513.2c-1,0-1.4-.2-1.3-.7s1.2-1.3,2.8-1.5,1.3.3,1.3.7S261.5,513,260,513.2Z" transform="translate(338.5 -149.2)"/><path class="cls-4" d="M145.1,489l1-.5c.9.5,3.6-.3,3,1.1a2.2,2.2,0,0,1-2.2,1.3C144.9,490.8,145.9,489.6,145.1,489Z" transform="translate(338.5 -149.2)"/><path class="cls-4" d="M253.8,509.8a21,21,0,0,1,2.6-1.3c1.9.3,2.7,1.3,1.8,1.8S255.1,510.4,253.8,509.8Z" transform="translate(338.5 -149.2)"/><path class="cls-4" d="M178.9,555.7a7.6,7.6,0,0,1-2.9.9c-2.1-.5-2.2-1.3-.6-1.9A2.8,2.8,0,0,1,178.9,555.7Z" transform="translate(338.5 -149.2)"/><path class="cls-4" d="M324.7,495.5c-.5-1.6-1-2.5,1.3-2.9s1.4.1,1.6.5S325.9,494.3,324.7,495.5Z" transform="translate(338.5 -149.2)"/><path class="cls-4" d="M377.4,427.6c1,.2,2.3.2,2.1.9s-1.2.8-2.3.9-1.6-.3-1.6-.8S376.1,427.6,377.4,427.6Z" transform="translate(338.5 -149.2)"/><path class="cls-4" d="M300.4,508.6a5.1,5.1,0,0,1-3.8,1.1c-.8,0-1-.3-.6-.6a5.4,5.4,0,0,1,3.9-1.2C300.5,507.9,300.8,508.2,300.4,508.6Z" transform="translate(338.5 -149.2)"/><path class="cls-4" d="M273.3,448.4c1.8,1.3,2.9,2,2.5,2.9a1.5,1.5,0,0,1-1.5.2C272.5,450.8,273.1,449.9,273.3,448.4Z" transform="translate(338.5 -149.2)"/><path class="cls-4" d="M165.2,559.7l-1.8.5c-1.3-.4-2.5-.9-1.9-1.8s.8-.3,1.1-.3C164.7,558.2,164.8,559,165.2,559.7Z" transform="translate(338.5 -149.2)"/><path class="cls-4" d="M284.9,444.5c-.1,1-1.2,1.9-2.1,2.7C280.1,444.9,280.1,444.8,284.9,444.5Z" transform="translate(338.5 -149.2)"/><path class="cls-4" d="M156,487.9a7.7,7.7,0,0,1,5.1-2.4C160.8,487,159.6,487.6,156,487.9Z" transform="translate(338.5 -149.2)"/><path class="cls-4" d="M39,475l.9-.2c.1,1.2,2.2,1.5,4.6,2C39,477.2,38.3,476.9,39,475Z" transform="translate(338.5 -149.2)"/><path class="cls-4" d="M324.2,457.7l1.4-.5c1.1-.3,1.7-1.4,3.3-.8s0,1-1,1.2-2.4,1.8-3.7.1Z" transform="translate(338.5 -149.2)"/><path class="cls-4" d="M192.2,465.5c1.8-.9,2.2-2,4.6-1.8.7.1,1.1.4.8.7S194.4,465.3,192.2,465.5Z" transform="translate(338.5 -149.2)"/><path class="cls-4" d="M223.8,541.3l-2.7.9c-.3-.6-2.7-1.2-1.1-1.9A3.8,3.8,0,0,1,223.8,541.3Z" transform="translate(338.5 -149.2)"/><path class="cls-4" d="M220.2,337.7c-.1.4-.4.6-1.1.5s-1.5-.4-1.5-.9.5-.6,1.1-.5S219.9,337.3,220.2,337.7Z" transform="translate(338.5 -149.2)"/><path class="cls-4" d="M299.5,378.1q-1.5-.2-1.5-.9c0-.3.5-.5,1.1-.5s1.3.5,1.5.9S300.2,378.2,299.5,378.1Z" transform="translate(338.5 -149.2)"/><path class="cls-4" d="M291.7,373c1.1.1,1.4.5,1.5,1s-.2.6-.9.5-1.6-.4-1.6-.9S291.1,373.1,291.7,373Z" transform="translate(338.5 -149.2)"/><path class="cls-4" d="M373.6,413.8c.1.3.1.6-.7.6s-1.6-.3-1.7-.7.1-.6.8-.7A1.4,1.4,0,0,1,373.6,413.8Z" transform="translate(338.5 -149.2)"/><path class="cls-4" d="M286,370.4c-.1.3-.4.5-1.1.5s-1.5-.5-1.5-1,.5-.5,1.1-.5S285.7,370,286,370.4Z" transform="translate(338.5 -149.2)"/><path class="cls-4" d="M277,365.8c1.1,0,1.4.4,1.6.8s0,.7-.8.7-1.6-.4-1.7-.9S276.3,365.9,277,365.8Z" transform="translate(338.5 -149.2)"/><path class="cls-4" d="M366.4,410.3c0,.3-.3.6-1,.5s-1.5-.4-1.6-.9.4-.6,1.1-.6S366.2,409.8,366.4,410.3Z" transform="translate(338.5 -149.2)"/><path class="cls-4" d="M271.2,362.9c.2.4.2.7-.6.7s-1.6-.3-1.8-.8.1-.6.8-.6S271,362.6,271.2,362.9Z" transform="translate(338.5 -149.2)"/><path class="cls-4" d="M357.7,405.7c1,.1,1.2.5,1.3,1s-.3.5-1,.5-1.5-.5-1.5-1S356.9,405.7,357.7,405.7Z" transform="translate(338.5 -149.2)"/><path class="cls-4" d="M380.9,417.4c.2.3.1.6-.7.7s-1.6-.3-1.7-.8.1-.6.8-.7S380.7,417,380.9,417.4Z" transform="translate(338.5 -149.2)"/><path class="cls-4" d="M351.8,402.9c-.1.5-.4.7-1.1.6s-1.5-.4-1.5-.9.5-.5,1.1-.5S351.5,402.7,351.8,402.9Z" transform="translate(338.5 -149.2)"/><path class="cls-4" d="M256.7,355.7c.1.3,0,.6-.8.7s-1.6-.3-1.7-.8.1-.6.8-.7A1.5,1.5,0,0,1,256.7,355.7Z" transform="translate(338.5 -149.2)"/><path class="cls-4" d="M342.8,398.5c1.1,0,1.4.4,1.6.8s0,.6-.8.6-1.6-.3-1.7-.8S342.1,398.5,342.8,398.5Z" transform="translate(338.5 -149.2)"/><path class="cls-4" d="M249.4,352.2c0,.3-.3.6-1,.5s-1.5-.3-1.6-.8.4-.6,1.1-.6A1.4,1.4,0,0,1,249.4,352.2Z" transform="translate(338.5 -149.2)"/><path class="cls-4" d="M233.6,345.5c-1-.2-1.5-.5-1.4-1s.6-.5,1.3-.5,1.2.6,1.2,1S234.2,345.5,233.6,345.5Z" transform="translate(338.5 -149.2)"/><path class="cls-4" d="M337.1,395.6c.1.3.1.7-.7.7s-1.6-.3-1.8-.8.1-.6.8-.6S336.8,395.2,337.1,395.6Z" transform="translate(338.5 -149.2)"/><path class="cls-4" d="M242.1,348.6c0,.4-.4.6-1.1.5s-1.5-.4-1.5-.9.5-.6,1.2-.5S241.9,348.2,242.1,348.6Z" transform="translate(338.5 -149.2)"/><path class="cls-4" d="M227.4,341.2c.1.3.1.6-.7.6s-1.6-.2-1.8-.7.1-.6.8-.7S227.2,340.8,227.4,341.2Z" transform="translate(338.5 -149.2)"/><path class="cls-4" d="M328.7,392.7c-.9-.2-1.5-.5-1.4-1s.4-.5,1.1-.5,1.3.5,1.4,1S329.5,392.7,328.7,392.7Z" transform="translate(338.5 -149.2)"/><path class="cls-4" d="M210.5,540.2c1.5-.1,1.9.3,2.1.7s0,.7-.7.7-2.1-.3-2.2-.9S210.3,540.3,210.5,540.2Z" transform="translate(338.5 -149.2)"/><path class="cls-4" d="M321.2,387.6c1,.1,1.2.5,1.3,1s-.5.5-1.1.4-1.5-.5-1.4-.9S320.5,387.6,321.2,387.6Z" transform="translate(338.5 -149.2)"/><path class="cls-4" d="M264,359.3c.1.4,0,.7-.7.7s-1.6-.3-1.8-.8.1-.6.8-.6S263.7,358.9,264,359.3Z" transform="translate(338.5 -149.2)"/><path class="cls-4" d="M149.3,487.1l2.8-1.4c.8.7,1.3,1.5.2,2S150.4,487.3,149.3,487.1Z" transform="translate(338.5 -149.2)"/><path class="cls-4" d="M315.2,384.8c0,.4-.3.6-1,.6s-1.5-.4-1.6-.9.4-.6,1.1-.6S315,384.4,315.2,384.8Z" transform="translate(338.5 -149.2)"/><path class="cls-4" d="M306.8,381.8c-1-.1-1.5-.5-1.5-1s.5-.5,1.2-.5,1.3.5,1.4,1S307.5,381.8,306.8,381.8Z" transform="translate(338.5 -149.2)"/><path class="cls-4" d="M293.2,430.5l-4.9-.7c2.5-.8,4-.4,4.9.7Z" transform="translate(338.5 -149.2)"/><path class="cls-4" d="M249.7,516c-.5,0-1-.2-1.1-.5s0-.8,1-.8a2.9,2.9,0,0,1,1.1.6C250.9,515.6,250.6,515.9,249.7,516Z" transform="translate(338.5 -149.2)"/><path class="cls-4" d="M32.7,539.3H31.1c-.9-.4-1-.8.2-1.2a2.8,2.8,0,0,1,2,0C34.1,538.6,33,538.9,32.7,539.3Z" transform="translate(338.5 -149.2)"/><path class="cls-4" d="M388.2,421.3h-2.8c.1-.6.2-1.2,1.8-1.1S388.6,420.8,388.2,421.3Z" transform="translate(338.5 -149.2)"/><path class="cls-4" d="M181.3,501c-.1.4-.6.7-1.4.7a1,1,0,0,1-.8-.4c-.1-.4.1-.7,1-.8S181.2,500.7,181.3,501Z" transform="translate(338.5 -149.2)"/><path class="cls-4" d="M72,513.1h.9c1.4.1,3.7-.6,3.6.9A10.6,10.6,0,0,1,72,513.1Z" transform="translate(338.5 -149.2)"/><path class="cls-4" d="M245.6,517.2c-.4.2-.7.5-.9.4s-1.1-.6-1.2-1,.4-.5.8-.4A6.4,6.4,0,0,1,245.6,517.2Z" transform="translate(338.5 -149.2)"/><path class="cls-4" d="M272,500.2l.6-.4c.9.3,2.1.5,1.7,1.2l-1,.3C272.2,501.1,272.2,500.6,272,500.2Z" transform="translate(338.5 -149.2)"/><path class="cls-4" d="M247.3,512.9l2.7-1.4C251.5,513.1,249.9,513.3,247.3,512.9Z" transform="translate(338.5 -149.2)"/><path class="cls-4" d="M38.1,538.4h-.7c-.9-.2-1.8-.3-1.3-.9a3.3,3.3,0,0,1,1.5-.3C38.7,537.5,38.5,537.9,38.1,538.4Z" transform="translate(338.5 -149.2)"/><path class="cls-4" d="M181.8,428.8l-1,.8c-.9-.4-2.4-.7-1-1.4S181.3,428.4,181.8,428.8Z" transform="translate(338.5 -149.2)"/><path class="cls-4" d="M131.6,460.5l-2.2,1.3c-.6-.3-1.4-.6-1.1-.9S130.4,460.5,131.6,460.5Z" transform="translate(338.5 -149.2)"/><path class="cls-4" d="M87.5,558.4h.7c1.5.2,1.5.6,1,1.2a1.5,1.5,0,0,1-1,.2C87,559.5,87,559,87.5,558.4Z" transform="translate(338.5 -149.2)"/><path class="cls-4" d="M284.5,496.9c-.1.4-.6.6-1.2.4s-1-.4-1-.6.6-.4,1.2-.4S284.5,496.6,284.5,496.9Z" transform="translate(338.5 -149.2)"/><path class="cls-4" d="M269.3,460.8c-1-.1-2.2-.1-2-.8s.4-.3.6-.3,1.3.6,1.4,1.1Z" transform="translate(338.5 -149.2)"/><path class="cls-4" d="M263.5,509.1c-.2-.2-.5-.3-.6-.5s.3-.5.8-.4a1.6,1.6,0,0,1,.8.5C264.6,508.9,264.2,509.1,263.5,509.1Z" transform="translate(338.5 -149.2)"/><path class="cls-4" d="M142.3,421.8c-.3-.4-1.2-.4-1.8-.5a1.6,1.6,0,0,1,1.9-.6C143.4,421,142.9,421.5,142.3,421.8Z" transform="translate(338.5 -149.2)"/><path class="cls-4" d="M71.1,532l-1.2.4c-.5.1-.9-.2-.7-.4a3.9,3.9,0,0,1,1.3-.6C71,531.3,71.2,531.6,71.1,532Z" transform="translate(338.5 -149.2)"/><path class="cls-4" d="M138.8,563.8a3.5,3.5,0,0,1-3.2.6C136.3,563.6,137.7,564,138.8,563.8Z" transform="translate(338.5 -149.2)"/><path class="cls-4" d="M81.1,464.1l.5-.2c.8.3,2,.4,1.5,1.1S81.7,464.5,81.1,464.1Z" transform="translate(338.5 -149.2)"/><path class="cls-4" d="M138.5,492l.9-.3c.6.1,1.6.2,1.1.6S139.1,492.3,138.5,492Z" transform="translate(338.5 -149.2)"/><path class="cls-4" d="M35.4,567.1h.9c.2.4.8.7.2,1.1h-.8C34.8,567.8,35.1,567.4,35.4,567.1Z" transform="translate(338.5 -149.2)"/><path class="cls-4" d="M40.9,535.6l-1.2.5c-.1-.2-.4-.4-.3-.5a1.2,1.2,0,0,1,1.3-.5Z" transform="translate(338.5 -149.2)"/><path class="cls-4" d="M220,491.2l-1.5.6c-.6-.2-1.7-.4-1-.8A3.2,3.2,0,0,1,220,491.2Z" transform="translate(338.5 -149.2)"/><path class="cls-4" d="M165.2,554.9c.7,0,1.1.1.9.4l-.9.4c-.5,0-.8-.2-.6-.4S165.1,555,165.2,554.9Z" transform="translate(338.5 -149.2)"/><path class="cls-4" d="M253.4,513.8c-.5.1-.9.3-1.1.2s-.4-.3-.5-.4.5-.3.7-.2S253,513.6,253.4,513.8Z" transform="translate(338.5 -149.2)"/><path class="cls-4" d="M279,447.5l-1,.4-.4-.2.9-.5Z" transform="translate(338.5 -149.2)"/><path class="cls-4" d="M190.8,421.3h-1c-.4-.2-1.3-.4-.8-.6S190.4,420.9,190.8,421.3Z" transform="translate(338.5 -149.2)"/><path class="cls-4" d="M105.8,469.9c-.3.5-.3,1.1-1.8,1.1S105.1,470.2,105.8,469.9Z" transform="translate(338.5 -149.2)"/><path class="cls-1" d="M392.9,459l42.6,2.4a465.9,465.9,0,0,0,61.4-.2c18.3-1.3,36.4-.8,54.6.3,27.6,1.8,55.2,3.3,83,4.4q60,2.4,120.3,2.6c2.8,0,3.7.4,3.6,1.8a77.9,77.9,0,0,0,0,10.8c.2,1.9-1.2,2.4-4.6,2.4-20.6,0-41.1.1-61.7,0-25.5-.2-51.1-.5-76.6-1q-47.4-.9-94.8-2.5l-71-2.4-56.8-2.2Z" transform="translate(338.5 -149.2)"/><path class="cls-1" d="M392.9,424.7a962,962,0,0,0,111.9,6.7c44.1.3,88.2.9,132.3,1.4l84.4.9,32.9.4c3.2,0,4.1.5,4,2.1q-.3,6,0,12c0,1.4-.5,2-3.7,2-28.3-.1-56.6-.5-84.8-1.4q-32.5-.9-65-2.5c-19.2-1-38.4-2-57.6-3.3a458.3,458.3,0,0,0-58.6.3,381.3,381.3,0,0,1-47.8.2c-16-.8-32-1.9-48-2.8Z" transform="translate(338.5 -149.2)"/><path class="cls-1" d="M392.6,570.8l.3-7.9c18.9.8,37.7,2.2,56.6,3.4,42.2,2.8,84.4,5.7,127.2,5.2,16.6-.3,33.1-1,49.7-1.3s34.5,1.4,51.7,2.4c25.1,1.6,50.2,2.8,75.4,3.4,4.2.1,5,.7,4.9,2.6a104.3,104.3,0,0,0,0,12.5c.1,1.7-.8,2.3-4.5,2.3-16.4-.1-32.9-.2-49.3,0-37.5.3-74.9.7-112.4.3-24.7-.3-49.5-1.4-74.2-2.5l-73.2-2.9L396.1,587c-3-.1-3.4-.7-3.4-2C392.8,580.3,392.7,575.5,392.6,570.8Z" transform="translate(338.5 -149.2)"/><path class="cls-1" d="M392.9,544.5l-.3-12.7c.4-4.6.4-4.6,9.1-4.8,41.2-.9,82,.3,122.3,5.2a557.8,557.8,0,0,0,62.4,3.6c35.5.3,70.8-1.4,106.3-1.2q31,.1,62,1.4c3,.1,3.7.6,3.7,2-.2,6.1-.2,12.1,0,18.2,0,1.4-.7,1.8-3.6,1.7-24.7-.9-49.5-1.7-74-3.4-29.3-2.1-58.6-3.2-88.3-1.7-27,1.3-54.1.3-81-1-37.3-1.8-74.2-4.8-111.4-7Z" transform="translate(338.5 -149.2)"/><path class="cls-1" d="M758.3,509.8c0,2.1-.1,4.1.1,6.1s-.6,1.9-3.8,1.8c-22.4-.8-44.9-1.6-67.4-1.4-28.3.2-56.6.8-84.9,1.3a643.4,643.4,0,0,1-88.1-4.8c-29.8-3.5-60.1-4.5-90.6-4.3l-26.9.2c-2.7,0-4.1-.2-4-1.8.2-4,.1-7.9,0-11.8,0-1.2.6-1.5,3.2-1.4,41.8,1.6,83.6,3.3,125.5,4.7,33.1,1.1,66.2,1.8,99.4,2.5,44.4.9,88.8.9,133.3.7,3.3,0,4.6.3,4.3,2.1A41.4,41.4,0,0,0,758.3,509.8Z" transform="translate(338.5 -149.2)"/></svg>