<svg id="Layer_1" data-name="Layer 1" xmlns="http://www.w3.org/2000/svg" viewBox="0 0 960 600"><rect x="-61.6" y="-26.8" width="1127.5" height="653.62" style="fill:#19202c"/><g style="opacity:0.3"><rect x="652.6" y="179.3" width="606.3" height="318.6" rx="159.3" style="fill:#4a5568"/><rect x="717.9" y="232.5" width="471.2" height="212.76" rx="106.4" style="fill:#dcdbdb"/><ellipse cx="829.4" cy="332.6" rx="68.2" ry="66.1" style="fill:#4a5568"/><ellipse cx="854.5" cy="300.7" rx="31.9" ry="30.9" style="fill:#dcdbdb"/><polygon points="958.2 359.8 935.2 391.2 958.2 422.4 981.9 391.1 958.2 359.8" style="fill:#4a5568"/><path d="M756.7,196.1s-93.7-.9-98.3-95.3c0,0,2.4-5.9,6.2-2.9,6.5,5.1,152.4,87.4,464.3,40.8,0,0,70.9-11.2,122.9-40.4,0,0,7.4-6.6,6.9,2.5s-6,89.4-98.3,95.3Z" style="fill:#4a5568"/></g></svg>