<svg xmlns="http://www.w3.org/2000/svg" xmlns:xlink="http://www.w3.org/1999/xlink" viewBox="0 0 414.7 385"><defs><linearGradient id="linear-gradient" x1="838.73" y1="178.35" x2="953.83" y2="92.65" gradientUnits="userSpaceOnUse"><stop offset="0" stop-color="#aa80f9"/><stop offset="1" stop-color="#6165d7"/></linearGradient><linearGradient id="linear-gradient-2" x1="146.71" y1="687.31" x2="320.82" y2="687.31" gradientTransform="matrix(1, -0.05, 0.05, 1, 579.38, -452.07)" gradientUnits="userSpaceOnUse"><stop offset="0" stop-color="#ff9085"/><stop offset="1" stop-color="#fb6fbb"/></linearGradient><clipPath id="clip-path"><path d="M756.5,265.9l-.4-.4c18.6-13.7,37.1-20.7,55-20.7h.3c7.9,0,13.5,1.4,18.9,2.7s13.2,3.1,23.6,2.2c18.7-1.6,34.4-8.1,44.1-18.4,15.1-15.9,17.2-41.5,5.4-65.2l.5-.2c12,23.9,9.8,49.7-5.4,65.8-9.9,10.4-25.7,17-44.6,18.5-10.5.9-16.9-.6-23.7-2.2a74,74,0,0,0-18.8-2.6C793.6,245.3,775.1,252.2,756.5,265.9Z" fill="#fff"/></clipPath><linearGradient id="linear-gradient-3" x1="682.62" y1="127.89" x2="947.06" y2="127.89" gradientUnits="userSpaceOnUse"><stop offset="0" stop-color="#444b8c"/><stop offset="1" stop-color="#26264f"/></linearGradient><linearGradient id="linear-gradient-4" x1="934.03" y1="-27.32" x2="693.6" y2="272.46" xlink:href="#linear-gradient"/><linearGradient id="linear-gradient-5" x1="387.04" y1="18.09" x2="471.7" y2="-269.79" gradientUnits="userSpaceOnUse"><stop offset="0" stop-color="#e38ddd"/><stop offset="1" stop-color="#9571f6"/></linearGradient><linearGradient id="linear-gradient-6" x1="618.18" y1="145.08" x2="875.95" y2="145.08" xlink:href="#linear-gradient"/><clipPath id="clip-path-2" transform="translate(-535.2 32.2)"><path d="M793.6,279c-6.2-9.5-13.9-24.9-10.8-42.2,5.4-30.2,37.7-32.1,54.1-68.1,13.3-29-.7-43.1,18-65.9,3.1-3.8,19.4-24.4,38.9-22.2,11,1.2,18.2,9.2,19.5,10.7,20.3,22.5,8.4,72.9-21.4,104.4-17.2,18.2-25.6,17.2-58.5,42.8A214.6,214.6,0,0,0,793.6,279Z" fill="url(#linear-gradient)"/></clipPath><clipPath id="clip-path-3" transform="translate(-535.2 32.2)"><path d="M762.8,260.9a156.6,156.6,0,0,1,37.4-20.2c30.6-11.5,45.3-6.2,57.8-18.8s3.4-24.8,19-39.4c1.3-1.2,18-16.5,34.2-11.9,11.3,3.3,16.3,14.6,18.7,19.8,9,20.5,6.2,52.6-17.4,69.4s-52.3,10.2-61.7,8.4c-16.7-3.3-20.9-8.9-37.7-11.8C792.5,252.8,774.5,257,762.8,260.9Z" fill="url(#linear-gradient-2)"/></clipPath><linearGradient id="linear-gradient-9" x1="775.64" y1="157.95" x2="665.39" y2="157.31" gradientUnits="userSpaceOnUse"><stop offset="0.02" stop-color="#ffc444"/><stop offset="1" stop-color="#f36f56"/></linearGradient><linearGradient id="linear-gradient-10" x1="645.89" y1="27.42" x2="1030.37" y2="621.9" xlink:href="#linear-gradient-9"/><linearGradient id="linear-gradient-11" x1="154.59" y1="54.98" x2="110" y2="137.88" xlink:href="#linear-gradient"/><linearGradient id="linear-gradient-12" x1="131.61" y1="144.86" x2="490.29" y2="345.9" xlink:href="#linear-gradient"/><linearGradient id="linear-gradient-13" x1="105.81" y1="185.66" x2="464.96" y2="386.97" xlink:href="#linear-gradient"/><linearGradient id="linear-gradient-14" x1="198.89" y1="330.07" x2="346.99" y2="330.07" xlink:href="#linear-gradient-5"/><linearGradient id="linear-gradient-15" x1="846.24" y1="270.78" x2="687.64" y2="484.4" xlink:href="#linear-gradient-3"/><linearGradient id="linear-gradient-16" x1="1066.18" y1="189.87" x2="1022.14" y2="271.74" gradientTransform="matrix(1, 0, 0.15, 0.99, -778.8, 47.26)" xlink:href="#linear-gradient-3"/><linearGradient id="linear-gradient-17" x1="315.51" y1="311.13" x2="342.27" y2="311.13" xlink:href="#linear-gradient-3"/><linearGradient id="linear-gradient-18" x1="342.27" y1="331.74" x2="368.71" y2="331.74" xlink:href="#linear-gradient-3"/><linearGradient id="linear-gradient-19" x1="848.15" y1="270.59" x2="688.99" y2="484.97" xlink:href="#linear-gradient-5"/><linearGradient id="linear-gradient-20" x1="1067.73" y1="189.87" x2="1023.69" y2="271.74" gradientTransform="matrix(1, 0, 0.15, 0.99, -778.8, 47.26)" xlink:href="#linear-gradient"/><linearGradient id="linear-gradient-21" x1="923.59" y1="325.87" x2="926.82" y2="367.02" gradientTransform="matrix(-1, 0, 0, 1, 1580.19, -0.45)" gradientUnits="userSpaceOnUse"><stop offset="0" stop-color="#311944"/><stop offset="1" stop-color="#a03976"/></linearGradient><linearGradient id="linear-gradient-22" x1="932.58" y1="348.73" x2="931.99" y2="306" gradientTransform="matrix(-1, 0, 0, 1, 1580.19, -0.45)" gradientUnits="userSpaceOnUse"><stop offset="0" stop-color="#d8dee8"/><stop offset="1" stop-color="#fff"/></linearGradient><linearGradient id="linear-gradient-23" x1="991.09" y1="321.1" x2="994.31" y2="362.14" xlink:href="#linear-gradient-21"/><linearGradient id="linear-gradient-24" x1="994.27" y1="347.92" x2="993.68" y2="305.34" xlink:href="#linear-gradient-22"/><linearGradient id="linear-gradient-25" x1="610.73" y1="155.59" x2="656.31" y2="298.6" gradientTransform="matrix(1, 0, 0, 1, 0, 0)" xlink:href="#linear-gradient-21"/><linearGradient id="linear-gradient-26" x1="921.32" y1="279.48" x2="956.12" y2="279.48" gradientTransform="matrix(-1, 0, 0, 1, 1580.19, -0.45)" xlink:href="#linear-gradient-3"/><linearGradient id="linear-gradient-27" x1="554.68" y1="235.4" x2="609.08" y2="273.68" gradientTransform="matrix(1, 0, 0, 1, 0, 0)" xlink:href="#linear-gradient-21"/><linearGradient id="linear-gradient-28" x1="533.72" y1="141.9" x2="710.16" y2="242.81" xlink:href="#linear-gradient"/><linearGradient id="linear-gradient-29" x1="617.19" y1="117.83" x2="607.71" y2="139.72" gradientTransform="matrix(1, 0, 0, 1, 0, 0)" xlink:href="#linear-gradient-22"/><linearGradient id="linear-gradient-30" x1="2027.89" y1="880.37" x2="2016.9" y2="852.46" gradientTransform="matrix(-1, 0.05, 0.05, 1, 2588.78, -833.35)" xlink:href="#linear-gradient-3"/><linearGradient id="linear-gradient-31" x1="90.89" y1="190.58" x2="147.25" y2="190.58" gradientTransform="matrix(-1, 0, 0, 1, 789.03, 0)" xlink:href="#linear-gradient"/><linearGradient id="linear-gradient-32" x1="523.78" y1="158.97" x2="693.91" y2="256.28" xlink:href="#linear-gradient"/><linearGradient id="linear-gradient-33" x1="126.72" y1="206.82" x2="242.35" y2="206.82" gradientTransform="matrix(-1, 0, 0, 1, 789.03, 0)" xlink:href="#linear-gradient"/><linearGradient id="linear-gradient-34" x1="68.1" y1="214.53" x2="211.63" y2="214.53" gradientTransform="matrix(-1, 0, 0, 1, 789.03, 0)" xlink:href="#linear-gradient-3"/><linearGradient id="linear-gradient-35" x1="-64.28" y1="173.38" x2="83.82" y2="173.38" gradientTransform="matrix(-1, 0, 0, 1, 789.03, 0)" xlink:href="#linear-gradient-3"/><linearGradient id="linear-gradient-36" x1="-8767.47" y1="1412.64" x2="-8835.49" y2="1336.48" gradientTransform="translate(9125.1 3334.9) rotate(29.5)" xlink:href="#linear-gradient-3"/><linearGradient id="linear-gradient-37" x1="-8867.46" y1="1301.42" x2="-8775.18" y2="1403.01" gradientTransform="translate(9125.1 3334.9) rotate(29.5)" xlink:href="#linear-gradient-3"/><linearGradient id="linear-gradient-38" x1="574.94" y1="229.48" x2="588.66" y2="229.48" gradientUnits="userSpaceOnUse"><stop offset="0" stop-color="#f36f56"/><stop offset="1" stop-color="#ffc444"/></linearGradient><linearGradient id="linear-gradient-39" x1="697.23" y1="204.48" x2="711.64" y2="204.48" xlink:href="#linear-gradient-38"/></defs><g style="isolation:isolate"><g id="Layer_1" data-name="Layer 1"><path d="M932.7-23.5,689.6-30.6l-1-1.5h-2.1a3.8,3.8,0,0,0-2.7,1,3.3,3.3,0,0,0-1.2,2.4V288l250.1-12.8c7.9-.4,14.4-6.8,14.4-14.3V-11.5C947.1-19,940.7-23.3,932.7-23.5Z" transform="translate(-535.2 32.2)" fill="url(#linear-gradient-3)"/><path d="M935.4-25.5,689.2-32.2a3.8,3.8,0,0,0-2.7,1,3.2,3.2,0,0,0-1.1,2.4V288l250-12.8c8-.4,14.4-6.8,14.4-14.3V-11.5C949.8-19,943.4-25.3,935.4-25.5Z" transform="translate(-535.2 32.2)" fill="url(#linear-gradient-4)"/><polygon points="392 248.3 318.4 248.9 318.4 4.4 392 6.4 392 248.3" fill="url(#linear-gradient-5)"/><path d="M869.8-1.8,682.6-6.2l.2,169.8h52.4V296.4L870,288.7a6,6,0,0,0,6-5.7V4C876,.9,873.2-1.7,869.8-1.8Z" transform="translate(-535.2 32.2)" opacity="0.2" fill="url(#linear-gradient-6)" style="mix-blend-mode:multiply"/><path d="M793.6,279c-6.2-9.5-13.9-24.9-10.8-42.2,5.4-30.2,37.7-32.1,54.1-68.1,13.3-29-.7-43.1,18-65.9,3.1-3.8,19.4-24.4,38.9-22.2,11,1.2,18.2,9.2,19.5,10.7,20.3,22.5,8.4,72.9-21.4,104.4-17.2,18.2-25.6,17.2-58.5,42.8A214.6,214.6,0,0,0,793.6,279Z" transform="translate(-535.2 32.2)" fill="url(#linear-gradient)"/><g clip-path="url(#clip-path-2)"><g opacity="0.7" style="mix-blend-mode:soft-light"><path d="M794.9,292.3c-4.6-26.1-1-46,10.9-59.2,5.8-6.4,11.5-9.1,17.5-11.9s13.1-6.2,20.2-14.5,8-13.8,9.5-21.2a93.3,93.3,0,0,1,9.6-27.4A107.2,107.2,0,0,1,877.5,136c4.8-5.7,8.5-10.2,11.4-18.9,4.6-14.3,3.4-30.2-3.4-47.1l.5-.2c6.9,17.1,8,33,3.4,47.4-2.9,8.9-6.6,13.4-11.4,19.1a104.8,104.8,0,0,0-14.9,22,96.1,96.1,0,0,0-9.5,27.3c-1.5,7.5-2.8,13.3-9.7,21.5s-13.8,11.5-20.3,14.5-11.6,5.5-17.3,11.8c-11.8,13.1-15.4,32.9-10.8,58.8Z" transform="translate(-535.2 32.2)" fill="#fff"/><path d="M875.6,138.8v-.4c0-.4-2.3-38.1-21.7-47.2l.3-.4c18.7,8.8,21.7,43.4,21.9,47.2a76.1,76.1,0,0,0,39.1-27.8c7.1-9.9,9.4-18.3,9.4-18.4h.6c0,.1-2.4,8.6-9.6,18.6s-18.9,21.6-39.6,28.1Z" transform="translate(-535.2 32.2)" fill="#fff"/><path d="M858.5,171.8h-1.7v-.3c-2-19.3-17.2-42.5-17.4-42.8l.5-.2c.2.2,15.3,23.4,17.5,42.8a101.7,101.7,0,0,0,25.6-3.2c13.5-3.4,32.7-11.2,47.9-28.7l.4.3c-15.2,17.7-34.6,25.5-48.2,28.9A103.4,103.4,0,0,1,858.5,171.8Z" transform="translate(-535.2 32.2)" fill="#fff"/><path d="M847.4,220.5a86.5,86.5,0,0,1-18.3-1.7h-.3v-.2c7.8-21.3-9.2-46.1-9.4-46.3l.5-.3c.2.2,17.2,25,9.5,46.5,3.1.6,29.9,5.9,65.5-7.3l.2.5A139.1,139.1,0,0,1,847.4,220.5Z" transform="translate(-535.2 32.2)" fill="#fff"/></g></g><path d="M762.8,260.9a156.6,156.6,0,0,1,37.4-20.2c30.6-11.5,45.3-6.2,57.8-18.8s3.4-24.8,19-39.4c1.3-1.2,18-16.5,34.2-11.9,11.3,3.3,16.3,14.6,18.7,19.8,9,20.5,6.2,52.6-17.4,69.4s-52.3,10.2-61.7,8.4c-16.7-3.3-20.9-8.9-37.7-11.8C792.5,252.8,774.5,257,762.8,260.9Z" transform="translate(-535.2 32.2)" fill="url(#linear-gradient-2)"/><g clip-path="url(#clip-path-3)"><g style="mix-blend-mode:soft-light"><path d="M756.5,265.9l-.4-.4c18.6-13.7,37.1-20.7,55-20.7h.3c7.9,0,13.5,1.4,18.9,2.7s13.2,3.1,23.6,2.2c18.7-1.6,34.4-8.1,44.1-18.4,15.1-15.9,17.2-41.5,5.4-65.2l.5-.2c12,23.9,9.8,49.7-5.4,65.8-9.9,10.4-25.7,17-44.6,18.5-10.5.9-16.9-.6-23.7-2.2a74,74,0,0,0-18.8-2.6C793.6,245.3,775.1,252.2,756.5,265.9Z" transform="translate(-535.2 32.2)" fill="#fff"/><path d="M905.2,221.5v-.4c.4-14.6-9.9-25.1-18.5-31.4a82.3,82.3,0,0,0-19.1-10.3l.2-.5a86,86,0,0,1,19.3,10.3c8.6,6.4,18.9,16.9,18.7,31.5,3.7-1.5,29.7-12.8,30.3-32.8h.6c-.7,21.6-30.8,33.3-31.1,33.4Z" transform="translate(-535.2 32.2)" fill="#fff"/><path d="M897.7,254.9a75.7,75.7,0,0,1-8.7-.5c-13-1.7-20.9-6.4-20.9-6.5h-.3l.2-.3c8.7-12.1,6.4-24.9,3-33.4a59.1,59.1,0,0,0-9.7-15.9l.5-.4a65.2,65.2,0,0,1,9.7,16c3.5,8.7,5.8,21.5-2.8,33.8a56.2,56.2,0,0,0,20.4,6.2c11.8,1.5,30.6.6,52.8-12.3l.3.5C924.8,252.2,909.3,254.9,897.7,254.9Z" transform="translate(-535.2 32.2)" fill="#fff"/></g></g><path d="M849.9,12.3,608.6,2.9l-.4-1h-3.3a6.6,6.6,0,0,0-4.7,1.6,5.6,5.6,0,0,0-2,4.1V306.3a5.6,5.6,0,0,0,2.1,4.2A6.5,6.5,0,0,0,605,312h2.7l1.4-3.9,240.5-14c3.4-.2,6.4,1.5,6.4-1.5V13.4C856,10.3,853.3,12.4,849.9,12.3Z" transform="translate(-535.2 32.2)" fill="url(#linear-gradient-9)"/><path d="M854.2,7.7,609.4,1.9a6.6,6.6,0,0,0-4.7,1.6,5.7,5.7,0,0,0-2.1,4.1V306.3a5.7,5.7,0,0,0,2.2,4.2,6.5,6.5,0,0,0,4.7,1.5l244.9-13.8c3.3-.2,6-2.7,6-5.7V13.4C860.4,10.3,857.6,7.8,854.2,7.7Z" transform="translate(-535.2 32.2)" fill="url(#linear-gradient-10)"/><polygon points="212.5 101.1 67.4 100.2 67.4 63.2 212.5 65.5 212.5 101.1" fill="url(#linear-gradient-11)"/><polygon points="287.9 202 116.6 205.6 116.6 165.2 287.9 163.3 287.9 202" fill="url(#linear-gradient-12)"/><polygon points="287.9 254.8 116.6 260.8 116.6 222.9 287.9 218.6 287.9 254.8" fill="url(#linear-gradient-13)"/><polygon points="209.9 291.8 198.9 336.9 223.8 368.3 347 360.8 209.9 291.8" opacity="0.3" fill="url(#linear-gradient-14)" style="mix-blend-mode:multiply"/><path d="M912.4,325.9l-149.7,6.8-1.8,3.5h-.8a3.3,3.3,0,0,1-3.5-2.7L745.1,261a3.3,3.3,0,0,1,3.2-3.7h1.3l.9.4,150.8-3.4c1.7-.1,3.1-1.5,3.3.1l11,69.5C915.9,325.8,914.4,325.8,912.4,325.9Z" transform="translate(-535.2 32.2)" fill="url(#linear-gradient-15)"/><polygon points="364.6 315.7 214.6 322.5 210.8 298.4 360.9 292.6 364.6 315.7" fill="url(#linear-gradient-16)"/><polygon points="342.3 321.4 319 322.5 315.5 300.7 338.8 299.7 342.3 321.4" fill="url(#linear-gradient-17)"/><polygon points="368.7 341.9 345.7 343.1 342.3 321.4 365.3 320.4 368.7 341.9" fill="url(#linear-gradient-18)"/><path d="M914.1,327.6l-152.4,8.6a3.2,3.2,0,0,1-3.5-2.7L746.7,261a3.2,3.2,0,0,1,3.1-3.7l152.9-5.6a3.4,3.4,0,0,1,3.5,2.7l11,69.5A3.3,3.3,0,0,1,914.1,327.6Z" transform="translate(-535.2 32.2)" fill="url(#linear-gradient-19)"/><polygon points="366.1 315.7 216.1 322.5 212.3 298.4 362.4 292.6 366.1 315.7" fill="url(#linear-gradient-20)"/><path d="M649,343.6s14.4,6,14.6,7-9.2-.4-13.1-.2-7-1-6.7-2.5,1.7-5.2,1.7-5.2Z" transform="translate(-535.2 32.2)" fill="url(#linear-gradient-21)"/><path d="M649.6,338.8l-.9,5.9s-2.3.7-3.8-.1l-.7-6.5Z" transform="translate(-535.2 32.2)" fill="url(#linear-gradient-22)"/><path d="M581.9,338.8l-1.7,2.5a2.5,2.5,0,0,0-.4,2.2,59.8,59.8,0,0,0,2.3,7.1c.6,1.4,9.9,2.2,9.9,2.2s.9-1-1.1-2.3-3.1-1.5-3.8-3.4-1.1-7.2-1.1-7.2Z" transform="translate(-535.2 32.2)" fill="url(#linear-gradient-23)"/><path d="M588.8,332.6c-.6.5-3.6,8.7-3.6,8.7s-.9,1.1-2.8-.5l-.8-.8.4-8.1Z" transform="translate(-535.2 32.2)" fill="url(#linear-gradient-24)"/><path d="M657.8,220.8c.7,17.5.7,36.5-.5,56.9a587.3,587.3,0,0,1-7.1,63.3H644a124.7,124.7,0,0,1-5.3-15.5,145.8,145.8,0,0,1-3.7-18.1c-2.7-19.9.5-21.6-1.7-36.4-1.9-13-4.7-13.5-8-32-3.6-20.1-.9-23.1.4-24.2C631.3,210.1,644.3,213.3,657.8,220.8Z" transform="translate(-535.2 32.2)" fill="url(#linear-gradient-25)"/><path d="M625.7,214.7c5.3-4.4,17.4-1.7,30.2,5.1-14.7,14.4-16.4,23.7-14.6,29.8s8,8.9,8,16.4c-.1,9.2-9.3,11.7-9.1,21.4.1,6.5,4.2,6.4,5.1,14.4,1.1,9.5-4.2,12.7-2.5,19.7.7,3,2.8,6.9,8.8,11-.5,2.9-.9,5.7-1.4,8.5H644a124.7,124.7,0,0,1-5.3-15.5,145.8,145.8,0,0,1-3.7-18.1c-2.7-19.9.5-21.6-1.7-36.4-1.9-13-4.7-13.5-8-32C621.7,218.8,624.4,215.8,625.7,214.7Z" transform="translate(-535.2 32.2)" opacity="0.25" fill="url(#linear-gradient-26)" style="mix-blend-mode:multiply"/><path d="M648.7,220.5a378.5,378.5,0,0,0-38.8,62.8,374.3,374.3,0,0,0-21,52.5,7.3,7.3,0,0,1-4.2.6,8.2,8.2,0,0,1-4.8-2.3,102,102,0,0,1-1-28,83.1,83.1,0,0,1,4.4-21c3.5-10.2,5.9-10.8,10.5-21.7s3.6-14,8.2-28.1a174.8,174.8,0,0,1,10.2-24.7Z" transform="translate(-535.2 32.2)" fill="url(#linear-gradient-27)"/><path d="M700.3,196.7c-.1,4.1-7.5,7.7-13.5,8.8-13.9,2.6-30.1-6.6-37.7-16.8-1.5-2-3.2-4.4-3.6-4.2s7.5,12.9,11.1,27.2c1.8,7.2,1.4,10.6,4.8,15.5.8,1.1,1.8,2.2,1.5,3.5-.9,3.3-9.1,4.1-14.8,4.7a141.9,141.9,0,0,1-17.1.5c-8.8-.1-9.5-.5-11.5.4-6.2,2.7-5.8,9.3-10.4,10.1s-7.8-3.2-9.1-4.4c-6.5-6.5-6.1-14.4-7.3-22.3-2.7-18.3-13.7-38.5-24.4-51.2-3.3-3.9-5.6-5.9-5.7-9.5-.4-10.6,18-22.2,33.3-23.5a122.1,122.1,0,0,1,18.8.3c2.8.3,5.8.6,9,1.1,7.8,1.3,13.3,2.1,18.8,4.4,22.4,9.3,17.5,30,41.7,44.3C692.5,190.5,700.5,192.4,700.3,196.7Z" transform="translate(-535.2 32.2)" fill="url(#linear-gradient-28)"/><path d="M608.7,124.5a29.6,29.6,0,0,1-3.2,8.4c-2,3.1-10.2,4.2-11.9,4.8s2.6,3.2,7.1,4.2,18.1,1.6,20.7.3-1.7-1.7-4.9-3.2-4.2-7.6-3.2-10.2S608.7,124.5,608.7,124.5Z" transform="translate(-535.2 32.2)" fill="url(#linear-gradient-29)"/><path d="M617.4,123.1c3.4-2.1,4.3-8,2.4-9.3s-1-.2-8.5,2.5c-3.7,1.4-5.6,2.1-6.2,3.6a4.2,4.2,0,0,0,.1,3.1,9.2,9.2,0,0,0,1.5,2.3l1,1.4a18.5,18.5,0,0,0,3.9,3.4,10.1,10.1,0,0,1,.6-1.9,8,8,0,0,1,1.4-2.3C614.9,124.3,616.4,123.8,617.4,123.1Z" transform="translate(-535.2 32.2)" fill="url(#linear-gradient-30)"/><path d="M608.9,128.7a7.2,7.2,0,0,0,6.2,2.5c3.6-.3,3.8-7.7,1.4-9.2a4.8,4.8,0,0,0-3.6-.3l-2.2.9c-1.1.3-1.4.2-1.7.4s-.7,1.2.1,3.3a2,2,0,0,0-2.1-.5.9.9,0,0,0-.5.4C606,127.1,606.9,128.1,608.9,128.7Z" transform="translate(-535.2 32.2)" fill="#fff"/><path d="M680.8,196.1c-10.1-2.1-14.2-2-19.2-5.7-8.3-6-9.5-15.3-14.4-15.2-2.2.1-4.1,2.2-5.4,4.2l3.6,5.2h.1c.4-.2,2.1,2.2,3.6,4.2,7.6,10.2,23.8,19.4,37.7,16.8,4-.7,8.7-2.6,11.3-5A169.5,169.5,0,0,0,680.8,196.1Z" transform="translate(-535.2 32.2)" opacity="0.3" fill="url(#linear-gradient-31)" style="mix-blend-mode:multiply"/><path d="M574.4,231.4c-6.1.5-19.9.7-29.6-7.5-16.3-13.6-8.2-39.6-2.6-50.7,6.5-12.8,16.8-20,23.1-24.3,7.8-5.4,12.5-8.7,18.2-8,14.8,1.9,25,29.4,16.9,37.2-2.7,2.6-5.3,1.2-13,3.4-2.5.7-21.1,6.1-24.4,18.6-2.2,8.7,3.5,18.9,13.8,25.8Z" transform="translate(-535.2 32.2)" fill="url(#linear-gradient-32)"/><path d="M643,226.9c-6.9-4-7.9-8.1-15.7-10.8-10.1-3.5-14.9,1-19.9-2.6s-.7-11.9-5.1-25c-.8-2.2-6.5-19-19.7-21.2-6.1-1-14.3,1.2-17.4,5.9s-.1,6.5-3.1,10.5-6.5,3.1-10.3,6.5c-6,5.4-7,16.8-1.5,23.3,2.5,3,5.8,4.2,12,6.4a67.3,67.3,0,0,0,10.3,2.8c-7.6-6.6-11.5-15.2-9.6-22.6s10.1-12.8,16.4-15.7c6.4,10.9,11.6,23.5,13.3,35.3,1.2,7.9.8,15.8,7.3,22.3,1.3,1.2,5.2,5.2,9.1,4.4s4.2-7.4,10.4-10.1c2-.9,2.7-.5,11.5-.4a141.9,141.9,0,0,0,17.1-.5c5.1-.5,12.1-1.3,14.2-3.7C653.2,231.5,647.1,229.2,643,226.9Z" transform="translate(-535.2 32.2)" opacity="0.3" fill="url(#linear-gradient-33)" style="mix-blend-mode:multiply"/><path d="M578.4,235.8l-.7-1.9c-1.1-3.1.8-6.3,4.2-7.3l134.9-37.3,4.1,12.6L586.7,239.5A6.9,6.9,0,0,1,578.4,235.8Z" transform="translate(-535.2 32.2)" fill="url(#linear-gradient-34)"/><path d="M800.7,240c-38.7,11.4-80.1-8.5-92.2-45.4s11-77.8,51.7-88.5S840.6,118,850.9,155,838.7,228.8,800.7,240Zm-3.1-10.3c32-9.4,50.8-41.1,42.2-71.6s-42.8-49.7-76.3-40.8-53.5,42.4-43.2,74S765,239.2,797.6,229.7Z" transform="translate(-535.2 32.2)" fill="url(#linear-gradient-35)"/><path d="M716.8,189.3l-17.2,4.8c-1.2,4.9-3.5,7.8-5.8,9.5-8.7,6.6-20.3-.6-36.4,7.1-8.2,3.9-6.6,6.3-14.2,9-12.6,4.4-18.4-1.7-29.5,2.3s-12.4,12.9-18.8,12.6c-2.7-.1-6.3-1.9-10.2-8.8l-2.8.8c-3.4,1-5.3,4.2-4.2,7.3l.7,1.9a6.9,6.9,0,0,0,8.3,3.7l134.2-37.6Z" transform="translate(-535.2 32.2)" fill="#d8dee8" opacity="0.3" style="mix-blend-mode:multiply"/><path d="M800.7,234.8c-33.6,9.8-69.6-7.6-80-39.7s9.6-67.4,44.8-76.7,69.9,10.1,79,42.3S833.9,225.1,800.7,234.8Z" transform="translate(-535.2 32.2)" fill="#fff" opacity="0.56"/><path d="M803.3,243.2c-38.7,11.4-80.1-8.5-92.2-45.4s11-77.8,51.7-88.5,80.4,11.9,90.7,48.9S841.3,232,803.3,243.2Zm-3.1-10.3c32-9.4,50.8-41.2,42.2-71.6s-42.8-49.7-76.2-40.8-53.5,42.4-43.3,74S767.6,242.4,800.2,232.9Z" transform="translate(-535.2 32.2)" fill="url(#linear-gradient-36)"/><path d="M802.2,239.5c-36.5,10.8-75.6-8.1-86.9-42.9s10.4-73.3,48.7-83.3,75.8,11,85.6,46S838.1,229,802.2,239.5Zm-2-6.6c32-9.4,50.8-41.2,42.2-71.6s-42.8-49.7-76.2-40.8-53.5,42.4-43.3,74S767.6,242.4,800.2,232.9Z" transform="translate(-535.2 32.2)" fill="url(#linear-gradient-37)"/><path d="M574.9,230.2l1.4-3.1a7.3,7.3,0,0,0,4.1-1,4.7,4.7,0,0,1,3.2-.7c.5.1,2.5,0,.3,1s-2.2,1.6-1.3,2.4a16.4,16.4,0,0,0,5.7,2.6c1.3.1-1,1.8-2.3,2.1a8.5,8.5,0,0,1-5.9-.9Z" transform="translate(-535.2 32.2)" fill="url(#linear-gradient-38)"/><path d="M697.2,204a42.8,42.8,0,0,0,9.1-1.8c3.4-1.4,5.6.5,5.3,1.8s-5.9,3.2-8.1,3.2S697.2,204,697.2,204Z" transform="translate(-535.2 32.2)" fill="url(#linear-gradient-39)"/></g></g></svg>