<svg id="Layer_1" data-name="Layer 1" xmlns="http://www.w3.org/2000/svg" viewBox="0 0 454 628.6"><path d="M318.4,351.3h42.9c.2.1.2.3.2.5l-.6,6.3c-.2,1.9-.3,3.8-.5,5.7s-.4,3.7-.5,5.5-.3,3.1-.5,4.7-.3,3-.4,4.5-.3,3.1-.4,4.6-.3,3.1-.5,4.7-.3,3-.4,4.6-.1.9-1,1.2l-12,3.2a37.8,37.8,0,0,1-4.6,1h-.4c-4.5-.8-8.8-2.2-13.2-3.3l-3.7-1a1,1,0,0,1-.8-.9l-.3-3.3c-.2-1.9-.3-3.8-.5-5.7s-.3-3.1-.4-4.6-.3-3.1-.5-4.7-.3-2.9-.4-4.4-.4-3.9-.5-5.9-.3-2.9-.5-4.4-.3-3.1-.4-4.7l-.3-3.1C318.2,351.6,318.2,351.4,318.4,351.3Z" transform="translate(-318.2 -276.2)" style="fill:#f51bfa"/><path d="M339.9,359.8h12.9c.4,0,.5.1.5.5s-.3,2.9-.4,4.4-.1.3-.4.3H332.8c-.4,0-.5.1-.5.5s.3,2.8.4,4.2.2.5.6.5h18.4c.6,0,.7,0,.6.6-.3,3.6-.7,7.1-1,10.7-.1,1.4-.3,2.8-.4,4.2s-.1.3-.4.4l-10.4,2.8h-.5l-10.4-2.8c-.3-.1-.4-.2-.4-.4-.2-2.6-.5-5.1-.7-7.6,0-.3.1-.4.4-.4a35.3,35.3,0,0,0,4.6,0,.4.4,0,0,1,.4.4l.3,3.5c0,.3.1.5.5.6l5.2,1.3a.8.8,0,0,0,.7,0l5.3-1.4c.3,0,.4-.2.4-.5.2-1.9.3-3.8.6-5.8,0-.3-.1-.4-.5-.4H328.4c-.5,0-.6-.2-.6-.6-.3-3.6-.7-7.3-1-10.9-.1-1.2-.2-2.4-.4-3.6s.1-.5.5-.5Z" transform="translate(-318.2 -276.2)" style="fill:#f9f9f9"/><path d="M341.8,854.9h22.1c.4,0,.4,0,.3.3s-.1,2.1-.2,3.1-.3,3-.5,4.5l-.3,3.7c-.1,1.5-.3,3.1-.4,4.6l-.3,3.7c-.2,1.5-.3,3-.4,4.5s-.2,2.5-.4,3.7-.2,3.1-.4,4.6l-.3,3.7-.3,3.9c-.2,1.2-.3,2.4-.4,3.7v.4c0,.4-.2.5-.5.6l-17.5,4.9a1.4,1.4,0,0,1-.9,0l-18-4.9a.5.5,0,0,1-.4-.5c-.1-1.9-.3-3.7-.5-5.5s-.2-3.2-.4-4.8-.2-3.2-.4-4.8l-.3-4c-.1-1.6-.3-3.2-.4-4.8l-.3-3.9c-.2-1.6-.3-3.2-.4-4.9s-.3-2.6-.4-4-.2-3.1-.4-4.7-.1-2-.2-3,0-.2.1-.1h22.4Z" transform="translate(-318.2 -276.2)" style="fill:#6915c5"/><path d="M341.9,895.3l-6.5-1.7-5.1-1.4c-.2,0-.2-.1-.3-.3-.2-2.7-.4-5.4-.7-8.1,0-.2,0-.3.3-.3a41.7,41.7,0,0,0,5,0,.3.3,0,0,1,.3.3c.1,1.2.3,2.4.4,3.6s.1.3.3.4l5.5,1.3c.2.1.5,0,.7,0l.6-.2,4.9-.9c.5-.1.5-.1.6-.7l.6-5.7V881c.1-.2,0-.3-.2-.3h-.2c-4,.1-8-.1-12-.1h-6.7c-.1,0-.2.1-.3,0s-.5-3.3-.8-4.9.1-.3.3-.4l12.4-5.2.5-.3H328.4c-.3,0-.4,0-.4-.3s-.4-3.2-.7-4.8,0-.3.3-.3h27.5c.8,0,.8,0,.8.8v4.2c0,.5-.1.5-.5.7l-12.3,4.9h11.3c.3,0,.4.1.4.5a6.1,6.1,0,0,0-.1,1.4c-.2,1.6-.3,3.1-.5,4.7l-.3,4.4c-.2,1.2-.3,2.5-.4,3.8a12.3,12.3,0,0,1-.2,1.9c0,.3-.1.4-.4.5l-6.2,1.9-4.3,1.3C342.2,895.3,342.1,895.4,341.9,895.3Z" transform="translate(-318.2 -276.2)" style="fill:#fefefe"/><path d="M746.3,677.6c.1-.1.2,0,.3,0l19.7,7,5.6,2c.3.1.4.2.3.5s-.2,2.1-.4,3.2-.2,2.2-.4,3.3l-.3,3.2c-.1,1.1-.3,2.2-.4,3.2s-.3,2.2-.4,3.3l-.3,3.2a25.1,25.1,0,0,0-.4,2.7c-.1,1.1-.2,2.2-.4,3.3l-.3,3.2c-.1,1.1-.3,2.2-.4,3.3s-.1,1-.2,1.6-.1.2-.3.3c-2.9,1.7-5.9,3.3-8.9,4.9l-12.5,6.9c-.1.1-.2.2-.3.1a.7.7,0,0,1-.1-.5V712.2c0-.6,0-.6.6-.6h6.3c.2,0,.3.2.4.4s.7,1.8,1,2.6,1.3,3.1,1.9,4.7a.5.5,0,0,0,.5.3h5c.3,0,.3,0,.2-.3l-1.5-3.4c-.7-1.7-1.5-3.4-2.2-5l-2.2-4.9c-.8-1.9-1.6-3.7-2.5-5.5s-1.3-2.9-1.9-4.4-1.7-3.6-2.5-5.5l-2.2-4.9a16.7,16.7,0,0,1-.8-2,1.3,1.3,0,0,1-.1-.6v-5A.9.9,0,0,1,746.3,677.6Z" transform="translate(-318.2 -276.2)" style="fill:#6915c5"/><path d="M753.2,711.7h-6.5c-.3,0-.4.1-.4.4.1,6.8.1,13.5,0,20.3,0,.1.1.3,0,.4l-4.3-2.3-17.3-9.6c-.2-.1-.3-.2-.3-.4l-.9-7.9c-.3-2.8-.7-5.5-1-8.3l-.9-7.7-.9-7.8c-.1-.6-.1-1.3-.2-1.9s.1-.2.2-.3l7.2-2.5,18.1-6.4h.3c.1.1.1.2.1.4v5.3c0,.1-.1.3,0,.4a18.9,18.9,0,0,1-.9,2.1l-2.2,5.1-2.1,4.6c-.6,1.3-1.2,2.6-1.7,3.9s-1.2,2.6-1.8,4l-1.8,3.9c-.5,1.2-1.1,2.3-1.6,3.5s-1.5,3.4-2.3,5.1l-1.5,3.4c-.1.3-.1.3.2.3h5.1a.5.5,0,0,0,.5-.3c.9-2.4,1.9-4.8,2.9-7.3.1-.4.2-.5.7-.5h12.8C752.9,711.5,753.1,711.4,753.2,711.7Z" transform="translate(-318.2 -276.2)" style="fill:#6915c5"/><path d="M753.2,711.7c-.1-.1-.2,0-.3,0H739.8c-.3,0-.4,0-.5.2l-3,7.6c-.1.2-.1.3-.4.3h-5.7l.9-2.1L746.2,684c0-.1,0-.2.2-.3s.9,2.2,1.4,3.2c4.8,10.9,9.7,21.7,14.5,32.5h0c.2.2.1.3-.1.3h-5.5c-.2,0-.3-.1-.4-.3l-3-7.5A.4.4,0,0,0,753.2,711.7Z" transform="translate(-318.2 -276.2)" style="fill:#fefefe"/><path d="M746.4,706.7h-4.7c-.1-.1,0-.2,0-.3l4.5-10.7c.1-.1,0-.2.2-.2h0a13.4,13.4,0,0,1,.1,2v8.7A1.1,1.1,0,0,1,746.4,706.7Z" transform="translate(-318.2 -276.2)" style="fill:#6915c5"/><path d="M746.4,706.7V695.9c0-.1-.1-.3,0-.4l2.1,5.1,2.4,5.7c.1.1.1.2.2.4Z" transform="translate(-318.2 -276.2)" style="fill:#6915c5"/><path d="M723.2,325.4V277l.8-.8h45.2c.3,0,.3,0,.3.3v49.7H724Z" transform="translate(-318.2 -276.2)" style="fill:#f51bfa"/><path d="M757.2,321.2a9.1,9.1,0,0,1-5.3-1.5,8.2,8.2,0,0,1-2.7-3.1c-.1-.1,0-.2.1-.3l3.3-2h.2a7,7,0,0,0,1.3,1.6,4.2,4.2,0,0,0,4.5.8,2,2,0,0,0,1.4-1.5,2.3,2.3,0,0,0-.8-2.3,6.7,6.7,0,0,0-1.4-.9l-3.2-1.5a9.1,9.1,0,0,1-2.3-1.7,6.3,6.3,0,0,1-1.8-4.9,5.8,5.8,0,0,1,4.5-5.9,7.8,7.8,0,0,1,5,.4,6.5,6.5,0,0,1,3.1,3,.1.1,0,0,1,0,.2l-3.2,2.2c-.1.1-.2.1-.2,0a10.5,10.5,0,0,0-.8-1.1,2.7,2.7,0,0,0-2.9-.6,2.1,2.1,0,0,0-.7,3.3l1,.8,2.8,1.3a15,15,0,0,1,3.2,1.9,6.4,6.4,0,0,1,2.1,4.6,6.3,6.3,0,0,1-.7,3.8,5.6,5.6,0,0,1-3.4,2.8A8.4,8.4,0,0,1,757.2,321.2Z" transform="translate(-318.2 -276.2)" style="fill:#fff"/><path d="M746.7,306.7v8.1a7.1,7.1,0,0,1-.7,3.2,5.2,5.2,0,0,1-3.2,2.8,8,8,0,0,1-5.3,0,6.7,6.7,0,0,1-3.9-3.7c0-.1,0-.2.1-.2l3.3-2.2c.1,0,.2,0,.2.1l.8,1.3a2.6,2.6,0,0,0,3.2.7c.7-.3.9-.9,1.1-1.6V298.5c0-.4,0-.3.3-.3h3.9c.2,0,.2,0,.2.2v8.3Z" transform="translate(-318.2 -276.2)" style="fill:#fff"/><path d="M685.3,487.7V449.2a3.6,3.6,0,0,1,1.1-2.2,3.1,3.1,0,0,1,1.6-1.1,1.8,1.8,0,0,1,1-.2h35.9a3.4,3.4,0,0,1,2.4,1.1,4.2,4.2,0,0,1,1.1,1.8c.1.3.1.6.2.9s-.1.1,0,.1v38.1a.8.8,0,0,0-.1.4,3.6,3.6,0,0,1-1.3,2.5,3.5,3.5,0,0,1-1.3.8,1.5,1.5,0,0,1-.9.2H688.6a3.1,3.1,0,0,1-2-1.1,4.4,4.4,0,0,1-1.2-1.8c-.1-.3,0-.6-.1-.9Z" transform="translate(-318.2 -276.2)" style="fill:#f51bfa"/><path d="M689,445.7Z" transform="translate(-318.2 -276.2)" style="fill:#1c4b7b"/><path d="M712.1,482.4l1.3.9a7.6,7.6,0,0,0,4.9.9,3.5,3.5,0,0,0,1.4-.6,1.6,1.6,0,0,0,.4-2.3,2.9,2.9,0,0,0-1.5-1.4l-2.7-1.3a13.7,13.7,0,0,1-2-1.3,5.6,5.6,0,0,1-1.9-4.4,5.4,5.4,0,0,1,3.6-5.3,11.3,11.3,0,0,1,3.6-.6,15.4,15.4,0,0,1,4.3.5c.7.2.7.2.7.9v3.3c0,.1,0,.2-.1.2s-.1,0-.2-.1a7.7,7.7,0,0,0-3-1.1,5.3,5.3,0,0,0-2.8.1,2.4,2.4,0,0,0-1.3.7,1.7,1.7,0,0,0,0,2.1,4.3,4.3,0,0,0,1.9,1.4l3.1,1.6a7.8,7.8,0,0,1,2,1.6,4.7,4.7,0,0,1,1.1,2.6,8.7,8.7,0,0,1-.4,3.6,4.9,4.9,0,0,1-2.3,2.4,6.2,6.2,0,0,1-3,.9,14.5,14.5,0,0,1-5.5-.4l-1.5-.5a.4.4,0,0,1-.1-.3v-4.1Z" transform="translate(-318.2 -276.2)" style="fill:#fefefe"/><path d="M705,479.4v8c0,.1,0,.2-.2.2h-3.9c-.2,0-.2,0-.2-.2V471.5c0-.3-.1-.3-.3-.3h-4.9c-.2,0-.2-.1-.2-.2v-3.3c0-.2,0-.2.2-.2h14.7c.2,0,.2,0,.2.2v3.2c0,.2,0,.3-.2.3h-5c-.2,0-.2,0-.2.2Z" transform="translate(-318.2 -276.2)" style="fill:#fefefe"/><path d="M712.1,482.4H712a.1.1,0,0,1,.1.1Z" transform="translate(-318.2 -276.2)" style="fill:#d3e2f2"/></svg>