<svg id="Layer_1" data-name="Layer 1" xmlns="http://www.w3.org/2000/svg" viewBox="0 0 458.3 527.8"><path d="M41.9,119H76.6c.2.1.2.2.2.4s-.4,3.3-.5,5-.3,3-.4,4.5-.3,2.9-.5,4.4l-.3,3.7c-.1,1.2-.2,2.4-.4,3.6l-.3,3.6c-.1,1.3-.2,2.5-.4,3.8l-.3,3.6c0,.7-.1.8-.8,1l-9.7,2.5c-1.3.3-2.5.7-3.8.9h-.3c-3.6-.7-7.1-1.8-10.6-2.7l-3-.7a.8.8,0,0,1-.6-.8l-.3-2.6c-.1-1.5-.3-3-.4-4.5s-.3-2.5-.4-3.7l-.3-3.7c-.1-1.2-.3-2.4-.4-3.6s-.3-3-.4-4.6l-.3-3.5c-.2-1.3-.3-2.5-.4-3.8a19.5,19.5,0,0,1-.2-2.5A.4.4,0,0,1,41.9,119Z" transform="translate(-34.8 -74.5)" style="fill:#f51bfa"/><path d="M59.3,125.8H69.7c.3,0,.5.1.4.4l-.3,3.5a.3.3,0,0,1-.3.3H53.6c-.4,0-.5.1-.4.5l.3,3.3c0,.3.1.4.5.4H68.9c.5,0,.5,0,.4.5-.2,2.8-.5,5.7-.8,8.5l-.3,3.3a.3.3,0,0,1-.3.3l-8.4,2.2H59l-8.3-2.2c-.3,0-.3-.1-.4-.3-.1-2-.3-4-.5-6-.1-.3,0-.3.3-.3h3.7a.3.3,0,0,1,.3.3l.3,2.8c0,.2.1.3.4.4l4.2,1.1h.5l4.3-1.1a.8.8,0,0,0,.4-.4c.1-1.5.2-3.1.4-4.6s0-.4-.4-.4H50c-.4,0-.5-.1-.5-.4-.3-2.9-.5-5.8-.8-8.7l-.3-2.9c0-.3.1-.4.4-.4Z" transform="translate(-34.8 -74.5)" style="fill:#f9f9f9"/><path d="M57.3,534.4H79.4c.4,0,.4,0,.4.4s-.2,2.1-.3,3.1-.3,3-.4,4.5-.3,2.5-.4,3.7-.2,3.1-.4,4.6l-.3,3.7c-.1,1.5-.3,3-.4,4.5s-.2,2.5-.4,3.7-.2,3.1-.4,4.6l-.3,3.7-.3,3.8c-.2,1.3-.3,2.5-.4,3.8v.4c0,.4-.2.5-.5.6l-17.5,4.9a1.4,1.4,0,0,1-.9,0l-18-5a.4.4,0,0,1-.4-.4c-.1-1.9-.3-3.7-.5-5.5l-.3-4.8c-.2-1.6-.3-3.2-.5-4.8l-.3-4c-.1-1.6-.3-3.2-.4-4.8l-.3-3.9c-.2-1.6-.3-3.2-.4-4.9s-.2-2.6-.4-4-.2-3.1-.4-4.7-.1-2-.2-3,0-.2.1-.2.2,0,.3,0Z" transform="translate(-34.8 -74.5)" style="fill:#6915c5"/><path d="M57.4,574.9,51,573.2l-5.1-1.4c-.3,0-.3-.1-.4-.3-.2-2.7-.4-5.4-.7-8.1,0-.2,0-.3.3-.3a41.7,41.7,0,0,0,5,0,.3.3,0,0,1,.3.3c.1,1.2.3,2.4.4,3.6s.1.3.3.4l5.5,1.3h.7l.6-.2,4.9-.9c.5-.1.5-.1.6-.7l.6-5.7v-.6c.1-.2,0-.3-.2-.3h-.2c-4,.1-8-.1-12-.1h-7c-.3-1.6-.5-3.3-.8-4.9s.2-.3.3-.4l12.5-5.2.4-.3H43.9c-.2,0-.4,0-.4-.3s-.4-3.2-.7-4.8,0-.3.3-.3H70.6c.8,0,.8,0,.8.8v4.2c0,.5-.1.5-.5.7l-12.3,4.9H69.9c.3,0,.4.1.4.4s-.1,1-.1,1.5-.3,3.1-.4,4.7-.3,2.9-.4,4.4-.3,2.5-.4,3.8a12.3,12.3,0,0,1-.2,1.9c0,.3-.1.4-.4.5l-6.1,1.9-4.4,1.3C57.7,574.9,57.6,575,57.4,574.9Z" transform="translate(-34.8 -74.5)" style="fill:#fefefe"/><path d="M305.8,547c.2-.1.3,0,.4,0l19.6,7,5.6,2c.3.1.4.2.4.5s-.3,2.1-.4,3.2-.3,2.2-.4,3.3-.2,2.1-.4,3.2l-.3,3.2c-.2,1.1-.3,2.2-.4,3.3s-.3,2.1-.4,3.2l-.3,2.7c-.1,1.1-.3,2.2-.4,3.3a31.1,31.1,0,0,1-.4,3.2l-.3,3.3a7.8,7.8,0,0,0-.2,1.6.3.3,0,0,1-.3.3l-8.9,4.9-12.5,6.9c-.1.1-.2.2-.4.1V581.6c0-.6,0-.6.6-.6h6.2c.3,0,.3.2.4.4s.7,1.8,1.1,2.6l1.8,4.7a.5.5,0,0,0,.5.3h5.1c.3,0,.3,0,.2-.3l-1.5-3.4c-.8-1.7-1.5-3.4-2.3-5s-1.4-3.3-2.2-4.9l-2.4-5.5-2-4.4-2.4-5.4c-.7-1.7-1.5-3.3-2.2-5a12.1,12.1,0,0,1-.9-2V547Z" transform="translate(-34.8 -74.5)" style="fill:#6915c5"/><path d="M312.7,581.1h-6.4c-.3,0-.4.1-.4.4v20.3a.6.6,0,0,1-.1.4c-1.4-.8-2.8-1.6-4.3-2.3l-17.2-9.6a.8.8,0,0,1-.4-.4L283,582l-.9-8.3-.9-7.7-.9-7.8-.3-1.9c0-.2.1-.2.3-.2l7.2-2.6,18.1-6.4h.2c.1.1.1.2.1.4v5.3a.6.6,0,0,0,.1.4,18.9,18.9,0,0,1-.9,2.1c-.7,1.7-1.5,3.4-2.3,5.1l-2.1,4.6c-.5,1.3-1.1,2.6-1.7,3.9l-1.8,4-1.8,3.9-1.5,3.5-2.3,5.1-1.5,3.4c-.2.3-.2.3.1.3h5.1a.5.5,0,0,0,.5-.3c1-2.4,2-4.8,2.9-7.2.2-.5.3-.6.8-.6h12.8C312.4,580.9,312.7,580.9,312.7,581.1Z" transform="translate(-34.8 -74.5)" style="fill:#6915c5"/><path d="M312.7,581.1c-.1-.1-.2,0-.3,0H299.3c-.2,0-.3,0-.4.2l-3,7.6c-.1.2-.2.3-.4.3-1.8-.1-3.6,0-5.4,0h-.3l.9-2.1,15-33.6.3-.3a30.9,30.9,0,0,0,1.4,3.2c4.8,10.9,9.6,21.7,14.5,32.5h0c.1.2.1.3-.2.3s-2.6,0-3.9,0a7.5,7.5,0,0,0-1.5,0c-.2,0-.3-.1-.4-.3l-3-7.5Z" transform="translate(-34.8 -74.5)" style="fill:#fefefe"/><path d="M305.9,576.1h-4.7c0-.1.1-.2.1-.3l4.5-10.7c0-.1,0-.2.1-.2h.1a13.4,13.4,0,0,1,0,2v8.7A.5.5,0,0,1,305.9,576.1Z" transform="translate(-34.8 -74.5)" style="fill:#6915c5"/><path d="M305.9,576.1V565.3a.6.6,0,0,1,.1-.4l2.1,5.1,2.4,5.7c0,.1.1.2.1.4Z" transform="translate(-34.8 -74.5)" style="fill:#6915c5"/><path d="M446.8,123.6V75.3l.7-.8h45.3c.3,0,.2-.1.2.3v49.6H447.5Z" transform="translate(-34.8 -74.5)" style="fill:#f51bfa"/><path d="M480.7,119.5a8.8,8.8,0,0,1-5.2-1.5,8,8,0,0,1-2.7-3.1c-.1-.2-.1-.2.1-.3l3.2-2h.3a4.8,4.8,0,0,0,1.2,1.6,4.4,4.4,0,0,0,4.6.8,2,2,0,0,0,1.3-1.4,2.2,2.2,0,0,0-.7-2.4l-1.4-.8-3.2-1.5a10.4,10.4,0,0,1-2.4-1.7,6.8,6.8,0,0,1-1.8-4.9,5.8,5.8,0,0,1,4.6-5.9,7.8,7.8,0,0,1,5,.3,6.7,6.7,0,0,1,3.1,3.1c0,.1,0,.1-.1.2l-3.2,2.1c-.1.1-.1.1-.2,0a2.8,2.8,0,0,0-.8-1.1,2.6,2.6,0,0,0-2.9-.6,2.1,2.1,0,0,0-.7,3.3l1.1.8,2.8,1.3a10.3,10.3,0,0,1,3.1,2,5.9,5.9,0,0,1,2.2,4.5,7.2,7.2,0,0,1-.7,3.8,6.3,6.3,0,0,1-3.5,2.9A10.6,10.6,0,0,1,480.7,119.5Z" transform="translate(-34.8 -74.5)" style="fill:#fff"/><path d="M470.3,104.9v8.2a8.2,8.2,0,0,1-.7,3.1,5.2,5.2,0,0,1-3.2,2.8,7.7,7.7,0,0,1-5.4,0,6.3,6.3,0,0,1-3.8-3.7c-.1-.1-.1-.1,0-.2l3.3-2.1h.3a5.7,5.7,0,0,0,.8,1.3,2.6,2.6,0,0,0,3.2.7,2,2,0,0,0,1-1.6,4.9,4.9,0,0,0,.1-1.2V96.7c0-.4,0-.3.3-.3h3.9c.2,0,.2.1.2.3v8.2Z" transform="translate(-34.8 -74.5)" style="fill:#fff"/><path d="M213.9,201.6V168.4a3.1,3.1,0,0,1,.9-1.8,3.6,3.6,0,0,1,1.4-1h32.3a2.7,2.7,0,0,1,2.1.9,3.4,3.4,0,0,1,1,1.6c.1.2.1.5.2.8h0v32.8c-.1.1-.1.2-.1.4a3.3,3.3,0,0,1-1.2,2.1,4.1,4.1,0,0,1-1.1.7H216.7a2.8,2.8,0,0,1-1.7-.9,3.9,3.9,0,0,1-1-1.6,1.7,1.7,0,0,1-.1-.7Z" transform="translate(-34.8 -74.5)" style="fill:#f51bfa"/><path d="M217.1,165.5h0Z" transform="translate(-34.8 -74.5)" style="fill:#1c4b7b"/><path d="M237.3,197l1.2.8a6.4,6.4,0,0,0,4.3.7,2.8,2.8,0,0,0,1.2-.4,1.6,1.6,0,0,0,.4-2.1,5.3,5.3,0,0,0-1.4-1.2l-2.3-1.1a8.7,8.7,0,0,1-1.8-1.1,4.9,4.9,0,0,1-1.7-3.8,4.8,4.8,0,0,1,3.2-4.5,8.6,8.6,0,0,1,3.2-.5,12.6,12.6,0,0,1,3.8.4c.5.2.5.2.5.8v3h-.2a7.9,7.9,0,0,0-2.7-1,6.5,6.5,0,0,0-2.4.1,1.9,1.9,0,0,0-1.1.7,1.4,1.4,0,0,0-.1,1.7,5.2,5.2,0,0,0,1.7,1.3l2.8,1.3a7.5,7.5,0,0,1,1.7,1.4,4.3,4.3,0,0,1,.9,2.3,6.2,6.2,0,0,1-.3,3,3.8,3.8,0,0,1-2,2.1,6.1,6.1,0,0,1-2.6.8,11.5,11.5,0,0,1-4.9-.4l-1.2-.4c-.1-.1-.2-.1-.2-.3V197Z" transform="translate(-34.8 -74.5)" style="fill:#fefefe"/><path d="M231.1,194.4v6.9c0,.1,0,.2-.2.2h-3.4l-.2-.2V187.6c0-.2,0-.2-.2-.2h-4.3c-.2,0-.2-.1-.2-.2v-2.8c0-.2,0-.2.2-.2h12.9c.1,0,.2,0,.2.2a13.1,13.1,0,0,0,0,2.8.2.2,0,0,1-.2.2h-4.4c-.2,0-.2,0-.2.2Z" transform="translate(-34.8 -74.5)" style="fill:#fefefe"/><path d="M237.3,197Z" transform="translate(-34.8 -74.5)" style="fill:#d3e2f2"/></svg>