<svg id="Layer_1" data-name="Layer 1" xmlns="http://www.w3.org/2000/svg" xmlns:xlink="http://www.w3.org/1999/xlink" viewBox="0 0 527 678"><defs><clipPath id="clip-path"><rect x="0.1" width="526.7" height="678" style="fill:none"/></clipPath><linearGradient id="linear-gradient" x1="269.37" y1="-10.63" x2="269.37" y2="693.14" gradientUnits="userSpaceOnUse"><stop offset="0" stop-color="#6915c5"/><stop offset="0.16" stop-color="#6c15c6"/><stop offset="0.28" stop-color="#7517c9"/><stop offset="0.38" stop-color="#8519ce"/><stop offset="0.45" stop-color="#951cd4"/><stop offset="0.67" stop-color="#b821e0"/><stop offset="0.69" stop-color="#c620e6"/><stop offset="0.75" stop-color="#db1eef"/><stop offset="0.81" stop-color="#ea1cf5"/><stop offset="0.89" stop-color="#f21bf9"/><stop offset="1" stop-color="#f51bfa"/></linearGradient><linearGradient id="linear-gradient-2" x1="256.99" y1="568.92" x2="256.99" y2="817.36" gradientUnits="userSpaceOnUse"><stop offset="0" stop-color="#f41bf9"/><stop offset="1" stop-color="#f51bfa"/></linearGradient></defs><g style="clip-path:url(#clip-path)"><rect x="-8.5" y="-10.6" width="555.8" height="703.77" style="fill:url(#linear-gradient)"/><text transform="matrix(0.96, 0.06, -0.07, 1, 277.53, 441.36)" style="font-size:92.03669738769531px;fill:#ee32fc;font-family:Mistral">CODER</text><text transform="matrix(1.5, -0.09, 0.08, 1, 225.3, 512.53)" style="font-size:84.42554473876953px;fill:#f630fc;font-family:Mistral">FIGGET</text><text transform="matrix(1.68, 0.1, -0.07, 1, -49.33, 512.53)" style="font-size:173.21261596679688px;fill:#f426fa;font-family:Mistral">X</text><text transform="matrix(1.4, 0.08, -0.07, 1, 289.99, 651.26)" style="font-size:90.79641723632812px;fill:#f426fa;font-family:Mistral">O</text><text transform="matrix(1.39, 0.08, -0.07, 1, 426.63, 570.47)" style="font-size:92.03668975830078px;fill:#f630fc;font-family:Mistral">IN</text><text transform="matrix(1.95, -0.74, 0.42, 0.91, 159.47, 606.56)" style="font-size:133.6049346923828px;fill:#f426fa;font-family:Mistral">T</text><text transform="matrix(0.96, 0.06, -0.07, 1, 208.9, 555.18)" style="font-size:92.03669738769531px;fill:#f630fc;font-family:Mistral">CODER</text><text transform="matrix(0.96, 0.06, -0.07, 1, 244.15, 606.56)" style="font-size:92.03669738769531px;fill:#f426fa;font-family:Mistral">CODER</text><text transform="matrix(1.21, -0.68, 0.57, 0.82, 66.26, 513.59)" style="font-size:107.86959838867188px;fill:#f426fa;stroke:#f426fa;stroke-miterlimit:10;stroke-width:3px;font-family:Mistral">R</text><text transform="matrix(1.67, 0.1, -0.07, 1, 0.13, 561.71)" style="font-size:89.11219787597656px;fill:#f426fa;font-family:Mistral">S</text><text transform="matrix(1.4, 0.08, -0.07, 1, 208.9, 473.49)" style="font-size:90.79641723632812px;fill:#f426fa;font-family:Mistral">O</text><text transform="matrix(1.4, 0.08, -0.07, 1, 159.46, 512.53)" style="font-size:90.79641723632812px;fill:#f426fa;font-family:Mistral">D</text><text transform="matrix(-0.26, -0.72, 0.96, -0.28, 188.61, 443.31)" style="font-size:162.0452117919922px;fill:#f426fa;font-family:Mistral">I</text><text transform="matrix(1, -0.25, 0.3, 0.96, 143.1, 522.55)" style="font-size:130.51535034179688px;fill:#f426fa;font-family:Mistral">I</text><text transform="matrix(1.82, -0.11, 0.08, 1, 91.35, 544.58)" style="font-size:99.56690979003906px;fill:#f426fa;font-family:Mistral">T</text><ellipse cx="257" cy="693.1" rx="180.5" ry="124.2" style="fill:url(#linear-gradient-2)"/><text transform="matrix(1.25, 0.07, -0.07, 1, 38.46, 561.71)" style="font-size:90.79641723632812px;fill:#f426fa;font-family:Mistral">O</text><text transform="matrix(1.25, 0.07, -0.07, 1, 26.18, 646.02)" style="font-size:90.79641723632812px;fill:#f426fa;font-family:Mistral">0</text><text transform="matrix(0.33, -1.31, 0.98, 0.2, 43.89, 633.25)" style="font-size:112.23934173583984px;fill:#f426fa;font-family:Mistral">M</text><text transform="matrix(1.17, -0.66, 0.57, 0.82, 76.51, 624.89)" style="font-size:109.43515014648438px;fill:#f426fa;font-family:Mistral">R</text><text transform="matrix(1.99, 0.7, -0.39, 0.92, 117.75, 612.97)" style="font-size:73.60462951660156px;fill:#f426fa;font-family:Mistral">A</text><text transform="matrix(1.17, -0.66, 0.57, 0.82, 132.15, 614.23)" style="font-size:109.43515014648438px;fill:#f426fa;font-family:Mistral">Z</text><text transform="matrix(1.7, 0.1, -0.07, 1, 53.87, 656.02)" style="font-size:77.89529418945312px;fill:#f426fa;stroke:#f426fa;stroke-miterlimit:10;stroke-width:19px;font-family:Mistral">X</text><text transform="matrix(-0.26, -0.71, 0.96, -0.28, 162.35, 624.89)" style="font-size:73.80452728271484px;fill:#f426fa;stroke:#f426fa;stroke-miterlimit:10;stroke-width:19px;font-family:Mistral">I</text><text transform="matrix(0.33, -1.29, 0.98, 0.2, 96.37, 710.3)" style="font-size:51.14636993408203px;fill:#f426fa;stroke:#f426fa;stroke-miterlimit:10;stroke-width:19px;font-family:Mistral">M</text><text transform="matrix(1.18, -0.66, 0.57, 0.82, 111.24, 706.54)" style="font-size:49.43233871459961px;fill:#f426fa;stroke:#f426fa;stroke-miterlimit:10;stroke-width:19px;font-family:Mistral">R</text><text transform="matrix(1.18, -0.66, 0.57, 0.82, 136.61, 701.75)" style="font-size:49.43233871459961px;fill:#f426fa;stroke:#f426fa;stroke-miterlimit:10;stroke-width:19px;font-family:Mistral">Z</text><text transform="matrix(1.7, 0.1, -0.07, 1, 191, 586.31)" style="font-size:77.89529418945312px;fill:#f426fa;stroke:#f426fa;stroke-miterlimit:10;stroke-width:0.5px;font-family:Mistral">X</text><text transform="matrix(-0.26, -0.71, 0.96, -0.28, 299.49, 555.18)" style="font-size:73.80452728271484px;fill:#f426fa;stroke:#f426fa;stroke-miterlimit:10;stroke-width:0.5px;font-family:Mistral">I</text><text transform="matrix(0.33, -1.29, 0.98, 0.2, 233.51, 640.59)" style="font-size:51.14636993408203px;fill:#f426fa;stroke:#f426fa;stroke-miterlimit:10;stroke-width:0.5px;font-family:Mistral">M</text><text transform="matrix(1.18, -0.66, 0.57, 0.82, 248.38, 636.84)" style="font-size:49.43233871459961px;fill:#f426fa;stroke:#f426fa;stroke-miterlimit:10;stroke-width:0.5px;font-family:Mistral">R</text><text transform="matrix(1.18, -0.66, 0.57, 0.82, 273.74, 632.04)" style="font-size:49.43233871459961px;fill:#f426fa;stroke:#f426fa;stroke-miterlimit:10;stroke-width:0.5px;font-family:Mistral">Z</text><text transform="matrix(1.7, 0.1, -0.07, 1, 306.37, 620.26)" style="font-size:77.89529418945312px;fill:#f426fa;stroke:#f426fa;stroke-miterlimit:10;stroke-width:19px;font-family:Mistral">X</text><text transform="matrix(-0.26, -0.71, 0.96, -0.28, 414.86, 589.13)" style="font-size:73.80452728271484px;fill:#f426fa;stroke:#f426fa;stroke-miterlimit:10;stroke-width:19px;font-family:Mistral">I</text><text transform="matrix(0.33, -1.29, 0.98, 0.2, 348.87, 674.54)" style="font-size:51.14636993408203px;fill:#f426fa;stroke:#f426fa;stroke-miterlimit:10;stroke-width:19px;font-family:Mistral">M</text><text transform="matrix(1.18, -0.66, 0.57, 0.82, 363.75, 670.79)" style="font-size:49.43233871459961px;fill:#f426fa;stroke:#f426fa;stroke-miterlimit:10;stroke-width:19px;font-family:Mistral">R</text><text transform="matrix(1.18, -0.66, 0.57, 0.82, 389.11, 665.99)" style="font-size:49.43233871459961px;fill:#f426fa;stroke:#f426fa;stroke-miterlimit:10;stroke-width:19px;font-family:Mistral">Z</text><text transform="matrix(1.7, 0.1, -0.07, 1, 340.64, 639.69)" style="font-size:77.89529418945312px;fill:#f426fa;stroke:#f426fa;stroke-miterlimit:10;stroke-width:19px;font-family:Mistral">X</text><text transform="matrix(-0.26, -0.71, 0.96, -0.28, 449.12, 608.56)" style="font-size:73.80452728271484px;fill:#f426fa;stroke:#f426fa;stroke-miterlimit:10;stroke-width:19px;font-family:Mistral">I</text><text transform="matrix(0.33, -1.29, 0.98, 0.2, 383.14, 693.97)" style="font-size:51.14636993408203px;fill:#f426fa;stroke:#f426fa;stroke-miterlimit:10;stroke-width:19px;font-family:Mistral">M</text><text transform="matrix(1.18, -0.66, 0.57, 0.82, 398.01, 690.21)" style="font-size:49.43233871459961px;fill:#f426fa;stroke:#f426fa;stroke-miterlimit:10;stroke-width:19px;font-family:Mistral">R</text><text transform="matrix(1.18, -0.66, 0.57, 0.82, 423.38, 685.42)" style="font-size:49.43233871459961px;fill:#f426fa;stroke:#f426fa;stroke-miterlimit:10;stroke-width:19px;font-family:Mistral">Z</text><text transform="matrix(1.7, 0.1, -0.07, 1, 405.23, 620.26)" style="font-size:77.89529418945312px;fill:#f426fa;stroke:#f426fa;stroke-miterlimit:10;stroke-width:0.75px;font-family:Mistral">X</text><text transform="matrix(-0.26, -0.71, 0.96, -0.28, 513.72, 589.13)" style="font-size:73.80452728271484px;fill:#f426fa;stroke:#f426fa;stroke-miterlimit:10;stroke-width:0.75px;font-family:Mistral">I</text><text transform="matrix(0.33, -1.29, 0.98, 0.2, 447.73, 674.54)" style="font-size:51.14636993408203px;fill:#f426fa;stroke:#f426fa;stroke-miterlimit:10;stroke-width:0.75px;font-family:Mistral">M</text><text transform="matrix(1.18, -0.66, 0.57, 0.82, 462.61, 670.79)" style="font-size:49.43233871459961px;fill:#f426fa;stroke:#f426fa;stroke-miterlimit:10;stroke-width:0.75px;font-family:Mistral">R</text><text transform="matrix(1.18, -0.66, 0.57, 0.82, 487.97, 665.99)" style="font-size:49.43233871459961px;fill:#f426fa;stroke:#f426fa;stroke-miterlimit:10;stroke-width:0.75px;font-family:Mistral">Z</text><text transform="matrix(2.93, 0.17, -0.07, 1, 450.53, 623.27)" style="font-size:66.27071380615234px;fill:#f630fc;font-family:Mistral">S</text><text transform="matrix(-0.26, -0.63, 0.97, -0.24, 507.29, 616.39)" style="font-size:135.59051513671875px;fill:#f426fa;font-family:Mistral">I</text><text transform="matrix(1.15, -0.25, 0.34, 0.94, 468.8, 673.85)" style="font-size:96.12788391113281px;fill:#f426fa;font-family:Mistral">I</text></g></svg>