<svg id="Layer_1" data-name="Layer 1" xmlns="http://www.w3.org/2000/svg" xmlns:xlink="http://www.w3.org/1999/xlink" viewBox="0 0 167.1 69"><defs><style>.cls-1{fill:url(#linear-gradient);}.cls-2{fill:url(#linear-gradient-2);}.cls-3{fill:none;}.cls-4{fill:url(#linear-gradient-3);}.cls-5{fill:url(#linear-gradient-4);}.cls-6{fill:url(#linear-gradient-5);}.cls-7{fill:url(#linear-gradient-6);}.cls-8{fill:url(#linear-gradient-7);}.cls-9{fill:url(#linear-gradient-8);}.cls-10{fill:url(#linear-gradient-9);}</style><linearGradient id="linear-gradient" x1="820.17" y1="332.25" x2="817.48" y2="301.48" gradientUnits="userSpaceOnUse"><stop offset="0.01" stop-color="#fff"/><stop offset="0.25" stop-color="#f9f9f9"/><stop offset="0.39" stop-color="#f2f2f2"/><stop offset="0.53" stop-color="#ededed"/><stop offset="0.69" stop-color="#dedede"/><stop offset="0.87" stop-color="#c6c6c6"/><stop offset="1" stop-color="#b0b0b0"/></linearGradient><linearGradient id="linear-gradient-2" x1="786.67" y1="294.16" x2="825.65" y2="294.16" gradientUnits="userSpaceOnUse"><stop offset="0.01" stop-color="#4795ff"/><stop offset="0.18" stop-color="#4390f9"/><stop offset="0.39" stop-color="#3b83e9"/><stop offset="0.59" stop-color="#3781e4"/><stop offset="0.84" stop-color="#2c7ad5"/><stop offset="1" stop-color="#2274c8"/></linearGradient><linearGradient id="linear-gradient-3" x1="798.11" y1="302" x2="812" y2="302" gradientUnits="userSpaceOnUse"><stop offset="0.01" stop-color="#29abe2"/><stop offset="0.39" stop-color="#29abe2"/><stop offset="0.54" stop-color="#28a6e0"/><stop offset="0.73" stop-color="#2697d9"/><stop offset="0.92" stop-color="#237fcd"/><stop offset="1" stop-color="#2274c8"/></linearGradient><linearGradient id="linear-gradient-4" x1="860" y1="298.06" x2="864" y2="298.06" gradientUnits="userSpaceOnUse"><stop offset="0.01" stop-color="#999"/><stop offset="0.45" stop-color="#adadad"/><stop offset="1" stop-color="#ccc"/></linearGradient><linearGradient id="linear-gradient-5" x1="856" y1="298.8" x2="860" y2="298.8" xlink:href="#linear-gradient-4"/><linearGradient id="linear-gradient-6" x1="864" y1="292.81" x2="868" y2="292.81" xlink:href="#linear-gradient-4"/><linearGradient id="linear-gradient-7" x1="758.33" y1="307" x2="761.67" y2="307" xlink:href="#linear-gradient-4"/><linearGradient id="linear-gradient-8" x1="755" y1="307.55" x2="758.33" y2="307.55" xlink:href="#linear-gradient-4"/><linearGradient id="linear-gradient-9" x1="761.67" y1="303.16" x2="765" y2="303.16" xlink:href="#linear-gradient-4"/></defs><title>not-found</title><path class="cls-1" d="M743,339s-16-12,0-21,43-16,81-16,73,13,79,18" transform="translate(-735.9 -270)"/><path class="cls-2" d="M824.9,317.6a2,2,0,0,0,.4-2.7c-1.3-2.2-4.3-7.1-4.3-7.9s-1-13,0-20c0,0,1-10-1-12a11.1,11.1,0,0,0-9-5h-2.2a15.1,15.1,0,0,0-9.2,3,11.5,11.5,0,0,0-4.3,6.4,12.4,12.4,0,0,0-.3,2.7v11.6a.3.3,0,0,1-.3.3h-6.8c-.4.4-2.6,2.2.1,4,0,0,4.7.9,6.8,1a.2.2,0,0,1,.2.2c.2,1.8,1.3,15,5,18.8h0c.5.2,4.8,1.6,3.1-3.8-.1-.1,0-.2.1-.3A2.1,2.1,0,0,1,806,315a3.6,3.6,0,0,0,2,3,2.2,2.2,0,0,0,3-.9V315c0-1,1-2,2,0,0,0,1,3,3,3h1.7c1.3-.9.3-2.8.3-2.8s0-2,2,0C820,315,822.8,319.3,824.9,317.6Z" transform="translate(-735.9 -270)"/><path class="cls-3" d="M1254,469" transform="translate(-735.9 -270)"/><path d="M809.3,284.5a1.2,1.2,0,0,1,.6,1.3c-.2,1.4-1,3.7-3.9,2.2a5.3,5.3,0,0,1-3.1-5.1,1.2,1.2,0,0,1,2.1-.9h0a2,2,0,0,0,2,2A6.1,6.1,0,0,1,809.3,284.5Z" transform="translate(-735.9 -270)"/><path d="M797.2,285.2a.8.8,0,0,0-.1,1c.5.9,1.6,2.3,3.1.6a4,4,0,0,0,.6-4.3.9.9,0,0,0-1.6-.2h0s.6,1.4-.7,1.9A2.3,2.3,0,0,0,797.2,285.2Z" transform="translate(-735.9 -270)"/><ellipse cx="67.1" cy="21" rx="2" ry="3"/><path class="cls-4" d="M812,303h-3.8a1.2,1.2,0,0,1-1.2-1.2v-2.1a1.8,1.8,0,0,0-1.7-1.7h-5.2a1.9,1.9,0,0,0-2,1.6c-.1.5.1,1,.9,1.4h4.3a1.8,1.8,0,0,1,1.7,1.7V304a2,2,0,0,0,2,2h5" transform="translate(-735.9 -270)"/><path class="cls-5" d="M860,288v21h4V288A2.8,2.8,0,0,0,860,288Z" transform="translate(-735.9 -270)"/><path class="cls-6" d="M859,294v7s0,1.5,1,1v2.5s-3,.5-4-3.5v-7S857,292,859,294Z" transform="translate(-735.9 -270)"/><path class="cls-7" d="M865,288v6s0,1.6-1,1.3v2.8s4-.1,4-4.1v-6S866,287,865,288Z" transform="translate(-735.9 -270)"/><path class="cls-8" d="M758.3,299.6V315h3.4V299.6A2.7,2.7,0,0,0,758.3,299.6Z" transform="translate(-735.9 -270)"/><path class="cls-9" d="M757.5,304v5.2s0,1,.8.7v1.8a3,3,0,0,1-3.3-2.5V304S755.8,302.6,757.5,304Z" transform="translate(-735.9 -270)"/><path class="cls-10" d="M762.5,299.6V304s0,1.2-.8,1v2s3.3,0,3.3-3v-4.4S763.3,298.9,762.5,299.6Z" transform="translate(-735.9 -270)"/></svg>